<?xml version="1.0" encoding="UTF-8"?>
<svg xmlns="http://www.w3.org/2000/svg" xmlns:xlink="http://www.w3.org/1999/xlink" width="1920" height="1080" viewBox="0 0 1920 1080">
<defs>
<g>
<g id="glyph-0-0">
<path d="M 0.046875 0 L 1.554688 -2.152344 L 0.109375 -4.175781 L 1.460938 -4.175781 L 2.199219 -3.027344 L 2.976562 -4.175781 L 4.277344 -4.175781 L 2.859375 -2.199219 L 4.40625 0 L 3.046875 0 L 2.199219 -1.292969 L 1.339844 0 Z "/>
</g>
<g id="glyph-0-1">
</g>
<g id="glyph-0-2">
<path d="M 1.84375 -0.828125 L 1.84375 -2.328125 L 0.335938 -2.328125 L 0.335938 -3.363281 L 1.84375 -3.363281 L 1.84375 -4.863281 L 2.851562 -4.863281 L 2.851562 -3.363281 L 4.367188 -3.363281 L 4.367188 -2.328125 L 2.851562 -2.328125 L 2.851562 -0.828125 Z "/>
</g>
<g id="glyph-0-3">
<path d="M 4.074219 -1.027344 L 4.074219 0 L 0.199219 0 C 0.242188 -0.386719 0.367188 -0.757812 0.578125 -1.101562 C 0.789062 -1.449219 1.203125 -1.910156 1.820312 -2.484375 C 2.320312 -2.949219 2.625 -3.265625 2.738281 -3.429688 C 2.890625 -3.660156 2.964844 -3.882812 2.964844 -4.105469 C 2.964844 -4.351562 2.898438 -4.542969 2.765625 -4.675781 C 2.636719 -4.808594 2.453125 -4.875 2.21875 -4.875 C 1.988281 -4.875 1.804688 -4.804688 1.667969 -4.664062 C 1.53125 -4.527344 1.453125 -4.296875 1.433594 -3.972656 L 0.332031 -4.082031 C 0.394531 -4.691406 0.601562 -5.128906 0.949219 -5.394531 C 1.292969 -5.65625 1.726562 -5.789062 2.246094 -5.789062 C 2.816406 -5.789062 3.261719 -5.636719 3.585938 -5.328125 C 3.914062 -5.023438 4.074219 -4.640625 4.074219 -4.183594 C 4.074219 -3.925781 4.027344 -3.679688 3.9375 -3.445312 C 3.84375 -3.210938 3.695312 -2.964844 3.492188 -2.707031 C 3.359375 -2.535156 3.117188 -2.289062 2.769531 -1.972656 C 2.421875 -1.652344 2.199219 -1.4375 2.105469 -1.332031 C 2.011719 -1.230469 1.9375 -1.125 1.878906 -1.027344 Z "/>
</g>
<g id="glyph-0-4">
<path d="M 0.0546875 -4.175781 L 1.230469 -4.175781 L 2.230469 -1.210938 L 3.207031 -4.175781 L 4.351562 -4.175781 L 2.875 -0.15625 L 2.613281 0.570312 C 2.515625 0.8125 2.421875 1 2.335938 1.128906 C 2.246094 1.257812 2.144531 1.363281 2.03125 1.441406 C 1.917969 1.523438 1.777344 1.582031 1.609375 1.628906 C 1.445312 1.671875 1.257812 1.695312 1.046875 1.695312 C 0.832031 1.695312 0.625 1.671875 0.421875 1.628906 L 0.324219 0.761719 C 0.496094 0.796875 0.652344 0.8125 0.789062 0.8125 C 1.046875 0.8125 1.238281 0.738281 1.359375 0.589844 C 1.484375 0.4375 1.578125 0.246094 1.644531 0.0117188 Z "/>
</g>
<g id="glyph-0-5">
<path d="M 0.335938 -3.210938 L 0.335938 -4.226562 L 4.367188 -4.226562 L 4.367188 -3.210938 L 0.335938 -3.210938 M 0.335938 -1.464844 L 0.335938 -2.480469 L 4.367188 -2.480469 L 4.367188 -1.464844 Z "/>
</g>
<g id="glyph-0-6">
<path d="M 2.507812 0 L 2.507812 -1.160156 L 0.148438 -1.160156 L 0.148438 -2.128906 L 2.652344 -5.789062 L 3.578125 -5.789062 L 3.578125 -2.132812 L 4.296875 -2.132812 L 4.296875 -1.160156 L 3.578125 -1.160156 L 3.578125 0 L 2.507812 0 M 2.507812 -2.132812 L 2.507812 -4.101562 L 1.183594 -2.132812 Z "/>
</g>
</g>
</defs>
<g fill="rgb(87.843137%, 94.901961%, 99.607843%)" fill-opacity="1">
<use xlink:href="#glyph-0-0" x="30" y="27.292969"/>
<use xlink:href="#glyph-0-1" x="34" y="27.292969"/>
<use xlink:href="#glyph-0-2" x="36" y="27.292969"/>
<use xlink:href="#glyph-0-1" x="41" y="27.292969"/>
<use xlink:href="#glyph-0-3" x="43" y="27.292969"/>
<use xlink:href="#glyph-0-4" x="47" y="27.292969"/>
<use xlink:href="#glyph-0-1" x="51" y="27.292969"/>
<use xlink:href="#glyph-0-5" x="53" y="27.292969"/>
<use xlink:href="#glyph-0-1" x="58" y="27.292969"/>
<use xlink:href="#glyph-0-6" x="60" y="27.292969"/>
</g>
</svg>
