<?xml version="1.0" encoding="UTF-8"?>
<svg xmlns="http://www.w3.org/2000/svg" xmlns:xlink="http://www.w3.org/1999/xlink" width="1920" height="1080" viewBox="0 0 1920 1080">
<defs>
<g>
<g id="glyph-0-0">
<path d="M 7.734375 -8.167969 L 4.921875 0 L 2.835938 0 L 0.0585938 -8.167969 L 2.039062 -8.167969 L 3.742188 -2.484375 C 3.832031 -2.175781 3.890625 -1.90625 3.90625 -1.667969 L 3.941406 -1.667969 C 3.96875 -1.921875 4.027344 -2.203125 4.117188 -2.507812 L 5.8125 -8.167969 Z "/>
</g>
<g id="glyph-0-1">
<path d="M 1.667969 -6.757812 C 1.367188 -6.757812 1.117188 -6.847656 0.921875 -7.027344 C 0.730469 -7.207031 0.632812 -7.429688 0.632812 -7.691406 C 0.632812 -7.960938 0.730469 -8.179688 0.921875 -8.351562 C 1.117188 -8.523438 1.367188 -8.609375 1.667969 -8.609375 C 1.976562 -8.609375 2.226562 -8.523438 2.417969 -8.351562 C 2.609375 -8.179688 2.707031 -7.960938 2.707031 -7.691406 C 2.707031 -7.417969 2.609375 -7.191406 2.417969 -7.019531 C 2.226562 -6.84375 1.976562 -6.757812 1.667969 -6.757812 M 2.558594 0 L 0.757812 0 L 0.757812 -5.832031 L 2.558594 -5.832031 Z "/>
</g>
<g id="glyph-0-2">
<path d="M 6.464844 0 L 4.664062 0 L 4.664062 -0.804688 L 4.644531 -0.804688 C 4.234375 -0.171875 3.628906 0.140625 2.835938 0.140625 C 2.109375 0.140625 1.519531 -0.113281 1.078125 -0.628906 C 0.632812 -1.144531 0.410156 -1.863281 0.410156 -2.785156 C 0.410156 -3.75 0.65625 -4.523438 1.144531 -5.105469 C 1.636719 -5.683594 2.277344 -5.976562 3.070312 -5.976562 C 3.824219 -5.976562 4.347656 -5.707031 4.644531 -5.167969 L 4.664062 -5.167969 L 4.664062 -8.636719 L 6.464844 -8.636719 L 6.464844 0 M 4.699219 -2.835938 L 4.699219 -3.277344 C 4.699219 -3.65625 4.589844 -3.96875 4.371094 -4.222656 C 4.148438 -4.472656 3.863281 -4.597656 3.507812 -4.597656 C 3.109375 -4.597656 2.800781 -4.441406 2.574219 -4.128906 C 2.351562 -3.8125 2.238281 -3.382812 2.238281 -2.835938 C 2.238281 -2.324219 2.347656 -1.929688 2.5625 -1.652344 C 2.78125 -1.375 3.078125 -1.234375 3.464844 -1.234375 C 3.828125 -1.234375 4.125 -1.382812 4.355469 -1.675781 C 4.585938 -1.96875 4.699219 -2.355469 4.699219 -2.835938 Z "/>
</g>
<g id="glyph-0-3">
<path d="M 6 -2.402344 L 2.191406 -2.402344 C 2.253906 -1.558594 2.789062 -1.132812 3.792969 -1.132812 C 4.4375 -1.132812 5 -1.285156 5.484375 -1.589844 L 5.484375 -0.289062 C 4.945312 0 4.246094 0.140625 3.382812 0.140625 C 2.441406 0.140625 1.710938 -0.117188 1.191406 -0.640625 C 0.671875 -1.164062 0.410156 -1.890625 0.410156 -2.824219 C 0.410156 -3.792969 0.691406 -4.5625 1.253906 -5.125 C 1.816406 -5.691406 2.507812 -5.976562 3.328125 -5.976562 C 4.175781 -5.976562 4.835938 -5.722656 5.300781 -5.21875 C 5.765625 -4.714844 6 -4.027344 6 -3.160156 L 6 -2.402344 M 4.328125 -3.507812 C 4.328125 -4.34375 3.992188 -4.761719 3.316406 -4.761719 C 3.027344 -4.761719 2.777344 -4.644531 2.566406 -4.402344 C 2.355469 -4.164062 2.226562 -3.867188 2.183594 -3.507812 Z "/>
</g>
<g id="glyph-0-4">
<path d="M 3.539062 0.140625 C 2.566406 0.140625 1.800781 -0.128906 1.246094 -0.675781 C 0.6875 -1.21875 0.410156 -1.960938 0.410156 -2.894531 C 0.410156 -3.859375 0.699219 -4.613281 1.277344 -5.160156 C 1.851562 -5.703125 2.632812 -5.976562 3.617188 -5.976562 C 4.585938 -5.976562 5.34375 -5.703125 5.894531 -5.160156 C 6.445312 -4.613281 6.722656 -3.894531 6.722656 -2.996094 C 6.722656 -2.027344 6.4375 -1.261719 5.871094 -0.699219 C 5.300781 -0.136719 4.523438 0.140625 3.539062 0.140625 M 3.582031 -4.597656 C 3.15625 -4.597656 2.828125 -4.449219 2.59375 -4.160156 C 2.355469 -3.867188 2.238281 -3.453125 2.238281 -2.917969 C 2.238281 -1.796875 2.691406 -1.234375 3.59375 -1.234375 C 4.457031 -1.234375 4.886719 -1.8125 4.886719 -2.960938 C 4.886719 -4.050781 4.453125 -4.597656 3.582031 -4.597656 Z "/>
</g>
<g id="glyph-0-5">
</g>
<g id="glyph-0-6">
<path d="M 6.390625 0 L 4.597656 0 L 4.597656 -3.242188 C 4.597656 -4.144531 4.273438 -4.597656 3.628906 -4.597656 C 3.316406 -4.597656 3.0625 -4.476562 2.859375 -4.238281 C 2.660156 -4 2.558594 -3.695312 2.558594 -3.328125 L 2.558594 0 L 0.757812 0 L 0.757812 -5.832031 L 2.558594 -5.832031 L 2.558594 -4.910156 L 2.582031 -4.910156 C 3.007812 -5.621094 3.632812 -5.976562 4.453125 -5.976562 C 5.746094 -5.976562 6.390625 -5.175781 6.390625 -3.570312 Z "/>
</g>
<g id="glyph-0-7">
<path d="M 5.609375 0 L 3.90625 0 L 3.90625 -0.835938 L 3.886719 -0.835938 C 3.492188 -0.183594 2.914062 0.140625 2.148438 0.140625 C 1.582031 0.140625 1.136719 -0.0195312 0.8125 -0.339844 C 0.488281 -0.660156 0.324219 -1.089844 0.324219 -1.625 C 0.324219 -2.753906 0.996094 -3.410156 2.335938 -3.582031 L 3.917969 -3.792969 C 3.917969 -4.433594 3.574219 -4.75 2.882812 -4.75 C 2.1875 -4.75 1.527344 -4.542969 0.898438 -4.128906 L 0.898438 -5.484375 C 1.152344 -5.613281 1.492188 -5.730469 1.929688 -5.828125 C 2.363281 -5.925781 2.757812 -5.976562 3.117188 -5.976562 C 4.78125 -5.976562 5.609375 -5.144531 5.609375 -3.484375 L 5.609375 0 M 3.917969 -2.371094 L 3.917969 -2.761719 L 2.859375 -2.625 C 2.273438 -2.550781 1.984375 -2.285156 1.984375 -1.835938 C 1.984375 -1.628906 2.054688 -1.460938 2.195312 -1.332031 C 2.339844 -1.199219 2.53125 -1.132812 2.773438 -1.132812 C 3.113281 -1.132812 3.386719 -1.25 3.601562 -1.484375 C 3.8125 -1.71875 3.917969 -2.011719 3.917969 -2.371094 M 4.414062 -6.757812 L 3.121094 -6.757812 L 1.332031 -8.597656 L 2.933594 -8.597656 Z "/>
</g>
<g id="glyph-0-8">
<path d="M 6.3125 -5.832031 L 3.941406 0.46875 C 3.371094 1.984375 2.515625 2.738281 1.367188 2.738281 C 0.929688 2.738281 0.570312 2.691406 0.289062 2.59375 L 0.289062 1.15625 C 0.53125 1.296875 0.789062 1.367188 1.070312 1.367188 C 1.535156 1.367188 1.855469 1.148438 2.039062 0.710938 L 2.347656 -0.0117188 L -0.0234375 -5.832031 L 1.972656 -5.832031 L 3.058594 -2.285156 C 3.128906 -2.0625 3.179688 -1.804688 3.21875 -1.503906 L 3.242188 -1.503906 C 3.277344 -1.722656 3.339844 -1.980469 3.429688 -2.273438 L 4.527344 -5.832031 Z "/>
</g>
<g id="glyph-0-9">
<path d="M 6.476562 -0.667969 C 6.476562 0.414062 6.164062 1.253906 5.539062 1.847656 C 4.910156 2.441406 4.003906 2.738281 2.8125 2.738281 C 2.027344 2.738281 1.40625 2.628906 0.945312 2.402344 L 0.945312 0.890625 C 1.546875 1.238281 2.152344 1.414062 2.761719 1.414062 C 3.371094 1.414062 3.839844 1.253906 4.175781 0.929688 C 4.511719 0.609375 4.675781 0.175781 4.675781 -0.375 L 4.675781 -0.835938 L 4.652344 -0.835938 C 4.242188 -0.183594 3.636719 0.140625 2.835938 0.140625 C 2.09375 0.140625 1.503906 -0.121094 1.066406 -0.644531 C 0.628906 -1.167969 0.410156 -1.871094 0.410156 -2.75 C 0.410156 -3.738281 0.652344 -4.523438 1.140625 -5.105469 C 1.625 -5.683594 2.265625 -5.976562 3.058594 -5.976562 C 3.769531 -5.976562 4.300781 -5.703125 4.652344 -5.15625 L 4.675781 -5.15625 L 4.675781 -5.832031 L 6.476562 -5.832031 L 6.476562 -0.667969 M 4.699219 -2.804688 L 4.699219 -3.265625 C 4.699219 -3.632812 4.589844 -3.945312 4.371094 -4.207031 C 4.152344 -4.46875 3.871094 -4.597656 3.519531 -4.597656 C 3.121094 -4.597656 2.808594 -4.441406 2.582031 -4.128906 C 2.351562 -3.820312 2.238281 -3.378906 2.238281 -2.8125 C 2.238281 -2.328125 2.347656 -1.945312 2.5625 -1.660156 C 2.78125 -1.378906 3.078125 -1.234375 3.453125 -1.234375 C 3.824219 -1.234375 4.125 -1.378906 4.355469 -1.667969 C 4.585938 -1.953125 4.699219 -2.332031 4.699219 -2.804688 Z "/>
</g>
<g id="glyph-0-10">
<path d="M 6.300781 0 L 4.507812 0 L 4.507812 -0.890625 L 4.476562 -0.890625 C 4.03125 -0.203125 3.4375 0.140625 2.695312 0.140625 C 1.34375 0.140625 0.667969 -0.675781 0.667969 -2.3125 L 0.667969 -5.832031 L 2.460938 -5.832031 L 2.460938 -2.472656 C 2.460938 -1.648438 2.789062 -1.234375 3.441406 -1.234375 C 3.761719 -1.234375 4.023438 -1.347656 4.214844 -1.574219 C 4.410156 -1.800781 4.507812 -2.109375 4.507812 -2.496094 L 4.507812 -5.832031 L 6.300781 -5.832031 L 6.300781 0 M 5.566406 -8.597656 L 3.78125 -6.757812 L 2.484375 -6.757812 L 3.964844 -8.597656 Z "/>
</g>
<g id="glyph-0-11">
<path d="M 2.582031 -0.679688 L 2.558594 -0.679688 L 2.558594 2.683594 L 0.757812 2.683594 L 0.757812 -5.832031 L 2.558594 -5.832031 L 2.558594 -4.957031 L 2.582031 -4.957031 C 3.023438 -5.636719 3.648438 -5.976562 4.453125 -5.976562 C 5.210938 -5.976562 5.792969 -5.714844 6.207031 -5.199219 C 6.617188 -4.679688 6.824219 -3.972656 6.824219 -3.082031 C 6.824219 -2.109375 6.585938 -1.328125 6.105469 -0.742188 C 5.625 -0.152344 4.984375 0.140625 4.1875 0.140625 C 3.484375 0.140625 2.949219 -0.132812 2.582031 -0.679688 M 2.53125 -3.070312 L 2.53125 -2.601562 C 2.527344 -2.199219 2.636719 -1.871094 2.847656 -1.617188 C 3.0625 -1.363281 3.339844 -1.234375 3.6875 -1.234375 C 4.097656 -1.234375 4.414062 -1.394531 4.640625 -1.710938 C 4.867188 -2.027344 4.980469 -2.476562 4.980469 -3.058594 C 4.980469 -4.085938 4.578125 -4.597656 3.78125 -4.597656 C 3.414062 -4.597656 3.113281 -4.457031 2.878906 -4.179688 C 2.644531 -3.898438 2.527344 -3.53125 2.53125 -3.070312 Z "/>
</g>
<g id="glyph-0-12">
<path d="M 2.558594 0 L 0.757812 0 L 0.757812 -8.636719 L 2.558594 -8.636719 Z "/>
</g>
<g id="glyph-0-13">
<path d="M 10.019531 0 L 8.226562 0 L 8.226562 -3.328125 C 8.226562 -4.171875 7.914062 -4.597656 7.292969 -4.597656 C 6.996094 -4.597656 6.753906 -4.46875 6.566406 -4.214844 C 6.382812 -3.960938 6.289062 -3.644531 6.289062 -3.265625 L 6.289062 0 L 4.488281 0 L 4.488281 -3.359375 C 4.488281 -4.183594 4.183594 -4.597656 3.570312 -4.597656 C 3.265625 -4.597656 3.019531 -4.476562 2.835938 -4.234375 C 2.648438 -3.988281 2.558594 -3.660156 2.558594 -3.242188 L 2.558594 0 L 0.757812 0 L 0.757812 -5.832031 L 2.558594 -5.832031 L 2.558594 -4.921875 L 2.582031 -4.921875 C 2.765625 -5.234375 3.027344 -5.488281 3.363281 -5.683594 C 3.699219 -5.878906 4.066406 -5.976562 4.464844 -5.976562 C 5.289062 -5.976562 5.855469 -5.613281 6.15625 -4.886719 C 6.601562 -5.613281 7.253906 -5.976562 8.117188 -5.976562 C 9.386719 -5.976562 10.019531 -5.195312 10.019531 -3.628906 Z "/>
</g>
<g id="glyph-0-14">
<path d="M 4.738281 -8.351562 L 4.738281 0 L 2.945312 0 L 2.945312 -6.324219 C 2.847656 -6.234375 2.730469 -6.152344 2.59375 -6.074219 C 2.460938 -5.996094 2.316406 -5.925781 2.164062 -5.863281 C 2.011719 -5.800781 1.855469 -5.75 1.691406 -5.707031 C 1.527344 -5.660156 1.367188 -5.628906 1.207031 -5.609375 L 1.207031 -7.125 C 1.675781 -7.261719 2.117188 -7.4375 2.53125 -7.652344 C 2.941406 -7.863281 3.316406 -8.097656 3.652344 -8.351562 Z "/>
</g>
<g id="glyph-0-15">
<path d="M 3.308594 0.140625 C 1.367188 0.140625 0.394531 -1.222656 0.394531 -3.953125 C 0.394531 -5.371094 0.65625 -6.449219 1.183594 -7.191406 C 1.707031 -7.933594 2.46875 -8.304688 3.46875 -8.304688 C 5.367188 -8.304688 6.316406 -6.917969 6.316406 -4.140625 C 6.316406 -2.757812 6.058594 -1.699219 5.539062 -0.960938 C 5.023438 -0.226562 4.277344 0.140625 3.308594 0.140625 M 3.390625 -6.933594 C 2.609375 -6.933594 2.222656 -5.953125 2.222656 -4 C 2.222656 -2.15625 2.601562 -1.234375 3.367188 -1.234375 C 4.109375 -1.234375 4.484375 -2.1875 4.484375 -4.085938 C 4.484375 -5.984375 4.117188 -6.933594 3.390625 -6.933594 Z "/>
</g>
<g id="glyph-0-16">
<path d="M 5.179688 -0.210938 C 4.773438 0.0234375 4.183594 0.140625 3.417969 0.140625 C 2.523438 0.140625 1.796875 -0.128906 1.242188 -0.671875 C 0.6875 -1.214844 0.410156 -1.914062 0.410156 -2.773438 C 0.410156 -3.765625 0.707031 -4.546875 1.300781 -5.117188 C 1.894531 -5.691406 2.691406 -5.976562 3.6875 -5.976562 C 4.375 -5.976562 4.871094 -5.882812 5.179688 -5.703125 L 5.179688 -4.175781 C 4.800781 -4.457031 4.382812 -4.597656 3.917969 -4.597656 C 3.402344 -4.597656 2.992188 -4.445312 2.691406 -4.144531 C 2.390625 -3.84375 2.238281 -3.425781 2.238281 -2.894531 C 2.238281 -2.378906 2.382812 -1.972656 2.671875 -1.675781 C 2.960938 -1.382812 3.355469 -1.234375 3.863281 -1.234375 C 4.308594 -1.234375 4.75 -1.375 5.179688 -1.65625 Z "/>
</g>
<g id="glyph-0-17">
<path d="M 5.609375 0 L 3.90625 0 L 3.90625 -0.835938 L 3.886719 -0.835938 C 3.492188 -0.183594 2.914062 0.140625 2.148438 0.140625 C 1.582031 0.140625 1.136719 -0.0195312 0.8125 -0.339844 C 0.488281 -0.660156 0.324219 -1.089844 0.324219 -1.625 C 0.324219 -2.753906 0.996094 -3.410156 2.335938 -3.582031 L 3.917969 -3.792969 C 3.917969 -4.433594 3.574219 -4.75 2.882812 -4.75 C 2.1875 -4.75 1.527344 -4.542969 0.898438 -4.128906 L 0.898438 -5.484375 C 1.152344 -5.613281 1.492188 -5.730469 1.929688 -5.828125 C 2.363281 -5.925781 2.757812 -5.976562 3.117188 -5.976562 C 4.78125 -5.976562 5.609375 -5.144531 5.609375 -3.484375 L 5.609375 0 M 3.917969 -2.371094 L 3.917969 -2.761719 L 2.859375 -2.625 C 2.273438 -2.550781 1.984375 -2.285156 1.984375 -1.835938 C 1.984375 -1.628906 2.054688 -1.460938 2.195312 -1.332031 C 2.339844 -1.199219 2.53125 -1.132812 2.773438 -1.132812 C 3.113281 -1.132812 3.386719 -1.25 3.601562 -1.484375 C 3.8125 -1.71875 3.917969 -2.011719 3.917969 -2.371094 M 5.207031 -6.757812 L 4.027344 -6.757812 L 3.128906 -7.828125 L 2.289062 -6.757812 L 1.109375 -6.757812 L 2.449219 -8.609375 L 3.863281 -8.609375 Z "/>
</g>
<g id="glyph-0-18">
<path d="M 6.300781 0 L 4.507812 0 L 4.507812 -0.890625 L 4.476562 -0.890625 C 4.03125 -0.203125 3.4375 0.140625 2.695312 0.140625 C 1.34375 0.140625 0.667969 -0.675781 0.667969 -2.3125 L 0.667969 -5.832031 L 2.460938 -5.832031 L 2.460938 -2.472656 C 2.460938 -1.648438 2.789062 -1.234375 3.441406 -1.234375 C 3.761719 -1.234375 4.023438 -1.347656 4.214844 -1.574219 C 4.410156 -1.800781 4.507812 -2.109375 4.507812 -2.496094 L 4.507812 -5.832031 L 6.300781 -5.832031 Z "/>
</g>
<g id="glyph-0-19">
<path d="M 2.582031 -0.679688 L 2.558594 -0.679688 L 2.558594 0 L 0.757812 0 L 0.757812 -8.636719 L 2.558594 -8.636719 L 2.558594 -4.957031 L 2.582031 -4.957031 C 3.023438 -5.636719 3.65625 -5.976562 4.476562 -5.976562 C 5.230469 -5.976562 5.808594 -5.71875 6.214844 -5.199219 C 6.621094 -4.683594 6.824219 -3.976562 6.824219 -3.082031 C 6.824219 -2.109375 6.585938 -1.328125 6.113281 -0.742188 C 5.636719 -0.152344 5.003906 0.140625 4.210938 0.140625 C 3.492188 0.140625 2.949219 -0.132812 2.582031 -0.679688 M 2.53125 -3.140625 L 2.53125 -2.539062 C 2.527344 -2.164062 2.636719 -1.851562 2.855469 -1.605469 C 3.070312 -1.359375 3.347656 -1.234375 3.6875 -1.234375 C 4.097656 -1.234375 4.414062 -1.394531 4.640625 -1.710938 C 4.867188 -2.027344 4.980469 -2.476562 4.980469 -3.058594 C 4.980469 -3.542969 4.875 -3.917969 4.667969 -4.191406 C 4.460938 -4.460938 4.167969 -4.597656 3.78125 -4.597656 C 3.421875 -4.597656 3.121094 -4.460938 2.886719 -4.191406 C 2.648438 -3.921875 2.527344 -3.570312 2.53125 -3.140625 Z "/>
</g>
<g id="glyph-0-20">
<path d="M 4.285156 -0.0703125 C 4.019531 0.0703125 3.617188 0.140625 3.082031 0.140625 C 1.8125 0.140625 1.179688 -0.515625 1.179688 -1.835938 L 1.179688 -4.507812 L 0.234375 -4.507812 L 0.234375 -5.832031 L 1.179688 -5.832031 L 1.179688 -7.09375 L 2.972656 -7.605469 L 2.972656 -5.832031 L 4.285156 -5.832031 L 4.285156 -4.507812 L 2.972656 -4.507812 L 2.972656 -2.148438 C 2.972656 -1.539062 3.214844 -1.234375 3.695312 -1.234375 C 3.886719 -1.234375 4.082031 -1.292969 4.285156 -1.402344 Z "/>
</g>
<g id="glyph-0-21">
<path d="M 5.609375 0 L 3.90625 0 L 3.90625 -0.835938 L 3.886719 -0.835938 C 3.492188 -0.183594 2.914062 0.140625 2.148438 0.140625 C 1.582031 0.140625 1.136719 -0.0195312 0.8125 -0.339844 C 0.488281 -0.660156 0.324219 -1.089844 0.324219 -1.625 C 0.324219 -2.753906 0.996094 -3.410156 2.335938 -3.582031 L 3.917969 -3.792969 C 3.917969 -4.433594 3.574219 -4.75 2.882812 -4.75 C 2.1875 -4.75 1.527344 -4.542969 0.898438 -4.128906 L 0.898438 -5.484375 C 1.152344 -5.613281 1.492188 -5.730469 1.929688 -5.828125 C 2.363281 -5.925781 2.757812 -5.976562 3.117188 -5.976562 C 4.78125 -5.976562 5.609375 -5.144531 5.609375 -3.484375 L 5.609375 0 M 3.917969 -2.371094 L 3.917969 -2.761719 L 2.859375 -2.625 C 2.273438 -2.550781 1.984375 -2.285156 1.984375 -1.835938 C 1.984375 -1.628906 2.054688 -1.460938 2.195312 -1.332031 C 2.339844 -1.199219 2.53125 -1.132812 2.773438 -1.132812 C 3.113281 -1.132812 3.386719 -1.25 3.601562 -1.484375 C 3.8125 -1.71875 3.917969 -2.011719 3.917969 -2.371094 M 5.269531 -6.757812 L 4.089844 -6.757812 L 3.191406 -7.828125 L 2.351562 -6.757812 L 1.171875 -6.757812 L 2.511719 -8.609375 L 3.925781 -8.609375 L 5.269531 -6.757812 M 3.042969 2.226562 C 2.789062 2.226562 2.578125 2.152344 2.414062 2 C 2.246094 1.847656 2.164062 1.664062 2.164062 1.445312 C 2.164062 1.21875 2.25 1.035156 2.414062 0.890625 C 2.582031 0.75 2.792969 0.679688 3.042969 0.679688 C 3.296875 0.679688 3.503906 0.75 3.664062 0.894531 C 3.828125 1.039062 3.90625 1.222656 3.90625 1.445312 C 3.90625 1.671875 3.828125 1.855469 3.664062 2.003906 C 3.503906 2.152344 3.296875 2.226562 3.042969 2.226562 Z "/>
</g>
</g>
</defs>
<g fill="rgb(97.254902%, 98.039216%, 98.823529%)" fill-opacity="1">
<use xlink:href="#glyph-0-0" x="30" y="32.588867"/>
<use xlink:href="#glyph-0-1" x="38" y="32.588867"/>
<use xlink:href="#glyph-0-2" x="41" y="32.588867"/>
<use xlink:href="#glyph-0-3" x="48" y="32.588867"/>
<use xlink:href="#glyph-0-4" x="54" y="32.588867"/>
<use xlink:href="#glyph-0-5" x="61" y="32.588867"/>
<use xlink:href="#glyph-0-6" x="64" y="32.588867"/>
<use xlink:href="#glyph-0-7" x="71" y="32.588867"/>
<use xlink:href="#glyph-0-8" x="77" y="32.588867"/>
<use xlink:href="#glyph-0-5" x="83" y="32.588867"/>
<use xlink:href="#glyph-0-9" x="86" y="32.588867"/>
<use xlink:href="#glyph-0-1" x="93" y="32.588867"/>
<use xlink:href="#glyph-0-10" x="96" y="32.588867"/>
<use xlink:href="#glyph-0-11" x="103" y="32.588867"/>
<use xlink:href="#glyph-0-5" x="110" y="32.588867"/>
<use xlink:href="#glyph-0-12" x="113" y="32.588867"/>
<use xlink:href="#glyph-0-7" x="116" y="32.588867"/>
<use xlink:href="#glyph-0-13" x="122" y="32.588867"/>
<use xlink:href="#glyph-0-5" x="133" y="32.588867"/>
<use xlink:href="#glyph-0-14" x="136" y="32.588867"/>
<use xlink:href="#glyph-0-15" x="143" y="32.588867"/>
<use xlink:href="#glyph-0-5" x="150" y="32.588867"/>
<use xlink:href="#glyph-0-16" x="153" y="32.588867"/>
<use xlink:href="#glyph-0-17" x="159" y="32.588867"/>
<use xlink:href="#glyph-0-18" x="165" y="32.588867"/>
<use xlink:href="#glyph-0-5" x="172" y="32.588867"/>
<use xlink:href="#glyph-0-19" x="175" y="32.588867"/>
<use xlink:href="#glyph-0-7" x="182" y="32.588867"/>
<use xlink:href="#glyph-0-1" x="188" y="32.588867"/>
<use xlink:href="#glyph-0-5" x="191" y="32.588867"/>
<use xlink:href="#glyph-0-20" x="194" y="32.588867"/>
<use xlink:href="#glyph-0-21" x="199" y="32.588867"/>
<use xlink:href="#glyph-0-11" x="205" y="32.588867"/>
</g>
</svg>
