<?xml version="1.0" encoding="UTF-8"?>
<svg xmlns="http://www.w3.org/2000/svg" xmlns:xlink="http://www.w3.org/1999/xlink" width="1920" height="1080" viewBox="0 0 1920 1080">
<defs>
<g>
<g id="glyph-0-0">
<path d="M 7.917969 -8.363281 L 5.039062 0 L 2.90625 0 L 0.0585938 -8.363281 L 2.085938 -8.363281 L 3.832031 -2.542969 C 3.925781 -2.226562 3.980469 -1.949219 4 -1.707031 L 4.035156 -1.707031 C 4.0625 -1.96875 4.125 -2.253906 4.214844 -2.566406 L 5.949219 -8.363281 Z "/>
</g>
<g id="glyph-0-1">
<path d="M 1.707031 -6.917969 C 1.398438 -6.917969 1.144531 -7.007812 0.945312 -7.195312 C 0.746094 -7.378906 0.648438 -7.605469 0.648438 -7.875 C 0.648438 -8.148438 0.746094 -8.375 0.945312 -8.550781 C 1.144531 -8.726562 1.398438 -8.8125 1.707031 -8.8125 C 2.023438 -8.8125 2.28125 -8.726562 2.476562 -8.550781 C 2.671875 -8.375 2.769531 -8.148438 2.769531 -7.875 C 2.769531 -7.59375 2.671875 -7.363281 2.476562 -7.183594 C 2.28125 -7.007812 2.023438 -6.917969 1.707031 -6.917969 M 2.617188 0 L 0.777344 0 L 0.777344 -5.972656 L 2.617188 -5.972656 Z "/>
</g>
<g id="glyph-0-2">
<path d="M 6.621094 0 L 4.777344 0 L 4.777344 -0.824219 L 4.753906 -0.824219 C 4.332031 -0.175781 3.71875 0.144531 2.90625 0.144531 C 2.15625 0.144531 1.558594 -0.117188 1.101562 -0.644531 C 0.648438 -1.171875 0.417969 -1.90625 0.417969 -2.851562 C 0.417969 -3.839844 0.671875 -4.628906 1.171875 -5.226562 C 1.671875 -5.820312 2.332031 -6.117188 3.144531 -6.117188 C 3.914062 -6.117188 4.449219 -5.839844 4.753906 -5.289062 L 4.777344 -5.289062 L 4.777344 -8.839844 L 6.621094 -8.839844 L 6.621094 0 M 4.8125 -2.90625 L 4.8125 -3.351562 C 4.8125 -3.742188 4.699219 -4.066406 4.472656 -4.320312 C 4.246094 -4.578125 3.953125 -4.707031 3.59375 -4.707031 C 3.183594 -4.707031 2.867188 -4.546875 2.636719 -4.226562 C 2.40625 -3.90625 2.292969 -3.464844 2.292969 -2.90625 C 2.292969 -2.378906 2.402344 -1.976562 2.625 -1.691406 C 2.847656 -1.40625 3.152344 -1.265625 3.546875 -1.265625 C 3.917969 -1.265625 4.222656 -1.414062 4.457031 -1.714844 C 4.695312 -2.015625 4.8125 -2.410156 4.8125 -2.90625 Z "/>
</g>
<g id="glyph-0-3">
<path d="M 6.140625 -2.460938 L 2.246094 -2.460938 C 2.308594 -1.59375 2.855469 -1.160156 3.882812 -1.160156 C 4.542969 -1.160156 5.117188 -1.316406 5.617188 -1.628906 L 5.617188 -0.296875 C 5.0625 0 4.347656 0.144531 3.464844 0.144531 C 2.5 0.144531 1.75 -0.121094 1.21875 -0.65625 C 0.6875 -1.191406 0.417969 -1.9375 0.417969 -2.894531 C 0.417969 -3.882812 0.707031 -4.667969 1.28125 -5.25 C 1.859375 -5.828125 2.566406 -6.117188 3.40625 -6.117188 C 4.277344 -6.117188 4.949219 -5.859375 5.425781 -5.34375 C 5.902344 -4.824219 6.140625 -4.125 6.140625 -3.238281 L 6.140625 -2.460938 M 4.433594 -3.59375 C 4.433594 -4.449219 4.085938 -4.875 3.394531 -4.875 C 3.097656 -4.875 2.84375 -4.753906 2.628906 -4.507812 C 2.410156 -4.261719 2.28125 -3.957031 2.234375 -3.59375 Z "/>
</g>
<g id="glyph-0-4">
<path d="M 3.621094 0.144531 C 2.625 0.144531 1.84375 -0.132812 1.273438 -0.691406 C 0.703125 -1.25 0.417969 -2.007812 0.417969 -2.960938 C 0.417969 -3.949219 0.714844 -4.722656 1.304688 -5.28125 C 1.898438 -5.839844 2.695312 -6.117188 3.703125 -6.117188 C 4.695312 -6.117188 5.472656 -5.839844 6.035156 -5.28125 C 6.601562 -4.722656 6.882812 -3.984375 6.882812 -3.066406 C 6.882812 -2.078125 6.589844 -1.292969 6.011719 -0.71875 C 5.429688 -0.140625 4.632812 0.144531 3.621094 0.144531 M 3.667969 -4.707031 C 3.234375 -4.707031 2.894531 -4.558594 2.652344 -4.257812 C 2.414062 -3.957031 2.292969 -3.535156 2.292969 -2.984375 C 2.292969 -1.839844 2.753906 -1.265625 3.679688 -1.265625 C 4.5625 -1.265625 5.003906 -1.855469 5.003906 -3.03125 C 5.003906 -4.148438 4.558594 -4.707031 3.667969 -4.707031 Z "/>
</g>
<g id="glyph-0-5">
</g>
<g id="glyph-0-6">
<path d="M 6.542969 0 L 4.707031 0 L 4.707031 -3.320312 C 4.707031 -4.242188 4.375 -4.707031 3.714844 -4.707031 C 3.394531 -4.707031 3.132812 -4.582031 2.925781 -4.339844 C 2.722656 -4.09375 2.617188 -3.78125 2.617188 -3.40625 L 2.617188 0 L 0.777344 0 L 0.777344 -5.972656 L 2.617188 -5.972656 L 2.617188 -5.027344 L 2.640625 -5.027344 C 3.082031 -5.753906 3.722656 -6.117188 4.5625 -6.117188 C 5.882812 -6.117188 6.542969 -5.296875 6.542969 -3.65625 Z "/>
</g>
<g id="glyph-0-7">
<path d="M 5.746094 0 L 4 0 L 4 -0.855469 L 3.976562 -0.855469 C 3.578125 -0.1875 2.984375 0.144531 2.199219 0.144531 C 1.621094 0.144531 1.164062 -0.0195312 0.832031 -0.347656 C 0.5 -0.675781 0.332031 -1.113281 0.332031 -1.664062 C 0.332031 -2.820312 1.019531 -3.488281 2.390625 -3.667969 L 4.011719 -3.882812 C 4.011719 -4.539062 3.660156 -4.863281 2.949219 -4.863281 C 2.238281 -4.863281 1.5625 -4.652344 0.921875 -4.226562 L 0.921875 -5.617188 C 1.179688 -5.75 1.527344 -5.863281 1.972656 -5.964844 C 2.417969 -6.066406 2.824219 -6.117188 3.191406 -6.117188 C 4.894531 -6.117188 5.746094 -5.269531 5.746094 -3.570312 L 5.746094 0 M 4.011719 -2.425781 L 4.011719 -2.828125 L 2.925781 -2.6875 C 2.328125 -2.609375 2.03125 -2.339844 2.03125 -1.878906 C 2.03125 -1.667969 2.101562 -1.496094 2.25 -1.363281 C 2.394531 -1.226562 2.589844 -1.160156 2.839844 -1.160156 C 3.1875 -1.160156 3.46875 -1.28125 3.6875 -1.519531 C 3.902344 -1.757812 4.011719 -2.0625 4.011719 -2.425781 M 4.519531 -6.917969 L 3.195312 -6.917969 L 1.363281 -8.800781 L 3.003906 -8.800781 Z "/>
</g>
<g id="glyph-0-8">
<path d="M 6.460938 -5.972656 L 4.035156 0.476562 C 3.453125 2.03125 2.574219 2.804688 1.398438 2.804688 C 0.953125 2.804688 0.585938 2.753906 0.296875 2.652344 L 0.296875 1.183594 C 0.542969 1.328125 0.808594 1.398438 1.097656 1.398438 C 1.570312 1.398438 1.902344 1.175781 2.085938 0.730469 L 2.402344 -0.0117188 L -0.0234375 -5.972656 L 2.019531 -5.972656 L 3.132812 -2.339844 C 3.203125 -2.113281 3.257812 -1.847656 3.296875 -1.539062 L 3.320312 -1.539062 C 3.351562 -1.765625 3.417969 -2.027344 3.511719 -2.328125 L 4.636719 -5.972656 Z "/>
</g>
<g id="glyph-0-9">
<path d="M 6.632812 -0.683594 C 6.632812 0.425781 6.308594 1.285156 5.667969 1.890625 C 5.027344 2.5 4.097656 2.804688 2.882812 2.804688 C 2.078125 2.804688 1.4375 2.691406 0.96875 2.460938 L 0.96875 0.910156 C 1.582031 1.265625 2.203125 1.445312 2.828125 1.445312 C 3.449219 1.445312 3.933594 1.28125 4.273438 0.953125 C 4.617188 0.625 4.789062 0.179688 4.789062 -0.386719 L 4.789062 -0.855469 L 4.765625 -0.855469 C 4.34375 -0.1875 3.726562 0.144531 2.90625 0.144531 C 2.140625 0.144531 1.539062 -0.121094 1.089844 -0.660156 C 0.644531 -1.195312 0.417969 -1.914062 0.417969 -2.816406 C 0.417969 -3.828125 0.667969 -4.628906 1.167969 -5.226562 C 1.664062 -5.820312 2.320312 -6.117188 3.132812 -6.117188 C 3.859375 -6.117188 4.402344 -5.835938 4.765625 -5.277344 L 4.789062 -5.277344 L 4.789062 -5.972656 L 6.632812 -5.972656 L 6.632812 -0.683594 M 4.8125 -2.871094 L 4.8125 -3.339844 C 4.8125 -3.71875 4.699219 -4.039062 4.476562 -4.308594 C 4.253906 -4.574219 3.960938 -4.707031 3.605469 -4.707031 C 3.195312 -4.707031 2.875 -4.546875 2.640625 -4.226562 C 2.410156 -3.910156 2.292969 -3.460938 2.292969 -2.882812 C 2.292969 -2.382812 2.402344 -1.988281 2.625 -1.699219 C 2.847656 -1.410156 3.148438 -1.265625 3.535156 -1.265625 C 3.914062 -1.265625 4.222656 -1.414062 4.457031 -1.707031 C 4.695312 -2 4.8125 -2.386719 4.8125 -2.871094 Z "/>
</g>
<g id="glyph-0-10">
<path d="M 6.449219 0 L 4.613281 0 L 4.613281 -0.910156 L 4.582031 -0.910156 C 4.128906 -0.207031 3.519531 0.144531 2.757812 0.144531 C 1.375 0.144531 0.683594 -0.691406 0.683594 -2.367188 L 0.683594 -5.972656 L 2.519531 -5.972656 L 2.519531 -2.53125 C 2.519531 -1.6875 2.855469 -1.265625 3.523438 -1.265625 C 3.851562 -1.265625 4.117188 -1.382812 4.316406 -1.613281 C 4.515625 -1.84375 4.613281 -2.15625 4.613281 -2.554688 L 4.613281 -5.972656 L 6.449219 -5.972656 L 6.449219 0 M 5.699219 -8.800781 L 3.871094 -6.917969 L 2.542969 -6.917969 L 4.058594 -8.800781 Z "/>
</g>
<g id="glyph-0-11">
<path d="M 2.640625 -0.695312 L 2.617188 -0.695312 L 2.617188 2.746094 L 0.777344 2.746094 L 0.777344 -5.972656 L 2.617188 -5.972656 L 2.617188 -5.074219 L 2.640625 -5.074219 C 3.097656 -5.769531 3.738281 -6.117188 4.5625 -6.117188 C 5.335938 -6.117188 5.933594 -5.851562 6.355469 -5.320312 C 6.777344 -4.792969 6.988281 -4.070312 6.988281 -3.15625 C 6.988281 -2.160156 6.742188 -1.359375 6.25 -0.757812 C 5.757812 -0.15625 5.101562 0.144531 4.285156 0.144531 C 3.566406 0.144531 3.019531 -0.132812 2.640625 -0.695312 M 2.589844 -3.144531 L 2.589844 -2.664062 C 2.589844 -2.253906 2.699219 -1.917969 2.917969 -1.65625 C 3.132812 -1.394531 3.417969 -1.265625 3.773438 -1.265625 C 4.191406 -1.265625 4.519531 -1.429688 4.75 -1.753906 C 4.980469 -2.078125 5.097656 -2.535156 5.097656 -3.132812 C 5.097656 -4.179688 4.6875 -4.707031 3.871094 -4.707031 C 3.496094 -4.707031 3.1875 -4.5625 2.949219 -4.277344 C 2.707031 -3.992188 2.589844 -3.613281 2.589844 -3.144531 Z "/>
</g>
<g id="glyph-0-12">
<path d="M 2.617188 0 L 0.777344 0 L 0.777344 -8.839844 L 2.617188 -8.839844 Z "/>
</g>
<g id="glyph-0-13">
<path d="M 10.257812 0 L 8.421875 0 L 8.421875 -3.40625 C 8.421875 -4.273438 8.101562 -4.707031 7.464844 -4.707031 C 7.160156 -4.707031 6.914062 -4.578125 6.722656 -4.316406 C 6.535156 -4.054688 6.4375 -3.730469 6.4375 -3.339844 L 6.4375 0 L 4.59375 0 L 4.59375 -3.441406 C 4.59375 -4.285156 4.28125 -4.707031 3.65625 -4.707031 C 3.339844 -4.707031 3.089844 -4.582031 2.902344 -4.332031 C 2.710938 -4.085938 2.617188 -3.746094 2.617188 -3.320312 L 2.617188 0 L 0.777344 0 L 0.777344 -5.972656 L 2.617188 -5.972656 L 2.617188 -5.039062 L 2.640625 -5.039062 C 2.832031 -5.359375 3.101562 -5.617188 3.445312 -5.816406 C 3.789062 -6.019531 4.164062 -6.117188 4.574219 -6.117188 C 5.417969 -6.117188 5.992188 -5.746094 6.304688 -5.003906 C 6.757812 -5.746094 7.429688 -6.117188 8.3125 -6.117188 C 9.609375 -6.117188 10.257812 -5.316406 10.257812 -3.714844 Z "/>
</g>
<g id="glyph-0-14">
<path d="M 2.640625 -0.695312 L 2.617188 -0.695312 L 2.617188 0 L 0.777344 0 L 0.777344 -8.839844 L 2.617188 -8.839844 L 2.617188 -5.074219 L 2.640625 -5.074219 C 3.097656 -5.769531 3.746094 -6.117188 4.582031 -6.117188 C 5.355469 -6.117188 5.945312 -5.851562 6.363281 -5.324219 C 6.777344 -4.796875 6.988281 -4.074219 6.988281 -3.15625 C 6.988281 -2.160156 6.742188 -1.359375 6.257812 -0.757812 C 5.773438 -0.15625 5.121094 0.144531 4.308594 0.144531 C 3.574219 0.144531 3.019531 -0.132812 2.640625 -0.695312 M 2.589844 -3.214844 L 2.589844 -2.601562 C 2.589844 -2.214844 2.699219 -1.898438 2.921875 -1.644531 C 3.144531 -1.390625 3.425781 -1.265625 3.773438 -1.265625 C 4.191406 -1.265625 4.519531 -1.429688 4.75 -1.753906 C 4.980469 -2.078125 5.097656 -2.535156 5.097656 -3.132812 C 5.097656 -3.625 4.992188 -4.011719 4.78125 -4.289062 C 4.566406 -4.566406 4.265625 -4.707031 3.871094 -4.707031 C 3.503906 -4.707031 3.195312 -4.570312 2.953125 -4.292969 C 2.710938 -4.015625 2.589844 -3.65625 2.589844 -3.214844 Z "/>
</g>
<g id="glyph-0-15">
<path d="M 4.386719 -0.0703125 C 4.113281 0.0742188 3.703125 0.144531 3.15625 0.144531 C 1.855469 0.144531 1.207031 -0.527344 1.207031 -1.878906 L 1.207031 -4.613281 L 0.238281 -4.613281 L 0.238281 -5.972656 L 1.207031 -5.972656 L 1.207031 -7.261719 L 3.042969 -7.785156 L 3.042969 -5.972656 L 4.386719 -5.972656 L 4.386719 -4.613281 L 3.042969 -4.613281 L 3.042969 -2.199219 C 3.042969 -1.578125 3.292969 -1.265625 3.785156 -1.265625 C 3.980469 -1.265625 4.179688 -1.320312 4.386719 -1.433594 Z "/>
</g>
<g id="glyph-0-16">
<path d="M 5.746094 0 L 4 0 L 4 -0.855469 L 3.976562 -0.855469 C 3.578125 -0.1875 2.984375 0.144531 2.199219 0.144531 C 1.621094 0.144531 1.164062 -0.0195312 0.832031 -0.347656 C 0.5 -0.675781 0.332031 -1.113281 0.332031 -1.664062 C 0.332031 -2.820312 1.019531 -3.488281 2.390625 -3.667969 L 4.011719 -3.882812 C 4.011719 -4.539062 3.660156 -4.863281 2.949219 -4.863281 C 2.238281 -4.863281 1.5625 -4.652344 0.921875 -4.226562 L 0.921875 -5.617188 C 1.179688 -5.75 1.527344 -5.863281 1.972656 -5.964844 C 2.417969 -6.066406 2.824219 -6.117188 3.191406 -6.117188 C 4.894531 -6.117188 5.746094 -5.269531 5.746094 -3.570312 L 5.746094 0 M 4.011719 -2.425781 L 4.011719 -2.828125 L 2.925781 -2.6875 C 2.328125 -2.609375 2.03125 -2.339844 2.03125 -1.878906 C 2.03125 -1.667969 2.101562 -1.496094 2.25 -1.363281 C 2.394531 -1.226562 2.589844 -1.160156 2.839844 -1.160156 C 3.1875 -1.160156 3.46875 -1.28125 3.6875 -1.519531 C 3.902344 -1.757812 4.011719 -2.0625 4.011719 -2.425781 M 5.394531 -6.917969 L 4.1875 -6.917969 L 3.265625 -8.011719 L 2.410156 -6.917969 L 1.203125 -6.917969 L 2.570312 -8.8125 L 4.019531 -8.8125 L 5.394531 -6.917969 M 3.113281 2.28125 C 2.855469 2.28125 2.640625 2.203125 2.46875 2.046875 C 2.300781 1.890625 2.214844 1.703125 2.214844 1.480469 C 2.214844 1.25 2.300781 1.058594 2.472656 0.914062 C 2.644531 0.765625 2.859375 0.695312 3.113281 0.695312 C 3.375 0.695312 3.585938 0.769531 3.753906 0.914062 C 3.917969 1.0625 4 1.25 4 1.480469 C 4 1.710938 3.917969 1.902344 3.753906 2.054688 C 3.585938 2.203125 3.375 2.28125 3.113281 2.28125 Z "/>
</g>
<g id="glyph-0-17">
<path d="M 6.507812 0 L 4.671875 0 L 4.671875 -3.394531 C 4.671875 -4.269531 4.351562 -4.707031 3.714844 -4.707031 C 3.386719 -4.707031 3.125 -4.582031 2.921875 -4.339844 C 2.71875 -4.09375 2.617188 -3.78125 2.617188 -3.40625 L 2.617188 0 L 0.777344 0 L 0.777344 -8.839844 L 2.617188 -8.839844 L 2.617188 -5.085938 L 2.640625 -5.085938 C 3.09375 -5.773438 3.707031 -6.117188 4.480469 -6.117188 C 5.832031 -6.117188 6.507812 -5.300781 6.507812 -3.667969 Z "/>
</g>
<g id="glyph-0-18">
<path d="M 6.449219 -5.191406 L 6.449219 0 L 4.613281 0 L 4.613281 -0.910156 L 4.582031 -0.910156 C 4.128906 -0.207031 3.519531 0.144531 2.757812 0.144531 C 1.375 0.144531 0.683594 -0.691406 0.683594 -2.367188 L 0.683594 -5.972656 L 2.519531 -5.972656 L 2.519531 -2.53125 C 2.519531 -1.6875 2.855469 -1.265625 3.523438 -1.265625 C 3.851562 -1.265625 4.117188 -1.382812 4.316406 -1.613281 C 4.515625 -1.84375 4.613281 -2.15625 4.613281 -2.554688 L 4.613281 -5.972656 L 6.292969 -5.972656 C 6.777344 -5.972656 7.023438 -6.257812 7.023438 -6.835938 C 7.023438 -7.003906 6.988281 -7.203125 6.917969 -7.441406 L 7.988281 -7.441406 C 8.050781 -7.253906 8.082031 -7.027344 8.082031 -6.757812 C 8.082031 -6.304688 7.941406 -5.9375 7.65625 -5.652344 C 7.367188 -5.371094 6.96875 -5.21875 6.449219 -5.191406 Z "/>
</g>
<g id="glyph-0-19">
<path d="M 6.140625 -2.460938 L 2.246094 -2.460938 C 2.308594 -1.59375 2.855469 -1.160156 3.882812 -1.160156 C 4.542969 -1.160156 5.117188 -1.316406 5.617188 -1.628906 L 5.617188 -0.296875 C 5.0625 0 4.347656 0.144531 3.464844 0.144531 C 2.5 0.144531 1.75 -0.121094 1.21875 -0.65625 C 0.6875 -1.191406 0.417969 -1.9375 0.417969 -2.894531 C 0.417969 -3.882812 0.707031 -4.667969 1.28125 -5.25 C 1.859375 -5.828125 2.566406 -6.117188 3.40625 -6.117188 C 4.277344 -6.117188 4.949219 -5.859375 5.425781 -5.34375 C 5.902344 -4.824219 6.140625 -4.125 6.140625 -3.238281 L 6.140625 -2.460938 M 4.433594 -3.59375 C 4.433594 -4.449219 4.085938 -4.875 3.394531 -4.875 C 3.097656 -4.875 2.84375 -4.753906 2.628906 -4.507812 C 2.410156 -4.261719 2.28125 -3.957031 2.234375 -3.59375 L 4.433594 -3.59375 M 7.511719 -9.425781 L 5.964844 -7.988281 L 4.824219 -7.988281 L 5.871094 -9.425781 L 7.511719 -9.425781 M 5.359375 -7.109375 L 4.1875 -7.109375 L 3.308594 -7.910156 L 2.480469 -7.109375 L 1.3125 -7.109375 L 2.636719 -8.5625 L 4.035156 -8.5625 Z "/>
</g>
<g id="glyph-0-20">
<path d="M 1.535156 -2.421875 C 1.496094 -2.519531 1.464844 -2.636719 1.445312 -2.761719 C 1.421875 -2.886719 1.410156 -3.007812 1.410156 -3.121094 C 1.410156 -3.300781 1.429688 -3.460938 1.464844 -3.609375 C 1.5 -3.757812 1.550781 -3.898438 1.621094 -4.027344 C 1.691406 -4.15625 1.777344 -4.28125 1.882812 -4.398438 C 1.988281 -4.519531 2.109375 -4.636719 2.25 -4.753906 C 2.398438 -4.878906 2.527344 -4.992188 2.640625 -5.101562 C 2.75 -5.207031 2.84375 -5.3125 2.921875 -5.421875 C 3 -5.527344 3.058594 -5.636719 3.097656 -5.753906 C 3.136719 -5.867188 3.15625 -5.996094 3.15625 -6.136719 C 3.15625 -6.253906 3.132812 -6.367188 3.089844 -6.46875 C 3.046875 -6.574219 2.988281 -6.664062 2.90625 -6.734375 C 2.828125 -6.808594 2.730469 -6.867188 2.617188 -6.910156 C 2.5 -6.953125 2.375 -6.976562 2.234375 -6.976562 C 1.929688 -6.976562 1.617188 -6.910156 1.289062 -6.785156 C 0.960938 -6.660156 0.652344 -6.46875 0.363281 -6.210938 L 0.363281 -7.964844 C 0.660156 -8.144531 0.988281 -8.28125 1.339844 -8.367188 C 1.695312 -8.457031 2.0625 -8.503906 2.4375 -8.503906 C 2.800781 -8.503906 3.136719 -8.464844 3.445312 -8.382812 C 3.757812 -8.304688 4.027344 -8.179688 4.261719 -8.007812 C 4.492188 -7.835938 4.671875 -7.617188 4.800781 -7.351562 C 4.933594 -7.085938 5 -6.765625 5 -6.390625 C 5 -6.15625 4.972656 -5.941406 4.917969 -5.746094 C 4.863281 -5.554688 4.78125 -5.375 4.675781 -5.203125 C 4.574219 -5.03125 4.441406 -4.867188 4.285156 -4.710938 C 4.132812 -4.550781 3.953125 -4.390625 3.75 -4.222656 C 3.613281 -4.109375 3.496094 -4.003906 3.390625 -3.90625 C 3.289062 -3.808594 3.203125 -3.714844 3.132812 -3.617188 C 3.066406 -3.523438 3.015625 -3.421875 2.980469 -3.316406 C 2.945312 -3.207031 2.925781 -3.085938 2.925781 -2.949219 C 2.925781 -2.859375 2.941406 -2.761719 2.964844 -2.664062 C 2.992188 -2.566406 3.023438 -2.488281 3.066406 -2.421875 L 1.535156 -2.421875 M 2.386719 0.132812 C 2.074219 0.132812 1.816406 0.0390625 1.609375 -0.144531 C 1.402344 -0.339844 1.300781 -0.570312 1.300781 -0.832031 C 1.300781 -1.105469 1.402344 -1.332031 1.609375 -1.515625 C 1.816406 -1.699219 2.074219 -1.789062 2.386719 -1.789062 C 2.691406 -1.789062 2.945312 -1.699219 3.148438 -1.515625 C 3.351562 -1.335938 3.453125 -1.109375 3.453125 -0.832031 C 3.453125 -0.554688 3.351562 -0.324219 3.15625 -0.140625 C 2.953125 0.0429688 2.695312 0.132812 2.386719 0.132812 Z "/>
</g>
</g>
</defs>
<g fill="rgb(97.254902%, 98.039216%, 98.823529%)" fill-opacity="1">
<use xlink:href="#glyph-0-0" x="30" y="32.887695"/>
<use xlink:href="#glyph-0-1" x="38" y="32.887695"/>
<use xlink:href="#glyph-0-2" x="41" y="32.887695"/>
<use xlink:href="#glyph-0-3" x="48" y="32.887695"/>
<use xlink:href="#glyph-0-4" x="54" y="32.887695"/>
<use xlink:href="#glyph-0-5" x="61" y="32.887695"/>
<use xlink:href="#glyph-0-6" x="64" y="32.887695"/>
<use xlink:href="#glyph-0-7" x="71" y="32.887695"/>
<use xlink:href="#glyph-0-8" x="77" y="32.887695"/>
<use xlink:href="#glyph-0-5" x="83" y="32.887695"/>
<use xlink:href="#glyph-0-9" x="86" y="32.887695"/>
<use xlink:href="#glyph-0-1" x="93" y="32.887695"/>
<use xlink:href="#glyph-0-10" x="96" y="32.887695"/>
<use xlink:href="#glyph-0-11" x="103" y="32.887695"/>
<use xlink:href="#glyph-0-5" x="110" y="32.887695"/>
<use xlink:href="#glyph-0-12" x="113" y="32.887695"/>
<use xlink:href="#glyph-0-7" x="116" y="32.887695"/>
<use xlink:href="#glyph-0-13" x="122" y="32.887695"/>
<use xlink:href="#glyph-0-5" x="133" y="32.887695"/>
<use xlink:href="#glyph-0-14" x="136" y="32.887695"/>
<use xlink:href="#glyph-0-7" x="143" y="32.887695"/>
<use xlink:href="#glyph-0-1" x="149" y="32.887695"/>
<use xlink:href="#glyph-0-5" x="152" y="32.887695"/>
<use xlink:href="#glyph-0-15" x="155" y="32.887695"/>
<use xlink:href="#glyph-0-16" x="160" y="32.887695"/>
<use xlink:href="#glyph-0-11" x="166" y="32.887695"/>
<use xlink:href="#glyph-0-5" x="173" y="32.887695"/>
<use xlink:href="#glyph-0-6" x="176" y="32.887695"/>
<use xlink:href="#glyph-0-17" x="183" y="32.887695"/>
<use xlink:href="#glyph-0-18" x="190" y="32.887695"/>
<use xlink:href="#glyph-0-5" x="198" y="32.887695"/>
<use xlink:href="#glyph-0-15" x="201" y="32.887695"/>
<use xlink:href="#glyph-0-17" x="206" y="32.887695"/>
<use xlink:href="#glyph-0-19" x="213" y="32.887695"/>
<use xlink:href="#glyph-0-5" x="219" y="32.887695"/>
<use xlink:href="#glyph-0-6" x="222" y="32.887695"/>
<use xlink:href="#glyph-0-7" x="229" y="32.887695"/>
<use xlink:href="#glyph-0-4" x="235" y="32.887695"/>
<use xlink:href="#glyph-0-20" x="242" y="32.887695"/>
</g>
</svg>
