<?xml version="1.0" encoding="UTF-8"?>
<svg xmlns="http://www.w3.org/2000/svg" xmlns:xlink="http://www.w3.org/1999/xlink" width="1920" height="1080" viewBox="0 0 1920 1080">
<defs>
<g>
<g id="glyph-0-0">
<path d="M 0.507812 -4.96875 L 2.496094 -4.96875 C 2.890625 -4.96875 3.183594 -4.953125 3.375 -4.921875 C 3.570312 -4.890625 3.742188 -4.820312 3.894531 -4.714844 C 4.046875 -4.613281 4.175781 -4.472656 4.277344 -4.300781 C 4.378906 -4.128906 4.429688 -3.933594 4.429688 -3.71875 C 4.429688 -3.488281 4.367188 -3.273438 4.238281 -3.078125 C 4.113281 -2.882812 3.945312 -2.738281 3.730469 -2.640625 C 4.03125 -2.554688 4.265625 -2.402344 4.429688 -2.191406 C 4.589844 -1.976562 4.671875 -1.726562 4.671875 -1.441406 C 4.671875 -1.214844 4.621094 -0.996094 4.515625 -0.78125 C 4.410156 -0.566406 4.265625 -0.398438 4.085938 -0.269531 C 3.902344 -0.140625 3.675781 -0.0625 3.410156 -0.0351562 C 3.242188 -0.015625 2.839844 -0.00390625 2.199219 0 L 0.507812 0 L 0.507812 -4.96875 M 1.511719 -4.144531 L 1.511719 -2.992188 L 2.171875 -2.992188 C 2.5625 -2.992188 2.804688 -3 2.898438 -3.011719 C 3.070312 -3.03125 3.207031 -3.089844 3.304688 -3.1875 C 3.402344 -3.289062 3.453125 -3.417969 3.453125 -3.578125 C 3.453125 -3.730469 3.410156 -3.855469 3.324219 -3.953125 C 3.238281 -4.046875 3.113281 -4.105469 2.945312 -4.125 C 2.847656 -4.136719 2.5625 -4.144531 2.089844 -4.144531 L 1.511719 -4.144531 M 1.511719 -2.167969 L 1.511719 -0.835938 L 2.441406 -0.835938 C 2.804688 -0.835938 3.03125 -0.847656 3.128906 -0.867188 C 3.277344 -0.894531 3.398438 -0.960938 3.492188 -1.066406 C 3.585938 -1.171875 3.632812 -1.3125 3.632812 -1.488281 C 3.632812 -1.636719 3.597656 -1.765625 3.527344 -1.867188 C 3.453125 -1.972656 3.347656 -2.046875 3.210938 -2.09375 C 3.074219 -2.144531 2.777344 -2.167969 2.324219 -2.167969 Z "/>
</g>
<g id="glyph-0-1">
<path d="M 1.210938 -2.503906 L 0.347656 -2.660156 C 0.441406 -3.007812 0.609375 -3.265625 0.847656 -3.429688 C 1.085938 -3.597656 1.4375 -3.683594 1.90625 -3.683594 C 2.332031 -3.683594 2.648438 -3.632812 2.855469 -3.53125 C 3.0625 -3.429688 3.210938 -3.304688 3.292969 -3.148438 C 3.378906 -2.992188 3.421875 -2.710938 3.421875 -2.296875 L 3.410156 -1.183594 C 3.410156 -0.867188 3.425781 -0.632812 3.457031 -0.484375 C 3.488281 -0.332031 3.542969 -0.171875 3.628906 0 L 2.683594 0 C 2.660156 -0.0625 2.628906 -0.15625 2.59375 -0.28125 C 2.578125 -0.339844 2.566406 -0.375 2.558594 -0.394531 C 2.398438 -0.234375 2.222656 -0.117188 2.039062 -0.0390625 C 1.851562 0.0429688 1.65625 0.0820312 1.445312 0.0820312 C 1.074219 0.0820312 0.78125 -0.0195312 0.566406 -0.21875 C 0.355469 -0.421875 0.246094 -0.675781 0.246094 -0.984375 C 0.246094 -1.1875 0.296875 -1.367188 0.394531 -1.527344 C 0.492188 -1.6875 0.625 -1.808594 0.800781 -1.894531 C 0.976562 -1.976562 1.230469 -2.050781 1.558594 -2.117188 C 2.003906 -2.199219 2.3125 -2.277344 2.484375 -2.351562 L 2.484375 -2.445312 C 2.484375 -2.628906 2.441406 -2.757812 2.351562 -2.835938 C 2.257812 -2.914062 2.089844 -2.953125 1.835938 -2.953125 C 1.667969 -2.953125 1.535156 -2.917969 1.441406 -2.851562 C 1.347656 -2.785156 1.269531 -2.667969 1.210938 -2.503906 M 2.484375 -1.730469 C 2.363281 -1.6875 2.171875 -1.640625 1.90625 -1.582031 C 1.640625 -1.527344 1.46875 -1.472656 1.386719 -1.417969 C 1.261719 -1.328125 1.199219 -1.21875 1.199219 -1.082031 C 1.199219 -0.949219 1.25 -0.832031 1.347656 -0.734375 C 1.449219 -0.636719 1.574219 -0.589844 1.730469 -0.589844 C 1.902344 -0.589844 2.066406 -0.644531 2.222656 -0.757812 C 2.335938 -0.84375 2.410156 -0.949219 2.449219 -1.074219 C 2.472656 -1.15625 2.484375 -1.3125 2.484375 -1.539062 Z "/>
</g>
<g id="glyph-0-2">
<path d="M 3.773438 0 L 2.820312 0 L 2.820312 -1.835938 C 2.820312 -2.226562 2.800781 -2.476562 2.761719 -2.59375 C 2.71875 -2.707031 2.652344 -2.796875 2.5625 -2.859375 C 2.46875 -2.921875 2.359375 -2.953125 2.230469 -2.953125 C 2.066406 -2.953125 1.917969 -2.90625 1.785156 -2.816406 C 1.65625 -2.726562 1.566406 -2.605469 1.515625 -2.457031 C 1.46875 -2.308594 1.445312 -2.035156 1.445312 -1.632812 L 1.445312 0 L 0.492188 0 L 0.492188 -3.601562 L 1.375 -3.601562 L 1.375 -3.070312 C 1.691406 -3.480469 2.085938 -3.683594 2.5625 -3.683594 C 2.773438 -3.683594 2.964844 -3.644531 3.140625 -3.570312 C 3.3125 -3.492188 3.445312 -3.394531 3.535156 -3.277344 C 3.625 -3.160156 3.6875 -3.027344 3.722656 -2.878906 C 3.757812 -2.730469 3.773438 -2.515625 3.773438 -2.238281 Z "/>
</g>
<g id="glyph-0-3">
</g>
<g id="glyph-0-4">
<path d="M 2.847656 -3.984375 L 1.820312 -3.984375 L 1.820312 -4.617188 L 2.847656 -4.617188 L 2.847656 -4.96875 L 3.800781 -4.96875 L 3.800781 -4.617188 L 4.175781 -4.617188 L 4.175781 -3.984375 L 3.800781 -3.984375 L 3.800781 0 L 2.914062 0 L 2.914062 -0.527344 C 2.769531 -0.324219 2.59375 -0.171875 2.394531 -0.0703125 C 2.195312 0.03125 1.992188 0.0820312 1.789062 0.0820312 C 1.375 0.0820312 1.023438 -0.0859375 0.726562 -0.417969 C 0.433594 -0.753906 0.285156 -1.21875 0.285156 -1.8125 C 0.285156 -2.425781 0.429688 -2.886719 0.714844 -3.207031 C 1.003906 -3.523438 1.367188 -3.683594 1.804688 -3.683594 C 2.207031 -3.683594 2.554688 -3.515625 2.847656 -3.179688 L 2.847656 -3.984375 M 1.257812 -1.878906 C 1.257812 -1.492188 1.3125 -1.214844 1.417969 -1.042969 C 1.570312 -0.796875 1.785156 -0.671875 2.0625 -0.671875 C 2.28125 -0.671875 2.46875 -0.765625 2.621094 -0.949219 C 2.773438 -1.136719 2.851562 -1.417969 2.851562 -1.785156 C 2.851562 -2.199219 2.777344 -2.5 2.628906 -2.679688 C 2.480469 -2.863281 2.289062 -2.953125 2.054688 -2.953125 C 1.828125 -2.953125 1.640625 -2.863281 1.488281 -2.683594 C 1.335938 -2.503906 1.257812 -2.234375 1.257812 -1.878906 Z "/>
</g>
<g id="glyph-0-5">
<path d="M 1.210938 -2.503906 L 0.347656 -2.660156 C 0.441406 -3.007812 0.609375 -3.265625 0.847656 -3.429688 C 1.085938 -3.597656 1.4375 -3.683594 1.90625 -3.683594 C 2.332031 -3.683594 2.648438 -3.632812 2.855469 -3.53125 C 3.0625 -3.429688 3.210938 -3.304688 3.292969 -3.148438 C 3.378906 -2.992188 3.421875 -2.710938 3.421875 -2.296875 L 3.410156 -1.183594 C 3.410156 -0.867188 3.425781 -0.632812 3.457031 -0.484375 C 3.488281 -0.332031 3.542969 -0.171875 3.628906 0 L 2.683594 0 C 2.660156 -0.0625 2.628906 -0.15625 2.59375 -0.28125 C 2.578125 -0.339844 2.566406 -0.375 2.558594 -0.394531 C 2.398438 -0.234375 2.222656 -0.117188 2.039062 -0.0390625 C 1.851562 0.0429688 1.65625 0.0820312 1.445312 0.0820312 C 1.074219 0.0820312 0.78125 -0.0195312 0.566406 -0.21875 C 0.355469 -0.421875 0.246094 -0.675781 0.246094 -0.984375 C 0.246094 -1.1875 0.296875 -1.367188 0.394531 -1.527344 C 0.492188 -1.6875 0.625 -1.808594 0.800781 -1.894531 C 0.976562 -1.976562 1.230469 -2.050781 1.558594 -2.117188 C 2.003906 -2.199219 2.3125 -2.277344 2.484375 -2.351562 L 2.484375 -2.445312 C 2.484375 -2.628906 2.441406 -2.757812 2.351562 -2.835938 C 2.257812 -2.914062 2.089844 -2.953125 1.835938 -2.953125 C 1.667969 -2.953125 1.535156 -2.917969 1.441406 -2.851562 C 1.347656 -2.785156 1.269531 -2.667969 1.210938 -2.503906 M 2.484375 -1.730469 C 2.363281 -1.6875 2.171875 -1.640625 1.90625 -1.582031 C 1.640625 -1.527344 1.46875 -1.472656 1.386719 -1.417969 C 1.261719 -1.328125 1.199219 -1.21875 1.199219 -1.082031 C 1.199219 -0.949219 1.25 -0.832031 1.347656 -0.734375 C 1.449219 -0.636719 1.574219 -0.589844 1.730469 -0.589844 C 1.902344 -0.589844 2.066406 -0.644531 2.222656 -0.757812 C 2.335938 -0.84375 2.410156 -0.949219 2.449219 -1.074219 C 2.472656 -1.15625 2.484375 -1.3125 2.484375 -1.539062 L 2.484375 -1.730469 M 0.789062 -4.054688 L 1.503906 -5.054688 L 2.382812 -5.054688 L 3.085938 -4.054688 L 2.320312 -4.054688 L 1.925781 -4.558594 L 1.558594 -4.054688 L 0.789062 -4.054688 M 2.394531 -5.238281 L 1.792969 -5.238281 L 0.859375 -6.195312 L 1.925781 -6.195312 Z "/>
</g>
<g id="glyph-0-6">
<path d="M 2.867188 0 L 2.867188 -0.539062 C 2.738281 -0.347656 2.566406 -0.195312 2.351562 -0.0859375 C 2.136719 0.0273438 1.914062 0.0820312 1.675781 0.0820312 C 1.433594 0.0820312 1.214844 0.0273438 1.023438 -0.078125 C 0.832031 -0.183594 0.691406 -0.332031 0.605469 -0.527344 C 0.519531 -0.71875 0.476562 -0.984375 0.476562 -1.324219 L 0.476562 -3.601562 L 1.429688 -3.601562 L 1.429688 -1.945312 C 1.429688 -1.441406 1.449219 -1.128906 1.484375 -1.015625 C 1.519531 -0.902344 1.582031 -0.8125 1.675781 -0.746094 C 1.769531 -0.675781 1.886719 -0.644531 2.027344 -0.644531 C 2.191406 -0.644531 2.335938 -0.6875 2.464844 -0.777344 C 2.59375 -0.867188 2.683594 -0.976562 2.730469 -1.109375 C 2.777344 -1.242188 2.800781 -1.566406 2.800781 -2.082031 L 2.800781 -3.601562 L 3.753906 -3.601562 L 3.753906 0 Z "/>
</g>
<g id="glyph-0-7">
<path d="M 0.679688 -2.648438 L 0.679688 -3.601562 L 1.632812 -3.601562 L 1.632812 -2.648438 L 0.679688 -2.648438 M 0.679688 0 L 0.679688 -0.953125 L 1.632812 -0.953125 L 1.632812 0 Z "/>
</g>
<g id="glyph-0-8">
<path d="M 0.5 0 L 0.5 -4.96875 L 1.453125 -4.96875 L 1.453125 0 Z "/>
</g>
<g id="glyph-0-9">
<path d="M 4.074219 -3.601562 L 5.027344 -3.601562 L 5.027344 -2.917969 C 5.027344 -2.640625 5.003906 -2.417969 4.957031 -2.261719 C 4.90625 -2.101562 4.816406 -1.960938 4.6875 -1.835938 C 4.484375 -1.644531 4.175781 -1.511719 3.753906 -1.445312 L 3.753906 0 L 2.867188 0 L 2.867188 -0.539062 C 2.585938 -0.125 2.1875 0.0820312 1.675781 0.0820312 C 1.144531 0.0820312 0.789062 -0.121094 0.605469 -0.527344 C 0.519531 -0.71875 0.476562 -0.984375 0.476562 -1.324219 L 0.476562 -3.601562 L 1.429688 -3.601562 L 1.429688 -1.945312 C 1.429688 -1.472656 1.449219 -1.160156 1.484375 -1.015625 C 1.511719 -0.910156 1.574219 -0.816406 1.675781 -0.746094 C 1.769531 -0.679688 1.886719 -0.644531 2.027344 -0.644531 C 2.1875 -0.644531 2.332031 -0.6875 2.464844 -0.777344 C 2.59375 -0.863281 2.683594 -0.976562 2.730469 -1.109375 C 2.777344 -1.242188 2.800781 -1.566406 2.800781 -2.082031 L 2.800781 -3.601562 L 3.753906 -3.601562 L 3.753906 -1.832031 C 4.066406 -1.894531 4.289062 -2.011719 4.414062 -2.183594 C 4.492188 -2.289062 4.53125 -2.441406 4.535156 -2.648438 L 4.074219 -2.648438 Z "/>
</g>
<g id="glyph-0-10">
<path d="M 1.253906 -1.800781 C 1.253906 -1.453125 1.339844 -1.179688 1.507812 -0.980469 C 1.667969 -0.789062 1.878906 -0.695312 2.136719 -0.695312 C 2.394531 -0.695312 2.601562 -0.789062 2.761719 -0.980469 C 2.929688 -1.179688 3.015625 -1.457031 3.015625 -1.808594 C 3.015625 -2.152344 2.929688 -2.421875 2.761719 -2.621094 C 2.601562 -2.8125 2.394531 -2.90625 2.136719 -2.90625 C 1.878906 -2.90625 1.667969 -2.8125 1.507812 -2.621094 C 1.339844 -2.417969 1.253906 -2.144531 1.253906 -1.800781 M 3.984375 -3.601562 L 4.9375 -3.601562 L 4.9375 -2.917969 C 4.9375 -2.640625 4.914062 -2.417969 4.863281 -2.261719 C 4.816406 -2.101562 4.726562 -1.960938 4.59375 -1.835938 C 4.441406 -1.691406 4.234375 -1.574219 3.972656 -1.492188 C 3.917969 -1.085938 3.75 -0.742188 3.46875 -0.457031 C 3.117188 -0.0976562 2.671875 0.0820312 2.140625 0.0820312 C 1.796875 0.0820312 1.484375 0.0078125 1.195312 -0.140625 C 0.890625 -0.300781 0.664062 -0.523438 0.507812 -0.804688 C 0.355469 -1.089844 0.277344 -1.4375 0.277344 -1.851562 C 0.277344 -2.175781 0.355469 -2.484375 0.511719 -2.769531 C 0.675781 -3.070312 0.898438 -3.296875 1.179688 -3.453125 C 1.460938 -3.605469 1.78125 -3.683594 2.132812 -3.683594 C 2.675781 -3.683594 3.125 -3.507812 3.472656 -3.152344 C 3.785156 -2.832031 3.960938 -2.4375 3.992188 -1.964844 C 4.285156 -2.082031 4.4375 -2.3125 4.445312 -2.648438 L 3.984375 -2.648438 L 3.984375 -3.601562 M 1.65625 -4.042969 L 2.121094 -5.054688 L 3.191406 -5.054688 L 2.257812 -4.042969 Z "/>
</g>
<g id="glyph-0-11">
<path d="M 0.5 -4.089844 L 0.5 -4.96875 L 1.453125 -4.96875 L 1.453125 -4.089844 L 0.5 -4.089844 M 0.5 0 L 0.5 -3.601562 L 1.453125 -3.601562 L 1.453125 0 Z "/>
</g>
<g id="glyph-0-12">
<path d="M 0.457031 0 L 0.457031 -4.96875 L 1.410156 -4.96875 L 1.410156 -3.179688 C 1.703125 -3.515625 2.050781 -3.683594 2.453125 -3.683594 C 2.894531 -3.683594 3.257812 -3.523438 3.542969 -3.207031 C 3.832031 -2.886719 3.972656 -2.433594 3.972656 -1.835938 C 3.972656 -1.222656 3.828125 -0.75 3.535156 -0.417969 C 3.242188 -0.0859375 2.886719 0.0820312 2.46875 0.0820312 C 2.261719 0.0820312 2.058594 0.03125 1.859375 -0.0742188 C 1.660156 -0.175781 1.488281 -0.328125 1.34375 -0.527344 L 1.34375 0 L 0.457031 0 M 1.402344 -1.878906 C 1.402344 -1.503906 1.460938 -1.230469 1.578125 -1.050781 C 1.746094 -0.796875 1.964844 -0.671875 2.238281 -0.671875 C 2.449219 -0.671875 2.628906 -0.761719 2.773438 -0.941406 C 2.921875 -1.121094 2.996094 -1.402344 2.996094 -1.789062 C 2.996094 -2.203125 2.921875 -2.5 2.773438 -2.679688 C 2.625 -2.863281 2.433594 -2.953125 2.199219 -2.953125 C 1.972656 -2.953125 1.78125 -2.863281 1.632812 -2.6875 C 1.480469 -2.507812 1.402344 -2.238281 1.402344 -1.878906 Z "/>
</g>
<g id="glyph-0-13">
<path d="M 0.5 0 L 0.5 -3.601562 L 1.453125 -3.601562 L 1.453125 0 L 0.5 0 M 1.457031 -4.042969 L 0.859375 -4.042969 L -0.078125 -5.054688 L 0.988281 -5.054688 Z "/>
</g>
<g id="glyph-0-14">
<path d="M 1.449219 -4.96875 L 1.449219 -3.144531 C 1.753906 -3.503906 2.121094 -3.683594 2.550781 -3.683594 C 2.769531 -3.683594 2.96875 -3.640625 3.144531 -3.558594 C 3.320312 -3.480469 3.453125 -3.375 3.542969 -3.25 C 3.628906 -3.121094 3.691406 -2.980469 3.722656 -2.828125 C 3.757812 -2.675781 3.773438 -2.4375 3.773438 -2.113281 L 3.773438 0 L 2.820312 0 L 2.820312 -1.902344 C 2.820312 -2.28125 2.804688 -2.519531 2.765625 -2.621094 C 2.730469 -2.722656 2.667969 -2.804688 2.574219 -2.863281 C 2.484375 -2.921875 2.367188 -2.953125 2.230469 -2.953125 C 2.074219 -2.953125 1.929688 -2.914062 1.808594 -2.839844 C 1.683594 -2.761719 1.59375 -2.644531 1.535156 -2.492188 C 1.476562 -2.335938 1.449219 -2.105469 1.449219 -1.804688 L 1.449219 0 L 0.496094 0 L 0.496094 -4.96875 Z "/>
</g>
<g id="glyph-0-15">
<path d="M 2.148438 -3.601562 L 2.148438 -2.839844 L 1.5 -2.839844 L 1.5 -1.390625 C 1.5 -1.097656 1.503906 -0.925781 1.515625 -0.875 C 1.53125 -0.828125 1.558594 -0.789062 1.601562 -0.757812 C 1.644531 -0.722656 1.699219 -0.707031 1.761719 -0.707031 C 1.851562 -0.707031 1.980469 -0.738281 2.144531 -0.800781 L 2.226562 -0.0625 C 2.007812 0.0351562 1.753906 0.0820312 1.476562 0.0820312 C 1.304688 0.0820312 1.148438 0.0507812 1.011719 -0.00390625 C 0.871094 -0.0625 0.769531 -0.136719 0.707031 -0.230469 C 0.640625 -0.320312 0.597656 -0.445312 0.574219 -0.601562 C 0.550781 -0.710938 0.542969 -0.933594 0.542969 -1.273438 L 0.542969 -2.839844 L 0.105469 -2.839844 L 0.105469 -3.601562 L 0.542969 -3.601562 L 0.542969 -4.316406 L 1.5 -4.871094 L 1.5 -3.601562 Z "/>
</g>
<g id="glyph-0-16">
<path d="M 1.253906 -1.800781 C 1.253906 -1.453125 1.339844 -1.179688 1.507812 -0.980469 C 1.667969 -0.789062 1.878906 -0.695312 2.136719 -0.695312 C 2.394531 -0.695312 2.601562 -0.789062 2.761719 -0.980469 C 2.929688 -1.179688 3.015625 -1.457031 3.015625 -1.808594 C 3.015625 -2.152344 2.929688 -2.421875 2.761719 -2.621094 C 2.601562 -2.8125 2.394531 -2.90625 2.136719 -2.90625 C 1.878906 -2.90625 1.667969 -2.8125 1.507812 -2.621094 C 1.339844 -2.417969 1.253906 -2.144531 1.253906 -1.800781 M 3.984375 -3.601562 L 4.9375 -3.601562 L 4.9375 -2.917969 C 4.9375 -2.640625 4.914062 -2.417969 4.863281 -2.261719 C 4.816406 -2.101562 4.726562 -1.960938 4.59375 -1.835938 C 4.441406 -1.691406 4.234375 -1.574219 3.972656 -1.492188 C 3.917969 -1.085938 3.75 -0.742188 3.46875 -0.457031 C 3.117188 -0.0976562 2.671875 0.0820312 2.140625 0.0820312 C 1.796875 0.0820312 1.484375 0.0078125 1.195312 -0.140625 C 0.890625 -0.300781 0.664062 -0.523438 0.507812 -0.804688 C 0.355469 -1.089844 0.277344 -1.4375 0.277344 -1.851562 C 0.277344 -2.175781 0.355469 -2.484375 0.511719 -2.769531 C 0.675781 -3.070312 0.898438 -3.296875 1.179688 -3.453125 C 1.460938 -3.605469 1.78125 -3.683594 2.132812 -3.683594 C 2.675781 -3.683594 3.125 -3.507812 3.472656 -3.152344 C 3.785156 -2.832031 3.960938 -2.4375 3.992188 -1.964844 C 4.285156 -2.082031 4.4375 -2.3125 4.445312 -2.648438 L 3.984375 -2.648438 L 3.984375 -3.601562 M 2.613281 -4.042969 L 2.015625 -4.042969 L 1.078125 -5.054688 L 2.144531 -5.054688 Z "/>
</g>
<g id="glyph-0-17">
<path d="M 0.410156 0.238281 L 1.5 0.371094 C 1.515625 0.496094 1.558594 0.582031 1.625 0.628906 C 1.714844 0.699219 1.855469 0.730469 2.050781 0.730469 C 2.300781 0.730469 2.488281 0.695312 2.609375 0.621094 C 2.695312 0.570312 2.757812 0.492188 2.800781 0.378906 C 2.828125 0.300781 2.84375 0.15625 2.84375 -0.0585938 L 2.84375 -0.582031 C 2.558594 -0.195312 2.199219 0 1.765625 0 C 1.28125 0 0.898438 -0.203125 0.617188 -0.613281 C 0.394531 -0.9375 0.285156 -1.339844 0.285156 -1.820312 C 0.285156 -2.425781 0.429688 -2.886719 0.71875 -3.203125 C 1.011719 -3.523438 1.371094 -3.683594 1.804688 -3.683594 C 2.25 -3.683594 2.617188 -3.488281 2.90625 -3.09375 L 2.90625 -3.601562 L 3.796875 -3.601562 L 3.796875 -0.371094 C 3.796875 0.0546875 3.761719 0.371094 3.691406 0.582031 C 3.621094 0.792969 3.523438 0.957031 3.398438 1.078125 C 3.269531 1.199219 3.101562 1.292969 2.890625 1.359375 C 2.679688 1.425781 2.410156 1.460938 2.089844 1.460938 C 1.476562 1.460938 1.046875 1.355469 0.789062 1.148438 C 0.535156 0.9375 0.40625 0.671875 0.40625 0.351562 C 0.40625 0.320312 0.40625 0.28125 0.410156 0.238281 M 1.261719 -1.875 C 1.261719 -1.492188 1.335938 -1.214844 1.484375 -1.035156 C 1.632812 -0.859375 1.8125 -0.769531 2.03125 -0.769531 C 2.265625 -0.769531 2.460938 -0.859375 2.621094 -1.042969 C 2.78125 -1.222656 2.863281 -1.492188 2.863281 -1.851562 C 2.863281 -2.222656 2.785156 -2.5 2.632812 -2.683594 C 2.476562 -2.863281 2.28125 -2.953125 2.046875 -2.953125 C 1.820312 -2.953125 1.632812 -2.863281 1.484375 -2.6875 C 1.335938 -2.507812 1.261719 -2.238281 1.261719 -1.875 Z "/>
</g>
</g>
</defs>
<g fill="rgb(100%, 100%, 100%)" fill-opacity="1">
<use xlink:href="#glyph-0-0" x="30" y="26.285156"/>
<use xlink:href="#glyph-0-1" x="35" y="26.285156"/>
<use xlink:href="#glyph-0-2" x="39" y="26.285156"/>
<use xlink:href="#glyph-0-3" x="43" y="26.285156"/>
<use xlink:href="#glyph-0-4" x="45" y="26.285156"/>
<use xlink:href="#glyph-0-5" x="49" y="26.285156"/>
<use xlink:href="#glyph-0-6" x="53" y="26.285156"/>
<use xlink:href="#glyph-0-7" x="57" y="26.285156"/>
<use xlink:href="#glyph-0-3" x="59" y="26.285156"/>
<use xlink:href="#glyph-0-8" x="61" y="26.285156"/>
<use xlink:href="#glyph-0-9" x="63" y="26.285156"/>
<use xlink:href="#glyph-0-10" x="68" y="26.285156"/>
<use xlink:href="#glyph-0-11" x="73" y="26.285156"/>
<use xlink:href="#glyph-0-3" x="75" y="26.285156"/>
<use xlink:href="#glyph-0-12" x="77" y="26.285156"/>
<use xlink:href="#glyph-0-13" x="81" y="26.285156"/>
<use xlink:href="#glyph-0-2" x="83" y="26.285156"/>
<use xlink:href="#glyph-0-14" x="87" y="26.285156"/>
<use xlink:href="#glyph-0-3" x="91" y="26.285156"/>
<use xlink:href="#glyph-0-15" x="93" y="26.285156"/>
<use xlink:href="#glyph-0-14" x="95" y="26.285156"/>
<use xlink:href="#glyph-0-9" x="99" y="26.285156"/>
<use xlink:href="#glyph-0-16" x="104" y="26.285156"/>
<use xlink:href="#glyph-0-2" x="109" y="26.285156"/>
<use xlink:href="#glyph-0-17" x="113" y="26.285156"/>
</g>
</svg>
