<?xml version="1.0" encoding="UTF-8"?>
<svg xmlns="http://www.w3.org/2000/svg" xmlns:xlink="http://www.w3.org/1999/xlink" width="1920" height="1080" viewBox="0 0 1920 1080">
<defs>
<g>
<g id="glyph-0-0">
<path d="M 3.71875 -0.160156 C 3.390625 0 2.964844 0.078125 2.441406 0.078125 C 1.753906 0.078125 1.214844 -0.125 0.820312 -0.527344 C 0.425781 -0.929688 0.230469 -1.46875 0.230469 -2.140625 C 0.230469 -2.855469 0.453125 -3.4375 0.894531 -3.882812 C 1.335938 -4.324219 1.910156 -4.546875 2.613281 -4.546875 C 3.050781 -4.546875 3.417969 -4.492188 3.71875 -4.382812 L 3.71875 -3.414062 C 3.417969 -3.59375 3.078125 -3.679688 2.695312 -3.679688 C 2.273438 -3.679688 1.9375 -3.550781 1.679688 -3.285156 C 1.421875 -3.019531 1.292969 -2.664062 1.292969 -2.210938 C 1.292969 -1.78125 1.414062 -1.433594 1.65625 -1.175781 C 1.898438 -0.921875 2.226562 -0.792969 2.640625 -0.792969 C 3.03125 -0.792969 3.390625 -0.886719 3.71875 -1.078125 Z "/>
</g>
<g id="glyph-0-1">
<path d="M 3.074219 0 L 2.140625 0 L 2.140625 -0.457031 L 2.128906 -0.457031 C 1.914062 -0.101562 1.597656 0.078125 1.175781 0.078125 C 0.867188 0.078125 0.621094 -0.0117188 0.445312 -0.1875 C 0.265625 -0.363281 0.179688 -0.597656 0.179688 -0.890625 C 0.179688 -1.507812 0.546875 -1.867188 1.277344 -1.960938 L 2.144531 -2.078125 C 2.144531 -2.425781 1.957031 -2.601562 1.578125 -2.601562 C 1.199219 -2.601562 0.835938 -2.488281 0.492188 -2.261719 L 0.492188 -3.003906 C 0.628906 -3.074219 0.816406 -3.136719 1.054688 -3.191406 C 1.292969 -3.246094 1.511719 -3.273438 1.707031 -3.273438 C 2.617188 -3.273438 3.074219 -2.816406 3.074219 -1.910156 L 3.074219 0 M 2.144531 -1.296875 L 2.144531 -1.511719 L 1.566406 -1.4375 C 1.246094 -1.398438 1.085938 -1.253906 1.085938 -1.003906 C 1.085938 -0.890625 1.125 -0.800781 1.203125 -0.726562 C 1.28125 -0.65625 1.386719 -0.621094 1.519531 -0.621094 C 1.703125 -0.621094 1.855469 -0.683594 1.972656 -0.8125 C 2.089844 -0.941406 2.144531 -1.101562 2.144531 -1.296875 M 2.851562 -3.699219 L 2.207031 -3.699219 L 1.710938 -4.285156 L 1.253906 -3.699219 L 0.609375 -3.699219 L 1.339844 -4.714844 L 2.113281 -4.714844 Z "/>
</g>
<g id="glyph-0-2">
<path d="M 3.449219 0 L 2.46875 0 L 2.46875 -0.488281 L 2.453125 -0.488281 C 2.207031 -0.109375 1.882812 0.078125 1.476562 0.078125 C 0.734375 0.078125 0.363281 -0.371094 0.363281 -1.265625 L 0.363281 -3.195312 L 1.347656 -3.195312 L 1.347656 -1.355469 C 1.347656 -0.902344 1.527344 -0.675781 1.882812 -0.675781 C 2.0625 -0.675781 2.203125 -0.738281 2.308594 -0.863281 C 2.414062 -0.988281 2.46875 -1.15625 2.46875 -1.367188 L 2.46875 -3.195312 L 3.449219 -3.195312 Z "/>
</g>
<g id="glyph-0-3">
</g>
<g id="glyph-0-4">
<path d="M 0.363281 -0.148438 L 0.363281 -1.003906 C 0.664062 -0.785156 1.015625 -0.675781 1.414062 -0.675781 C 1.664062 -0.675781 1.859375 -0.730469 2 -0.839844 C 2.140625 -0.949219 2.210938 -1.097656 2.210938 -1.292969 C 2.210938 -1.492188 2.125 -1.644531 1.953125 -1.753906 C 1.777344 -1.863281 1.539062 -1.914062 1.234375 -1.914062 L 0.820312 -1.914062 L 0.820312 -2.671875 L 1.203125 -2.671875 C 1.785156 -2.671875 2.078125 -2.863281 2.078125 -3.25 C 2.078125 -3.613281 1.855469 -3.796875 1.40625 -3.796875 C 1.109375 -3.796875 0.816406 -3.699219 0.535156 -3.507812 L 0.535156 -4.3125 C 0.847656 -4.46875 1.214844 -4.546875 1.632812 -4.546875 C 2.089844 -4.546875 2.445312 -4.445312 2.699219 -4.238281 C 2.953125 -4.035156 3.082031 -3.765625 3.082031 -3.4375 C 3.082031 -2.855469 2.785156 -2.488281 2.191406 -2.339844 L 2.191406 -2.324219 C 2.507812 -2.285156 2.757812 -2.167969 2.941406 -1.980469 C 3.125 -1.789062 3.214844 -1.554688 3.214844 -1.277344 C 3.214844 -0.859375 3.0625 -0.53125 2.757812 -0.285156 C 2.453125 -0.0429688 2.03125 0.078125 1.492188 0.078125 C 1.03125 0.078125 0.652344 0.00390625 0.363281 -0.148438 Z "/>
</g>
<g id="glyph-0-5">
<path d="M 1.347656 -0.785156 L 0.890625 0.792969 L 0.121094 0.792969 L 0.441406 -0.785156 Z "/>
</g>
<g id="glyph-0-6">
<path d="M 2.96875 -4.472656 L 2.96875 -1.652344 L 3.507812 -1.652344 L 3.507812 -0.917969 L 2.96875 -0.917969 L 2.96875 0 L 2.070312 0 L 2.070312 -0.917969 L 0.121094 -0.917969 L 0.121094 -1.6875 C 0.292969 -1.882812 0.472656 -2.09375 0.660156 -2.324219 C 0.84375 -2.550781 1.023438 -2.789062 1.195312 -3.03125 C 1.367188 -3.277344 1.527344 -3.519531 1.675781 -3.765625 C 1.824219 -4.011719 1.953125 -4.25 2.054688 -4.472656 L 2.96875 -4.472656 M 1.003906 -1.652344 L 2.070312 -1.652344 L 2.070312 -3.214844 C 2 -3.082031 1.917969 -2.945312 1.835938 -2.804688 C 1.75 -2.667969 1.660156 -2.53125 1.566406 -2.398438 C 1.472656 -2.261719 1.378906 -2.132812 1.28125 -2.007812 C 1.1875 -1.882812 1.09375 -1.765625 1.003906 -1.652344 Z "/>
</g>
<g id="glyph-0-7">
<path d="M 3.464844 -1.488281 C 3.464844 -1.269531 3.425781 -1.0625 3.347656 -0.871094 C 3.269531 -0.679688 3.164062 -0.511719 3.027344 -0.371094 C 2.890625 -0.234375 2.726562 -0.121094 2.535156 -0.0429688 C 2.347656 0.0390625 2.140625 0.078125 1.914062 0.078125 C 1.664062 0.078125 1.4375 0.03125 1.238281 -0.0625 C 1.042969 -0.15625 0.875 -0.292969 0.734375 -0.46875 C 0.597656 -0.648438 0.492188 -0.863281 0.421875 -1.125 C 0.347656 -1.382812 0.3125 -1.671875 0.3125 -2 C 0.3125 -2.382812 0.359375 -2.734375 0.453125 -3.046875 C 0.546875 -3.359375 0.683594 -3.628906 0.859375 -3.851562 C 1.035156 -4.074219 1.246094 -4.246094 1.496094 -4.367188 C 1.746094 -4.488281 2.027344 -4.546875 2.339844 -4.546875 C 2.683594 -4.546875 2.953125 -4.507812 3.144531 -4.425781 L 3.144531 -3.601562 C 2.917969 -3.730469 2.671875 -3.796875 2.402344 -3.796875 C 2.234375 -3.796875 2.085938 -3.765625 1.949219 -3.699219 C 1.816406 -3.636719 1.699219 -3.542969 1.601562 -3.425781 C 1.503906 -3.308594 1.429688 -3.164062 1.375 -2.996094 C 1.320312 -2.828125 1.289062 -2.640625 1.285156 -2.4375 L 1.304688 -2.4375 C 1.515625 -2.730469 1.828125 -2.875 2.242188 -2.875 C 2.429688 -2.875 2.59375 -2.84375 2.746094 -2.777344 C 2.894531 -2.710938 3.023438 -2.617188 3.128906 -2.496094 C 3.234375 -2.371094 3.316406 -2.226562 3.375 -2.054688 C 3.433594 -1.886719 3.464844 -1.695312 3.464844 -1.488281 M 2.5 -1.425781 C 2.5 -1.90625 2.300781 -2.144531 1.910156 -2.144531 C 1.820312 -2.144531 1.738281 -2.128906 1.664062 -2.097656 C 1.59375 -2.0625 1.53125 -2.015625 1.480469 -1.957031 C 1.425781 -1.894531 1.386719 -1.824219 1.359375 -1.742188 C 1.332031 -1.660156 1.316406 -1.570312 1.316406 -1.46875 C 1.316406 -1.359375 1.332031 -1.257812 1.359375 -1.160156 C 1.390625 -1.066406 1.429688 -0.980469 1.484375 -0.910156 C 1.535156 -0.835938 1.597656 -0.78125 1.671875 -0.738281 C 1.746094 -0.699219 1.824219 -0.675781 1.914062 -0.675781 C 2.003906 -0.675781 2.085938 -0.695312 2.15625 -0.730469 C 2.230469 -0.769531 2.289062 -0.820312 2.339844 -0.882812 C 2.390625 -0.949219 2.429688 -1.027344 2.457031 -1.121094 C 2.484375 -1.214844 2.5 -1.316406 2.5 -1.425781 Z "/>
</g>
</g>
</defs>
<g fill="rgb(86.27451%, 98.823529%, 90.588235%)" fill-opacity="1">
<use xlink:href="#glyph-0-0" x="30" y="26.893555"/>
<use xlink:href="#glyph-0-1" x="34" y="26.893555"/>
<use xlink:href="#glyph-0-2" x="37" y="26.893555"/>
<use xlink:href="#glyph-0-3" x="41" y="26.893555"/>
<use xlink:href="#glyph-0-4" x="43" y="26.893555"/>
<use xlink:href="#glyph-0-5" x="47" y="26.893555"/>
<use xlink:href="#glyph-0-3" x="49" y="26.893555"/>
<use xlink:href="#glyph-0-6" x="51" y="26.893555"/>
<use xlink:href="#glyph-0-5" x="55" y="26.893555"/>
<use xlink:href="#glyph-0-3" x="57" y="26.893555"/>
<use xlink:href="#glyph-0-7" x="59" y="26.893555"/>
</g>
</svg>
