<?xml version="1.0" encoding="UTF-8"?>
<svg xmlns="http://www.w3.org/2000/svg" xmlns:xlink="http://www.w3.org/1999/xlink" width="1920" height="1080" viewBox="0 0 1920 1080">
<defs>
<g>
<g id="glyph-0-0">
<path d="M 3.980469 -1.972656 L 5.03125 -1.640625 C 4.871094 -1.054688 4.601562 -0.621094 4.226562 -0.335938 C 3.851562 -0.0507812 3.378906 0.0898438 2.800781 0.0898438 C 2.089844 0.0898438 1.503906 -0.152344 1.042969 -0.640625 C 0.585938 -1.125 0.355469 -1.792969 0.355469 -2.636719 C 0.355469 -3.53125 0.585938 -4.222656 1.046875 -4.71875 C 1.507812 -5.214844 2.117188 -5.460938 2.867188 -5.460938 C 3.523438 -5.460938 4.058594 -5.265625 4.46875 -4.878906 C 4.710938 -4.648438 4.894531 -4.320312 5.015625 -3.890625 L 3.945312 -3.632812 C 3.878906 -3.910156 3.75 -4.132812 3.546875 -4.292969 C 3.34375 -4.453125 3.101562 -4.535156 2.8125 -4.535156 C 2.414062 -4.535156 2.089844 -4.390625 1.84375 -4.105469 C 1.597656 -3.820312 1.472656 -3.355469 1.472656 -2.71875 C 1.472656 -2.039062 1.59375 -1.554688 1.839844 -1.265625 C 2.082031 -0.980469 2.398438 -0.835938 2.789062 -0.835938 C 3.078125 -0.835938 3.328125 -0.925781 3.535156 -1.109375 C 3.742188 -1.292969 3.890625 -1.582031 3.980469 -1.972656 Z "/>
</g>
<g id="glyph-0-1">
<path d="M 1.308594 -2.703125 L 0.375 -2.871094 C 0.476562 -3.246094 0.660156 -3.523438 0.914062 -3.707031 C 1.171875 -3.886719 1.554688 -3.976562 2.058594 -3.976562 C 2.515625 -3.976562 2.859375 -3.921875 3.082031 -3.8125 C 3.308594 -3.707031 3.464844 -3.566406 3.558594 -3.398438 C 3.648438 -3.234375 3.695312 -2.925781 3.695312 -2.480469 L 3.683594 -1.277344 C 3.683594 -0.9375 3.699219 -0.683594 3.734375 -0.523438 C 3.765625 -0.359375 3.828125 -0.183594 3.917969 0 L 2.898438 0 C 2.875 -0.0664062 2.839844 -0.167969 2.800781 -0.304688 C 2.785156 -0.363281 2.773438 -0.40625 2.765625 -0.425781 C 2.589844 -0.253906 2.402344 -0.125 2.199219 -0.0390625 C 2 0.046875 1.785156 0.0859375 1.558594 0.0859375 C 1.160156 0.0859375 0.84375 -0.0195312 0.613281 -0.238281 C 0.382812 -0.457031 0.265625 -0.730469 0.265625 -1.0625 C 0.265625 -1.28125 0.320312 -1.476562 0.425781 -1.648438 C 0.53125 -1.820312 0.675781 -1.953125 0.867188 -2.046875 C 1.054688 -2.136719 1.328125 -2.214844 1.683594 -2.285156 C 2.164062 -2.375 2.5 -2.460938 2.683594 -2.539062 L 2.683594 -2.640625 C 2.683594 -2.839844 2.636719 -2.980469 2.539062 -3.0625 C 2.441406 -3.148438 2.257812 -3.191406 1.984375 -3.191406 C 1.800781 -3.191406 1.660156 -3.152344 1.554688 -3.082031 C 1.453125 -3.007812 1.371094 -2.882812 1.308594 -2.703125 M 2.683594 -1.867188 C 2.550781 -1.824219 2.34375 -1.769531 2.058594 -1.710938 C 1.773438 -1.648438 1.585938 -1.589844 1.496094 -1.53125 C 1.363281 -1.4375 1.296875 -1.316406 1.296875 -1.167969 C 1.296875 -1.023438 1.351562 -0.898438 1.457031 -0.792969 C 1.566406 -0.691406 1.703125 -0.636719 1.867188 -0.636719 C 2.054688 -0.636719 2.230469 -0.699219 2.398438 -0.820312 C 2.523438 -0.914062 2.605469 -1.027344 2.644531 -1.160156 C 2.671875 -1.25 2.683594 -1.414062 2.683594 -1.664062 L 2.683594 -1.867188 M 0.851562 -4.378906 L 1.621094 -5.460938 L 2.574219 -5.460938 L 3.332031 -4.378906 L 2.503906 -4.378906 L 2.078125 -4.925781 L 1.683594 -4.378906 Z "/>
</g>
<g id="glyph-0-2">
<path d="M 3.097656 0 L 3.097656 -0.582031 C 2.957031 -0.375 2.769531 -0.210938 2.539062 -0.0898438 C 2.308594 0.0273438 2.066406 0.0859375 1.808594 0.0859375 C 1.546875 0.0859375 1.3125 0.03125 1.105469 -0.0859375 C 0.898438 -0.199219 0.75 -0.359375 0.65625 -0.566406 C 0.5625 -0.773438 0.515625 -1.0625 0.515625 -1.429688 L 0.515625 -3.890625 L 1.546875 -3.890625 L 1.546875 -2.101562 C 1.546875 -1.554688 1.5625 -1.21875 1.601562 -1.097656 C 1.640625 -0.972656 1.707031 -0.875 1.808594 -0.804688 C 1.910156 -0.730469 2.035156 -0.695312 2.191406 -0.695312 C 2.367188 -0.695312 2.523438 -0.742188 2.664062 -0.839844 C 2.800781 -0.9375 2.898438 -1.054688 2.949219 -1.199219 C 3 -1.34375 3.023438 -1.691406 3.023438 -2.25 L 3.023438 -3.890625 L 4.054688 -3.890625 L 4.054688 0 Z "/>
</g>
<g id="glyph-0-3">
</g>
<g id="glyph-0-4">
<path d="M 0.28125 -1.425781 L 1.277344 -1.546875 C 1.308594 -1.292969 1.394531 -1.097656 1.535156 -0.964844 C 1.671875 -0.828125 1.84375 -0.761719 2.039062 -0.761719 C 2.253906 -0.761719 2.429688 -0.84375 2.578125 -1.003906 C 2.722656 -1.164062 2.792969 -1.382812 2.792969 -1.65625 C 2.792969 -1.914062 2.726562 -2.117188 2.585938 -2.269531 C 2.445312 -2.421875 2.277344 -2.496094 2.078125 -2.496094 C 1.945312 -2.496094 1.785156 -2.472656 1.605469 -2.421875 L 1.71875 -3.257812 C 1.996094 -3.25 2.207031 -3.3125 2.355469 -3.441406 C 2.5 -3.570312 2.574219 -3.738281 2.574219 -3.953125 C 2.574219 -4.132812 2.519531 -4.277344 2.414062 -4.382812 C 2.304688 -4.492188 2.164062 -4.542969 1.984375 -4.542969 C 1.808594 -4.542969 1.660156 -4.484375 1.535156 -4.363281 C 1.410156 -4.238281 1.335938 -4.0625 1.308594 -3.828125 L 0.359375 -3.988281 C 0.425781 -4.3125 0.523438 -4.570312 0.65625 -4.765625 C 0.789062 -4.960938 0.976562 -5.113281 1.214844 -5.222656 C 1.453125 -5.335938 1.71875 -5.390625 2.015625 -5.390625 C 2.519531 -5.390625 2.925781 -5.230469 3.230469 -4.90625 C 3.480469 -4.644531 3.605469 -4.34375 3.605469 -4.015625 C 3.605469 -3.542969 3.347656 -3.167969 2.835938 -2.886719 C 3.140625 -2.820312 3.386719 -2.671875 3.574219 -2.441406 C 3.757812 -2.214844 3.847656 -1.9375 3.847656 -1.609375 C 3.847656 -1.140625 3.675781 -0.738281 3.332031 -0.40625 C 2.988281 -0.0742188 2.558594 0.0898438 2.046875 0.0898438 C 1.5625 0.0898438 1.160156 -0.046875 0.839844 -0.328125 C 0.519531 -0.605469 0.332031 -0.972656 0.28125 -1.425781 Z "/>
</g>
<g id="glyph-0-5">
<path d="M 0.511719 -1.027344 L 1.542969 -1.027344 L 1.542969 -0.292969 C 1.542969 0.00390625 1.515625 0.238281 1.464844 0.410156 C 1.414062 0.585938 1.316406 0.738281 1.171875 0.875 C 1.03125 1.011719 0.851562 1.121094 0.628906 1.199219 L 0.429688 0.773438 C 0.636719 0.703125 0.785156 0.609375 0.871094 0.492188 C 0.960938 0.371094 1.003906 0.207031 1.011719 0 L 0.511719 0 Z "/>
</g>
<g id="glyph-0-6">
<path d="M 1.203125 -2.898438 C 0.933594 -3.007812 0.742188 -3.164062 0.621094 -3.359375 C 0.5 -3.554688 0.4375 -3.773438 0.4375 -4.007812 C 0.4375 -4.40625 0.578125 -4.738281 0.859375 -5 C 1.136719 -5.261719 1.535156 -5.390625 2.050781 -5.390625 C 2.5625 -5.390625 2.957031 -5.261719 3.238281 -5 C 3.519531 -4.738281 3.664062 -4.40625 3.664062 -4.007812 C 3.664062 -3.757812 3.597656 -3.535156 3.46875 -3.339844 C 3.339844 -3.148438 3.15625 -3 2.921875 -2.898438 C 3.21875 -2.777344 3.445312 -2.601562 3.601562 -2.375 C 3.757812 -2.144531 3.835938 -1.878906 3.835938 -1.578125 C 3.835938 -1.082031 3.675781 -0.679688 3.359375 -0.371094 C 3.042969 -0.0585938 2.625 0.09375 2.097656 0.09375 C 1.609375 0.09375 1.203125 -0.03125 0.878906 -0.289062 C 0.496094 -0.59375 0.304688 -1.007812 0.304688 -1.535156 C 0.304688 -1.824219 0.375 -2.089844 0.519531 -2.335938 C 0.664062 -2.578125 0.890625 -2.765625 1.203125 -2.898438 M 1.414062 -3.933594 C 1.414062 -3.726562 1.472656 -3.566406 1.585938 -3.453125 C 1.703125 -3.339844 1.859375 -3.28125 2.050781 -3.28125 C 2.246094 -3.28125 2.402344 -3.339844 2.519531 -3.457031 C 2.636719 -3.570312 2.695312 -3.730469 2.695312 -3.9375 C 2.695312 -4.128906 2.636719 -4.285156 2.519531 -4.398438 C 2.40625 -4.515625 2.253906 -4.574219 2.0625 -4.574219 C 1.863281 -4.574219 1.707031 -4.515625 1.589844 -4.398438 C 1.472656 -4.28125 1.414062 -4.125 1.414062 -3.933594 M 1.320312 -1.632812 C 1.320312 -1.351562 1.390625 -1.128906 1.535156 -0.96875 C 1.679688 -0.8125 1.863281 -0.734375 2.078125 -0.734375 C 2.292969 -0.734375 2.46875 -0.808594 2.609375 -0.960938 C 2.746094 -1.113281 2.816406 -1.335938 2.816406 -1.621094 C 2.816406 -1.875 2.746094 -2.074219 2.605469 -2.226562 C 2.460938 -2.382812 2.28125 -2.457031 2.066406 -2.457031 C 1.8125 -2.457031 1.625 -2.371094 1.503906 -2.195312 C 1.378906 -2.023438 1.320312 -1.835938 1.320312 -1.632812 Z "/>
</g>
</g>
</defs>
<g fill="rgb(100%, 89.411765%, 90.196078%)" fill-opacity="1">
<use xlink:href="#glyph-0-0" x="30" y="26.790039"/>
<use xlink:href="#glyph-0-1" x="35" y="26.790039"/>
<use xlink:href="#glyph-0-2" x="39" y="26.790039"/>
<use xlink:href="#glyph-0-3" x="44" y="26.790039"/>
<use xlink:href="#glyph-0-4" x="46" y="26.790039"/>
<use xlink:href="#glyph-0-5" x="50" y="26.790039"/>
<use xlink:href="#glyph-0-3" x="52" y="26.790039"/>
<use xlink:href="#glyph-0-6" x="54" y="26.790039"/>
</g>
</svg>
