<?xml version="1.0" encoding="UTF-8"?>
<svg xmlns="http://www.w3.org/2000/svg" xmlns:xlink="http://www.w3.org/1999/xlink" width="1920" height="1080" viewBox="0 0 1920 1080">
<defs>
<g>
<g id="glyph-0-0">
<path d="M 3.242188 -1.609375 L 4.101562 -1.335938 C 3.96875 -0.859375 3.75 -0.503906 3.445312 -0.273438 C 3.140625 -0.0429688 2.753906 0.0742188 2.28125 0.0742188 C 1.703125 0.0742188 1.222656 -0.125 0.851562 -0.519531 C 0.476562 -0.917969 0.289062 -1.460938 0.289062 -2.148438 C 0.289062 -2.875 0.476562 -3.441406 0.851562 -3.84375 C 1.230469 -4.246094 1.722656 -4.449219 2.335938 -4.449219 C 2.871094 -4.449219 3.304688 -4.289062 3.640625 -3.972656 C 3.839844 -3.789062 3.988281 -3.519531 4.085938 -3.167969 L 3.214844 -2.960938 C 3.160156 -3.1875 3.054688 -3.367188 2.890625 -3.496094 C 2.726562 -3.628906 2.527344 -3.695312 2.292969 -3.695312 C 1.96875 -3.695312 1.703125 -3.578125 1.503906 -3.34375 C 1.300781 -3.113281 1.199219 -2.734375 1.199219 -2.214844 C 1.199219 -1.660156 1.300781 -1.265625 1.496094 -1.03125 C 1.695312 -0.796875 1.957031 -0.679688 2.273438 -0.679688 C 2.507812 -0.679688 2.710938 -0.753906 2.878906 -0.902344 C 3.046875 -1.054688 3.167969 -1.289062 3.242188 -1.609375 Z "/>
</g>
<g id="glyph-0-1">
<path d="M 0.246094 -1.628906 C 0.246094 -1.90625 0.3125 -2.175781 0.449219 -2.4375 C 0.585938 -2.699219 0.78125 -2.898438 1.035156 -3.035156 C 1.285156 -3.171875 1.566406 -3.242188 1.875 -3.242188 C 2.355469 -3.242188 2.75 -3.085938 3.054688 -2.773438 C 3.363281 -2.460938 3.515625 -2.070312 3.515625 -1.59375 C 3.515625 -1.113281 3.359375 -0.714844 3.050781 -0.402344 C 2.742188 -0.0859375 2.351562 0.0703125 1.882812 0.0703125 C 1.59375 0.0703125 1.316406 0.0078125 1.050781 -0.125 C 0.789062 -0.257812 0.585938 -0.449219 0.449219 -0.703125 C 0.3125 -0.957031 0.246094 -1.265625 0.246094 -1.628906 M 1.105469 -1.585938 C 1.105469 -1.269531 1.179688 -1.03125 1.328125 -0.863281 C 1.476562 -0.695312 1.660156 -0.613281 1.878906 -0.613281 C 2.097656 -0.613281 2.28125 -0.695312 2.429688 -0.863281 C 2.578125 -1.03125 2.652344 -1.273438 2.652344 -1.589844 C 2.652344 -1.902344 2.578125 -2.140625 2.429688 -2.304688 C 2.28125 -2.472656 2.097656 -2.558594 1.878906 -2.558594 C 1.660156 -2.558594 1.476562 -2.472656 1.328125 -2.304688 C 1.179688 -2.140625 1.105469 -1.898438 1.105469 -1.585938 M 0.867188 -3.570312 L 1.496094 -4.449219 L 2.269531 -4.449219 L 2.886719 -3.570312 L 2.214844 -3.570312 L 1.867188 -4.011719 L 1.546875 -3.570312 L 0.867188 -3.570312 M 1.425781 1.195312 L 1.425781 0.359375 L 2.265625 0.359375 L 2.265625 1.195312 Z "/>
</g>
<g id="glyph-0-2">
<path d="M 1.890625 -3.167969 L 1.890625 -2.5 L 1.320312 -2.5 L 1.320312 -1.222656 C 1.320312 -0.964844 1.324219 -0.8125 1.335938 -0.769531 C 1.347656 -0.730469 1.371094 -0.691406 1.410156 -0.664062 C 1.449219 -0.636719 1.496094 -0.625 1.550781 -0.625 C 1.628906 -0.625 1.742188 -0.652344 1.890625 -0.703125 L 1.960938 -0.0546875 C 1.765625 0.03125 1.542969 0.0703125 1.296875 0.0703125 C 1.148438 0.0703125 1.011719 0.046875 0.890625 -0.00390625 C 0.769531 -0.0546875 0.679688 -0.121094 0.621094 -0.203125 C 0.566406 -0.28125 0.527344 -0.390625 0.503906 -0.527344 C 0.488281 -0.625 0.476562 -0.824219 0.476562 -1.117188 L 0.476562 -2.5 L 0.09375 -2.5 L 0.09375 -3.167969 L 0.476562 -3.167969 L 0.476562 -3.796875 L 1.320312 -4.289062 L 1.320312 -3.167969 Z "/>
</g>
<g id="glyph-0-3">
</g>
<g id="glyph-0-4">
<path d="M 1.902344 0 L 1.902344 -0.878906 L 0.113281 -0.878906 L 0.113281 -1.613281 L 2.011719 -4.390625 L 2.714844 -4.390625 L 2.714844 -1.617188 L 3.257812 -1.617188 L 3.257812 -0.878906 L 2.714844 -0.878906 L 2.714844 0 L 1.902344 0 M 1.902344 -1.617188 L 1.902344 -3.113281 L 0.898438 -1.617188 Z "/>
</g>
</g>
</defs>
<g fill="rgb(96.862745%, 85.098039%, 43.529412%)" fill-opacity="1">
<use xlink:href="#glyph-0-0" x="30" y="25.53125"/>
<use xlink:href="#glyph-0-1" x="34" y="25.53125"/>
<use xlink:href="#glyph-0-2" x="38" y="25.53125"/>
<use xlink:href="#glyph-0-3" x="40" y="25.53125"/>
<use xlink:href="#glyph-0-4" x="42" y="25.53125"/>
</g>
</svg>
