<?xml version="1.0" encoding="UTF-8"?>
<svg xmlns="http://www.w3.org/2000/svg" xmlns:xlink="http://www.w3.org/1999/xlink" width="854" height="480" viewBox="0 0 854 480">
<defs>
<g>
<g id="glyph-0-0">
<path d="M 3.859375 0 L 3.097656 0 L 1.296875 -2.136719 C 1.226562 -2.214844 1.1875 -2.269531 1.171875 -2.296875 L 1.160156 -2.296875 L 1.160156 0 L 0.613281 0 L 0.613281 -4.667969 L 1.160156 -4.667969 L 1.160156 -2.472656 L 1.171875 -2.472656 C 1.203125 -2.523438 1.242188 -2.574219 1.296875 -2.632812 L 3.039062 -4.667969 L 3.71875 -4.667969 L 1.71875 -2.429688 Z "/>
</g>
<g id="glyph-0-1">
<path d="M 3.21875 -1.53125 L 0.867188 -1.53125 C 0.875 -1.164062 0.972656 -0.875 1.164062 -0.671875 C 1.355469 -0.472656 1.617188 -0.371094 1.953125 -0.371094 C 2.328125 -0.371094 2.671875 -0.496094 2.988281 -0.742188 L 2.988281 -0.242188 C 2.695312 -0.0273438 2.308594 0.078125 1.824219 0.078125 C 1.355469 0.078125 0.984375 -0.0742188 0.714844 -0.375 C 0.445312 -0.679688 0.3125 -1.105469 0.3125 -1.652344 C 0.3125 -2.171875 0.460938 -2.59375 0.753906 -2.921875 C 1.046875 -3.25 1.414062 -3.410156 1.847656 -3.410156 C 2.285156 -3.410156 2.621094 -3.269531 2.859375 -2.988281 C 3.101562 -2.707031 3.21875 -2.3125 3.21875 -1.8125 L 3.21875 -1.53125 M 2.671875 -1.984375 C 2.671875 -2.292969 2.597656 -2.535156 2.449219 -2.703125 C 2.304688 -2.875 2.101562 -2.960938 1.839844 -2.960938 C 1.585938 -2.960938 1.375 -2.871094 1.199219 -2.691406 C 1.023438 -2.511719 0.914062 -2.277344 0.871094 -1.984375 L 2.671875 -1.984375 M 2.492188 -4.460938 L 3.078125 -5.261719 L 3.625 -5.261719 L 2.90625 -4.460938 L 2.492188 -4.460938 M 2.707031 -3.964844 L 2.3125 -3.964844 L 1.78125 -4.445312 L 1.242188 -3.964844 L 0.871094 -3.964844 L 1.574219 -4.777344 L 2.003906 -4.777344 Z "/>
</g>
<g id="glyph-0-2">
<path d="M 2.085938 -0.03125 C 1.960938 0.0351562 1.792969 0.0703125 1.589844 0.0703125 C 1.003906 0.0703125 0.710938 -0.253906 0.710938 -0.90625 L 0.710938 -2.878906 L 0.140625 -2.878906 L 0.140625 -3.332031 L 0.710938 -3.332031 L 0.710938 -4.148438 L 1.246094 -4.320312 L 1.246094 -3.332031 L 2.085938 -3.332031 L 2.085938 -2.878906 L 1.246094 -2.878906 L 1.246094 -1 C 1.246094 -0.777344 1.285156 -0.617188 1.359375 -0.519531 C 1.4375 -0.425781 1.5625 -0.378906 1.738281 -0.378906 C 1.871094 -0.378906 1.988281 -0.414062 2.085938 -0.488281 Z "/>
</g>
<g id="glyph-0-3">
</g>
<g id="glyph-0-4">
<path d="M 1.074219 0 L 0.539062 0 L 0.539062 -4.933594 L 1.074219 -4.933594 Z "/>
</g>
<g id="glyph-0-5">
<path d="M 3.234375 0 L 2.703125 0 L 2.703125 -0.527344 L 2.6875 -0.527344 C 2.46875 -0.125 2.125 0.078125 1.660156 0.078125 C 0.867188 0.078125 0.46875 -0.394531 0.46875 -1.339844 L 0.46875 -3.332031 L 1 -3.332031 L 1 -1.425781 C 1 -0.722656 1.269531 -0.371094 1.804688 -0.371094 C 2.066406 -0.371094 2.28125 -0.46875 2.449219 -0.660156 C 2.617188 -0.851562 2.703125 -1.101562 2.703125 -1.414062 L 2.703125 -3.332031 L 3.234375 -3.332031 Z "/>
</g>
<g id="glyph-0-6">
<path d="M 2.925781 0 L 2.390625 0 L 2.390625 -0.519531 L 2.378906 -0.519531 C 2.148438 -0.121094 1.804688 0.078125 1.355469 0.078125 C 1.023438 0.078125 0.761719 -0.0117188 0.574219 -0.183594 C 0.386719 -0.359375 0.292969 -0.59375 0.292969 -0.886719 C 0.292969 -1.507812 0.660156 -1.871094 1.394531 -1.972656 L 2.390625 -2.113281 C 2.390625 -2.679688 2.164062 -2.960938 1.707031 -2.960938 C 1.304688 -2.960938 0.941406 -2.824219 0.617188 -2.550781 L 0.617188 -3.097656 C 0.945312 -3.308594 1.324219 -3.410156 1.75 -3.410156 C 2.535156 -3.410156 2.925781 -2.996094 2.925781 -2.167969 L 2.925781 0 M 2.390625 -1.6875 L 1.589844 -1.574219 C 1.339844 -1.539062 1.15625 -1.480469 1.027344 -1.390625 C 0.902344 -1.304688 0.839844 -1.148438 0.839844 -0.925781 C 0.839844 -0.761719 0.898438 -0.628906 1.015625 -0.527344 C 1.128906 -0.421875 1.285156 -0.371094 1.476562 -0.371094 C 1.742188 -0.371094 1.960938 -0.464844 2.132812 -0.648438 C 2.304688 -0.835938 2.390625 -1.070312 2.390625 -1.355469 L 2.390625 -1.6875 M 2.625 -3.964844 L 2.230469 -3.964844 L 1.695312 -4.714844 L 1.160156 -3.964844 L 0.789062 -3.964844 L 1.492188 -5.046875 L 1.921875 -5.046875 L 2.625 -3.964844 M 1.742188 1.023438 C 1.652344 1.023438 1.578125 0.992188 1.511719 0.925781 C 1.449219 0.863281 1.417969 0.789062 1.417969 0.699219 C 1.417969 0.609375 1.453125 0.535156 1.515625 0.476562 C 1.582031 0.417969 1.65625 0.386719 1.742188 0.386719 C 1.832031 0.386719 1.90625 0.417969 1.96875 0.476562 C 2.03125 0.535156 2.0625 0.609375 2.0625 0.699219 C 2.0625 0.789062 2.03125 0.863281 1.96875 0.925781 C 1.90625 0.992188 1.832031 1.023438 1.742188 1.023438 Z "/>
</g>
<g id="glyph-0-7">
<path d="M 3.308594 0 L 2.773438 0 L 2.773438 -1.902344 C 2.773438 -2.609375 2.515625 -2.960938 2 -2.960938 C 1.730469 -2.960938 1.511719 -2.863281 1.335938 -2.660156 C 1.160156 -2.460938 1.074219 -2.207031 1.074219 -1.902344 L 1.074219 0 L 0.539062 0 L 0.539062 -3.332031 L 1.074219 -3.332031 L 1.074219 -2.78125 L 1.085938 -2.78125 C 1.339844 -3.199219 1.703125 -3.410156 2.179688 -3.410156 C 2.546875 -3.410156 2.824219 -3.292969 3.015625 -3.058594 C 3.210938 -2.824219 3.308594 -2.484375 3.308594 -2.039062 Z "/>
</g>
<g id="glyph-0-8">
<path d="M 0.726562 -2.683594 C 0.625 -2.683594 0.539062 -2.71875 0.46875 -2.789062 C 0.398438 -2.859375 0.363281 -2.945312 0.363281 -3.046875 C 0.363281 -3.148438 0.398438 -3.230469 0.46875 -3.300781 C 0.539062 -3.371094 0.625 -3.40625 0.726562 -3.40625 C 0.828125 -3.40625 0.914062 -3.371094 0.984375 -3.300781 C 1.058594 -3.230469 1.09375 -3.148438 1.09375 -3.046875 C 1.09375 -2.945312 1.058594 -2.859375 0.984375 -2.789062 C 0.914062 -2.71875 0.828125 -2.683594 0.726562 -2.683594 M 0.726562 0.0703125 C 0.625 0.0703125 0.539062 0.0351562 0.46875 -0.0351562 C 0.398438 -0.105469 0.363281 -0.191406 0.363281 -0.292969 C 0.363281 -0.394531 0.398438 -0.480469 0.46875 -0.550781 C 0.539062 -0.625 0.625 -0.660156 0.726562 -0.660156 C 0.828125 -0.660156 0.914062 -0.625 0.984375 -0.550781 C 1.058594 -0.480469 1.09375 -0.394531 1.09375 -0.292969 C 1.09375 -0.191406 1.058594 -0.105469 0.984375 -0.0351562 C 0.914062 0.0351562 0.828125 0.0703125 0.726562 0.0703125 Z "/>
</g>
<g id="glyph-0-9">
<path d="M 3.386719 -0.265625 C 3.386719 0.957031 2.800781 1.570312 1.628906 1.570312 C 1.214844 1.570312 0.855469 1.492188 0.546875 1.335938 L 0.546875 0.800781 C 0.921875 1.007812 1.28125 1.113281 1.621094 1.113281 C 2.441406 1.113281 2.851562 0.675781 2.851562 -0.195312 L 2.851562 -0.558594 L 2.839844 -0.558594 C 2.585938 -0.132812 2.203125 0.078125 1.691406 0.078125 C 1.277344 0.078125 0.945312 -0.0703125 0.691406 -0.367188 C 0.4375 -0.664062 0.3125 -1.058594 0.3125 -1.558594 C 0.3125 -2.125 0.449219 -2.574219 0.722656 -2.910156 C 0.992188 -3.246094 1.367188 -3.410156 1.839844 -3.410156 C 2.289062 -3.410156 2.621094 -3.230469 2.839844 -2.871094 L 2.851562 -2.871094 L 2.851562 -3.332031 L 3.386719 -3.332031 L 3.386719 -0.265625 M 2.851562 -1.507812 L 2.851562 -2 C 2.851562 -2.261719 2.761719 -2.492188 2.582031 -2.679688 C 2.402344 -2.867188 2.179688 -2.960938 1.914062 -2.960938 C 1.585938 -2.960938 1.324219 -2.84375 1.140625 -2.601562 C 0.953125 -2.363281 0.859375 -2.027344 0.859375 -1.59375 C 0.859375 -1.222656 0.949219 -0.925781 1.128906 -0.703125 C 1.308594 -0.480469 1.542969 -0.371094 1.839844 -0.371094 C 2.140625 -0.371094 2.382812 -0.476562 2.570312 -0.691406 C 2.757812 -0.902344 2.851562 -1.175781 2.851562 -1.507812 Z "/>
</g>
<g id="glyph-0-10">
<path d="M 0.8125 -4.179688 C 0.71875 -4.179688 0.636719 -4.210938 0.570312 -4.277344 C 0.503906 -4.34375 0.46875 -4.425781 0.46875 -4.523438 C 0.46875 -4.625 0.503906 -4.707031 0.570312 -4.773438 C 0.636719 -4.839844 0.71875 -4.875 0.8125 -4.875 C 0.910156 -4.875 0.996094 -4.839844 1.0625 -4.773438 C 1.132812 -4.707031 1.164062 -4.625 1.164062 -4.523438 C 1.164062 -4.429688 1.132812 -4.347656 1.0625 -4.28125 C 0.996094 -4.214844 0.910156 -4.179688 0.8125 -4.179688 M 1.074219 0 L 0.539062 0 L 0.539062 -3.332031 L 1.074219 -3.332031 Z "/>
</g>
<g id="glyph-0-11">
<path d="M 2.925781 0 L 2.390625 0 L 2.390625 -0.519531 L 2.378906 -0.519531 C 2.148438 -0.121094 1.804688 0.078125 1.355469 0.078125 C 1.023438 0.078125 0.761719 -0.0117188 0.574219 -0.183594 C 0.386719 -0.359375 0.292969 -0.59375 0.292969 -0.886719 C 0.292969 -1.507812 0.660156 -1.871094 1.394531 -1.972656 L 2.390625 -2.113281 C 2.390625 -2.679688 2.164062 -2.960938 1.707031 -2.960938 C 1.304688 -2.960938 0.941406 -2.824219 0.617188 -2.550781 L 0.617188 -3.097656 C 0.945312 -3.308594 1.324219 -3.410156 1.75 -3.410156 C 2.535156 -3.410156 2.925781 -2.996094 2.925781 -2.167969 L 2.925781 0 M 2.390625 -1.6875 L 1.589844 -1.574219 C 1.339844 -1.539062 1.15625 -1.480469 1.027344 -1.390625 C 0.902344 -1.304688 0.839844 -1.148438 0.839844 -0.925781 C 0.839844 -0.761719 0.898438 -0.628906 1.015625 -0.527344 C 1.128906 -0.421875 1.285156 -0.371094 1.476562 -0.371094 C 1.742188 -0.371094 1.960938 -0.464844 2.132812 -0.648438 C 2.304688 -0.835938 2.390625 -1.070312 2.390625 -1.355469 L 2.390625 -1.6875 M 1.351562 -5.113281 C 1.429688 -5.121094 1.519531 -5.125 1.609375 -5.125 C 1.800781 -5.125 1.960938 -5.082031 2.082031 -4.992188 C 2.203125 -4.898438 2.265625 -4.777344 2.265625 -4.621094 C 2.265625 -4.488281 2.222656 -4.378906 2.140625 -4.289062 C 2.058594 -4.195312 1.953125 -4.144531 1.828125 -4.128906 L 1.828125 -3.964844 L 1.476562 -3.964844 L 1.476562 -4.339844 C 1.722656 -4.339844 1.84375 -4.421875 1.84375 -4.585938 C 1.84375 -4.722656 1.742188 -4.792969 1.535156 -4.792969 C 1.5 -4.792969 1.4375 -4.78125 1.351562 -4.765625 Z "/>
</g>
<g id="glyph-0-12">
<path d="M 3.308594 0 L 2.773438 0 L 2.773438 -1.921875 C 2.773438 -2.613281 2.515625 -2.960938 2 -2.960938 C 1.738281 -2.960938 1.519531 -2.863281 1.339844 -2.660156 C 1.164062 -2.460938 1.074219 -2.203125 1.074219 -1.886719 L 1.074219 0 L 0.539062 0 L 0.539062 -4.933594 L 1.074219 -4.933594 L 1.074219 -2.78125 L 1.085938 -2.78125 C 1.34375 -3.199219 1.707031 -3.410156 2.179688 -3.410156 C 2.933594 -3.410156 3.308594 -2.957031 3.308594 -2.054688 Z "/>
</g>
<g id="glyph-0-13">
<path d="M 3.21875 -1.53125 L 0.867188 -1.53125 C 0.875 -1.164062 0.972656 -0.875 1.164062 -0.671875 C 1.355469 -0.472656 1.617188 -0.371094 1.953125 -0.371094 C 2.328125 -0.371094 2.671875 -0.496094 2.988281 -0.742188 L 2.988281 -0.242188 C 2.695312 -0.0273438 2.308594 0.078125 1.824219 0.078125 C 1.355469 0.078125 0.984375 -0.0742188 0.714844 -0.375 C 0.445312 -0.679688 0.3125 -1.105469 0.3125 -1.652344 C 0.3125 -2.171875 0.460938 -2.59375 0.753906 -2.921875 C 1.046875 -3.25 1.414062 -3.410156 1.847656 -3.410156 C 2.285156 -3.410156 2.621094 -3.269531 2.859375 -2.988281 C 3.101562 -2.707031 3.21875 -2.3125 3.21875 -1.8125 L 3.21875 -1.53125 M 2.671875 -1.984375 C 2.671875 -2.292969 2.597656 -2.535156 2.449219 -2.703125 C 2.304688 -2.875 2.101562 -2.960938 1.839844 -2.960938 C 1.585938 -2.960938 1.375 -2.871094 1.199219 -2.691406 C 1.023438 -2.511719 0.914062 -2.277344 0.871094 -1.984375 L 2.671875 -1.984375 M 2.722656 -3.964844 L 2.324219 -3.964844 L 1.789062 -4.714844 L 1.253906 -3.964844 L 0.886719 -3.964844 L 1.585938 -5.046875 L 2.019531 -5.046875 L 2.722656 -3.964844 M 1.886719 1.023438 C 1.800781 1.023438 1.722656 0.992188 1.660156 0.925781 C 1.597656 0.863281 1.566406 0.789062 1.566406 0.699219 C 1.566406 0.609375 1.597656 0.535156 1.664062 0.476562 C 1.726562 0.417969 1.804688 0.386719 1.886719 0.386719 C 1.976562 0.386719 2.054688 0.417969 2.117188 0.476562 C 2.179688 0.535156 2.210938 0.609375 2.210938 0.699219 C 2.210938 0.789062 2.179688 0.863281 2.117188 0.925781 C 2.054688 0.992188 1.976562 1.023438 1.886719 1.023438 Z "/>
</g>
<g id="glyph-0-14">
<path d="M 1.085938 -0.480469 L 1.074219 -0.480469 L 1.074219 1.53125 L 0.539062 1.53125 L 0.539062 -3.332031 L 1.074219 -3.332031 L 1.074219 -2.746094 L 1.085938 -2.746094 C 1.351562 -3.191406 1.734375 -3.410156 2.238281 -3.410156 C 2.667969 -3.410156 3.003906 -3.261719 3.246094 -2.964844 C 3.484375 -2.664062 3.605469 -2.265625 3.605469 -1.765625 C 3.605469 -1.207031 3.472656 -0.761719 3.199219 -0.425781 C 2.929688 -0.0898438 2.558594 0.078125 2.085938 0.078125 C 1.65625 0.078125 1.320312 -0.109375 1.085938 -0.480469 M 1.074219 -1.824219 L 1.074219 -1.359375 C 1.074219 -1.085938 1.164062 -0.851562 1.34375 -0.660156 C 1.523438 -0.46875 1.75 -0.371094 2.023438 -0.371094 C 2.347656 -0.371094 2.601562 -0.496094 2.785156 -0.742188 C 2.96875 -0.988281 3.058594 -1.332031 3.058594 -1.773438 C 3.058594 -2.144531 2.972656 -2.4375 2.800781 -2.644531 C 2.632812 -2.855469 2.398438 -2.960938 2.105469 -2.960938 C 1.796875 -2.960938 1.546875 -2.855469 1.355469 -2.636719 C 1.167969 -2.421875 1.074219 -2.152344 1.074219 -1.824219 Z "/>
</g>
<g id="glyph-0-15">
<path d="M 3.234375 0 L 2.703125 0 L 2.703125 -0.527344 L 2.6875 -0.527344 C 2.46875 -0.125 2.125 0.078125 1.660156 0.078125 C 0.867188 0.078125 0.46875 -0.394531 0.46875 -1.339844 L 0.46875 -3.332031 L 1 -3.332031 L 1 -1.425781 C 1 -0.722656 1.269531 -0.371094 1.804688 -0.371094 C 2.066406 -0.371094 2.28125 -0.46875 2.449219 -0.660156 C 2.617188 -0.851562 2.703125 -1.101562 2.703125 -1.414062 L 2.703125 -3.332031 L 3.097656 -3.332031 C 3.226562 -3.332031 3.332031 -3.371094 3.417969 -3.449219 C 3.503906 -3.527344 3.546875 -3.617188 3.546875 -3.726562 C 3.546875 -3.886719 3.527344 -4.027344 3.484375 -4.152344 L 3.917969 -4.152344 C 3.960938 -4.03125 3.980469 -3.882812 3.980469 -3.710938 C 3.980469 -3.28125 3.734375 -3.027344 3.234375 -2.949219 Z "/>
</g>
<g id="glyph-0-16">
<path d="M 3.386719 -4.152344 L 3.820312 -4.152344 C 3.863281 -4.03125 3.882812 -3.882812 3.882812 -3.710938 C 3.882812 -3.292969 3.644531 -3.042969 3.171875 -2.957031 C 3.453125 -2.648438 3.59375 -2.222656 3.59375 -1.679688 C 3.59375 -1.148438 3.445312 -0.722656 3.144531 -0.402344 C 2.84375 -0.0820312 2.4375 0.078125 1.933594 0.078125 C 1.441406 0.078125 1.046875 -0.078125 0.753906 -0.390625 C 0.460938 -0.699219 0.3125 -1.113281 0.3125 -1.628906 C 0.3125 -2.1875 0.464844 -2.625 0.769531 -2.9375 C 1.078125 -3.253906 1.492188 -3.410156 2.011719 -3.410156 C 2.117188 -3.410156 2.261719 -3.394531 2.449219 -3.367188 C 2.582031 -3.34375 2.765625 -3.332031 3 -3.332031 C 3.128906 -3.332031 3.234375 -3.371094 3.320312 -3.449219 C 3.40625 -3.527344 3.449219 -3.617188 3.449219 -3.726562 C 3.449219 -3.886719 3.429688 -4.027344 3.386719 -4.152344 M 1.972656 -2.960938 C 1.628906 -2.960938 1.359375 -2.84375 1.160156 -2.613281 C 0.960938 -2.378906 0.859375 -2.058594 0.859375 -1.648438 C 0.859375 -1.253906 0.960938 -0.941406 1.164062 -0.710938 C 1.363281 -0.484375 1.632812 -0.371094 1.972656 -0.371094 C 2.316406 -0.371094 2.582031 -0.484375 2.769531 -0.707031 C 2.953125 -0.929688 3.046875 -1.246094 3.046875 -1.660156 C 3.046875 -2.078125 2.953125 -2.398438 2.769531 -2.625 C 2.582031 -2.847656 2.316406 -2.960938 1.972656 -2.960938 Z "/>
</g>
<g id="glyph-0-17">
<path d="M 2.277344 -2.792969 C 2.183594 -2.863281 2.050781 -2.898438 1.875 -2.898438 C 1.648438 -2.898438 1.457031 -2.792969 1.304688 -2.578125 C 1.152344 -2.363281 1.074219 -2.070312 1.074219 -1.699219 L 1.074219 0 L 0.539062 0 L 0.539062 -3.332031 L 1.074219 -3.332031 L 1.074219 -2.644531 L 1.085938 -2.644531 C 1.164062 -2.878906 1.277344 -3.0625 1.433594 -3.195312 C 1.589844 -3.328125 1.765625 -3.390625 1.960938 -3.390625 C 2.097656 -3.390625 2.203125 -3.375 2.277344 -3.347656 Z "/>
</g>
<g id="glyph-0-18">
<path d="M 1.074219 0 L 0.539062 0 L 0.539062 -3.332031 L 1.074219 -3.332031 L 1.074219 0 M 1.203125 -3.964844 L 0.789062 -3.964844 L -0.0664062 -5.03125 L 0.480469 -5.03125 Z "/>
</g>
<g id="glyph-0-19">
<path d="M 2.925781 0 L 2.390625 0 L 2.390625 -0.519531 L 2.378906 -0.519531 C 2.148438 -0.121094 1.804688 0.078125 1.355469 0.078125 C 1.023438 0.078125 0.761719 -0.0117188 0.574219 -0.183594 C 0.386719 -0.359375 0.292969 -0.59375 0.292969 -0.886719 C 0.292969 -1.507812 0.660156 -1.871094 1.394531 -1.972656 L 2.390625 -2.113281 C 2.390625 -2.679688 2.164062 -2.960938 1.707031 -2.960938 C 1.304688 -2.960938 0.941406 -2.824219 0.617188 -2.550781 L 0.617188 -3.097656 C 0.945312 -3.308594 1.324219 -3.410156 1.75 -3.410156 C 2.535156 -3.410156 2.925781 -2.996094 2.925781 -2.167969 L 2.925781 0 M 2.390625 -1.6875 L 1.589844 -1.574219 C 1.339844 -1.539062 1.15625 -1.480469 1.027344 -1.390625 C 0.902344 -1.304688 0.839844 -1.148438 0.839844 -0.925781 C 0.839844 -0.761719 0.898438 -0.628906 1.015625 -0.527344 C 1.128906 -0.421875 1.285156 -0.371094 1.476562 -0.371094 C 1.742188 -0.371094 1.960938 -0.464844 2.132812 -0.648438 C 2.304688 -0.835938 2.390625 -1.070312 2.390625 -1.355469 L 2.390625 -1.6875 M 2.195312 -3.964844 L 1.78125 -3.964844 L 0.925781 -5.03125 L 1.472656 -5.03125 Z "/>
</g>
<g id="glyph-0-20">
<path d="M 5.273438 0 L 4.738281 0 L 4.738281 -1.914062 C 4.738281 -2.28125 4.683594 -2.550781 4.570312 -2.714844 C 4.453125 -2.878906 4.261719 -2.960938 3.992188 -2.960938 C 3.765625 -2.960938 3.574219 -2.859375 3.414062 -2.648438 C 3.253906 -2.441406 3.171875 -2.191406 3.171875 -1.902344 L 3.171875 0 L 2.640625 0 L 2.640625 -1.980469 C 2.640625 -2.632812 2.386719 -2.960938 1.882812 -2.960938 C 1.648438 -2.960938 1.453125 -2.863281 1.300781 -2.667969 C 1.148438 -2.472656 1.074219 -2.214844 1.074219 -1.902344 L 1.074219 0 L 0.539062 0 L 0.539062 -3.332031 L 1.074219 -3.332031 L 1.074219 -2.804688 L 1.085938 -2.804688 C 1.324219 -3.210938 1.667969 -3.410156 2.121094 -3.410156 C 2.351562 -3.410156 2.546875 -3.347656 2.71875 -3.222656 C 2.886719 -3.09375 3.003906 -2.925781 3.066406 -2.722656 C 3.3125 -3.179688 3.683594 -3.410156 4.171875 -3.410156 C 4.90625 -3.410156 5.273438 -2.957031 5.273438 -2.054688 Z "/>
</g>
<g id="glyph-0-21">
<path d="M 2.976562 -3.332031 L 1.855469 -1.648438 L 2.957031 0 L 2.335938 0 L 1.679688 -1.082031 C 1.636719 -1.148438 1.589844 -1.234375 1.53125 -1.335938 L 1.519531 -1.335938 C 1.507812 -1.316406 1.457031 -1.230469 1.367188 -1.082031 L 0.699219 0 L 0.0859375 0 L 1.21875 -1.632812 L 0.132812 -3.332031 L 0.753906 -3.332031 L 1.398438 -2.195312 C 1.449219 -2.109375 1.492188 -2.023438 1.539062 -1.933594 L 1.550781 -1.933594 L 2.386719 -3.332031 Z "/>
</g>
<g id="glyph-1-0">
<path d="M 0.339844 -0.121094 L 0.339844 -0.691406 C 0.628906 -0.476562 0.949219 -0.371094 1.296875 -0.371094 C 1.765625 -0.371094 2 -0.527344 2 -0.839844 C 2 -0.929688 1.980469 -1.003906 1.941406 -1.066406 C 1.902344 -1.128906 1.847656 -1.183594 1.777344 -1.230469 C 1.710938 -1.277344 1.628906 -1.320312 1.539062 -1.359375 C 1.445312 -1.398438 1.347656 -1.4375 1.242188 -1.476562 C 1.09375 -1.535156 0.964844 -1.59375 0.851562 -1.65625 C 0.738281 -1.714844 0.644531 -1.78125 0.570312 -1.855469 C 0.496094 -1.933594 0.441406 -2.015625 0.402344 -2.113281 C 0.363281 -2.207031 0.34375 -2.320312 0.34375 -2.449219 C 0.34375 -2.605469 0.378906 -2.742188 0.453125 -2.863281 C 0.523438 -2.984375 0.621094 -3.085938 0.738281 -3.164062 C 0.859375 -3.246094 0.996094 -3.308594 1.148438 -3.347656 C 1.300781 -3.390625 1.457031 -3.410156 1.621094 -3.410156 C 1.910156 -3.410156 2.167969 -3.363281 2.394531 -3.261719 L 2.394531 -2.722656 C 2.152344 -2.882812 1.867188 -2.960938 1.550781 -2.960938 C 1.449219 -2.960938 1.359375 -2.949219 1.277344 -2.929688 C 1.199219 -2.90625 1.128906 -2.875 1.074219 -2.832031 C 1.015625 -2.789062 0.96875 -2.742188 0.9375 -2.683594 C 0.90625 -2.625 0.890625 -2.5625 0.890625 -2.492188 C 0.890625 -2.40625 0.90625 -2.335938 0.9375 -2.273438 C 0.96875 -2.21875 1.015625 -2.164062 1.078125 -2.117188 C 1.136719 -2.074219 1.210938 -2.03125 1.296875 -1.996094 C 1.386719 -1.957031 1.484375 -1.917969 1.59375 -1.875 C 1.742188 -1.820312 1.875 -1.761719 1.992188 -1.699219 C 2.109375 -1.640625 2.210938 -1.574219 2.292969 -1.5 C 2.375 -1.425781 2.4375 -1.335938 2.480469 -1.242188 C 2.527344 -1.140625 2.546875 -1.027344 2.546875 -0.890625 C 2.546875 -0.726562 2.511719 -0.582031 2.441406 -0.460938 C 2.367188 -0.339844 2.269531 -0.238281 2.148438 -0.160156 C 2.027344 -0.078125 1.886719 -0.0195312 1.726562 0.0195312 C 1.570312 0.0585938 1.402344 0.078125 1.230469 0.078125 C 0.886719 0.078125 0.589844 0.0117188 0.339844 -0.121094 Z "/>
</g>
<g id="glyph-1-1">
<path d="M 2.925781 0 L 2.390625 0 L 2.390625 -0.519531 L 2.378906 -0.519531 C 2.148438 -0.121094 1.804688 0.078125 1.355469 0.078125 C 1.023438 0.078125 0.761719 -0.0117188 0.574219 -0.183594 C 0.386719 -0.359375 0.292969 -0.59375 0.292969 -0.886719 C 0.292969 -1.507812 0.660156 -1.871094 1.394531 -1.972656 L 2.390625 -2.113281 C 2.390625 -2.679688 2.164062 -2.960938 1.707031 -2.960938 C 1.304688 -2.960938 0.941406 -2.824219 0.617188 -2.550781 L 0.617188 -3.097656 C 0.945312 -3.308594 1.324219 -3.410156 1.75 -3.410156 C 2.535156 -3.410156 2.925781 -2.996094 2.925781 -2.167969 L 2.925781 0 M 2.390625 -1.6875 L 1.589844 -1.574219 C 1.339844 -1.539062 1.15625 -1.480469 1.027344 -1.390625 C 0.902344 -1.304688 0.839844 -1.148438 0.839844 -0.925781 C 0.839844 -0.761719 0.898438 -0.628906 1.015625 -0.527344 C 1.128906 -0.421875 1.285156 -0.371094 1.476562 -0.371094 C 1.742188 -0.371094 1.960938 -0.464844 2.132812 -0.648438 C 2.304688 -0.835938 2.390625 -1.070312 2.390625 -1.355469 Z "/>
</g>
<g id="glyph-1-2">
<path d="M 1.933594 0.078125 C 1.441406 0.078125 1.046875 -0.078125 0.753906 -0.390625 C 0.460938 -0.699219 0.3125 -1.113281 0.3125 -1.628906 C 0.3125 -2.1875 0.464844 -2.625 0.769531 -2.9375 C 1.078125 -3.253906 1.492188 -3.410156 2.011719 -3.410156 C 2.507812 -3.410156 2.898438 -3.257812 3.175781 -2.953125 C 3.453125 -2.644531 3.59375 -2.222656 3.59375 -1.679688 C 3.59375 -1.148438 3.445312 -0.722656 3.144531 -0.402344 C 2.84375 -0.0820312 2.4375 0.078125 1.933594 0.078125 M 1.972656 -2.960938 C 1.628906 -2.960938 1.359375 -2.84375 1.160156 -2.613281 C 0.960938 -2.378906 0.859375 -2.058594 0.859375 -1.648438 C 0.859375 -1.253906 0.960938 -0.941406 1.164062 -0.710938 C 1.363281 -0.484375 1.632812 -0.371094 1.972656 -0.371094 C 2.316406 -0.371094 2.582031 -0.484375 2.769531 -0.707031 C 2.953125 -0.929688 3.046875 -1.246094 3.046875 -1.660156 C 3.046875 -2.078125 2.953125 -2.398438 2.769531 -2.625 C 2.582031 -2.847656 2.316406 -2.960938 1.972656 -2.960938 Z "/>
</g>
<g id="glyph-1-3">
</g>
<g id="glyph-1-4">
<path d="M 2.8125 -0.152344 C 2.554688 0 2.253906 0.078125 1.902344 0.078125 C 1.425781 0.078125 1.042969 -0.078125 0.75 -0.386719 C 0.457031 -0.695312 0.3125 -1.097656 0.3125 -1.589844 C 0.3125 -2.136719 0.46875 -2.578125 0.785156 -2.910156 C 1.097656 -3.246094 1.519531 -3.410156 2.042969 -3.410156 C 2.335938 -3.410156 2.59375 -3.355469 2.820312 -3.25 L 2.820312 -2.703125 C 2.570312 -2.875 2.308594 -2.960938 2.023438 -2.960938 C 1.683594 -2.960938 1.40625 -2.839844 1.1875 -2.597656 C 0.96875 -2.351562 0.859375 -2.03125 0.859375 -1.632812 C 0.859375 -1.242188 0.960938 -0.933594 1.167969 -0.710938 C 1.371094 -0.484375 1.648438 -0.371094 1.992188 -0.371094 C 2.28125 -0.371094 2.554688 -0.46875 2.8125 -0.660156 Z "/>
</g>
<g id="glyph-1-5">
<path d="M 3.308594 0 L 2.773438 0 L 2.773438 -1.921875 C 2.773438 -2.613281 2.515625 -2.960938 2 -2.960938 C 1.738281 -2.960938 1.519531 -2.863281 1.339844 -2.660156 C 1.164062 -2.460938 1.074219 -2.203125 1.074219 -1.886719 L 1.074219 0 L 0.539062 0 L 0.539062 -4.933594 L 1.074219 -4.933594 L 1.074219 -2.78125 L 1.085938 -2.78125 C 1.34375 -3.199219 1.707031 -3.410156 2.179688 -3.410156 C 2.933594 -3.410156 3.308594 -2.957031 3.308594 -2.054688 Z "/>
</g>
<g id="glyph-1-6">
<path d="M 4.226562 0 L 3.621094 0 L 3.125 -1.308594 L 1.144531 -1.308594 L 0.679688 0 L 0.0703125 0 L 1.863281 -4.667969 L 2.429688 -4.667969 L 4.226562 0 M 2.945312 -1.800781 L 2.214844 -3.789062 C 2.191406 -3.855469 2.164062 -3.957031 2.140625 -4.101562 L 2.128906 -4.101562 C 2.105469 -3.96875 2.082031 -3.863281 2.054688 -3.789062 L 1.328125 -1.800781 Z "/>
</g>
<g id="glyph-1-7">
<path d="M 0.726562 -1.660156 C 0.625 -1.660156 0.539062 -1.695312 0.46875 -1.765625 C 0.398438 -1.839844 0.363281 -1.925781 0.363281 -2.023438 C 0.363281 -2.125 0.398438 -2.214844 0.46875 -2.285156 C 0.539062 -2.355469 0.625 -2.390625 0.726562 -2.390625 C 0.828125 -2.390625 0.914062 -2.355469 0.984375 -2.285156 C 1.058594 -2.214844 1.09375 -2.125 1.09375 -2.023438 C 1.09375 -1.925781 1.058594 -1.839844 0.984375 -1.765625 C 0.914062 -1.695312 0.828125 -1.660156 0.726562 -1.660156 Z "/>
</g>
<g id="glyph-1-8">
<path d="M 2.976562 -3.332031 L 1.855469 -1.648438 L 2.957031 0 L 2.335938 0 L 1.679688 -1.082031 C 1.636719 -1.148438 1.589844 -1.234375 1.53125 -1.335938 L 1.519531 -1.335938 C 1.507812 -1.316406 1.457031 -1.230469 1.367188 -1.082031 L 0.699219 0 L 0.0859375 0 L 1.21875 -1.632812 L 0.132812 -3.332031 L 0.753906 -3.332031 L 1.398438 -2.195312 C 1.449219 -2.109375 1.492188 -2.023438 1.539062 -1.933594 L 1.550781 -1.933594 L 2.386719 -3.332031 Z "/>
</g>
<g id="glyph-1-9">
<path d="M 3.816406 -2.421875 L 0.753906 -2.421875 L 0.753906 -2.851562 L 3.816406 -2.851562 L 3.816406 -2.421875 M 3.816406 -1.035156 L 0.753906 -1.035156 L 0.753906 -1.464844 L 3.816406 -1.464844 Z "/>
</g>
<g id="glyph-1-10">
<path d="M 1.085938 -0.480469 L 1.074219 -0.480469 L 1.074219 0 L 0.539062 0 L 0.539062 -4.933594 L 1.074219 -4.933594 L 1.074219 -2.746094 L 1.085938 -2.746094 C 1.351562 -3.191406 1.734375 -3.410156 2.238281 -3.410156 C 2.667969 -3.410156 3 -3.261719 3.242188 -2.964844 C 3.484375 -2.664062 3.605469 -2.265625 3.605469 -1.765625 C 3.605469 -1.207031 3.472656 -0.761719 3.199219 -0.425781 C 2.929688 -0.0898438 2.558594 0.078125 2.085938 0.078125 C 1.644531 0.078125 1.3125 -0.109375 1.085938 -0.480469 M 1.074219 -1.824219 L 1.074219 -1.359375 C 1.074219 -1.085938 1.164062 -0.851562 1.34375 -0.660156 C 1.523438 -0.46875 1.75 -0.371094 2.023438 -0.371094 C 2.347656 -0.371094 2.601562 -0.496094 2.785156 -0.742188 C 2.96875 -0.988281 3.058594 -1.332031 3.058594 -1.773438 C 3.058594 -2.144531 2.972656 -2.4375 2.800781 -2.644531 C 2.632812 -2.855469 2.398438 -2.960938 2.105469 -2.960938 C 1.796875 -2.960938 1.546875 -2.855469 1.355469 -2.636719 C 1.167969 -2.421875 1.074219 -2.152344 1.074219 -1.824219 Z "/>
</g>
<g id="glyph-1-11">
<path d="M 0.726562 0.0703125 C 0.625 0.0703125 0.539062 0.0351562 0.46875 -0.0351562 C 0.398438 -0.105469 0.363281 -0.191406 0.363281 -0.292969 C 0.363281 -0.394531 0.398438 -0.480469 0.46875 -0.550781 C 0.539062 -0.625 0.625 -0.660156 0.726562 -0.660156 C 0.828125 -0.660156 0.914062 -0.625 0.984375 -0.550781 C 1.058594 -0.480469 1.09375 -0.394531 1.09375 -0.292969 C 1.09375 -0.191406 1.058594 -0.105469 0.984375 -0.0351562 C 0.914062 0.0351562 0.828125 0.0703125 0.726562 0.0703125 Z "/>
</g>
<g id="glyph-1-12">
<path d="M 4.082031 -4.667969 L 2.351562 0 L 1.75 0 L 0.0585938 -4.667969 L 0.667969 -4.667969 L 1.960938 -0.964844 C 2 -0.847656 2.03125 -0.710938 2.054688 -0.554688 L 2.066406 -0.554688 C 2.085938 -0.683594 2.121094 -0.824219 2.175781 -0.972656 L 3.492188 -4.667969 Z "/>
</g>
<g id="glyph-1-13">
<path d="M 3.21875 -1.53125 L 0.867188 -1.53125 C 0.875 -1.164062 0.972656 -0.875 1.164062 -0.671875 C 1.355469 -0.472656 1.617188 -0.371094 1.953125 -0.371094 C 2.328125 -0.371094 2.671875 -0.496094 2.988281 -0.742188 L 2.988281 -0.242188 C 2.695312 -0.0273438 2.308594 0.078125 1.824219 0.078125 C 1.355469 0.078125 0.984375 -0.0742188 0.714844 -0.375 C 0.445312 -0.679688 0.3125 -1.105469 0.3125 -1.652344 C 0.3125 -2.171875 0.460938 -2.59375 0.753906 -2.921875 C 1.046875 -3.25 1.414062 -3.410156 1.847656 -3.410156 C 2.285156 -3.410156 2.621094 -3.269531 2.859375 -2.988281 C 3.101562 -2.707031 3.21875 -2.3125 3.21875 -1.8125 L 3.21875 -1.53125 M 2.671875 -1.984375 C 2.671875 -2.292969 2.597656 -2.535156 2.449219 -2.703125 C 2.304688 -2.875 2.101562 -2.960938 1.839844 -2.960938 C 1.585938 -2.960938 1.375 -2.871094 1.199219 -2.691406 C 1.023438 -2.511719 0.914062 -2.277344 0.871094 -1.984375 L 2.671875 -1.984375 M 1.171875 -4.460938 L 0.761719 -4.460938 L 0.0390625 -5.261719 L 0.585938 -5.261719 L 1.171875 -4.460938 M 0.960938 -3.964844 L 1.660156 -4.777344 L 2.097656 -4.777344 L 2.792969 -3.964844 L 2.429688 -3.964844 L 1.886719 -4.445312 L 1.355469 -3.964844 Z "/>
</g>
<g id="glyph-1-14">
<path d="M 1.074219 0 L 0.539062 0 L 0.539062 -3.332031 L 1.074219 -3.332031 L 1.074219 0 M 1.203125 -3.964844 L 0.789062 -3.964844 L -0.0664062 -5.03125 L 0.480469 -5.03125 Z "/>
</g>
<g id="glyph-1-15">
<path d="M 3.308594 0 L 2.773438 0 L 2.773438 -1.902344 C 2.773438 -2.609375 2.515625 -2.960938 2 -2.960938 C 1.730469 -2.960938 1.511719 -2.863281 1.335938 -2.660156 C 1.160156 -2.460938 1.074219 -2.207031 1.074219 -1.902344 L 1.074219 0 L 0.539062 0 L 0.539062 -3.332031 L 1.074219 -3.332031 L 1.074219 -2.78125 L 1.085938 -2.78125 C 1.339844 -3.199219 1.703125 -3.410156 2.179688 -3.410156 C 2.546875 -3.410156 2.824219 -3.292969 3.015625 -3.058594 C 3.210938 -2.824219 3.308594 -2.484375 3.308594 -2.039062 Z "/>
</g>
<g id="glyph-1-16">
<path d="M 1.933594 0.078125 C 1.441406 0.078125 1.046875 -0.078125 0.753906 -0.390625 C 0.460938 -0.699219 0.3125 -1.113281 0.3125 -1.628906 C 0.3125 -2.1875 0.464844 -2.625 0.769531 -2.9375 C 1.078125 -3.253906 1.492188 -3.410156 2.011719 -3.410156 C 2.507812 -3.410156 2.898438 -3.257812 3.175781 -2.953125 C 3.453125 -2.644531 3.59375 -2.222656 3.59375 -1.679688 C 3.59375 -1.148438 3.445312 -0.722656 3.144531 -0.402344 C 2.84375 -0.0820312 2.4375 0.078125 1.933594 0.078125 M 1.972656 -2.960938 C 1.628906 -2.960938 1.359375 -2.84375 1.160156 -2.613281 C 0.960938 -2.378906 0.859375 -2.058594 0.859375 -1.648438 C 0.859375 -1.253906 0.960938 -0.941406 1.164062 -0.710938 C 1.363281 -0.484375 1.632812 -0.371094 1.972656 -0.371094 C 2.316406 -0.371094 2.582031 -0.484375 2.769531 -0.707031 C 2.953125 -0.929688 3.046875 -1.246094 3.046875 -1.660156 C 3.046875 -2.078125 2.953125 -2.398438 2.769531 -2.625 C 2.582031 -2.847656 2.316406 -2.960938 1.972656 -2.960938 M 1.960938 1.023438 C 1.875 1.023438 1.796875 0.992188 1.734375 0.925781 C 1.671875 0.863281 1.640625 0.789062 1.640625 0.699219 C 1.640625 0.609375 1.671875 0.535156 1.738281 0.476562 C 1.804688 0.417969 1.878906 0.386719 1.960938 0.386719 C 2.050781 0.386719 2.128906 0.417969 2.191406 0.476562 C 2.253906 0.535156 2.285156 0.609375 2.285156 0.699219 C 2.285156 0.789062 2.253906 0.863281 2.191406 0.925781 C 2.128906 0.992188 2.050781 1.023438 1.960938 1.023438 Z "/>
</g>
<g id="glyph-1-17">
<path d="M 1.027344 -0.742188 L 0.507812 0.859375 L 0.125 0.859375 L 0.507812 -0.742188 Z "/>
</g>
<g id="glyph-1-18">
<path d="M 3.386719 -0.265625 C 3.386719 0.957031 2.800781 1.570312 1.628906 1.570312 C 1.214844 1.570312 0.855469 1.492188 0.546875 1.335938 L 0.546875 0.800781 C 0.921875 1.007812 1.28125 1.113281 1.621094 1.113281 C 2.441406 1.113281 2.851562 0.675781 2.851562 -0.195312 L 2.851562 -0.558594 L 2.839844 -0.558594 C 2.585938 -0.132812 2.203125 0.078125 1.691406 0.078125 C 1.277344 0.078125 0.945312 -0.0703125 0.691406 -0.367188 C 0.4375 -0.664062 0.3125 -1.058594 0.3125 -1.558594 C 0.3125 -2.125 0.449219 -2.574219 0.722656 -2.910156 C 0.992188 -3.246094 1.367188 -3.410156 1.839844 -3.410156 C 2.289062 -3.410156 2.621094 -3.230469 2.839844 -2.871094 L 2.851562 -2.871094 L 2.851562 -3.332031 L 3.386719 -3.332031 L 3.386719 -0.265625 M 2.851562 -1.507812 L 2.851562 -2 C 2.851562 -2.261719 2.761719 -2.492188 2.582031 -2.679688 C 2.402344 -2.867188 2.179688 -2.960938 1.914062 -2.960938 C 1.585938 -2.960938 1.324219 -2.84375 1.140625 -2.601562 C 0.953125 -2.363281 0.859375 -2.027344 0.859375 -1.59375 C 0.859375 -1.222656 0.949219 -0.925781 1.128906 -0.703125 C 1.308594 -0.480469 1.542969 -0.371094 1.839844 -0.371094 C 2.140625 -0.371094 2.382812 -0.476562 2.570312 -0.691406 C 2.757812 -0.902344 2.851562 -1.175781 2.851562 -1.507812 Z "/>
</g>
<g id="glyph-1-19">
<path d="M 0.8125 -4.179688 C 0.71875 -4.179688 0.636719 -4.210938 0.570312 -4.277344 C 0.503906 -4.34375 0.46875 -4.425781 0.46875 -4.523438 C 0.46875 -4.625 0.503906 -4.707031 0.570312 -4.773438 C 0.636719 -4.839844 0.71875 -4.875 0.8125 -4.875 C 0.910156 -4.875 0.996094 -4.839844 1.0625 -4.773438 C 1.132812 -4.707031 1.164062 -4.625 1.164062 -4.523438 C 1.164062 -4.429688 1.132812 -4.347656 1.0625 -4.28125 C 0.996094 -4.214844 0.910156 -4.179688 0.8125 -4.179688 M 1.074219 0 L 0.539062 0 L 0.539062 -3.332031 L 1.074219 -3.332031 Z "/>
</g>
<g id="glyph-1-20">
<path d="M 3.21875 -1.53125 L 0.867188 -1.53125 C 0.875 -1.164062 0.972656 -0.875 1.164062 -0.671875 C 1.355469 -0.472656 1.617188 -0.371094 1.953125 -0.371094 C 2.328125 -0.371094 2.671875 -0.496094 2.988281 -0.742188 L 2.988281 -0.242188 C 2.695312 -0.0273438 2.308594 0.078125 1.824219 0.078125 C 1.355469 0.078125 0.984375 -0.0742188 0.714844 -0.375 C 0.445312 -0.679688 0.3125 -1.105469 0.3125 -1.652344 C 0.3125 -2.171875 0.460938 -2.59375 0.753906 -2.921875 C 1.046875 -3.25 1.414062 -3.410156 1.847656 -3.410156 C 2.285156 -3.410156 2.621094 -3.269531 2.859375 -2.988281 C 3.101562 -2.707031 3.21875 -2.3125 3.21875 -1.8125 L 3.21875 -1.53125 M 2.671875 -1.984375 C 2.671875 -2.292969 2.597656 -2.535156 2.449219 -2.703125 C 2.304688 -2.875 2.101562 -2.960938 1.839844 -2.960938 C 1.585938 -2.960938 1.375 -2.871094 1.199219 -2.691406 C 1.023438 -2.511719 0.914062 -2.277344 0.871094 -1.984375 L 2.671875 -1.984375 M 2.722656 -3.964844 L 2.324219 -3.964844 L 1.789062 -4.714844 L 1.253906 -3.964844 L 0.886719 -3.964844 L 1.585938 -5.046875 L 2.019531 -5.046875 L 2.722656 -3.964844 M 1.886719 1.023438 C 1.800781 1.023438 1.722656 0.992188 1.660156 0.925781 C 1.597656 0.863281 1.566406 0.789062 1.566406 0.699219 C 1.566406 0.609375 1.597656 0.535156 1.664062 0.476562 C 1.726562 0.417969 1.804688 0.386719 1.886719 0.386719 C 1.976562 0.386719 2.054688 0.417969 2.117188 0.476562 C 2.179688 0.535156 2.210938 0.609375 2.210938 0.699219 C 2.210938 0.789062 2.179688 0.863281 2.117188 0.925781 C 2.054688 0.992188 1.976562 1.023438 1.886719 1.023438 Z "/>
</g>
<g id="glyph-1-21">
<path d="M 5.273438 0 L 4.738281 0 L 4.738281 -1.914062 C 4.738281 -2.28125 4.683594 -2.550781 4.570312 -2.714844 C 4.453125 -2.878906 4.261719 -2.960938 3.992188 -2.960938 C 3.765625 -2.960938 3.574219 -2.859375 3.414062 -2.648438 C 3.253906 -2.441406 3.171875 -2.191406 3.171875 -1.902344 L 3.171875 0 L 2.640625 0 L 2.640625 -1.980469 C 2.640625 -2.632812 2.386719 -2.960938 1.882812 -2.960938 C 1.648438 -2.960938 1.453125 -2.863281 1.300781 -2.667969 C 1.148438 -2.472656 1.074219 -2.214844 1.074219 -1.902344 L 1.074219 0 L 0.539062 0 L 0.539062 -3.332031 L 1.074219 -3.332031 L 1.074219 -2.804688 L 1.085938 -2.804688 C 1.324219 -3.210938 1.667969 -3.410156 2.121094 -3.410156 C 2.351562 -3.410156 2.546875 -3.347656 2.71875 -3.222656 C 2.886719 -3.09375 3.003906 -2.925781 3.066406 -2.722656 C 3.3125 -3.179688 3.683594 -3.410156 4.171875 -3.410156 C 4.90625 -3.410156 5.273438 -2.957031 5.273438 -2.054688 Z "/>
</g>
<g id="glyph-1-22">
<path d="M 1.074219 0 L 0.539062 0 L 0.539062 -4.933594 L 1.074219 -4.933594 Z "/>
</g>
<g id="glyph-1-23">
<path d="M 2.925781 0 L 2.390625 0 L 2.390625 -0.519531 L 2.378906 -0.519531 C 2.148438 -0.121094 1.804688 0.078125 1.355469 0.078125 C 1.023438 0.078125 0.761719 -0.0117188 0.574219 -0.183594 C 0.386719 -0.359375 0.292969 -0.59375 0.292969 -0.886719 C 0.292969 -1.507812 0.660156 -1.871094 1.394531 -1.972656 L 2.390625 -2.113281 C 2.390625 -2.679688 2.164062 -2.960938 1.707031 -2.960938 C 1.304688 -2.960938 0.941406 -2.824219 0.617188 -2.550781 L 0.617188 -3.097656 C 0.945312 -3.308594 1.324219 -3.410156 1.75 -3.410156 C 2.535156 -3.410156 2.925781 -2.996094 2.925781 -2.167969 L 2.925781 0 M 2.390625 -1.6875 L 1.589844 -1.574219 C 1.339844 -1.539062 1.15625 -1.480469 1.027344 -1.390625 C 0.902344 -1.304688 0.839844 -1.148438 0.839844 -0.925781 C 0.839844 -0.761719 0.898438 -0.628906 1.015625 -0.527344 C 1.128906 -0.421875 1.285156 -0.371094 1.476562 -0.371094 C 1.742188 -0.371094 1.960938 -0.464844 2.132812 -0.648438 C 2.304688 -0.835938 2.390625 -1.070312 2.390625 -1.355469 L 2.390625 -1.6875 M 2.195312 -3.964844 L 1.78125 -3.964844 L 0.925781 -5.03125 L 1.472656 -5.03125 Z "/>
</g>
<g id="glyph-2-0">
<path d="M 3.386719 -0.265625 C 3.386719 0.957031 2.800781 1.570312 1.628906 1.570312 C 1.214844 1.570312 0.855469 1.492188 0.546875 1.335938 L 0.546875 0.800781 C 0.921875 1.007812 1.28125 1.113281 1.621094 1.113281 C 2.441406 1.113281 2.851562 0.675781 2.851562 -0.195312 L 2.851562 -0.558594 L 2.839844 -0.558594 C 2.585938 -0.132812 2.203125 0.078125 1.691406 0.078125 C 1.277344 0.078125 0.945312 -0.0703125 0.691406 -0.367188 C 0.4375 -0.664062 0.3125 -1.058594 0.3125 -1.558594 C 0.3125 -2.125 0.449219 -2.574219 0.722656 -2.910156 C 0.992188 -3.246094 1.367188 -3.410156 1.839844 -3.410156 C 2.289062 -3.410156 2.621094 -3.230469 2.839844 -2.871094 L 2.851562 -2.871094 L 2.851562 -3.332031 L 3.386719 -3.332031 L 3.386719 -0.265625 M 2.851562 -1.507812 L 2.851562 -2 C 2.851562 -2.261719 2.761719 -2.492188 2.582031 -2.679688 C 2.402344 -2.867188 2.179688 -2.960938 1.914062 -2.960938 C 1.585938 -2.960938 1.324219 -2.84375 1.140625 -2.601562 C 0.953125 -2.363281 0.859375 -2.027344 0.859375 -1.59375 C 0.859375 -1.222656 0.949219 -0.925781 1.128906 -0.703125 C 1.308594 -0.480469 1.542969 -0.371094 1.839844 -0.371094 C 2.140625 -0.371094 2.382812 -0.476562 2.570312 -0.691406 C 2.757812 -0.902344 2.851562 -1.175781 2.851562 -1.507812 Z "/>
</g>
<g id="glyph-2-1">
<path d="M 0.8125 -4.179688 C 0.71875 -4.179688 0.636719 -4.210938 0.570312 -4.277344 C 0.503906 -4.34375 0.46875 -4.425781 0.46875 -4.523438 C 0.46875 -4.625 0.503906 -4.707031 0.570312 -4.773438 C 0.636719 -4.839844 0.71875 -4.875 0.8125 -4.875 C 0.910156 -4.875 0.996094 -4.839844 1.0625 -4.773438 C 1.132812 -4.707031 1.164062 -4.625 1.164062 -4.523438 C 1.164062 -4.429688 1.132812 -4.347656 1.0625 -4.28125 C 0.996094 -4.214844 0.910156 -4.179688 0.8125 -4.179688 M 1.074219 0 L 0.539062 0 L 0.539062 -3.332031 L 1.074219 -3.332031 Z "/>
</g>
<g id="glyph-2-2">
<path d="M 2.925781 0 L 2.390625 0 L 2.390625 -0.519531 L 2.378906 -0.519531 C 2.148438 -0.121094 1.804688 0.078125 1.355469 0.078125 C 1.023438 0.078125 0.761719 -0.0117188 0.574219 -0.183594 C 0.386719 -0.359375 0.292969 -0.59375 0.292969 -0.886719 C 0.292969 -1.507812 0.660156 -1.871094 1.394531 -1.972656 L 2.390625 -2.113281 C 2.390625 -2.679688 2.164062 -2.960938 1.707031 -2.960938 C 1.304688 -2.960938 0.941406 -2.824219 0.617188 -2.550781 L 0.617188 -3.097656 C 0.945312 -3.308594 1.324219 -3.410156 1.75 -3.410156 C 2.535156 -3.410156 2.925781 -2.996094 2.925781 -2.167969 L 2.925781 0 M 2.390625 -1.6875 L 1.589844 -1.574219 C 1.339844 -1.539062 1.15625 -1.480469 1.027344 -1.390625 C 0.902344 -1.304688 0.839844 -1.148438 0.839844 -0.925781 C 0.839844 -0.761719 0.898438 -0.628906 1.015625 -0.527344 C 1.128906 -0.421875 1.285156 -0.371094 1.476562 -0.371094 C 1.742188 -0.371094 1.960938 -0.464844 2.132812 -0.648438 C 2.304688 -0.835938 2.390625 -1.070312 2.390625 -1.355469 Z "/>
</g>
<g id="glyph-2-3">
<path d="M 1.933594 0.078125 C 1.441406 0.078125 1.046875 -0.078125 0.753906 -0.390625 C 0.460938 -0.699219 0.3125 -1.113281 0.3125 -1.628906 C 0.3125 -2.1875 0.464844 -2.625 0.769531 -2.9375 C 1.078125 -3.253906 1.492188 -3.410156 2.011719 -3.410156 C 2.507812 -3.410156 2.898438 -3.257812 3.175781 -2.953125 C 3.453125 -2.644531 3.59375 -2.222656 3.59375 -1.679688 C 3.59375 -1.148438 3.445312 -0.722656 3.144531 -0.402344 C 2.84375 -0.0820312 2.4375 0.078125 1.933594 0.078125 M 1.972656 -2.960938 C 1.628906 -2.960938 1.359375 -2.84375 1.160156 -2.613281 C 0.960938 -2.378906 0.859375 -2.058594 0.859375 -1.648438 C 0.859375 -1.253906 0.960938 -0.941406 1.164062 -0.710938 C 1.363281 -0.484375 1.632812 -0.371094 1.972656 -0.371094 C 2.316406 -0.371094 2.582031 -0.484375 2.769531 -0.707031 C 2.953125 -0.929688 3.046875 -1.246094 3.046875 -1.660156 C 3.046875 -2.078125 2.953125 -2.398438 2.769531 -2.625 C 2.582031 -2.847656 2.316406 -2.960938 1.972656 -2.960938 Z "/>
</g>
<g id="glyph-2-4">
</g>
<g id="glyph-2-5">
<path d="M 3.386719 0 L 2.851562 0 L 2.851562 -0.566406 L 2.839844 -0.566406 C 2.589844 -0.136719 2.210938 0.078125 1.691406 0.078125 C 1.273438 0.078125 0.9375 -0.0703125 0.6875 -0.371094 C 0.4375 -0.667969 0.3125 -1.074219 0.3125 -1.589844 C 0.3125 -2.140625 0.453125 -2.582031 0.730469 -2.914062 C 1.007812 -3.246094 1.375 -3.410156 1.839844 -3.410156 C 2.289062 -3.410156 2.625 -3.230469 2.839844 -2.871094 L 2.851562 -2.871094 L 2.851562 -3.914062 L 1.773438 -3.914062 L 1.773438 -4.347656 L 2.851562 -4.347656 L 2.851562 -4.933594 L 3.386719 -4.933594 L 3.386719 -4.347656 L 3.828125 -4.347656 L 3.828125 -3.914062 L 3.386719 -3.914062 L 3.386719 0 M 2.851562 -1.507812 L 2.851562 -2 C 2.851562 -2.269531 2.761719 -2.496094 2.585938 -2.683594 C 2.40625 -2.867188 2.179688 -2.960938 1.90625 -2.960938 C 1.582031 -2.960938 1.324219 -2.84375 1.140625 -2.605469 C 0.953125 -2.367188 0.859375 -2.035156 0.859375 -1.613281 C 0.859375 -1.230469 0.949219 -0.925781 1.128906 -0.703125 C 1.308594 -0.480469 1.546875 -0.371094 1.847656 -0.371094 C 2.144531 -0.371094 2.386719 -0.476562 2.570312 -0.691406 C 2.757812 -0.90625 2.851562 -1.179688 2.851562 -1.507812 Z "/>
</g>
<g id="glyph-2-6">
<path d="M 3.21875 -1.53125 L 0.867188 -1.53125 C 0.875 -1.164062 0.972656 -0.875 1.164062 -0.671875 C 1.355469 -0.472656 1.617188 -0.371094 1.953125 -0.371094 C 2.328125 -0.371094 2.671875 -0.496094 2.988281 -0.742188 L 2.988281 -0.242188 C 2.695312 -0.0273438 2.308594 0.078125 1.824219 0.078125 C 1.355469 0.078125 0.984375 -0.0742188 0.714844 -0.375 C 0.445312 -0.679688 0.3125 -1.105469 0.3125 -1.652344 C 0.3125 -2.171875 0.460938 -2.59375 0.753906 -2.921875 C 1.046875 -3.25 1.414062 -3.410156 1.847656 -3.410156 C 2.285156 -3.410156 2.621094 -3.269531 2.859375 -2.988281 C 3.101562 -2.707031 3.21875 -2.3125 3.21875 -1.8125 L 3.21875 -1.53125 M 2.671875 -1.984375 C 2.671875 -2.292969 2.597656 -2.535156 2.449219 -2.703125 C 2.304688 -2.875 2.101562 -2.960938 1.839844 -2.960938 C 1.585938 -2.960938 1.375 -2.871094 1.199219 -2.691406 C 1.023438 -2.511719 0.914062 -2.277344 0.871094 -1.984375 L 2.671875 -1.984375 M 2.585938 -5.605469 C 2.664062 -5.613281 2.75 -5.617188 2.84375 -5.617188 C 3.039062 -5.617188 3.195312 -5.574219 3.316406 -5.484375 C 3.4375 -5.394531 3.496094 -5.269531 3.496094 -5.113281 C 3.496094 -4.984375 3.457031 -4.875 3.375 -4.78125 C 3.292969 -4.691406 3.191406 -4.636719 3.066406 -4.621094 L 3.066406 -4.460938 L 2.710938 -4.460938 L 2.710938 -4.835938 C 2.957031 -4.835938 3.078125 -4.914062 3.078125 -5.078125 C 3.078125 -5.21875 2.976562 -5.285156 2.769531 -5.285156 C 2.734375 -5.285156 2.671875 -5.277344 2.585938 -5.261719 L 2.585938 -5.605469 M 2.839844 -3.964844 L 2.449219 -3.964844 L 1.914062 -4.445312 L 1.375 -3.964844 L 1.007812 -3.964844 L 1.707031 -4.777344 L 2.140625 -4.777344 Z "/>
</g>
<g id="glyph-2-7">
<path d="M 5.273438 0 L 4.738281 0 L 4.738281 -1.914062 C 4.738281 -2.28125 4.683594 -2.550781 4.570312 -2.714844 C 4.453125 -2.878906 4.261719 -2.960938 3.992188 -2.960938 C 3.765625 -2.960938 3.574219 -2.859375 3.414062 -2.648438 C 3.253906 -2.441406 3.171875 -2.191406 3.171875 -1.902344 L 3.171875 0 L 2.640625 0 L 2.640625 -1.980469 C 2.640625 -2.632812 2.386719 -2.960938 1.882812 -2.960938 C 1.648438 -2.960938 1.453125 -2.863281 1.300781 -2.667969 C 1.148438 -2.472656 1.074219 -2.214844 1.074219 -1.902344 L 1.074219 0 L 0.539062 0 L 0.539062 -3.332031 L 1.074219 -3.332031 L 1.074219 -2.804688 L 1.085938 -2.804688 C 1.324219 -3.210938 1.667969 -3.410156 2.121094 -3.410156 C 2.351562 -3.410156 2.546875 -3.347656 2.71875 -3.222656 C 2.886719 -3.09375 3.003906 -2.925781 3.066406 -2.722656 C 3.3125 -3.179688 3.683594 -3.410156 4.171875 -3.410156 C 4.90625 -3.410156 5.273438 -2.957031 5.273438 -2.054688 Z "/>
</g>
<g id="glyph-2-8">
<path d="M 2.8125 -0.152344 C 2.554688 0 2.253906 0.078125 1.902344 0.078125 C 1.425781 0.078125 1.042969 -0.078125 0.75 -0.386719 C 0.457031 -0.695312 0.3125 -1.097656 0.3125 -1.589844 C 0.3125 -2.136719 0.46875 -2.578125 0.785156 -2.910156 C 1.097656 -3.246094 1.519531 -3.410156 2.042969 -3.410156 C 2.335938 -3.410156 2.59375 -3.355469 2.820312 -3.25 L 2.820312 -2.703125 C 2.570312 -2.875 2.308594 -2.960938 2.023438 -2.960938 C 1.683594 -2.960938 1.40625 -2.839844 1.1875 -2.597656 C 0.96875 -2.351562 0.859375 -2.03125 0.859375 -1.632812 C 0.859375 -1.242188 0.960938 -0.933594 1.167969 -0.710938 C 1.371094 -0.484375 1.648438 -0.371094 1.992188 -0.371094 C 2.28125 -0.371094 2.554688 -0.46875 2.8125 -0.660156 Z "/>
</g>
<g id="glyph-2-9">
<path d="M 3.234375 0 L 2.703125 0 L 2.703125 -0.527344 L 2.6875 -0.527344 C 2.46875 -0.125 2.125 0.078125 1.660156 0.078125 C 0.867188 0.078125 0.46875 -0.394531 0.46875 -1.339844 L 0.46875 -3.332031 L 1 -3.332031 L 1 -1.425781 C 1 -0.722656 1.269531 -0.371094 1.804688 -0.371094 C 2.066406 -0.371094 2.28125 -0.46875 2.449219 -0.660156 C 2.617188 -0.851562 2.703125 -1.101562 2.703125 -1.414062 L 2.703125 -3.332031 L 3.234375 -3.332031 L 3.234375 0 M 1.5 -5.113281 C 1.582031 -5.121094 1.667969 -5.125 1.761719 -5.125 C 1.953125 -5.125 2.109375 -5.082031 2.230469 -4.992188 C 2.355469 -4.898438 2.414062 -4.777344 2.414062 -4.621094 C 2.414062 -4.488281 2.375 -4.378906 2.289062 -4.289062 C 2.207031 -4.195312 2.101562 -4.144531 1.980469 -4.128906 L 1.980469 -3.964844 L 1.628906 -3.964844 L 1.628906 -4.339844 C 1.871094 -4.339844 1.992188 -4.421875 1.992188 -4.585938 C 1.992188 -4.722656 1.890625 -4.792969 1.6875 -4.792969 C 1.648438 -4.792969 1.585938 -4.78125 1.5 -4.765625 Z "/>
</g>
<g id="glyph-2-10">
<path d="M 2.925781 0 L 2.390625 0 L 2.390625 -0.519531 L 2.378906 -0.519531 C 2.148438 -0.121094 1.804688 0.078125 1.355469 0.078125 C 1.023438 0.078125 0.761719 -0.0117188 0.574219 -0.183594 C 0.386719 -0.359375 0.292969 -0.59375 0.292969 -0.886719 C 0.292969 -1.507812 0.660156 -1.871094 1.394531 -1.972656 L 2.390625 -2.113281 C 2.390625 -2.679688 2.164062 -2.960938 1.707031 -2.960938 C 1.304688 -2.960938 0.941406 -2.824219 0.617188 -2.550781 L 0.617188 -3.097656 C 0.945312 -3.308594 1.324219 -3.410156 1.75 -3.410156 C 2.535156 -3.410156 2.925781 -2.996094 2.925781 -2.167969 L 2.925781 0 M 2.390625 -1.6875 L 1.589844 -1.574219 C 1.339844 -1.539062 1.15625 -1.480469 1.027344 -1.390625 C 0.902344 -1.304688 0.839844 -1.148438 0.839844 -0.925781 C 0.839844 -0.761719 0.898438 -0.628906 1.015625 -0.527344 C 1.128906 -0.421875 1.285156 -0.371094 1.476562 -0.371094 C 1.742188 -0.371094 1.960938 -0.464844 2.132812 -0.648438 C 2.304688 -0.835938 2.390625 -1.070312 2.390625 -1.355469 L 2.390625 -1.6875 M 2.464844 -5.03125 L 1.609375 -3.964844 L 1.199219 -3.964844 L 1.921875 -5.03125 Z "/>
</g>
<g id="glyph-2-11">
<path d="M 3.234375 0 L 2.703125 0 L 2.703125 -0.527344 L 2.6875 -0.527344 C 2.46875 -0.125 2.125 0.078125 1.660156 0.078125 C 0.867188 0.078125 0.46875 -0.394531 0.46875 -1.339844 L 0.46875 -3.332031 L 1 -3.332031 L 1 -1.425781 C 1 -0.722656 1.269531 -0.371094 1.804688 -0.371094 C 2.066406 -0.371094 2.28125 -0.46875 2.449219 -0.660156 C 2.617188 -0.851562 2.703125 -1.101562 2.703125 -1.414062 L 2.703125 -3.332031 L 3.097656 -3.332031 C 3.226562 -3.332031 3.332031 -3.371094 3.417969 -3.449219 C 3.503906 -3.527344 3.546875 -3.617188 3.546875 -3.726562 C 3.546875 -3.886719 3.527344 -4.027344 3.484375 -4.152344 L 3.917969 -4.152344 C 3.960938 -4.03125 3.980469 -3.882812 3.980469 -3.710938 C 3.980469 -3.28125 3.734375 -3.027344 3.234375 -2.949219 Z "/>
</g>
<g id="glyph-2-12">
<path d="M 3.386719 -4.152344 L 3.820312 -4.152344 C 3.863281 -4.03125 3.882812 -3.882812 3.882812 -3.710938 C 3.882812 -3.292969 3.644531 -3.042969 3.171875 -2.957031 C 3.453125 -2.648438 3.59375 -2.222656 3.59375 -1.679688 C 3.59375 -1.148438 3.445312 -0.722656 3.144531 -0.402344 C 2.84375 -0.0820312 2.4375 0.078125 1.933594 0.078125 C 1.441406 0.078125 1.046875 -0.078125 0.753906 -0.390625 C 0.460938 -0.699219 0.3125 -1.113281 0.3125 -1.628906 C 0.3125 -2.1875 0.464844 -2.625 0.769531 -2.9375 C 1.078125 -3.253906 1.492188 -3.410156 2.011719 -3.410156 C 2.117188 -3.410156 2.261719 -3.394531 2.449219 -3.367188 C 2.582031 -3.34375 2.765625 -3.332031 3 -3.332031 C 3.128906 -3.332031 3.234375 -3.371094 3.320312 -3.449219 C 3.40625 -3.527344 3.449219 -3.617188 3.449219 -3.726562 C 3.449219 -3.886719 3.429688 -4.027344 3.386719 -4.152344 M 1.972656 -2.960938 C 1.628906 -2.960938 1.359375 -2.84375 1.160156 -2.613281 C 0.960938 -2.378906 0.859375 -2.058594 0.859375 -1.648438 C 0.859375 -1.253906 0.960938 -0.941406 1.164062 -0.710938 C 1.363281 -0.484375 1.632812 -0.371094 1.972656 -0.371094 C 2.316406 -0.371094 2.582031 -0.484375 2.769531 -0.707031 C 2.953125 -0.929688 3.046875 -1.246094 3.046875 -1.660156 C 3.046875 -2.078125 2.953125 -2.398438 2.769531 -2.625 C 2.582031 -2.847656 2.316406 -2.960938 1.972656 -2.960938 M 2.375 -3.964844 L 1.960938 -3.964844 L 1.105469 -5.03125 L 1.652344 -5.03125 Z "/>
</g>
<g id="glyph-2-13">
<path d="M 3.308594 0 L 2.773438 0 L 2.773438 -1.902344 C 2.773438 -2.609375 2.515625 -2.960938 2 -2.960938 C 1.730469 -2.960938 1.511719 -2.863281 1.335938 -2.660156 C 1.160156 -2.460938 1.074219 -2.207031 1.074219 -1.902344 L 1.074219 0 L 0.539062 0 L 0.539062 -3.332031 L 1.074219 -3.332031 L 1.074219 -2.78125 L 1.085938 -2.78125 C 1.339844 -3.199219 1.703125 -3.410156 2.179688 -3.410156 C 2.546875 -3.410156 2.824219 -3.292969 3.015625 -3.058594 C 3.210938 -2.824219 3.308594 -2.484375 3.308594 -2.039062 Z "/>
</g>
<g id="glyph-2-14">
<path d="M 2.085938 -0.03125 C 1.960938 0.0351562 1.792969 0.0703125 1.589844 0.0703125 C 1.003906 0.0703125 0.710938 -0.253906 0.710938 -0.90625 L 0.710938 -2.878906 L 0.140625 -2.878906 L 0.140625 -3.332031 L 0.710938 -3.332031 L 0.710938 -4.148438 L 1.246094 -4.320312 L 1.246094 -3.332031 L 2.085938 -3.332031 L 2.085938 -2.878906 L 1.246094 -2.878906 L 1.246094 -1 C 1.246094 -0.777344 1.285156 -0.617188 1.359375 -0.519531 C 1.4375 -0.425781 1.5625 -0.378906 1.738281 -0.378906 C 1.871094 -0.378906 1.988281 -0.414062 2.085938 -0.488281 Z "/>
</g>
<g id="glyph-2-15">
<path d="M 3.308594 0 L 2.773438 0 L 2.773438 -1.921875 C 2.773438 -2.613281 2.515625 -2.960938 2 -2.960938 C 1.738281 -2.960938 1.519531 -2.863281 1.339844 -2.660156 C 1.164062 -2.460938 1.074219 -2.203125 1.074219 -1.886719 L 1.074219 0 L 0.539062 0 L 0.539062 -4.933594 L 1.074219 -4.933594 L 1.074219 -2.78125 L 1.085938 -2.78125 C 1.34375 -3.199219 1.707031 -3.410156 2.179688 -3.410156 C 2.933594 -3.410156 3.308594 -2.957031 3.308594 -2.054688 Z "/>
</g>
<g id="glyph-2-16">
<path d="M 2.925781 0 L 2.390625 0 L 2.390625 -0.519531 L 2.378906 -0.519531 C 2.148438 -0.121094 1.804688 0.078125 1.355469 0.078125 C 1.023438 0.078125 0.761719 -0.0117188 0.574219 -0.183594 C 0.386719 -0.359375 0.292969 -0.59375 0.292969 -0.886719 C 0.292969 -1.507812 0.660156 -1.871094 1.394531 -1.972656 L 2.390625 -2.113281 C 2.390625 -2.679688 2.164062 -2.960938 1.707031 -2.960938 C 1.304688 -2.960938 0.941406 -2.824219 0.617188 -2.550781 L 0.617188 -3.097656 C 0.945312 -3.308594 1.324219 -3.410156 1.75 -3.410156 C 2.535156 -3.410156 2.925781 -2.996094 2.925781 -2.167969 L 2.925781 0 M 2.390625 -1.6875 L 1.589844 -1.574219 C 1.339844 -1.539062 1.15625 -1.480469 1.027344 -1.390625 C 0.902344 -1.304688 0.839844 -1.148438 0.839844 -0.925781 C 0.839844 -0.761719 0.898438 -0.628906 1.015625 -0.527344 C 1.128906 -0.421875 1.285156 -0.371094 1.476562 -0.371094 C 1.742188 -0.371094 1.960938 -0.464844 2.132812 -0.648438 C 2.304688 -0.835938 2.390625 -1.070312 2.390625 -1.355469 L 2.390625 -1.6875 M 1.414062 -5.851562 C 1.492188 -5.863281 1.578125 -5.867188 1.667969 -5.867188 C 1.867188 -5.867188 2.027344 -5.820312 2.148438 -5.730469 C 2.265625 -5.636719 2.328125 -5.515625 2.328125 -5.359375 C 2.328125 -5.226562 2.285156 -5.117188 2.195312 -5.027344 C 2.109375 -4.933594 2.007812 -4.882812 1.890625 -4.867188 L 1.890625 -4.707031 L 1.539062 -4.707031 L 1.539062 -5.078125 C 1.78125 -5.078125 1.902344 -5.160156 1.902344 -5.324219 C 1.902344 -5.464844 1.800781 -5.535156 1.597656 -5.535156 C 1.5625 -5.535156 1.5 -5.523438 1.414062 -5.507812 L 1.414062 -5.851562 M 2.652344 -4.785156 C 2.632812 -4.539062 2.535156 -4.34375 2.363281 -4.191406 C 2.195312 -4.039062 1.988281 -3.964844 1.746094 -3.964844 C 1.492188 -3.964844 1.285156 -4.039062 1.125 -4.1875 C 0.960938 -4.339844 0.875 -4.539062 0.867188 -4.785156 L 1.191406 -4.785156 C 1.214844 -4.496094 1.402344 -4.347656 1.75 -4.347656 C 2.09375 -4.347656 2.28125 -4.496094 2.320312 -4.785156 Z "/>
</g>
<g id="glyph-2-17">
<path d="M 2.925781 0 L 2.390625 0 L 2.390625 -0.519531 L 2.378906 -0.519531 C 2.148438 -0.121094 1.804688 0.078125 1.355469 0.078125 C 1.023438 0.078125 0.761719 -0.0117188 0.574219 -0.183594 C 0.386719 -0.359375 0.292969 -0.59375 0.292969 -0.886719 C 0.292969 -1.507812 0.660156 -1.871094 1.394531 -1.972656 L 2.390625 -2.113281 C 2.390625 -2.679688 2.164062 -2.960938 1.707031 -2.960938 C 1.304688 -2.960938 0.941406 -2.824219 0.617188 -2.550781 L 0.617188 -3.097656 C 0.945312 -3.308594 1.324219 -3.410156 1.75 -3.410156 C 2.535156 -3.410156 2.925781 -2.996094 2.925781 -2.167969 L 2.925781 0 M 2.390625 -1.6875 L 1.589844 -1.574219 C 1.339844 -1.539062 1.15625 -1.480469 1.027344 -1.390625 C 0.902344 -1.304688 0.839844 -1.148438 0.839844 -0.925781 C 0.839844 -0.761719 0.898438 -0.628906 1.015625 -0.527344 C 1.128906 -0.421875 1.285156 -0.371094 1.476562 -0.371094 C 1.742188 -0.371094 1.960938 -0.464844 2.132812 -0.648438 C 2.304688 -0.835938 2.390625 -1.070312 2.390625 -1.355469 L 2.390625 -1.6875 M 2.625 -4.785156 C 2.601562 -4.539062 2.507812 -4.34375 2.335938 -4.191406 C 2.164062 -4.039062 1.957031 -3.964844 1.714844 -3.964844 C 1.460938 -3.964844 1.253906 -4.039062 1.09375 -4.1875 C 0.933594 -4.339844 0.847656 -4.539062 0.835938 -4.785156 L 1.164062 -4.785156 C 1.1875 -4.449219 1.375 -4.28125 1.722656 -4.28125 C 1.871094 -4.28125 1.996094 -4.328125 2.101562 -4.417969 C 2.207031 -4.507812 2.269531 -4.632812 2.292969 -4.785156 L 2.625 -4.785156 M 1.742188 1.023438 C 1.652344 1.023438 1.578125 0.992188 1.511719 0.925781 C 1.449219 0.863281 1.417969 0.789062 1.417969 0.699219 C 1.417969 0.609375 1.453125 0.535156 1.515625 0.476562 C 1.582031 0.417969 1.65625 0.386719 1.742188 0.386719 C 1.832031 0.386719 1.90625 0.417969 1.96875 0.476562 C 2.03125 0.535156 2.0625 0.609375 2.0625 0.699219 C 2.0625 0.789062 2.03125 0.863281 1.96875 0.925781 C 1.90625 0.992188 1.832031 1.023438 1.742188 1.023438 Z "/>
</g>
<g id="glyph-3-0">
<path d="M 1.085938 -0.480469 L 1.074219 -0.480469 L 1.074219 1.53125 L 0.539062 1.53125 L 0.539062 -3.332031 L 1.074219 -3.332031 L 1.074219 -2.746094 L 1.085938 -2.746094 C 1.351562 -3.191406 1.734375 -3.410156 2.238281 -3.410156 C 2.667969 -3.410156 3.003906 -3.261719 3.246094 -2.964844 C 3.484375 -2.664062 3.605469 -2.265625 3.605469 -1.765625 C 3.605469 -1.207031 3.472656 -0.761719 3.199219 -0.425781 C 2.929688 -0.0898438 2.558594 0.078125 2.085938 0.078125 C 1.65625 0.078125 1.320312 -0.109375 1.085938 -0.480469 M 1.074219 -1.824219 L 1.074219 -1.359375 C 1.074219 -1.085938 1.164062 -0.851562 1.34375 -0.660156 C 1.523438 -0.46875 1.75 -0.371094 2.023438 -0.371094 C 2.347656 -0.371094 2.601562 -0.496094 2.785156 -0.742188 C 2.96875 -0.988281 3.058594 -1.332031 3.058594 -1.773438 C 3.058594 -2.144531 2.972656 -2.4375 2.800781 -2.644531 C 2.632812 -2.855469 2.398438 -2.960938 2.105469 -2.960938 C 1.796875 -2.960938 1.546875 -2.855469 1.355469 -2.636719 C 1.167969 -2.421875 1.074219 -2.152344 1.074219 -1.824219 Z "/>
</g>
<g id="glyph-3-1">
<path d="M 3.308594 0 L 2.773438 0 L 2.773438 -1.921875 C 2.773438 -2.613281 2.515625 -2.960938 2 -2.960938 C 1.738281 -2.960938 1.519531 -2.863281 1.339844 -2.660156 C 1.164062 -2.460938 1.074219 -2.203125 1.074219 -1.886719 L 1.074219 0 L 0.539062 0 L 0.539062 -4.933594 L 1.074219 -4.933594 L 1.074219 -2.78125 L 1.085938 -2.78125 C 1.34375 -3.199219 1.707031 -3.410156 2.179688 -3.410156 C 2.933594 -3.410156 3.308594 -2.957031 3.308594 -2.054688 Z "/>
</g>
<g id="glyph-3-2">
<path d="M 2.925781 0 L 2.390625 0 L 2.390625 -0.519531 L 2.378906 -0.519531 C 2.148438 -0.121094 1.804688 0.078125 1.355469 0.078125 C 1.023438 0.078125 0.761719 -0.0117188 0.574219 -0.183594 C 0.386719 -0.359375 0.292969 -0.59375 0.292969 -0.886719 C 0.292969 -1.507812 0.660156 -1.871094 1.394531 -1.972656 L 2.390625 -2.113281 C 2.390625 -2.679688 2.164062 -2.960938 1.707031 -2.960938 C 1.304688 -2.960938 0.941406 -2.824219 0.617188 -2.550781 L 0.617188 -3.097656 C 0.945312 -3.308594 1.324219 -3.410156 1.75 -3.410156 C 2.535156 -3.410156 2.925781 -2.996094 2.925781 -2.167969 L 2.925781 0 M 2.390625 -1.6875 L 1.589844 -1.574219 C 1.339844 -1.539062 1.15625 -1.480469 1.027344 -1.390625 C 0.902344 -1.304688 0.839844 -1.148438 0.839844 -0.925781 C 0.839844 -0.761719 0.898438 -0.628906 1.015625 -0.527344 C 1.128906 -0.421875 1.285156 -0.371094 1.476562 -0.371094 C 1.742188 -0.371094 1.960938 -0.464844 2.132812 -0.648438 C 2.304688 -0.835938 2.390625 -1.070312 2.390625 -1.355469 L 2.390625 -1.6875 M 1.414062 -5.851562 C 1.492188 -5.863281 1.578125 -5.867188 1.667969 -5.867188 C 1.867188 -5.867188 2.027344 -5.820312 2.148438 -5.730469 C 2.265625 -5.636719 2.328125 -5.515625 2.328125 -5.359375 C 2.328125 -5.226562 2.285156 -5.117188 2.195312 -5.027344 C 2.109375 -4.933594 2.007812 -4.882812 1.890625 -4.867188 L 1.890625 -4.707031 L 1.539062 -4.707031 L 1.539062 -5.078125 C 1.78125 -5.078125 1.902344 -5.160156 1.902344 -5.324219 C 1.902344 -5.464844 1.800781 -5.535156 1.597656 -5.535156 C 1.5625 -5.535156 1.5 -5.523438 1.414062 -5.507812 L 1.414062 -5.851562 M 2.652344 -4.785156 C 2.632812 -4.539062 2.535156 -4.34375 2.363281 -4.191406 C 2.195312 -4.039062 1.988281 -3.964844 1.746094 -3.964844 C 1.492188 -3.964844 1.285156 -4.039062 1.125 -4.1875 C 0.960938 -4.339844 0.875 -4.539062 0.867188 -4.785156 L 1.191406 -4.785156 C 1.214844 -4.496094 1.402344 -4.347656 1.75 -4.347656 C 2.09375 -4.347656 2.28125 -4.496094 2.320312 -4.785156 Z "/>
</g>
<g id="glyph-3-3">
<path d="M 3.308594 0 L 2.773438 0 L 2.773438 -1.902344 C 2.773438 -2.609375 2.515625 -2.960938 2 -2.960938 C 1.730469 -2.960938 1.511719 -2.863281 1.335938 -2.660156 C 1.160156 -2.460938 1.074219 -2.207031 1.074219 -1.902344 L 1.074219 0 L 0.539062 0 L 0.539062 -3.332031 L 1.074219 -3.332031 L 1.074219 -2.78125 L 1.085938 -2.78125 C 1.339844 -3.199219 1.703125 -3.410156 2.179688 -3.410156 C 2.546875 -3.410156 2.824219 -3.292969 3.015625 -3.058594 C 3.210938 -2.824219 3.308594 -2.484375 3.308594 -2.039062 Z "/>
</g>
<g id="glyph-3-4">
<path d="M 3.386719 -0.265625 C 3.386719 0.957031 2.800781 1.570312 1.628906 1.570312 C 1.214844 1.570312 0.855469 1.492188 0.546875 1.335938 L 0.546875 0.800781 C 0.921875 1.007812 1.28125 1.113281 1.621094 1.113281 C 2.441406 1.113281 2.851562 0.675781 2.851562 -0.195312 L 2.851562 -0.558594 L 2.839844 -0.558594 C 2.585938 -0.132812 2.203125 0.078125 1.691406 0.078125 C 1.277344 0.078125 0.945312 -0.0703125 0.691406 -0.367188 C 0.4375 -0.664062 0.3125 -1.058594 0.3125 -1.558594 C 0.3125 -2.125 0.449219 -2.574219 0.722656 -2.910156 C 0.992188 -3.246094 1.367188 -3.410156 1.839844 -3.410156 C 2.289062 -3.410156 2.621094 -3.230469 2.839844 -2.871094 L 2.851562 -2.871094 L 2.851562 -3.332031 L 3.386719 -3.332031 L 3.386719 -0.265625 M 2.851562 -1.507812 L 2.851562 -2 C 2.851562 -2.261719 2.761719 -2.492188 2.582031 -2.679688 C 2.402344 -2.867188 2.179688 -2.960938 1.914062 -2.960938 C 1.585938 -2.960938 1.324219 -2.84375 1.140625 -2.601562 C 0.953125 -2.363281 0.859375 -2.027344 0.859375 -1.59375 C 0.859375 -1.222656 0.949219 -0.925781 1.128906 -0.703125 C 1.308594 -0.480469 1.542969 -0.371094 1.839844 -0.371094 C 2.140625 -0.371094 2.382812 -0.476562 2.570312 -0.691406 C 2.757812 -0.902344 2.851562 -1.175781 2.851562 -1.507812 Z "/>
</g>
<g id="glyph-3-5">
<path d="M 0.726562 0.0703125 C 0.625 0.0703125 0.539062 0.0351562 0.46875 -0.0351562 C 0.398438 -0.105469 0.363281 -0.191406 0.363281 -0.292969 C 0.363281 -0.394531 0.398438 -0.480469 0.46875 -0.550781 C 0.539062 -0.625 0.625 -0.660156 0.726562 -0.660156 C 0.828125 -0.660156 0.914062 -0.625 0.984375 -0.550781 C 1.058594 -0.480469 1.09375 -0.394531 1.09375 -0.292969 C 1.09375 -0.191406 1.058594 -0.105469 0.984375 -0.0351562 C 0.914062 0.0351562 0.828125 0.0703125 0.726562 0.0703125 Z "/>
</g>
</g>
</defs>
<g fill="rgb(63.921569%, 90.196078%, 20.784314%)" fill-opacity="1">
<use xlink:href="#glyph-0-0" x="30" y="27.193359"/>
<use xlink:href="#glyph-0-1" x="34" y="27.193359"/>
<use xlink:href="#glyph-0-2" x="37" y="27.193359"/>
<use xlink:href="#glyph-0-3" x="39" y="27.193359"/>
<use xlink:href="#glyph-0-4" x="41" y="27.193359"/>
<use xlink:href="#glyph-0-5" x="43" y="27.193359"/>
<use xlink:href="#glyph-0-6" x="47" y="27.193359"/>
<use xlink:href="#glyph-0-7" x="50" y="27.193359"/>
<use xlink:href="#glyph-0-8" x="54" y="27.193359"/>
<use xlink:href="#glyph-0-3" x="55" y="27.193359"/>
<use xlink:href="#glyph-0-9" x="57" y="27.193359"/>
<use xlink:href="#glyph-0-10" x="61" y="27.193359"/>
<use xlink:href="#glyph-0-11" x="63" y="27.193359"/>
<use xlink:href="#glyph-0-10" x="66" y="27.193359"/>
<use xlink:href="#glyph-0-3" x="68" y="27.193359"/>
<use xlink:href="#glyph-0-12" x="70" y="27.193359"/>
<use xlink:href="#glyph-0-13" x="74" y="27.193359"/>
<use xlink:href="#glyph-0-3" x="77" y="27.193359"/>
<use xlink:href="#glyph-0-14" x="79" y="27.193359"/>
<use xlink:href="#glyph-0-12" x="83" y="27.193359"/>
<use xlink:href="#glyph-0-15" x="87" y="27.193359"/>
<use xlink:href="#glyph-0-16" x="91" y="27.193359"/>
<use xlink:href="#glyph-0-7" x="95" y="27.193359"/>
<use xlink:href="#glyph-0-9" x="99" y="27.193359"/>
<use xlink:href="#glyph-0-3" x="103" y="27.193359"/>
<use xlink:href="#glyph-0-2" x="105" y="27.193359"/>
<use xlink:href="#glyph-0-17" x="107" y="27.193359"/>
<use xlink:href="#glyph-0-18" x="109" y="27.193359"/>
<use xlink:href="#glyph-0-7" x="111" y="27.193359"/>
<use xlink:href="#glyph-0-12" x="115" y="27.193359"/>
<use xlink:href="#glyph-0-3" x="119" y="27.193359"/>
<use xlink:href="#glyph-0-4" x="121" y="27.193359"/>
<use xlink:href="#glyph-0-19" x="123" y="27.193359"/>
<use xlink:href="#glyph-0-3" x="126" y="27.193359"/>
<use xlink:href="#glyph-0-2" x="128" y="27.193359"/>
<use xlink:href="#glyph-0-18" x="130" y="27.193359"/>
<use xlink:href="#glyph-0-20" x="132" y="27.193359"/>
<use xlink:href="#glyph-0-3" x="138" y="27.193359"/>
<use xlink:href="#glyph-0-21" x="140" y="27.193359"/>
<use xlink:href="#glyph-0-3" x="143" y="27.193359"/>
</g>
<g fill="rgb(63.921569%, 90.196078%, 20.784314%)" fill-opacity="1">
<use xlink:href="#glyph-1-0" x="30" y="35.943359"/>
<use xlink:href="#glyph-1-1" x="33" y="35.943359"/>
<use xlink:href="#glyph-1-2" x="36" y="35.943359"/>
<use xlink:href="#glyph-1-3" x="40" y="35.943359"/>
<use xlink:href="#glyph-1-4" x="42" y="35.943359"/>
<use xlink:href="#glyph-1-5" x="45" y="35.943359"/>
<use xlink:href="#glyph-1-2" x="49" y="35.943359"/>
<use xlink:href="#glyph-1-3" x="53" y="35.943359"/>
<use xlink:href="#glyph-1-6" x="55" y="35.943359"/>
<use xlink:href="#glyph-1-3" x="59" y="35.943359"/>
<use xlink:href="#glyph-1-7" x="61" y="35.943359"/>
<use xlink:href="#glyph-1-3" x="62" y="35.943359"/>
<use xlink:href="#glyph-1-8" x="64" y="35.943359"/>
<use xlink:href="#glyph-1-3" x="67" y="35.943359"/>
<use xlink:href="#glyph-1-9" x="69" y="35.943359"/>
<use xlink:href="#glyph-1-3" x="74" y="35.943359"/>
<use xlink:href="#glyph-1-10" x="76" y="35.943359"/>
<use xlink:href="#glyph-1-11" x="80" y="35.943359"/>
<use xlink:href="#glyph-1-3" x="81" y="35.943359"/>
<use xlink:href="#glyph-1-12" x="83" y="35.943359"/>
<use xlink:href="#glyph-1-13" x="87" y="35.943359"/>
<use xlink:href="#glyph-1-3" x="90" y="35.943359"/>
<use xlink:href="#glyph-1-5" x="92" y="35.943359"/>
<use xlink:href="#glyph-1-14" x="96" y="35.943359"/>
<use xlink:href="#glyph-1-15" x="98" y="35.943359"/>
<use xlink:href="#glyph-1-5" x="102" y="35.943359"/>
<use xlink:href="#glyph-1-3" x="106" y="35.943359"/>
<use xlink:href="#glyph-1-5" x="108" y="35.943359"/>
<use xlink:href="#glyph-1-16" x="112" y="35.943359"/>
<use xlink:href="#glyph-1-4" x="116" y="35.943359"/>
<use xlink:href="#glyph-1-17" x="119" y="35.943359"/>
<use xlink:href="#glyph-1-3" x="120" y="35.943359"/>
<use xlink:href="#glyph-1-15" x="122" y="35.943359"/>
<use xlink:href="#glyph-1-18" x="126" y="35.943359"/>
<use xlink:href="#glyph-1-5" x="130" y="35.943359"/>
<use xlink:href="#glyph-1-19" x="134" y="35.943359"/>
<use xlink:href="#glyph-1-20" x="136" y="35.943359"/>
<use xlink:href="#glyph-1-21" x="139" y="35.943359"/>
<use xlink:href="#glyph-1-3" x="145" y="35.943359"/>
<use xlink:href="#glyph-1-22" x="147" y="35.943359"/>
<use xlink:href="#glyph-1-23" x="149" y="35.943359"/>
<use xlink:href="#glyph-1-3" x="152" y="35.943359"/>
</g>
<g fill="rgb(63.921569%, 90.196078%, 20.784314%)" fill-opacity="1">
<use xlink:href="#glyph-2-0" x="30" y="44.693359"/>
<use xlink:href="#glyph-2-1" x="34" y="44.693359"/>
<use xlink:href="#glyph-2-2" x="36" y="44.693359"/>
<use xlink:href="#glyph-2-3" x="39" y="44.693359"/>
<use xlink:href="#glyph-2-4" x="43" y="44.693359"/>
<use xlink:href="#glyph-2-5" x="45" y="44.693359"/>
<use xlink:href="#glyph-2-1" x="49" y="44.693359"/>
<use xlink:href="#glyph-2-6" x="51" y="44.693359"/>
<use xlink:href="#glyph-2-7" x="54" y="44.693359"/>
<use xlink:href="#glyph-2-4" x="60" y="44.693359"/>
<use xlink:href="#glyph-2-8" x="62" y="44.693359"/>
<use xlink:href="#glyph-2-9" x="65" y="44.693359"/>
<use xlink:href="#glyph-2-2" x="69" y="44.693359"/>
<use xlink:href="#glyph-2-4" x="72" y="44.693359"/>
<use xlink:href="#glyph-2-8" x="74" y="44.693359"/>
<use xlink:href="#glyph-2-10" x="77" y="44.693359"/>
<use xlink:href="#glyph-2-8" x="80" y="44.693359"/>
<use xlink:href="#glyph-2-4" x="83" y="44.693359"/>
<use xlink:href="#glyph-2-5" x="85" y="44.693359"/>
<use xlink:href="#glyph-2-11" x="89" y="44.693359"/>
<use xlink:href="#glyph-2-12" x="93" y="44.693359"/>
<use xlink:href="#glyph-2-13" x="97" y="44.693359"/>
<use xlink:href="#glyph-2-0" x="101" y="44.693359"/>
<use xlink:href="#glyph-2-4" x="105" y="44.693359"/>
<use xlink:href="#glyph-2-14" x="107" y="44.693359"/>
<use xlink:href="#glyph-2-15" x="109" y="44.693359"/>
<use xlink:href="#glyph-2-16" x="113" y="44.693359"/>
<use xlink:href="#glyph-2-13" x="116" y="44.693359"/>
<use xlink:href="#glyph-2-0" x="120" y="44.693359"/>
<use xlink:href="#glyph-2-4" x="124" y="44.693359"/>
<use xlink:href="#glyph-2-15" x="126" y="44.693359"/>
<use xlink:href="#glyph-2-3" x="130" y="44.693359"/>
<use xlink:href="#glyph-2-17" x="134" y="44.693359"/>
<use xlink:href="#glyph-2-8" x="137" y="44.693359"/>
<use xlink:href="#glyph-2-4" x="140" y="44.693359"/>
<use xlink:href="#glyph-2-7" x="142" y="44.693359"/>
<use xlink:href="#glyph-2-17" x="148" y="44.693359"/>
<use xlink:href="#glyph-2-14" x="151" y="44.693359"/>
<use xlink:href="#glyph-2-4" x="153" y="44.693359"/>
</g>
<g fill="rgb(63.921569%, 90.196078%, 20.784314%)" fill-opacity="1">
<use xlink:href="#glyph-3-0" x="30" y="53.443359"/>
<use xlink:href="#glyph-3-1" x="34" y="53.443359"/>
<use xlink:href="#glyph-3-2" x="38" y="53.443359"/>
<use xlink:href="#glyph-3-3" x="41" y="53.443359"/>
<use xlink:href="#glyph-3-4" x="45" y="53.443359"/>
<use xlink:href="#glyph-3-5" x="49" y="53.443359"/>
</g>
</svg>
