<?xml version="1.0" encoding="UTF-8"?>
<svg xmlns="http://www.w3.org/2000/svg" xmlns:xlink="http://www.w3.org/1999/xlink" width="854" height="480" viewBox="0 0 854 480">
<defs>
<g>
<g id="glyph-0-0">
<path d="M 3.71875 -4.167969 L 2.320312 -2.058594 L 3.695312 0 L 2.917969 0 L 2.097656 -1.351562 C 2.046875 -1.433594 1.988281 -1.539062 1.917969 -1.667969 L 1.898438 -1.667969 C 1.886719 -1.644531 1.824219 -1.539062 1.707031 -1.351562 L 0.875 0 L 0.105469 0 L 1.527344 -2.042969 L 0.167969 -4.167969 L 0.945312 -4.167969 L 1.75 -2.742188 C 1.808594 -2.636719 1.867188 -2.527344 1.925781 -2.417969 L 1.941406 -2.417969 L 2.984375 -4.167969 Z "/>
</g>
<g id="glyph-0-1">
</g>
<g id="glyph-0-2">
<path d="M 4.769531 -2.15625 L 3.125 -2.15625 L 3.125 -0.515625 L 2.582031 -0.515625 L 2.582031 -2.15625 L 0.945312 -2.15625 L 0.945312 -2.703125 L 2.582031 -2.703125 L 2.582031 -4.339844 L 3.125 -4.339844 L 3.125 -2.703125 L 4.769531 -2.703125 Z "/>
</g>
<g id="glyph-0-3">
<path d="M 3.140625 -4.304688 C 3.140625 -4.484375 3.113281 -4.640625 3.058594 -4.773438 C 3.003906 -4.90625 2.925781 -5.015625 2.828125 -5.105469 C 2.734375 -5.191406 2.621094 -5.257812 2.488281 -5.300781 C 2.359375 -5.34375 2.21875 -5.367188 2.066406 -5.367188 C 1.9375 -5.367188 1.808594 -5.347656 1.683594 -5.3125 C 1.558594 -5.277344 1.4375 -5.230469 1.320312 -5.167969 C 1.203125 -5.105469 1.089844 -5.03125 0.980469 -4.945312 C 0.867188 -4.855469 0.765625 -4.761719 0.671875 -4.65625 L 0.671875 -5.371094 C 0.859375 -5.554688 1.066406 -5.691406 1.300781 -5.789062 C 1.53125 -5.882812 1.816406 -5.933594 2.148438 -5.933594 C 2.386719 -5.933594 2.609375 -5.898438 2.8125 -5.828125 C 3.015625 -5.757812 3.191406 -5.660156 3.339844 -5.527344 C 3.488281 -5.394531 3.605469 -5.230469 3.691406 -5.035156 C 3.777344 -4.839844 3.820312 -4.613281 3.820312 -4.363281 C 3.820312 -4.132812 3.792969 -3.921875 3.742188 -3.734375 C 3.6875 -3.546875 3.609375 -3.371094 3.5 -3.207031 C 3.394531 -3.039062 3.257812 -2.882812 3.097656 -2.730469 C 2.933594 -2.578125 2.742188 -2.421875 2.523438 -2.265625 C 2.25 -2.070312 2.023438 -1.902344 1.84375 -1.765625 C 1.667969 -1.628906 1.527344 -1.5 1.421875 -1.378906 C 1.316406 -1.257812 1.246094 -1.136719 1.203125 -1.015625 C 1.160156 -0.894531 1.140625 -0.753906 1.140625 -0.597656 L 4.042969 -0.597656 L 4.042969 0 L 0.445312 0 L 0.445312 -0.289062 C 0.445312 -0.539062 0.46875 -0.757812 0.523438 -0.949219 C 0.578125 -1.136719 0.667969 -1.316406 0.792969 -1.488281 C 0.917969 -1.660156 1.082031 -1.832031 1.285156 -2 C 1.484375 -2.171875 1.734375 -2.367188 2.027344 -2.578125 C 2.238281 -2.730469 2.414062 -2.875 2.558594 -3.015625 C 2.699219 -3.152344 2.8125 -3.292969 2.902344 -3.429688 C 2.988281 -3.570312 3.050781 -3.707031 3.085938 -3.851562 C 3.121094 -3.992188 3.140625 -4.144531 3.140625 -4.304688 Z "/>
</g>
<g id="glyph-0-4">
<path d="M 3.992188 -4.167969 L 2.074219 0.667969 C 1.734375 1.53125 1.253906 1.960938 0.632812 1.960938 C 0.460938 1.960938 0.316406 1.945312 0.199219 1.910156 L 0.199219 1.308594 C 0.34375 1.359375 0.476562 1.382812 0.59375 1.382812 C 0.929688 1.382812 1.183594 1.183594 1.351562 0.78125 L 1.683594 -0.0078125 L 0.0585938 -4.167969 L 0.796875 -4.167969 L 1.925781 -0.960938 C 1.9375 -0.917969 1.964844 -0.8125 2.011719 -0.644531 L 2.035156 -0.644531 C 2.046875 -0.707031 2.074219 -0.8125 2.117188 -0.953125 L 3.300781 -4.167969 Z "/>
</g>
<g id="glyph-0-5">
<path d="M 4.769531 -3.027344 L 0.945312 -3.027344 L 0.945312 -3.5625 L 4.769531 -3.5625 L 4.769531 -3.027344 M 4.769531 -1.292969 L 0.945312 -1.292969 L 0.945312 -1.832031 L 4.769531 -1.832031 Z "/>
</g>
<g id="glyph-0-6">
<path d="M 3.941406 -1.78125 C 3.941406 -1.496094 3.894531 -1.238281 3.796875 -1.007812 C 3.699219 -0.777344 3.558594 -0.582031 3.378906 -0.414062 C 3.199219 -0.25 2.980469 -0.121094 2.726562 -0.03125 C 2.472656 0.0585938 2.1875 0.101562 1.875 0.101562 C 1.332031 0.101562 0.929688 0.0195312 0.667969 -0.140625 L 0.667969 -0.851562 C 1.0625 -0.59375 1.46875 -0.46875 1.882812 -0.46875 C 2.09375 -0.46875 2.285156 -0.5 2.457031 -0.5625 C 2.625 -0.625 2.769531 -0.710938 2.890625 -0.820312 C 3.007812 -0.933594 3.101562 -1.066406 3.164062 -1.226562 C 3.226562 -1.382812 3.257812 -1.554688 3.257812 -1.742188 C 3.257812 -2.121094 3.132812 -2.417969 2.875 -2.632812 C 2.621094 -2.851562 2.25 -2.957031 1.765625 -2.957031 C 1.6875 -2.957031 1.605469 -2.957031 1.519531 -2.953125 C 1.429688 -2.953125 1.34375 -2.949219 1.257812 -2.945312 C 1.171875 -2.941406 1.085938 -2.933594 1.003906 -2.929688 C 0.921875 -2.925781 0.84375 -2.917969 0.777344 -2.910156 L 0.976562 -5.835938 L 3.675781 -5.835938 L 3.675781 -5.234375 L 1.554688 -5.234375 L 1.4375 -3.519531 C 1.523438 -3.523438 1.617188 -3.53125 1.714844 -3.535156 C 1.8125 -3.539062 1.898438 -3.539062 1.972656 -3.539062 C 2.28125 -3.539062 2.558594 -3.5 2.804688 -3.417969 C 3.046875 -3.335938 3.253906 -3.21875 3.425781 -3.070312 C 3.59375 -2.917969 3.722656 -2.734375 3.8125 -2.515625 C 3.898438 -2.296875 3.941406 -2.054688 3.941406 -1.78125 Z "/>
</g>
</g>
</defs>
<g fill="rgb(21.960784%, 74.117647%, 97.254902%)" fill-opacity="1">
<use xlink:href="#glyph-0-0" x="30" y="28.992188"/>
<use xlink:href="#glyph-0-1" x="34" y="28.992188"/>
<use xlink:href="#glyph-0-2" x="36" y="28.992188"/>
<use xlink:href="#glyph-0-1" x="42" y="28.992188"/>
<use xlink:href="#glyph-0-3" x="44" y="28.992188"/>
<use xlink:href="#glyph-0-4" x="48" y="28.992188"/>
<use xlink:href="#glyph-0-1" x="52" y="28.992188"/>
<use xlink:href="#glyph-0-5" x="54" y="28.992188"/>
<use xlink:href="#glyph-0-1" x="60" y="28.992188"/>
<use xlink:href="#glyph-0-6" x="62" y="28.992188"/>
</g>
</svg>
