<?xml version="1.0" encoding="UTF-8"?>
<svg xmlns="http://www.w3.org/2000/svg" xmlns:xlink="http://www.w3.org/1999/xlink" width="1920" height="1080" viewBox="0 0 1920 1080">
<defs>
<g>
<g id="glyph-0-0">
<path d="M 0.996094 0 L 0.996094 -9.542969 L 2.921875 -9.542969 L 2.921875 -5.304688 L 6.816406 -9.542969 L 9.40625 -9.542969 L 5.8125 -5.828125 L 9.601562 0 L 7.109375 0 L 4.484375 -4.480469 L 2.921875 -2.882812 L 2.921875 0 Z "/>
</g>
<g id="glyph-0-1">
<path d="M 2.78125 -9.542969 L 2.78125 -6.035156 C 3.371094 -6.726562 4.074219 -7.070312 4.894531 -7.070312 C 5.316406 -7.070312 5.695312 -6.992188 6.035156 -6.835938 C 6.375 -6.679688 6.628906 -6.480469 6.800781 -6.238281 C 6.972656 -5.992188 7.089844 -5.726562 7.152344 -5.429688 C 7.214844 -5.132812 7.246094 -4.675781 7.246094 -4.054688 L 7.246094 0 L 5.417969 0 L 5.417969 -3.652344 C 5.417969 -4.378906 5.382812 -4.835938 5.3125 -5.03125 C 5.242188 -5.226562 5.121094 -5.382812 4.945312 -5.496094 C 4.769531 -5.613281 4.546875 -5.671875 4.285156 -5.671875 C 3.980469 -5.671875 3.707031 -5.597656 3.46875 -5.449219 C 3.230469 -5.300781 3.054688 -5.078125 2.945312 -4.78125 C 2.835938 -4.484375 2.78125 -4.046875 2.78125 -3.464844 L 2.78125 0 L 0.949219 0 L 0.949219 -9.542969 Z "/>
</g>
<g id="glyph-0-2">
<path d="M 7.824219 -6.914062 L 9.65625 -6.914062 L 9.65625 -5.605469 C 9.65625 -5.066406 9.609375 -4.644531 9.515625 -4.34375 C 9.421875 -4.039062 9.25 -3.765625 8.996094 -3.527344 C 8.609375 -3.15625 8.015625 -2.902344 7.207031 -2.773438 L 7.207031 0 L 5.507812 0 L 5.507812 -1.035156 C 4.964844 -0.242188 4.203125 0.15625 3.214844 0.15625 C 2.195312 0.15625 1.511719 -0.230469 1.164062 -1.007812 C 1 -1.378906 0.917969 -1.886719 0.917969 -2.539062 L 0.917969 -6.914062 L 2.746094 -6.914062 L 2.746094 -3.738281 C 2.746094 -2.824219 2.78125 -2.230469 2.851562 -1.953125 C 2.898438 -1.746094 3.019531 -1.570312 3.214844 -1.433594 C 3.394531 -1.300781 3.621094 -1.238281 3.894531 -1.238281 C 4.203125 -1.238281 4.480469 -1.320312 4.730469 -1.492188 C 4.980469 -1.660156 5.148438 -1.871094 5.242188 -2.128906 C 5.332031 -2.386719 5.378906 -3.007812 5.378906 -3.996094 L 5.378906 -6.914062 L 7.207031 -6.914062 L 7.207031 -3.515625 C 7.808594 -3.636719 8.234375 -3.863281 8.476562 -4.191406 C 8.625 -4.390625 8.703125 -4.691406 8.710938 -5.085938 L 7.824219 -5.085938 L 7.824219 -6.914062 M 3.738281 -8.476562 C 3.984375 -8.503906 4.144531 -8.527344 4.210938 -8.546875 C 4.441406 -8.605469 4.558594 -8.703125 4.5625 -8.847656 C 4.566406 -8.949219 4.507812 -9.03125 4.382812 -9.101562 C 4.199219 -9.203125 3.910156 -9.25 3.515625 -9.25 C 3.382812 -9.25 3.175781 -9.242188 2.902344 -9.226562 L 2.832031 -9.890625 C 3 -9.925781 3.3125 -9.9375 3.769531 -9.933594 C 4.304688 -9.929688 4.738281 -9.84375 5.078125 -9.675781 C 5.453125 -9.492188 5.640625 -9.238281 5.652344 -8.914062 C 5.667969 -8.460938 5.273438 -8.1875 4.464844 -8.085938 L 4.464844 -7.761719 L 3.738281 -7.761719 Z "/>
</g>
<g id="glyph-0-3">
</g>
<g id="glyph-0-4">
<path d="M 5.410156 -3.507812 L 5.410156 -5.117188 L 9.5625 -5.117188 L 9.5625 -1.316406 C 9.160156 -0.925781 8.574219 -0.582031 7.808594 -0.28125 C 7.042969 0.015625 6.265625 0.164062 5.480469 0.164062 C 4.484375 0.164062 3.613281 -0.046875 2.871094 -0.464844 C 2.128906 -0.882812 1.570312 -1.484375 1.199219 -2.261719 C 0.824219 -3.042969 0.636719 -3.890625 0.636719 -4.804688 C 0.636719 -5.796875 0.847656 -6.683594 1.261719 -7.453125 C 1.679688 -8.226562 2.289062 -8.820312 3.09375 -9.230469 C 3.703125 -9.546875 4.464844 -9.707031 5.378906 -9.707031 C 6.5625 -9.707031 7.488281 -9.457031 8.15625 -8.960938 C 8.820312 -8.464844 9.25 -7.777344 9.441406 -6.902344 L 7.527344 -6.542969 C 7.390625 -7.011719 7.136719 -7.382812 6.765625 -7.652344 C 6.394531 -7.925781 5.933594 -8.058594 5.378906 -8.058594 C 4.535156 -8.058594 3.867188 -7.792969 3.367188 -7.257812 C 2.871094 -6.726562 2.625 -5.933594 2.625 -4.882812 C 2.625 -3.75 2.875 -2.898438 3.378906 -2.335938 C 3.882812 -1.765625 4.542969 -1.484375 5.359375 -1.484375 C 5.761719 -1.484375 6.167969 -1.5625 6.570312 -1.722656 C 6.976562 -1.878906 7.328125 -2.074219 7.617188 -2.296875 L 7.617188 -3.507812 Z "/>
</g>
<g id="glyph-0-5">
<path d="M 2.324219 -4.804688 L 0.664062 -5.105469 C 0.851562 -5.773438 1.171875 -6.265625 1.628906 -6.589844 C 2.082031 -6.910156 2.761719 -7.070312 3.660156 -7.070312 C 4.476562 -7.070312 5.082031 -6.972656 5.480469 -6.78125 C 5.882812 -6.585938 6.160156 -6.34375 6.324219 -6.042969 C 6.488281 -5.746094 6.570312 -5.203125 6.570312 -4.40625 L 6.550781 -2.273438 C 6.550781 -1.664062 6.578125 -1.214844 6.636719 -0.925781 C 6.695312 -0.640625 6.804688 -0.328125 6.964844 0 L 5.15625 0 C 5.109375 -0.121094 5.050781 -0.300781 4.980469 -0.539062 C 4.949219 -0.648438 4.929688 -0.71875 4.914062 -0.753906 C 4.601562 -0.453125 4.269531 -0.222656 3.914062 -0.0703125 C 3.558594 0.0820312 3.175781 0.15625 2.773438 0.15625 C 2.0625 0.15625 1.5 -0.0351562 1.089844 -0.421875 C 0.679688 -0.808594 0.476562 -1.296875 0.476562 -1.886719 C 0.476562 -2.277344 0.570312 -2.625 0.753906 -2.933594 C 0.941406 -3.238281 1.203125 -3.472656 1.539062 -3.636719 C 1.875 -3.796875 2.359375 -3.941406 2.996094 -4.0625 C 3.851562 -4.222656 4.441406 -4.371094 4.773438 -4.511719 L 4.773438 -4.695312 C 4.773438 -5.046875 4.683594 -5.296875 4.511719 -5.445312 C 4.339844 -5.59375 4.011719 -5.671875 3.527344 -5.671875 C 3.203125 -5.671875 2.949219 -5.605469 2.765625 -5.476562 C 2.585938 -5.351562 2.4375 -5.125 2.324219 -4.804688 M 4.773438 -3.320312 C 4.539062 -3.242188 4.167969 -3.148438 3.660156 -3.039062 C 3.152344 -2.933594 2.820312 -2.824219 2.664062 -2.722656 C 2.425781 -2.550781 2.304688 -2.335938 2.304688 -2.078125 C 2.304688 -1.820312 2.398438 -1.597656 2.589844 -1.414062 C 2.78125 -1.226562 3.023438 -1.132812 3.320312 -1.132812 C 3.648438 -1.132812 3.964844 -1.242188 4.265625 -1.457031 C 4.484375 -1.625 4.632812 -1.824219 4.699219 -2.0625 C 4.75 -2.21875 4.773438 -2.515625 4.773438 -2.957031 Z "/>
</g>
<g id="glyph-0-6">
<path d="M 5.507812 0 L 5.507812 -1.035156 C 5.257812 -0.667969 4.925781 -0.375 4.515625 -0.164062 C 4.105469 0.0507812 3.671875 0.15625 3.214844 0.15625 C 2.75 0.15625 2.335938 0.0546875 1.964844 -0.148438 C 1.597656 -0.355469 1.332031 -0.640625 1.164062 -1.007812 C 1 -1.378906 0.917969 -1.886719 0.917969 -2.539062 L 0.917969 -6.914062 L 2.746094 -6.914062 L 2.746094 -3.738281 C 2.746094 -2.765625 2.78125 -2.167969 2.847656 -1.949219 C 2.914062 -1.730469 3.039062 -1.558594 3.214844 -1.429688 C 3.394531 -1.300781 3.621094 -1.238281 3.894531 -1.238281 C 4.207031 -1.238281 4.484375 -1.324219 4.734375 -1.492188 C 4.980469 -1.664062 5.148438 -1.878906 5.242188 -2.132812 C 5.332031 -2.386719 5.378906 -3.007812 5.378906 -3.996094 L 5.378906 -6.914062 L 7.207031 -6.914062 L 7.207031 0 Z "/>
</g>
<g id="glyph-0-7">
<path d="M 0.3125 -1.972656 L 2.148438 -2.253906 C 2.226562 -1.898438 2.386719 -1.625 2.625 -1.441406 C 2.863281 -1.257812 3.195312 -1.164062 3.625 -1.164062 C 4.097656 -1.164062 4.457031 -1.253906 4.695312 -1.425781 C 4.855469 -1.546875 4.933594 -1.710938 4.933594 -1.914062 C 4.933594 -2.054688 4.890625 -2.167969 4.804688 -2.257812 C 4.714844 -2.347656 4.507812 -2.425781 4.191406 -2.5 C 2.71875 -2.824219 1.78125 -3.121094 1.386719 -3.390625 C 0.839844 -3.765625 0.566406 -4.285156 0.566406 -4.949219 C 0.566406 -5.546875 0.804688 -6.050781 1.277344 -6.457031 C 1.75 -6.867188 2.484375 -7.070312 3.476562 -7.070312 C 4.421875 -7.070312 5.125 -6.917969 5.585938 -6.609375 C 6.046875 -6.300781 6.363281 -5.84375 6.535156 -5.242188 L 4.8125 -4.921875 C 4.738281 -5.191406 4.597656 -5.398438 4.390625 -5.539062 C 4.183594 -5.683594 3.890625 -5.753906 3.507812 -5.753906 C 3.027344 -5.753906 2.683594 -5.6875 2.472656 -5.554688 C 2.335938 -5.457031 2.265625 -5.335938 2.265625 -5.183594 C 2.265625 -5.050781 2.328125 -4.941406 2.449219 -4.851562 C 2.613281 -4.730469 3.183594 -4.558594 4.15625 -4.335938 C 5.132812 -4.113281 5.8125 -3.84375 6.199219 -3.523438 C 6.578125 -3.195312 6.769531 -2.742188 6.769531 -2.160156 C 6.769531 -1.527344 6.507812 -0.984375 5.976562 -0.527344 C 5.445312 -0.0703125 4.664062 0.15625 3.625 0.15625 C 2.683594 0.15625 1.9375 -0.0351562 1.390625 -0.417969 C 0.839844 -0.796875 0.480469 -1.316406 0.3125 -1.972656 Z "/>
</g>
<g id="glyph-0-8">
<path d="M 0.890625 0 L 0.890625 -9.542969 L 2.722656 -9.542969 L 2.722656 -4.480469 L 4.863281 -6.914062 L 7.117188 -6.914062 L 4.753906 -4.386719 L 7.285156 0 L 5.3125 0 L 3.574219 -3.105469 L 2.722656 -2.214844 L 2.722656 0 Z "/>
</g>
<g id="glyph-0-9">
<path d="M 0.535156 -3.554688 C 0.535156 -4.164062 0.683594 -4.75 0.984375 -5.320312 C 1.28125 -5.886719 1.707031 -6.320312 2.257812 -6.621094 C 2.804688 -6.921875 3.417969 -7.070312 4.09375 -7.070312 C 5.140625 -7.070312 6 -6.730469 6.667969 -6.050781 C 7.335938 -5.371094 7.667969 -4.515625 7.667969 -3.476562 C 7.667969 -2.429688 7.332031 -1.5625 6.65625 -0.875 C 5.980469 -0.1875 5.132812 0.15625 4.109375 0.15625 C 3.472656 0.15625 2.871094 0.0117188 2.296875 -0.273438 C 1.71875 -0.558594 1.28125 -0.980469 0.984375 -1.53125 C 0.683594 -2.085938 0.535156 -2.761719 0.535156 -3.554688 M 2.410156 -3.457031 C 2.410156 -2.769531 2.570312 -2.246094 2.898438 -1.882812 C 3.222656 -1.515625 3.625 -1.335938 4.101562 -1.335938 C 4.578125 -1.335938 4.980469 -1.515625 5.300781 -1.882812 C 5.625 -2.246094 5.789062 -2.777344 5.789062 -3.46875 C 5.789062 -4.148438 5.625 -4.667969 5.300781 -5.03125 C 4.980469 -5.398438 4.578125 -5.578125 4.101562 -5.578125 C 3.625 -5.578125 3.222656 -5.398438 2.898438 -5.03125 C 2.570312 -4.667969 2.410156 -4.144531 2.410156 -3.457031 M 1.894531 -7.785156 L 3.261719 -9.707031 L 4.953125 -9.707031 L 6.300781 -7.785156 L 4.832031 -7.785156 L 4.074219 -8.757812 L 3.371094 -7.785156 Z "/>
</g>
<g id="glyph-0-10">
<path d="M 7.246094 0 L 5.417969 0 L 5.417969 -3.527344 C 5.417969 -4.273438 5.378906 -4.757812 5.300781 -4.976562 C 5.222656 -5.195312 5.09375 -5.367188 4.917969 -5.488281 C 4.742188 -5.609375 4.53125 -5.671875 4.285156 -5.671875 C 3.96875 -5.671875 3.683594 -5.582031 3.429688 -5.410156 C 3.179688 -5.238281 3.007812 -5.007812 2.914062 -4.71875 C 2.820312 -4.433594 2.773438 -3.902344 2.773438 -3.132812 L 2.773438 0 L 0.945312 0 L 0.945312 -6.914062 L 2.644531 -6.914062 L 2.644531 -5.898438 C 3.246094 -6.679688 4.007812 -7.070312 4.921875 -7.070312 C 5.324219 -7.070312 5.695312 -6.996094 6.027344 -6.851562 C 6.363281 -6.707031 6.617188 -6.519531 6.785156 -6.296875 C 6.957031 -6.070312 7.078125 -5.8125 7.144531 -5.527344 C 7.210938 -5.242188 7.246094 -4.832031 7.246094 -4.296875 Z "/>
</g>
<g id="glyph-0-11">
<path d="M 0.789062 0.457031 L 2.878906 0.710938 C 2.914062 0.953125 2.992188 1.121094 3.117188 1.210938 C 3.292969 1.339844 3.566406 1.40625 3.9375 1.40625 C 4.417969 1.40625 4.773438 1.335938 5.011719 1.191406 C 5.171875 1.097656 5.296875 0.941406 5.378906 0.730469 C 5.433594 0.578125 5.460938 0.296875 5.460938 -0.109375 L 5.460938 -1.121094 C 4.914062 -0.375 4.226562 0 3.390625 0 C 2.464844 0 1.726562 -0.394531 1.183594 -1.179688 C 0.757812 -1.800781 0.546875 -2.570312 0.546875 -3.496094 C 0.546875 -4.65625 0.824219 -5.539062 1.382812 -6.152344 C 1.941406 -6.765625 2.632812 -7.070312 3.464844 -7.070312 C 4.320312 -7.070312 5.023438 -6.695312 5.578125 -5.945312 L 5.578125 -6.914062 L 7.292969 -6.914062 L 7.292969 -0.710938 C 7.292969 0.105469 7.222656 0.714844 7.089844 1.121094 C 6.957031 1.523438 6.765625 1.839844 6.523438 2.070312 C 6.28125 2.300781 5.957031 2.480469 5.550781 2.609375 C 5.144531 2.742188 4.632812 2.804688 4.011719 2.804688 C 2.839844 2.804688 2.007812 2.605469 1.515625 2.203125 C 1.027344 1.800781 0.78125 1.292969 0.78125 0.675781 C 0.78125 0.617188 0.785156 0.542969 0.789062 0.457031 M 2.421875 -3.601562 C 2.421875 -2.867188 2.5625 -2.328125 2.847656 -1.988281 C 3.132812 -1.648438 3.484375 -1.476562 3.898438 -1.476562 C 4.347656 -1.476562 4.722656 -1.652344 5.03125 -2 C 5.339844 -2.351562 5.496094 -2.867188 5.496094 -3.554688 C 5.496094 -4.269531 5.347656 -4.800781 5.050781 -5.148438 C 4.757812 -5.496094 4.382812 -5.671875 3.933594 -5.671875 C 3.492188 -5.671875 3.132812 -5.5 2.847656 -5.160156 C 2.5625 -4.820312 2.421875 -4.300781 2.421875 -3.601562 Z "/>
</g>
<g id="glyph-0-12">
<path d="M 0.90625 -6.914062 L 2.609375 -6.914062 L 2.609375 -5.898438 C 2.832031 -6.246094 3.132812 -6.527344 3.507812 -6.746094 C 3.886719 -6.960938 4.304688 -7.070312 4.765625 -7.070312 C 5.570312 -7.070312 6.25 -6.753906 6.808594 -6.125 C 7.371094 -5.496094 7.648438 -4.621094 7.648438 -3.496094 C 7.648438 -2.339844 7.367188 -1.445312 6.804688 -0.804688 C 6.238281 -0.164062 5.554688 0.15625 4.753906 0.15625 C 4.371094 0.15625 4.023438 0.0820312 3.714844 -0.0703125 C 3.402344 -0.222656 3.078125 -0.484375 2.734375 -0.851562 L 2.734375 2.628906 L 0.90625 2.628906 L 0.90625 -6.914062 M 2.714844 -3.574219 C 2.714844 -2.796875 2.867188 -2.222656 3.175781 -1.851562 C 3.484375 -1.480469 3.859375 -1.296875 4.304688 -1.296875 C 4.730469 -1.296875 5.082031 -1.464844 5.363281 -1.804688 C 5.648438 -2.148438 5.789062 -2.707031 5.789062 -3.484375 C 5.789062 -4.207031 5.640625 -4.746094 5.351562 -5.097656 C 5.0625 -5.449219 4.699219 -5.625 4.269531 -5.625 C 3.824219 -5.625 3.453125 -5.453125 3.15625 -5.105469 C 2.863281 -4.761719 2.714844 -4.25 2.714844 -3.574219 Z "/>
</g>
<g id="glyph-0-13">
<path d="M 2.324219 -4.804688 L 0.664062 -5.105469 C 0.851562 -5.773438 1.171875 -6.265625 1.628906 -6.589844 C 2.082031 -6.910156 2.761719 -7.070312 3.660156 -7.070312 C 4.476562 -7.070312 5.082031 -6.972656 5.480469 -6.78125 C 5.882812 -6.585938 6.160156 -6.34375 6.324219 -6.042969 C 6.488281 -5.746094 6.570312 -5.203125 6.570312 -4.40625 L 6.550781 -2.273438 C 6.550781 -1.664062 6.578125 -1.214844 6.636719 -0.925781 C 6.695312 -0.640625 6.804688 -0.328125 6.964844 0 L 5.15625 0 C 5.109375 -0.121094 5.050781 -0.300781 4.980469 -0.539062 C 4.949219 -0.648438 4.929688 -0.71875 4.914062 -0.753906 C 4.601562 -0.453125 4.269531 -0.222656 3.914062 -0.0703125 C 3.558594 0.0820312 3.175781 0.15625 2.773438 0.15625 C 2.0625 0.15625 1.5 -0.0351562 1.089844 -0.421875 C 0.679688 -0.808594 0.476562 -1.296875 0.476562 -1.886719 C 0.476562 -2.277344 0.570312 -2.625 0.753906 -2.933594 C 0.941406 -3.238281 1.203125 -3.472656 1.539062 -3.636719 C 1.875 -3.796875 2.359375 -3.941406 2.996094 -4.0625 C 3.851562 -4.222656 4.441406 -4.371094 4.773438 -4.511719 L 4.773438 -4.695312 C 4.773438 -5.046875 4.683594 -5.296875 4.511719 -5.445312 C 4.339844 -5.59375 4.011719 -5.671875 3.527344 -5.671875 C 3.203125 -5.671875 2.949219 -5.605469 2.765625 -5.476562 C 2.585938 -5.351562 2.4375 -5.125 2.324219 -4.804688 M 4.773438 -3.320312 C 4.539062 -3.242188 4.167969 -3.148438 3.660156 -3.039062 C 3.152344 -2.933594 2.820312 -2.824219 2.664062 -2.722656 C 2.425781 -2.550781 2.304688 -2.335938 2.304688 -2.078125 C 2.304688 -1.820312 2.398438 -1.597656 2.589844 -1.414062 C 2.78125 -1.226562 3.023438 -1.132812 3.320312 -1.132812 C 3.648438 -1.132812 3.964844 -1.242188 4.265625 -1.457031 C 4.484375 -1.625 4.632812 -1.824219 4.699219 -2.0625 C 4.75 -2.21875 4.773438 -2.515625 4.773438 -2.957031 L 4.773438 -3.320312 M 3.292969 -8.476562 C 3.542969 -8.503906 3.699219 -8.527344 3.769531 -8.546875 C 4 -8.605469 4.117188 -8.703125 4.121094 -8.847656 C 4.125 -8.949219 4.066406 -9.03125 3.9375 -9.101562 C 3.757812 -9.203125 3.46875 -9.25 3.074219 -9.25 C 2.9375 -9.25 2.734375 -9.242188 2.460938 -9.226562 L 2.390625 -9.890625 C 2.558594 -9.925781 2.871094 -9.9375 3.328125 -9.933594 C 3.859375 -9.929688 4.296875 -9.84375 4.636719 -9.675781 C 5.007812 -9.492188 5.199219 -9.238281 5.207031 -8.914062 C 5.226562 -8.460938 4.832031 -8.1875 4.023438 -8.085938 L 4.023438 -7.761719 L 3.292969 -7.761719 Z "/>
</g>
<g id="glyph-0-14">
<path d="M 0.957031 -7.851562 L 0.957031 -9.542969 L 2.785156 -9.542969 L 2.785156 -7.851562 L 0.957031 -7.851562 M 0.957031 0 L 0.957031 -6.914062 L 2.785156 -6.914062 L 2.785156 0 Z "/>
</g>
<g id="glyph-0-15">
<path d="M 0.957031 0 L 0.957031 -9.542969 L 2.785156 -9.542969 L 2.785156 0 Z "/>
</g>
<g id="glyph-0-16">
<path d="M 2.324219 -4.804688 L 0.664062 -5.105469 C 0.851562 -5.773438 1.171875 -6.265625 1.628906 -6.589844 C 2.082031 -6.910156 2.761719 -7.070312 3.660156 -7.070312 C 4.476562 -7.070312 5.082031 -6.972656 5.480469 -6.78125 C 5.882812 -6.585938 6.160156 -6.34375 6.324219 -6.042969 C 6.488281 -5.746094 6.570312 -5.203125 6.570312 -4.40625 L 6.550781 -2.273438 C 6.550781 -1.664062 6.578125 -1.214844 6.636719 -0.925781 C 6.695312 -0.640625 6.804688 -0.328125 6.964844 0 L 5.15625 0 C 5.109375 -0.121094 5.050781 -0.300781 4.980469 -0.539062 C 4.949219 -0.648438 4.929688 -0.71875 4.914062 -0.753906 C 4.601562 -0.453125 4.269531 -0.222656 3.914062 -0.0703125 C 3.558594 0.0820312 3.175781 0.15625 2.773438 0.15625 C 2.0625 0.15625 1.5 -0.0351562 1.089844 -0.421875 C 0.679688 -0.808594 0.476562 -1.296875 0.476562 -1.886719 C 0.476562 -2.277344 0.570312 -2.625 0.753906 -2.933594 C 0.941406 -3.238281 1.203125 -3.472656 1.539062 -3.636719 C 1.875 -3.796875 2.359375 -3.941406 2.996094 -4.0625 C 3.851562 -4.222656 4.441406 -4.371094 4.773438 -4.511719 L 4.773438 -4.695312 C 4.773438 -5.046875 4.683594 -5.296875 4.511719 -5.445312 C 4.339844 -5.59375 4.011719 -5.671875 3.527344 -5.671875 C 3.203125 -5.671875 2.949219 -5.605469 2.765625 -5.476562 C 2.585938 -5.351562 2.4375 -5.125 2.324219 -4.804688 M 4.773438 -3.320312 C 4.539062 -3.242188 4.167969 -3.148438 3.660156 -3.039062 C 3.152344 -2.933594 2.820312 -2.824219 2.664062 -2.722656 C 2.425781 -2.550781 2.304688 -2.335938 2.304688 -2.078125 C 2.304688 -1.820312 2.398438 -1.597656 2.589844 -1.414062 C 2.78125 -1.226562 3.023438 -1.132812 3.320312 -1.132812 C 3.648438 -1.132812 3.964844 -1.242188 4.265625 -1.457031 C 4.484375 -1.625 4.632812 -1.824219 4.699219 -2.0625 C 4.75 -2.21875 4.773438 -2.515625 4.773438 -2.957031 L 4.773438 -3.320312 M 4.640625 -7.761719 L 3.488281 -7.761719 L 1.691406 -9.707031 L 3.742188 -9.707031 Z "/>
</g>
<g id="glyph-0-17">
<path d="M 0.535156 -3.554688 C 0.535156 -4.164062 0.683594 -4.75 0.984375 -5.320312 C 1.28125 -5.886719 1.707031 -6.320312 2.257812 -6.621094 C 2.804688 -6.921875 3.417969 -7.070312 4.09375 -7.070312 C 5.140625 -7.070312 6 -6.730469 6.667969 -6.050781 C 7.335938 -5.371094 7.667969 -4.515625 7.667969 -3.476562 C 7.667969 -2.429688 7.332031 -1.5625 6.65625 -0.875 C 5.980469 -0.1875 5.132812 0.15625 4.109375 0.15625 C 3.472656 0.15625 2.871094 0.0117188 2.296875 -0.273438 C 1.71875 -0.558594 1.28125 -0.980469 0.984375 -1.53125 C 0.683594 -2.085938 0.535156 -2.761719 0.535156 -3.554688 M 2.410156 -3.457031 C 2.410156 -2.769531 2.570312 -2.246094 2.898438 -1.882812 C 3.222656 -1.515625 3.625 -1.335938 4.101562 -1.335938 C 4.578125 -1.335938 4.980469 -1.515625 5.300781 -1.882812 C 5.625 -2.246094 5.789062 -2.777344 5.789062 -3.46875 C 5.789062 -4.148438 5.625 -4.667969 5.300781 -5.03125 C 4.980469 -5.398438 4.578125 -5.578125 4.101562 -5.578125 C 3.625 -5.578125 3.222656 -5.398438 2.898438 -5.03125 C 2.570312 -4.667969 2.410156 -4.144531 2.410156 -3.457031 M 3.113281 2.609375 L 3.113281 0.78125 L 4.941406 0.78125 L 4.941406 2.609375 Z "/>
</g>
<g id="glyph-0-18">
<path d="M 6.984375 -4.871094 L 5.183594 -4.542969 C 5.121094 -4.90625 4.984375 -5.175781 4.769531 -5.359375 C 4.554688 -5.539062 4.273438 -5.632812 3.933594 -5.632812 C 3.476562 -5.632812 3.113281 -5.472656 2.839844 -5.160156 C 2.570312 -4.84375 2.433594 -4.320312 2.433594 -3.582031 C 2.433594 -2.761719 2.574219 -2.179688 2.847656 -1.84375 C 3.125 -1.503906 3.492188 -1.335938 3.957031 -1.335938 C 4.304688 -1.335938 4.589844 -1.433594 4.8125 -1.628906 C 5.03125 -1.828125 5.1875 -2.167969 5.28125 -2.648438 L 7.078125 -2.34375 C 6.890625 -1.519531 6.53125 -0.894531 6.003906 -0.476562 C 5.472656 -0.0546875 4.761719 0.15625 3.875 0.15625 C 2.863281 0.15625 2.054688 -0.164062 1.453125 -0.800781 C 0.855469 -1.4375 0.554688 -2.320312 0.554688 -3.449219 C 0.554688 -4.59375 0.855469 -5.480469 1.457031 -6.117188 C 2.0625 -6.753906 2.878906 -7.070312 3.90625 -7.070312 C 4.75 -7.070312 5.417969 -6.890625 5.914062 -6.527344 C 6.410156 -6.164062 6.769531 -5.613281 6.984375 -4.871094 Z "/>
</g>
<g id="glyph-0-19">
<path d="M 4.128906 -6.914062 L 4.128906 -5.457031 L 2.878906 -5.457031 L 2.878906 -2.667969 C 2.878906 -2.105469 2.890625 -1.777344 2.914062 -1.683594 C 2.9375 -1.589844 2.992188 -1.511719 3.074219 -1.453125 C 3.160156 -1.390625 3.265625 -1.359375 3.386719 -1.359375 C 3.554688 -1.359375 3.800781 -1.417969 4.121094 -1.535156 L 4.277344 -0.117188 C 3.851562 0.0664062 3.371094 0.15625 2.832031 0.15625 C 2.503906 0.15625 2.203125 0.101562 1.941406 -0.0078125 C 1.675781 -0.121094 1.480469 -0.265625 1.355469 -0.4375 C 1.234375 -0.613281 1.148438 -0.851562 1.101562 -1.152344 C 1.0625 -1.363281 1.042969 -1.792969 1.042969 -2.441406 L 1.042969 -5.457031 L 0.203125 -5.457031 L 0.203125 -6.914062 L 1.042969 -6.914062 L 1.042969 -8.289062 L 2.878906 -9.355469 L 2.878906 -6.914062 Z "/>
</g>
<g id="glyph-0-20">
<path d="M 0.535156 -3.554688 C 0.535156 -4.164062 0.683594 -4.75 0.984375 -5.320312 C 1.28125 -5.886719 1.707031 -6.320312 2.257812 -6.621094 C 2.804688 -6.921875 3.417969 -7.070312 4.09375 -7.070312 C 5.140625 -7.070312 6 -6.730469 6.667969 -6.050781 C 7.335938 -5.371094 7.667969 -4.515625 7.667969 -3.476562 C 7.667969 -2.429688 7.332031 -1.5625 6.65625 -0.875 C 5.980469 -0.1875 5.132812 0.15625 4.109375 0.15625 C 3.472656 0.15625 2.871094 0.0117188 2.296875 -0.273438 C 1.71875 -0.558594 1.28125 -0.980469 0.984375 -1.53125 C 0.683594 -2.085938 0.535156 -2.761719 0.535156 -3.554688 M 2.410156 -3.457031 C 2.410156 -2.769531 2.570312 -2.246094 2.898438 -1.882812 C 3.222656 -1.515625 3.625 -1.335938 4.101562 -1.335938 C 4.578125 -1.335938 4.980469 -1.515625 5.300781 -1.882812 C 5.625 -2.246094 5.789062 -2.777344 5.789062 -3.46875 C 5.789062 -4.148438 5.625 -4.667969 5.300781 -5.03125 C 4.980469 -5.398438 4.578125 -5.578125 4.101562 -5.578125 C 3.625 -5.578125 3.222656 -5.398438 2.898438 -5.03125 C 2.570312 -4.667969 2.410156 -4.144531 2.410156 -3.457031 M 1.894531 -7.785156 L 3.261719 -9.707031 L 4.953125 -9.707031 L 6.300781 -7.785156 L 4.832031 -7.785156 L 4.074219 -8.757812 L 3.371094 -7.785156 L 1.894531 -7.785156 M 3.113281 2.609375 L 3.113281 0.78125 L 4.941406 0.78125 L 4.941406 2.609375 Z "/>
</g>
</g>
</defs>
<g fill="rgb(97.254902%, 98.039216%, 98.823529%)" fill-opacity="1">
<use xlink:href="#glyph-0-0" x="30" y="32.070312"/>
<use xlink:href="#glyph-0-1" x="40" y="32.070312"/>
<use xlink:href="#glyph-0-2" x="48" y="32.070312"/>
<use xlink:href="#glyph-0-3" x="58" y="32.070312"/>
<use xlink:href="#glyph-0-4" x="62" y="32.070312"/>
<use xlink:href="#glyph-0-5" x="72" y="32.070312"/>
<use xlink:href="#glyph-0-6" x="79" y="32.070312"/>
<use xlink:href="#glyph-0-7" x="87" y="32.070312"/>
<use xlink:href="#glyph-0-7" x="94" y="32.070312"/>
<use xlink:href="#glyph-0-3" x="101" y="32.070312"/>
<use xlink:href="#glyph-0-8" x="105" y="32.070312"/>
<use xlink:href="#glyph-0-1" x="112" y="32.070312"/>
<use xlink:href="#glyph-0-9" x="120" y="32.070312"/>
<use xlink:href="#glyph-0-10" x="128" y="32.070312"/>
<use xlink:href="#glyph-0-11" x="136" y="32.070312"/>
<use xlink:href="#glyph-0-3" x="144" y="32.070312"/>
<use xlink:href="#glyph-0-12" x="148" y="32.070312"/>
<use xlink:href="#glyph-0-1" x="156" y="32.070312"/>
<use xlink:href="#glyph-0-13" x="164" y="32.070312"/>
<use xlink:href="#glyph-0-14" x="171" y="32.070312"/>
<use xlink:href="#glyph-0-3" x="175" y="32.070312"/>
<use xlink:href="#glyph-0-15" x="179" y="32.070312"/>
<use xlink:href="#glyph-0-16" x="183" y="32.070312"/>
<use xlink:href="#glyph-0-3" x="190" y="32.070312"/>
<use xlink:href="#glyph-0-1" x="194" y="32.070312"/>
<use xlink:href="#glyph-0-17" x="202" y="32.070312"/>
<use xlink:href="#glyph-0-18" x="210" y="32.070312"/>
<use xlink:href="#glyph-0-3" x="217" y="32.070312"/>
<use xlink:href="#glyph-0-19" x="221" y="32.070312"/>
<use xlink:href="#glyph-0-1" x="225" y="32.070312"/>
<use xlink:href="#glyph-0-6" x="233" y="32.070312"/>
<use xlink:href="#glyph-0-20" x="241" y="32.070312"/>
<use xlink:href="#glyph-0-18" x="249" y="32.070312"/>
</g>
</svg>
