<?xml version="1.0" encoding="UTF-8"?>
<svg xmlns="http://www.w3.org/2000/svg" xmlns:xlink="http://www.w3.org/1999/xlink" width="1920" height="1080" viewBox="0 0 1920 1080">
<defs>
<g>
<g id="glyph-0-0">
<path d="M 2.710938 -0.109375 C 2.5 0.0117188 2.191406 0.0742188 1.789062 0.0742188 C 1.320312 0.0742188 0.941406 -0.0664062 0.652344 -0.351562 C 0.359375 -0.636719 0.214844 -1.003906 0.214844 -1.453125 C 0.214844 -1.972656 0.371094 -2.382812 0.683594 -2.679688 C 0.992188 -2.980469 1.410156 -3.128906 1.929688 -3.128906 C 2.289062 -3.128906 2.550781 -3.082031 2.710938 -2.988281 L 2.710938 -2.1875 C 2.515625 -2.335938 2.296875 -2.40625 2.054688 -2.40625 C 1.78125 -2.40625 1.566406 -2.328125 1.410156 -2.171875 C 1.25 -2.011719 1.171875 -1.792969 1.171875 -1.515625 C 1.171875 -1.246094 1.25 -1.03125 1.398438 -0.878906 C 1.550781 -0.722656 1.757812 -0.648438 2.023438 -0.648438 C 2.257812 -0.648438 2.488281 -0.722656 2.710938 -0.867188 Z "/>
</g>
<g id="glyph-0-1">
<path d="M 1.851562 0.0742188 C 1.34375 0.0742188 0.941406 -0.0664062 0.652344 -0.355469 C 0.359375 -0.640625 0.214844 -1.027344 0.214844 -1.515625 C 0.214844 -2.019531 0.367188 -2.417969 0.667969 -2.703125 C 0.972656 -2.988281 1.378906 -3.128906 1.894531 -3.128906 C 2.402344 -3.128906 2.800781 -2.988281 3.089844 -2.703125 C 3.375 -2.417969 3.519531 -2.039062 3.519531 -1.570312 C 3.519531 -1.0625 3.371094 -0.660156 3.074219 -0.367188 C 2.777344 -0.0742188 2.371094 0.0742188 1.851562 0.0742188 M 1.875 -2.40625 C 1.652344 -2.40625 1.480469 -2.332031 1.359375 -2.179688 C 1.234375 -2.023438 1.171875 -1.808594 1.171875 -1.527344 C 1.171875 -0.941406 1.410156 -0.648438 1.882812 -0.648438 C 2.335938 -0.648438 2.558594 -0.949219 2.558594 -1.550781 C 2.558594 -2.121094 2.332031 -2.40625 1.875 -2.40625 M 2.976562 -3.539062 L 2.355469 -3.539062 L 1.886719 -4.101562 L 1.445312 -3.539062 L 0.828125 -3.539062 L 1.53125 -4.507812 L 2.269531 -4.507812 L 2.976562 -3.539062 M 1.855469 1.167969 C 1.722656 1.167969 1.613281 1.125 1.527344 1.046875 C 1.441406 0.96875 1.394531 0.871094 1.394531 0.757812 C 1.394531 0.636719 1.441406 0.542969 1.527344 0.46875 C 1.613281 0.390625 1.722656 0.355469 1.855469 0.355469 C 1.988281 0.355469 2.097656 0.394531 2.183594 0.46875 C 2.265625 0.542969 2.308594 0.640625 2.308594 0.757812 C 2.308594 0.875 2.265625 0.972656 2.183594 1.050781 C 2.097656 1.128906 1.988281 1.167969 1.855469 1.167969 Z "/>
</g>
<g id="glyph-0-2">
<path d="M 2.242188 -0.0351562 C 2.105469 0.0390625 1.894531 0.0742188 1.613281 0.0742188 C 0.949219 0.0742188 0.617188 -0.269531 0.617188 -0.960938 L 0.617188 -2.359375 L 0.121094 -2.359375 L 0.121094 -3.054688 L 0.617188 -3.054688 L 0.617188 -3.714844 L 1.558594 -3.984375 L 1.558594 -3.054688 L 2.242188 -3.054688 L 2.242188 -2.359375 L 1.558594 -2.359375 L 1.558594 -1.125 C 1.558594 -0.804688 1.683594 -0.648438 1.9375 -0.648438 C 2.035156 -0.648438 2.136719 -0.675781 2.242188 -0.734375 Z "/>
</g>
<g id="glyph-0-3">
</g>
<g id="glyph-0-4">
<path d="M 2.484375 -4.375 L 2.484375 0 L 1.542969 0 L 1.542969 -3.3125 C 1.492188 -3.265625 1.429688 -3.222656 1.359375 -3.183594 C 1.289062 -3.140625 1.214844 -3.105469 1.132812 -3.070312 C 1.054688 -3.039062 0.972656 -3.011719 0.886719 -2.988281 C 0.800781 -2.964844 0.714844 -2.949219 0.632812 -2.9375 L 0.632812 -3.734375 C 0.878906 -3.804688 1.109375 -3.894531 1.324219 -4.007812 C 1.542969 -4.117188 1.738281 -4.242188 1.914062 -4.375 Z "/>
</g>
<g id="glyph-0-5">
<path d="M 3.617188 -2.089844 L 0.710938 -2.089844 L 0.710938 -2.699219 L 3.617188 -2.699219 L 3.617188 -2.089844 M 3.617188 -0.792969 L 0.710938 -0.792969 L 0.710938 -1.398438 L 3.617188 -1.398438 Z "/>
</g>
<g id="glyph-0-6">
<path d="M 2.203125 0.972656 L 1.433594 0.972656 C 0.792969 0.265625 0.472656 -0.605469 0.472656 -1.636719 C 0.472656 -2.632812 0.792969 -3.515625 1.433594 -4.277344 L 2.199219 -4.277344 C 1.597656 -3.480469 1.296875 -2.597656 1.296875 -1.636719 C 1.296875 -0.675781 1.597656 0.191406 2.203125 0.972656 Z "/>
</g>
<g id="glyph-0-7">
<path d="M 1.289062 -0.75 L 0.851562 0.757812 L 0.117188 0.757812 L 0.421875 -0.75 Z "/>
</g>
<g id="glyph-0-8">
<path d="M 0.347656 -0.140625 L 0.347656 -0.960938 C 0.636719 -0.75 0.96875 -0.648438 1.351562 -0.648438 C 1.59375 -0.648438 1.78125 -0.699219 1.914062 -0.800781 C 2.046875 -0.90625 2.117188 -1.050781 2.117188 -1.234375 C 2.117188 -1.425781 2.03125 -1.574219 1.867188 -1.675781 C 1.699219 -1.78125 1.472656 -1.832031 1.179688 -1.832031 L 0.785156 -1.832031 L 0.785156 -2.554688 L 1.152344 -2.554688 C 1.707031 -2.554688 1.988281 -2.738281 1.988281 -3.109375 C 1.988281 -3.457031 1.773438 -3.632812 1.34375 -3.632812 C 1.058594 -3.632812 0.78125 -3.539062 0.511719 -3.355469 L 0.511719 -4.125 C 0.8125 -4.273438 1.160156 -4.351562 1.558594 -4.351562 C 2 -4.351562 2.339844 -4.25 2.582031 -4.054688 C 2.824219 -3.859375 2.949219 -3.601562 2.949219 -3.289062 C 2.949219 -2.730469 2.664062 -2.378906 2.097656 -2.238281 L 2.097656 -2.222656 C 2.398438 -2.183594 2.636719 -2.074219 2.8125 -1.894531 C 2.988281 -1.710938 3.078125 -1.488281 3.078125 -1.222656 C 3.078125 -0.824219 2.929688 -0.507812 2.636719 -0.273438 C 2.34375 -0.0429688 1.941406 0.0742188 1.425781 0.0742188 C 0.984375 0.0742188 0.625 0.00390625 0.347656 -0.140625 Z "/>
</g>
<g id="glyph-0-9">
<path d="M 0.816406 0.972656 L 0.0546875 0.972656 C 0.664062 0.195312 0.964844 -0.671875 0.964844 -1.636719 C 0.964844 -2.59375 0.664062 -3.476562 0.0546875 -4.277344 L 0.824219 -4.277344 C 1.46875 -3.511719 1.789062 -2.632812 1.789062 -1.636719 C 1.789062 -0.613281 1.464844 0.257812 0.816406 0.972656 Z "/>
</g>
</g>
</defs>
<g fill="rgb(87.843137%, 94.901961%, 99.607843%)" fill-opacity="1">
<use xlink:href="#glyph-0-0" x="30" y="26.59375"/>
<use xlink:href="#glyph-0-1" x="33" y="26.59375"/>
<use xlink:href="#glyph-0-2" x="37" y="26.59375"/>
<use xlink:href="#glyph-0-3" x="39" y="26.59375"/>
<use xlink:href="#glyph-0-4" x="41" y="26.59375"/>
<use xlink:href="#glyph-0-3" x="45" y="26.59375"/>
<use xlink:href="#glyph-0-5" x="47" y="26.59375"/>
<use xlink:href="#glyph-0-3" x="51" y="26.59375"/>
<use xlink:href="#glyph-0-6" x="53" y="26.59375"/>
<use xlink:href="#glyph-0-4" x="55" y="26.59375"/>
<use xlink:href="#glyph-0-7" x="59" y="26.59375"/>
<use xlink:href="#glyph-0-8" x="61" y="26.59375"/>
<use xlink:href="#glyph-0-9" x="65" y="26.59375"/>
</g>
</svg>
