<?xml version="1.0" encoding="UTF-8"?>
<svg xmlns="http://www.w3.org/2000/svg" xmlns:xlink="http://www.w3.org/1999/xlink" width="854" height="480" viewBox="0 0 854 480">
<defs>
<g>
<g id="glyph-0-0">
<path d="M 1.601562 -1.171875 L 1.601562 -0.839844 C 1.601562 -0.546875 1.535156 -0.320312 1.394531 -0.152344 C 1.289062 -0.0195312 1.152344 0.046875 0.988281 0.046875 C 0.910156 0.046875 0.832031 0.03125 0.765625 0 C 0.695312 -0.03125 0.632812 -0.0742188 0.585938 -0.132812 C 0.554688 -0.167969 0.519531 -0.222656 0.484375 -0.300781 C 0.445312 -0.378906 0.421875 -0.449219 0.402344 -0.515625 C 0.378906 -0.609375 0.367188 -0.714844 0.367188 -0.839844 L 0.367188 -1.171875 C 0.367188 -1.460938 0.4375 -1.691406 0.574219 -1.859375 C 0.683594 -1.992188 0.816406 -2.058594 0.984375 -2.058594 C 1.0625 -2.058594 1.136719 -2.042969 1.207031 -2.011719 C 1.277344 -1.980469 1.335938 -1.9375 1.386719 -1.878906 C 1.417969 -1.84375 1.453125 -1.785156 1.488281 -1.707031 C 1.523438 -1.632812 1.550781 -1.558594 1.566406 -1.496094 C 1.589844 -1.402344 1.601562 -1.296875 1.601562 -1.171875 M 1.46875 -1.152344 C 1.46875 -1.28125 1.449219 -1.398438 1.414062 -1.507812 C 1.378906 -1.617188 1.339844 -1.707031 1.292969 -1.769531 C 1.265625 -1.808594 1.230469 -1.839844 1.191406 -1.867188 C 1.128906 -1.90625 1.058594 -1.921875 0.984375 -1.921875 C 0.832031 -1.921875 0.714844 -1.847656 0.628906 -1.691406 C 0.542969 -1.539062 0.5 -1.359375 0.5 -1.152344 L 0.5 -0.859375 C 0.5 -0.730469 0.519531 -0.613281 0.554688 -0.5 C 0.589844 -0.390625 0.632812 -0.304688 0.679688 -0.238281 C 0.703125 -0.203125 0.738281 -0.171875 0.78125 -0.144531 C 0.839844 -0.105469 0.910156 -0.0859375 0.988281 -0.0859375 C 1.136719 -0.0859375 1.253906 -0.164062 1.339844 -0.316406 C 1.425781 -0.472656 1.46875 -0.652344 1.46875 -0.859375 Z "/>
</g>
<g id="glyph-0-1">
<path d="M 1.050781 -2.039062 L 1.050781 -0.132812 L 1.511719 -0.132812 C 1.546875 -0.132812 1.570312 -0.128906 1.582031 -0.117188 C 1.597656 -0.105469 1.601562 -0.0859375 1.601562 -0.0664062 C 1.601562 -0.046875 1.597656 -0.03125 1.582031 -0.0195312 C 1.570312 -0.0078125 1.546875 0 1.511719 0 L 0.457031 0 C 0.421875 0 0.398438 -0.0078125 0.386719 -0.0195312 C 0.371094 -0.03125 0.367188 -0.046875 0.367188 -0.0664062 C 0.367188 -0.0859375 0.371094 -0.105469 0.386719 -0.117188 C 0.398438 -0.128906 0.421875 -0.132812 0.457031 -0.132812 L 0.917969 -0.132812 L 0.917969 -1.851562 L 0.476562 -1.714844 C 0.457031 -1.707031 0.441406 -1.707031 0.429688 -1.707031 C 0.414062 -1.707031 0.402344 -1.710938 0.386719 -1.726562 C 0.375 -1.738281 0.367188 -1.753906 0.367188 -1.773438 C 0.367188 -1.789062 0.371094 -1.804688 0.382812 -1.816406 C 0.390625 -1.828125 0.410156 -1.835938 0.4375 -1.84375 Z "/>
</g>
<g id="glyph-0-2">
<path d="M 0.410156 -0.132812 L 0.410156 -1.742188 L 0.230469 -1.742188 C 0.195312 -1.742188 0.175781 -1.746094 0.160156 -1.757812 C 0.144531 -1.773438 0.140625 -1.789062 0.140625 -1.808594 C 0.140625 -1.828125 0.144531 -1.84375 0.160156 -1.855469 C 0.175781 -1.871094 0.195312 -1.875 0.230469 -1.875 L 1.074219 -1.875 C 1.242188 -1.875 1.378906 -1.828125 1.484375 -1.730469 C 1.589844 -1.632812 1.644531 -1.519531 1.644531 -1.390625 C 1.644531 -1.226562 1.554688 -1.09375 1.378906 -0.992188 C 1.519531 -0.941406 1.621094 -0.875 1.6875 -0.789062 C 1.75 -0.707031 1.785156 -0.613281 1.785156 -0.515625 C 1.785156 -0.425781 1.761719 -0.34375 1.71875 -0.269531 C 1.675781 -0.195312 1.613281 -0.132812 1.523438 -0.078125 C 1.4375 -0.0273438 1.339844 0 1.234375 0 L 0.230469 0 C 0.195312 0 0.175781 -0.0078125 0.160156 -0.0195312 C 0.144531 -0.03125 0.140625 -0.046875 0.140625 -0.0664062 C 0.140625 -0.0859375 0.144531 -0.105469 0.160156 -0.117188 C 0.175781 -0.128906 0.195312 -0.132812 0.230469 -0.132812 L 0.410156 -0.132812 M 0.546875 -1.042969 L 1.019531 -1.042969 C 1.121094 -1.042969 1.214844 -1.0625 1.300781 -1.097656 C 1.367188 -1.128906 1.417969 -1.171875 1.453125 -1.226562 C 1.488281 -1.285156 1.507812 -1.34375 1.507812 -1.402344 C 1.507812 -1.484375 1.46875 -1.5625 1.386719 -1.632812 C 1.308594 -1.707031 1.207031 -1.742188 1.078125 -1.742188 L 0.546875 -1.742188 L 0.546875 -1.042969 M 0.546875 -0.132812 L 1.226562 -0.132812 C 1.3125 -0.132812 1.386719 -0.152344 1.453125 -0.191406 C 1.515625 -0.230469 1.566406 -0.277344 1.597656 -0.335938 C 1.632812 -0.390625 1.648438 -0.449219 1.648438 -0.511719 C 1.648438 -0.578125 1.625 -0.644531 1.578125 -0.710938 C 1.527344 -0.773438 1.464844 -0.824219 1.378906 -0.855469 C 1.292969 -0.890625 1.179688 -0.90625 1.027344 -0.90625 L 0.546875 -0.90625 Z "/>
</g>
<g id="glyph-0-3">
<path d="M 1.429688 -0.625 L 0.542969 -0.625 L 0.363281 -0.132812 L 0.621094 -0.132812 C 0.652344 -0.132812 0.675781 -0.128906 0.6875 -0.117188 C 0.703125 -0.105469 0.710938 -0.0859375 0.710938 -0.0664062 C 0.710938 -0.046875 0.703125 -0.03125 0.6875 -0.0195312 C 0.675781 -0.0078125 0.652344 0 0.621094 0 L 0.117188 0 C 0.0859375 0 0.0625 -0.0078125 0.046875 -0.0195312 C 0.0351562 -0.03125 0.0273438 -0.046875 0.0273438 -0.0664062 C 0.0273438 -0.0859375 0.0351562 -0.105469 0.046875 -0.117188 C 0.0625 -0.128906 0.0859375 -0.132812 0.117188 -0.132812 L 0.222656 -0.132812 L 0.816406 -1.742188 L 0.417969 -1.742188 C 0.386719 -1.742188 0.363281 -1.746094 0.347656 -1.757812 C 0.335938 -1.773438 0.328125 -1.789062 0.328125 -1.808594 C 0.328125 -1.828125 0.335938 -1.84375 0.347656 -1.855469 C 0.363281 -1.871094 0.386719 -1.875 0.417969 -1.875 L 1.097656 -1.875 L 1.753906 -0.132812 L 1.859375 -0.132812 C 1.890625 -0.132812 1.914062 -0.128906 1.925781 -0.117188 C 1.941406 -0.105469 1.949219 -0.0859375 1.949219 -0.0664062 C 1.949219 -0.046875 1.941406 -0.03125 1.925781 -0.0195312 C 1.914062 -0.0078125 1.890625 0 1.859375 0 L 1.355469 0 C 1.324219 0 1.300781 -0.0078125 1.285156 -0.0195312 C 1.273438 -0.03125 1.265625 -0.046875 1.265625 -0.0664062 C 1.265625 -0.0859375 1.273438 -0.105469 1.285156 -0.117188 C 1.300781 -0.128906 1.324219 -0.132812 1.355469 -0.132812 L 1.613281 -0.132812 L 1.429688 -0.625 M 1.378906 -0.761719 L 1.003906 -1.742188 L 0.957031 -1.742188 L 0.59375 -0.761719 Z "/>
</g>
<g id="glyph-0-4">
<path d="M 0.546875 -0.90625 L 0.546875 -0.132812 L 1.582031 -0.132812 L 1.582031 -0.53125 C 1.582031 -0.5625 1.589844 -0.585938 1.601562 -0.601562 C 1.613281 -0.613281 1.628906 -0.621094 1.648438 -0.621094 C 1.671875 -0.621094 1.6875 -0.613281 1.699219 -0.601562 C 1.710938 -0.585938 1.71875 -0.5625 1.71875 -0.53125 L 1.71875 0 L 0.230469 0 C 0.199219 0 0.175781 -0.0078125 0.160156 -0.0195312 C 0.148438 -0.03125 0.140625 -0.046875 0.140625 -0.0664062 C 0.140625 -0.0859375 0.148438 -0.105469 0.160156 -0.117188 C 0.175781 -0.128906 0.199219 -0.132812 0.230469 -0.132812 L 0.410156 -0.132812 L 0.410156 -1.742188 L 0.230469 -1.742188 C 0.199219 -1.742188 0.175781 -1.746094 0.160156 -1.757812 C 0.148438 -1.773438 0.140625 -1.789062 0.140625 -1.808594 C 0.140625 -1.828125 0.148438 -1.84375 0.160156 -1.855469 C 0.175781 -1.871094 0.199219 -1.875 0.230469 -1.875 L 1.644531 -1.875 L 1.644531 -1.414062 C 1.644531 -1.378906 1.640625 -1.355469 1.628906 -1.34375 C 1.617188 -1.328125 1.597656 -1.324219 1.578125 -1.324219 C 1.558594 -1.324219 1.542969 -1.328125 1.53125 -1.34375 C 1.519531 -1.355469 1.511719 -1.378906 1.511719 -1.414062 L 1.511719 -1.742188 L 0.546875 -1.742188 L 0.546875 -1.039062 L 1.027344 -1.039062 L 1.027344 -1.191406 C 1.027344 -1.226562 1.035156 -1.246094 1.046875 -1.261719 C 1.0625 -1.277344 1.078125 -1.28125 1.097656 -1.28125 C 1.117188 -1.28125 1.132812 -1.277344 1.144531 -1.261719 C 1.160156 -1.246094 1.164062 -1.226562 1.164062 -1.191406 L 1.164062 -0.753906 C 1.164062 -0.722656 1.160156 -0.699219 1.144531 -0.683594 C 1.132812 -0.671875 1.117188 -0.664062 1.097656 -0.664062 C 1.078125 -0.664062 1.0625 -0.671875 1.046875 -0.683594 C 1.035156 -0.699219 1.027344 -0.722656 1.027344 -0.753906 L 1.027344 -0.90625 Z "/>
</g>
<g id="glyph-1-0">
<path d="M 4.414062 -3.648438 L 4.171875 -3.648438 C 4.152344 -3.730469 4.113281 -3.832031 4.058594 -3.949219 C 4 -4.066406 3.941406 -4.175781 3.871094 -4.277344 C 3.800781 -4.386719 3.722656 -4.480469 3.640625 -4.5625 C 3.554688 -4.644531 3.476562 -4.6875 3.398438 -4.699219 C 3.324219 -4.710938 3.234375 -4.71875 3.121094 -4.722656 C 3.011719 -4.726562 2.910156 -4.730469 2.816406 -4.730469 L 2.609375 -4.730469 L 2.609375 -0.726562 C 2.609375 -0.648438 2.625 -0.578125 2.660156 -0.511719 C 2.691406 -0.449219 2.75 -0.398438 2.832031 -0.363281 C 2.875 -0.347656 2.964844 -0.324219 3.097656 -0.296875 C 3.234375 -0.269531 3.339844 -0.253906 3.414062 -0.25 L 3.414062 0 L 1.050781 0 L 1.050781 -0.25 C 1.117188 -0.253906 1.21875 -0.265625 1.351562 -0.277344 C 1.488281 -0.292969 1.582031 -0.308594 1.632812 -0.332031 C 1.710938 -0.363281 1.765625 -0.40625 1.804688 -0.464844 C 1.839844 -0.519531 1.859375 -0.597656 1.859375 -0.695312 L 1.859375 -4.730469 L 1.652344 -4.730469 C 1.582031 -4.730469 1.492188 -4.726562 1.382812 -4.722656 C 1.273438 -4.71875 1.171875 -4.710938 1.070312 -4.699219 C 0.996094 -4.691406 0.914062 -4.644531 0.832031 -4.5625 C 0.746094 -4.476562 0.671875 -4.382812 0.597656 -4.277344 C 0.527344 -4.171875 0.464844 -4.058594 0.414062 -3.941406 C 0.359375 -3.824219 0.320312 -3.722656 0.300781 -3.648438 L 0.0546875 -3.648438 L 0.0546875 -5.003906 L 4.414062 -5.003906 Z "/>
</g>
<g id="glyph-1-1">
<path d="M 4.039062 0 L 2.328125 0 L 2.328125 -0.234375 C 2.382812 -0.238281 2.441406 -0.242188 2.507812 -0.246094 C 2.574219 -0.25 2.628906 -0.261719 2.667969 -0.273438 C 2.734375 -0.296875 2.785156 -0.332031 2.816406 -0.386719 C 2.847656 -0.4375 2.863281 -0.507812 2.863281 -0.59375 L 2.863281 -2.378906 C 2.863281 -2.628906 2.804688 -2.816406 2.6875 -2.953125 C 2.570312 -3.085938 2.429688 -3.152344 2.261719 -3.152344 C 2.140625 -3.152344 2.027344 -3.132812 1.921875 -3.09375 C 1.816406 -3.054688 1.722656 -3.007812 1.640625 -2.953125 C 1.558594 -2.894531 1.5 -2.835938 1.457031 -2.777344 C 1.414062 -2.714844 1.382812 -2.667969 1.359375 -2.628906 L 1.359375 -0.628906 C 1.359375 -0.546875 1.375 -0.480469 1.40625 -0.429688 C 1.4375 -0.378906 1.484375 -0.339844 1.550781 -0.308594 C 1.601562 -0.285156 1.65625 -0.269531 1.710938 -0.257812 C 1.765625 -0.246094 1.828125 -0.238281 1.894531 -0.234375 L 1.894531 0 L 0.191406 0 L 0.191406 -0.234375 C 0.246094 -0.238281 0.300781 -0.242188 0.359375 -0.25 C 0.417969 -0.253906 0.464844 -0.261719 0.503906 -0.273438 C 0.570312 -0.296875 0.621094 -0.332031 0.652344 -0.386719 C 0.683594 -0.4375 0.703125 -0.507812 0.703125 -0.59375 L 0.703125 -4.644531 C 0.703125 -4.722656 0.683594 -4.804688 0.648438 -4.882812 C 0.609375 -4.964844 0.5625 -5.023438 0.503906 -5.0625 C 0.460938 -5.09375 0.386719 -5.117188 0.28125 -5.128906 C 0.171875 -5.140625 0.0859375 -5.152344 0.0195312 -5.15625 L 0.0195312 -5.382812 L 1.308594 -5.460938 L 1.359375 -5.40625 L 1.359375 -2.980469 L 1.371094 -2.980469 C 1.449219 -3.058594 1.519531 -3.125 1.582031 -3.1875 C 1.648438 -3.246094 1.730469 -3.308594 1.835938 -3.375 C 1.925781 -3.429688 2.03125 -3.476562 2.152344 -3.515625 C 2.273438 -3.554688 2.40625 -3.574219 2.558594 -3.574219 C 2.871094 -3.574219 3.109375 -3.472656 3.277344 -3.277344 C 3.441406 -3.082031 3.527344 -2.800781 3.527344 -2.429688 L 3.527344 -0.621094 C 3.527344 -0.539062 3.542969 -0.472656 3.570312 -0.421875 C 3.601562 -0.371094 3.648438 -0.332031 3.71875 -0.304688 C 3.773438 -0.28125 3.820312 -0.265625 3.867188 -0.253906 C 3.910156 -0.246094 3.96875 -0.238281 4.039062 -0.234375 Z "/>
</g>
<g id="glyph-1-2">
<path d="M 3.34375 -0.816406 C 3.199219 -0.539062 3.003906 -0.320312 2.757812 -0.15625 C 2.511719 0.0078125 2.230469 0.0898438 1.914062 0.0898438 C 1.636719 0.0898438 1.390625 0.0429688 1.179688 -0.0546875 C 0.96875 -0.15625 0.796875 -0.289062 0.660156 -0.457031 C 0.523438 -0.628906 0.421875 -0.824219 0.355469 -1.050781 C 0.289062 -1.277344 0.253906 -1.515625 0.253906 -1.765625 C 0.253906 -1.992188 0.289062 -2.214844 0.363281 -2.433594 C 0.433594 -2.648438 0.539062 -2.84375 0.675781 -3.019531 C 0.8125 -3.1875 0.976562 -3.320312 1.175781 -3.421875 C 1.375 -3.523438 1.597656 -3.574219 1.84375 -3.574219 C 2.097656 -3.574219 2.316406 -3.535156 2.496094 -3.457031 C 2.679688 -3.375 2.824219 -3.265625 2.9375 -3.128906 C 3.046875 -2.996094 3.125 -2.839844 3.179688 -2.664062 C 3.230469 -2.484375 3.257812 -2.289062 3.257812 -2.082031 L 3.257812 -1.847656 L 0.957031 -1.847656 C 0.957031 -1.621094 0.976562 -1.410156 1.019531 -1.226562 C 1.066406 -1.039062 1.132812 -0.875 1.226562 -0.734375 C 1.320312 -0.597656 1.4375 -0.488281 1.585938 -0.410156 C 1.734375 -0.332031 1.910156 -0.292969 2.117188 -0.292969 C 2.324219 -0.292969 2.503906 -0.339844 2.65625 -0.441406 C 2.808594 -0.539062 2.957031 -0.714844 3.097656 -0.96875 L 3.34375 -0.816406 M 2.5625 -2.144531 C 2.5625 -2.277344 2.550781 -2.417969 2.53125 -2.566406 C 2.507812 -2.714844 2.472656 -2.839844 2.421875 -2.941406 C 2.367188 -3.050781 2.292969 -3.136719 2.199219 -3.207031 C 2.105469 -3.273438 1.984375 -3.308594 1.835938 -3.308594 C 1.589844 -3.308594 1.386719 -3.207031 1.222656 -3 C 1.058594 -2.796875 0.96875 -2.511719 0.957031 -2.144531 L 2.5625 -2.144531 M 2.984375 -4.054688 L 2.8125 -3.941406 L 1.832031 -4.90625 L 0.859375 -3.941406 L 0.691406 -4.054688 L 1.527344 -5.28125 C 1.566406 -5.339844 1.605469 -5.378906 1.640625 -5.402344 C 1.679688 -5.425781 1.746094 -5.4375 1.84375 -5.4375 C 1.9375 -5.4375 2.003906 -5.425781 2.039062 -5.402344 C 2.074219 -5.375 2.109375 -5.339844 2.140625 -5.292969 Z "/>
</g>
<g id="glyph-1-3">
<path d="M 2.230469 -5.90625 C 2.128906 -5.855469 1.96875 -5.777344 1.75 -5.671875 C 1.535156 -5.566406 1.289062 -5.449219 1.011719 -5.316406 L 0.902344 -5.453125 C 1.117188 -5.65625 1.292969 -5.824219 1.425781 -5.957031 C 1.5625 -6.089844 1.695312 -6.226562 1.828125 -6.367188 C 1.902344 -6.445312 1.972656 -6.503906 2.03125 -6.535156 C 2.09375 -6.570312 2.160156 -6.585938 2.230469 -6.585938 C 2.320312 -6.585938 2.398438 -6.5625 2.460938 -6.507812 C 2.523438 -6.453125 2.558594 -6.386719 2.558594 -6.304688 C 2.558594 -6.203125 2.527344 -6.125 2.464844 -6.066406 C 2.402344 -6.007812 2.328125 -5.953125 2.230469 -5.90625 Z "/>
</g>
<g id="glyph-1-4">
</g>
<g id="glyph-1-5">
<path d="M 3.6875 -3.261719 C 3.582031 -3.242188 3.484375 -3.207031 3.386719 -3.148438 C 3.292969 -3.089844 3.210938 -2.988281 3.140625 -2.84375 C 3.003906 -2.527344 2.859375 -2.199219 2.710938 -1.855469 C 2.5625 -1.515625 2.410156 -1.15625 2.25 -0.78125 C 2.203125 -0.671875 2.152344 -0.542969 2.101562 -0.394531 C 2.046875 -0.246094 2 -0.105469 1.953125 0.03125 L 1.679688 0.03125 C 1.457031 -0.519531 1.25 -1.023438 1.0625 -1.480469 C 0.875 -1.933594 0.679688 -2.402344 0.476562 -2.878906 C 0.429688 -2.984375 0.351562 -3.070312 0.25 -3.128906 C 0.144531 -3.191406 0.0390625 -3.226562 -0.0664062 -3.246094 L -0.0664062 -3.476562 L 1.542969 -3.476562 L 1.542969 -3.230469 C 1.472656 -3.226562 1.382812 -3.214844 1.277344 -3.1875 C 1.171875 -3.160156 1.117188 -3.121094 1.117188 -3.074219 C 1.117188 -3.070312 1.125 -3.050781 1.136719 -3.019531 C 1.148438 -2.992188 1.160156 -2.957031 1.171875 -2.921875 C 1.269531 -2.679688 1.402344 -2.347656 1.578125 -1.917969 C 1.753906 -1.488281 1.898438 -1.140625 2.007812 -0.878906 C 2.09375 -1.078125 2.199219 -1.332031 2.328125 -1.632812 C 2.457031 -1.933594 2.59375 -2.269531 2.742188 -2.640625 C 2.765625 -2.703125 2.789062 -2.761719 2.808594 -2.816406 C 2.832031 -2.871094 2.839844 -2.925781 2.839844 -2.984375 C 2.839844 -3.023438 2.820312 -3.058594 2.785156 -3.089844 C 2.746094 -3.125 2.699219 -3.152344 2.644531 -3.175781 C 2.589844 -3.199219 2.535156 -3.214844 2.484375 -3.226562 C 2.433594 -3.238281 2.390625 -3.246094 2.359375 -3.25 L 2.359375 -3.476562 L 3.6875 -3.476562 Z "/>
</g>
<g id="glyph-1-6">
<path d="M 3.546875 -0.0625 C 3.4375 -0.0234375 3.339844 0.0078125 3.257812 0.0351562 C 3.171875 0.0585938 3.078125 0.0703125 2.972656 0.0703125 C 2.789062 0.0703125 2.644531 0.0273438 2.535156 -0.0585938 C 2.425781 -0.144531 2.355469 -0.269531 2.324219 -0.433594 L 2.304688 -0.433594 C 2.148438 -0.265625 1.984375 -0.136719 1.8125 -0.046875 C 1.636719 0.0429688 1.425781 0.0898438 1.179688 0.0898438 C 0.917969 0.0898438 0.703125 0.0078125 0.535156 -0.152344 C 0.367188 -0.3125 0.28125 -0.519531 0.28125 -0.78125 C 0.28125 -0.914062 0.300781 -1.035156 0.339844 -1.140625 C 0.375 -1.246094 0.433594 -1.339844 0.507812 -1.425781 C 0.566406 -1.496094 0.644531 -1.558594 0.742188 -1.613281 C 0.835938 -1.667969 0.925781 -1.710938 1.011719 -1.746094 C 1.117188 -1.785156 1.332031 -1.859375 1.65625 -1.96875 C 1.980469 -2.074219 2.195312 -2.160156 2.308594 -2.222656 L 2.308594 -2.570312 C 2.308594 -2.601562 2.304688 -2.660156 2.289062 -2.746094 C 2.277344 -2.835938 2.25 -2.917969 2.207031 -2.996094 C 2.160156 -3.082031 2.09375 -3.15625 2.007812 -3.222656 C 1.921875 -3.285156 1.800781 -3.320312 1.644531 -3.320312 C 1.535156 -3.320312 1.433594 -3.300781 1.34375 -3.265625 C 1.25 -3.226562 1.183594 -3.1875 1.144531 -3.148438 C 1.144531 -3.101562 1.15625 -3.03125 1.179688 -2.941406 C 1.203125 -2.847656 1.214844 -2.765625 1.214844 -2.6875 C 1.214844 -2.605469 1.175781 -2.53125 1.101562 -2.460938 C 1.027344 -2.394531 0.925781 -2.359375 0.792969 -2.359375 C 0.675781 -2.359375 0.589844 -2.402344 0.535156 -2.484375 C 0.480469 -2.566406 0.453125 -2.660156 0.453125 -2.765625 C 0.453125 -2.875 0.488281 -2.976562 0.566406 -3.074219 C 0.640625 -3.175781 0.742188 -3.261719 0.863281 -3.339844 C 0.96875 -3.40625 1.097656 -3.460938 1.25 -3.507812 C 1.398438 -3.554688 1.546875 -3.574219 1.6875 -3.574219 C 1.886719 -3.574219 2.058594 -3.5625 2.207031 -3.535156 C 2.351562 -3.507812 2.484375 -3.449219 2.605469 -3.359375 C 2.726562 -3.273438 2.816406 -3.15625 2.878906 -3.007812 C 2.941406 -2.855469 2.972656 -2.664062 2.972656 -2.429688 C 2.972656 -2.09375 2.96875 -1.796875 2.960938 -1.535156 C 2.957031 -1.277344 2.953125 -0.992188 2.953125 -0.683594 C 2.953125 -0.59375 2.96875 -0.519531 3 -0.464844 C 3.03125 -0.410156 3.078125 -0.367188 3.144531 -0.328125 C 3.179688 -0.308594 3.238281 -0.296875 3.3125 -0.292969 C 3.390625 -0.289062 3.46875 -0.289062 3.546875 -0.289062 L 3.546875 -0.0625 M 2.316406 -1.925781 C 2.117188 -1.867188 1.941406 -1.808594 1.792969 -1.753906 C 1.640625 -1.695312 1.5 -1.625 1.371094 -1.539062 C 1.253906 -1.460938 1.160156 -1.367188 1.09375 -1.253906 C 1.023438 -1.144531 0.992188 -1.015625 0.992188 -0.867188 C 0.992188 -0.667969 1.042969 -0.527344 1.144531 -0.433594 C 1.246094 -0.34375 1.375 -0.296875 1.535156 -0.296875 C 1.699219 -0.296875 1.847656 -0.335938 1.976562 -0.417969 C 2.101562 -0.5 2.207031 -0.59375 2.296875 -0.707031 L 2.316406 -1.925781 M 2.445312 -4.027344 L 2.308594 -3.914062 C 2.066406 -4.105469 1.851562 -4.277344 1.660156 -4.421875 C 1.46875 -4.566406 1.328125 -4.675781 1.238281 -4.75 C 1.148438 -4.824219 1.085938 -4.886719 1.050781 -4.933594 C 1.011719 -4.980469 0.996094 -5.050781 0.996094 -5.148438 C 0.996094 -5.21875 1.023438 -5.28125 1.074219 -5.335938 C 1.128906 -5.394531 1.199219 -5.425781 1.285156 -5.425781 C 1.375 -5.425781 1.453125 -5.402344 1.519531 -5.359375 C 1.585938 -5.316406 1.65625 -5.234375 1.730469 -5.113281 C 1.8125 -4.984375 1.90625 -4.835938 2.015625 -4.671875 C 2.121094 -4.503906 2.265625 -4.289062 2.445312 -4.027344 Z "/>
</g>
<g id="glyph-1-7">
<path d="M 3.648438 -1.773438 C 3.648438 -1.53125 3.609375 -1.289062 3.53125 -1.050781 C 3.453125 -0.816406 3.34375 -0.617188 3.199219 -0.453125 C 3.035156 -0.261719 2.847656 -0.125 2.632812 -0.03125 C 2.417969 0.0585938 2.179688 0.105469 1.914062 0.105469 C 1.691406 0.105469 1.480469 0.0625 1.28125 -0.0195312 C 1.082031 -0.101562 0.902344 -0.222656 0.75 -0.382812 C 0.59375 -0.542969 0.472656 -0.734375 0.382812 -0.960938 C 0.292969 -1.1875 0.246094 -1.441406 0.246094 -1.722656 C 0.246094 -2.269531 0.40625 -2.710938 0.722656 -3.058594 C 1.039062 -3.402344 1.453125 -3.574219 1.964844 -3.574219 C 2.453125 -3.574219 2.855469 -3.410156 3.171875 -3.085938 C 3.488281 -2.757812 3.648438 -2.320312 3.648438 -1.773438 M 2.917969 -1.765625 C 2.917969 -1.941406 2.898438 -2.128906 2.863281 -2.324219 C 2.828125 -2.523438 2.773438 -2.6875 2.703125 -2.824219 C 2.628906 -2.96875 2.53125 -3.085938 2.40625 -3.175781 C 2.285156 -3.265625 2.136719 -3.308594 1.960938 -3.308594 C 1.777344 -3.308594 1.621094 -3.261719 1.496094 -3.175781 C 1.367188 -3.085938 1.261719 -2.960938 1.183594 -2.808594 C 1.105469 -2.664062 1.054688 -2.5 1.023438 -2.316406 C 0.992188 -2.132812 0.976562 -1.957031 0.976562 -1.785156 C 0.976562 -1.558594 0.996094 -1.351562 1.03125 -1.160156 C 1.066406 -0.96875 1.125 -0.796875 1.207031 -0.644531 C 1.285156 -0.496094 1.386719 -0.375 1.507812 -0.289062 C 1.628906 -0.207031 1.78125 -0.164062 1.960938 -0.164062 C 2.253906 -0.164062 2.488281 -0.304688 2.660156 -0.589844 C 2.832031 -0.875 2.917969 -1.265625 2.917969 -1.765625 Z "/>
</g>
<g id="glyph-1-8">
<path d="M 3.429688 -3.066406 C 3.570312 -2.898438 3.679688 -2.710938 3.753906 -2.492188 C 3.832031 -2.273438 3.867188 -2.027344 3.867188 -1.746094 C 3.867188 -1.46875 3.824219 -1.21875 3.730469 -0.992188 C 3.640625 -0.765625 3.519531 -0.574219 3.367188 -0.414062 C 3.210938 -0.25 3.035156 -0.125 2.84375 -0.0390625 C 2.648438 0.046875 2.445312 0.0898438 2.230469 0.0898438 C 2.019531 0.0898438 1.847656 0.0664062 1.714844 0.0195312 C 1.578125 -0.0273438 1.46875 -0.0820312 1.386719 -0.144531 L 1.359375 -0.144531 L 1.359375 0.902344 C 1.359375 0.988281 1.375 1.058594 1.40625 1.113281 C 1.441406 1.171875 1.492188 1.210938 1.558594 1.238281 C 1.613281 1.257812 1.695312 1.28125 1.800781 1.300781 C 1.90625 1.320312 1.992188 1.332031 2.058594 1.332031 L 2.058594 1.566406 L 0.117188 1.566406 L 0.117188 1.332031 C 0.1875 1.328125 0.261719 1.324219 0.328125 1.316406 C 0.394531 1.308594 0.457031 1.296875 0.511719 1.28125 C 0.582031 1.257812 0.632812 1.214844 0.660156 1.15625 C 0.6875 1.097656 0.703125 1.027344 0.703125 0.949219 L 0.703125 -2.75 C 0.703125 -2.820312 0.683594 -2.890625 0.648438 -2.957031 C 0.613281 -3.019531 0.566406 -3.074219 0.511719 -3.113281 C 0.46875 -3.140625 0.410156 -3.164062 0.335938 -3.179688 C 0.261719 -3.195312 0.1875 -3.203125 0.117188 -3.210938 L 0.117188 -3.441406 L 1.300781 -3.519531 L 1.351562 -3.476562 L 1.351562 -3.085938 L 1.378906 -3.078125 C 1.5 -3.21875 1.652344 -3.335938 1.832031 -3.429688 C 2.015625 -3.527344 2.195312 -3.574219 2.375 -3.574219 C 2.589844 -3.574219 2.789062 -3.527344 2.96875 -3.433594 C 3.148438 -3.34375 3.300781 -3.21875 3.429688 -3.066406 M 2.855469 -0.5625 C 2.949219 -0.710938 3.019531 -0.878906 3.066406 -1.070312 C 3.109375 -1.265625 3.132812 -1.480469 3.132812 -1.71875 C 3.132812 -1.890625 3.113281 -2.070312 3.074219 -2.25 C 3.039062 -2.429688 2.980469 -2.589844 2.898438 -2.722656 C 2.820312 -2.859375 2.714844 -2.96875 2.585938 -3.054688 C 2.457031 -3.140625 2.300781 -3.179688 2.121094 -3.179688 C 1.945312 -3.179688 1.796875 -3.144531 1.675781 -3.066406 C 1.554688 -2.988281 1.445312 -2.898438 1.359375 -2.792969 L 1.359375 -0.738281 C 1.378906 -0.671875 1.414062 -0.609375 1.460938 -0.539062 C 1.511719 -0.472656 1.5625 -0.414062 1.621094 -0.363281 C 1.695312 -0.304688 1.773438 -0.257812 1.859375 -0.21875 C 1.941406 -0.183594 2.046875 -0.164062 2.167969 -0.164062 C 2.300781 -0.164062 2.425781 -0.199219 2.550781 -0.269531 C 2.671875 -0.339844 2.773438 -0.4375 2.855469 -0.5625 Z "/>
</g>
<g id="glyph-1-9">
<path d="M 4.09375 0 L 2.394531 0 L 2.394531 -0.234375 C 2.449219 -0.238281 2.507812 -0.242188 2.574219 -0.246094 C 2.636719 -0.25 2.691406 -0.261719 2.734375 -0.273438 C 2.800781 -0.296875 2.847656 -0.332031 2.878906 -0.386719 C 2.910156 -0.4375 2.925781 -0.507812 2.925781 -0.59375 L 2.925781 -2.378906 C 2.925781 -2.628906 2.867188 -2.816406 2.753906 -2.953125 C 2.636719 -3.085938 2.492188 -3.152344 2.328125 -3.152344 C 2.203125 -3.152344 2.085938 -3.132812 1.984375 -3.09375 C 1.878906 -3.054688 1.789062 -3.007812 1.707031 -2.953125 C 1.628906 -2.898438 1.566406 -2.839844 1.523438 -2.777344 C 1.476562 -2.714844 1.441406 -2.664062 1.421875 -2.628906 L 1.421875 -0.628906 C 1.421875 -0.546875 1.4375 -0.480469 1.46875 -0.429688 C 1.503906 -0.378906 1.554688 -0.339844 1.617188 -0.308594 C 1.667969 -0.285156 1.722656 -0.269531 1.777344 -0.257812 C 1.835938 -0.246094 1.894531 -0.238281 1.957031 -0.234375 L 1.957031 0 L 0.253906 0 L 0.253906 -0.234375 C 0.308594 -0.238281 0.363281 -0.242188 0.421875 -0.246094 C 0.480469 -0.25 0.527344 -0.261719 0.570312 -0.273438 C 0.636719 -0.296875 0.6875 -0.332031 0.71875 -0.386719 C 0.75 -0.4375 0.765625 -0.507812 0.765625 -0.59375 L 0.765625 -2.738281 C 0.765625 -2.816406 0.75 -2.890625 0.714844 -2.957031 C 0.679688 -3.023438 0.632812 -3.078125 0.570312 -3.121094 C 0.527344 -3.148438 0.472656 -3.171875 0.414062 -3.183594 C 0.351562 -3.195312 0.285156 -3.203125 0.214844 -3.210938 L 0.214844 -3.441406 L 1.371094 -3.519531 L 1.421875 -3.46875 L 1.421875 -2.980469 L 1.4375 -2.980469 C 1.496094 -3.035156 1.566406 -3.105469 1.652344 -3.183594 C 1.734375 -3.261719 1.816406 -3.324219 1.890625 -3.375 C 1.976562 -3.429688 2.082031 -3.476562 2.199219 -3.515625 C 2.320312 -3.554688 2.457031 -3.574219 2.605469 -3.574219 C 2.941406 -3.574219 3.1875 -3.46875 3.347656 -3.261719 C 3.507812 -3.050781 3.589844 -2.777344 3.589844 -2.429688 L 3.589844 -0.621094 C 3.589844 -0.539062 3.605469 -0.472656 3.632812 -0.421875 C 3.660156 -0.371094 3.707031 -0.332031 3.777344 -0.304688 C 3.832031 -0.28125 3.882812 -0.261719 3.921875 -0.253906 C 3.964844 -0.246094 4.023438 -0.238281 4.09375 -0.234375 Z "/>
</g>
<g id="glyph-1-10">
<path d="M 3.234375 -0.359375 C 3.328125 -0.269531 3.402344 -0.167969 3.457031 -0.0546875 C 3.511719 0.0546875 3.539062 0.195312 3.539062 0.363281 C 3.539062 0.53125 3.5 0.6875 3.429688 0.835938 C 3.355469 0.980469 3.246094 1.109375 3.097656 1.214844 C 2.9375 1.328125 2.75 1.414062 2.53125 1.472656 C 2.3125 1.535156 2.042969 1.566406 1.722656 1.566406 C 1.195312 1.566406 0.800781 1.488281 0.539062 1.335938 C 0.277344 1.179688 0.148438 0.957031 0.148438 0.660156 C 0.148438 0.417969 0.242188 0.230469 0.429688 0.0898438 C 0.617188 -0.046875 0.859375 -0.121094 1.148438 -0.132812 L 1.148438 -0.183594 C 1.078125 -0.203125 1.007812 -0.230469 0.929688 -0.261719 C 0.855469 -0.292969 0.792969 -0.332031 0.738281 -0.375 C 0.675781 -0.421875 0.625 -0.480469 0.589844 -0.546875 C 0.550781 -0.617188 0.53125 -0.699219 0.53125 -0.796875 C 0.53125 -0.921875 0.578125 -1.035156 0.664062 -1.140625 C 0.753906 -1.246094 0.886719 -1.335938 1.066406 -1.410156 L 1.066406 -1.464844 C 0.839844 -1.570312 0.664062 -1.707031 0.539062 -1.871094 C 0.414062 -2.035156 0.351562 -2.230469 0.351562 -2.449219 C 0.351562 -2.777344 0.476562 -3.046875 0.722656 -3.257812 C 0.96875 -3.46875 1.28125 -3.574219 1.664062 -3.574219 C 1.769531 -3.574219 1.875 -3.566406 1.980469 -3.542969 C 2.085938 -3.523438 2.191406 -3.496094 2.300781 -3.464844 L 3.511719 -3.464844 L 3.511719 -3.125 L 2.695312 -3.125 L 2.695312 -3.101562 C 2.78125 -3.003906 2.847656 -2.890625 2.886719 -2.769531 C 2.929688 -2.644531 2.953125 -2.527344 2.953125 -2.410156 C 2.953125 -2.101562 2.828125 -1.84375 2.578125 -1.632812 C 2.332031 -1.421875 2.042969 -1.316406 1.714844 -1.316406 L 1.289062 -1.316406 C 1.234375 -1.296875 1.175781 -1.261719 1.117188 -1.214844 C 1.058594 -1.164062 1.03125 -1.097656 1.03125 -1.011719 C 1.03125 -0.925781 1.054688 -0.859375 1.105469 -0.8125 C 1.152344 -0.765625 1.214844 -0.734375 1.285156 -0.71875 C 1.351562 -0.699219 1.429688 -0.6875 1.523438 -0.683594 C 1.613281 -0.679688 1.707031 -0.675781 1.800781 -0.671875 C 1.90625 -0.671875 2.046875 -0.664062 2.226562 -0.652344 C 2.40625 -0.640625 2.535156 -0.632812 2.609375 -0.632812 C 2.71875 -0.625 2.828125 -0.601562 2.9375 -0.554688 C 3.046875 -0.507812 3.144531 -0.441406 3.234375 -0.359375 M 2.28125 -2.421875 C 2.28125 -2.699219 2.226562 -2.917969 2.113281 -3.082031 C 2.003906 -3.242188 1.84375 -3.324219 1.644531 -3.324219 C 1.53125 -3.324219 1.4375 -3.304688 1.359375 -3.257812 C 1.28125 -3.210938 1.214844 -3.144531 1.167969 -3.0625 C 1.121094 -2.984375 1.085938 -2.890625 1.066406 -2.78125 C 1.046875 -2.671875 1.035156 -2.558594 1.035156 -2.445312 C 1.035156 -2.183594 1.09375 -1.96875 1.207031 -1.804688 C 1.320312 -1.640625 1.46875 -1.558594 1.652344 -1.558594 C 1.851562 -1.558594 2.007812 -1.640625 2.117188 -1.804688 C 2.226562 -1.96875 2.28125 -2.171875 2.28125 -2.421875 M 2.957031 0.492188 C 2.957031 0.363281 2.929688 0.253906 2.867188 0.167969 C 2.804688 0.0859375 2.714844 0.0273438 2.589844 -0.00390625 C 2.523438 -0.0117188 2.386719 -0.0234375 2.183594 -0.0351562 C 1.976562 -0.046875 1.742188 -0.0546875 1.46875 -0.0546875 C 1.214844 -0.00390625 1.035156 0.078125 0.929688 0.195312 C 0.824219 0.3125 0.769531 0.460938 0.769531 0.644531 C 0.769531 0.726562 0.785156 0.804688 0.820312 0.882812 C 0.855469 0.957031 0.917969 1.027344 1.003906 1.089844 C 1.085938 1.152344 1.199219 1.199219 1.335938 1.238281 C 1.476562 1.277344 1.644531 1.296875 1.84375 1.296875 C 2.191406 1.296875 2.460938 1.230469 2.660156 1.097656 C 2.859375 0.964844 2.957031 0.765625 2.957031 0.492188 Z "/>
</g>
<g id="glyph-1-11">
<path d="M 2.402344 -0.152344 C 2.25 -0.0898438 2.105469 -0.0351562 1.96875 0.0078125 C 1.832031 0.0507812 1.664062 0.0742188 1.46875 0.0742188 C 1.175781 0.0742188 0.96875 0 0.851562 -0.144531 C 0.734375 -0.292969 0.671875 -0.5 0.671875 -0.769531 L 0.671875 -3.125 L 0.046875 -3.125 L 0.046875 -3.464844 L 0.6875 -3.464844 L 0.6875 -4.546875 L 1.328125 -4.546875 L 1.328125 -3.464844 L 2.328125 -3.464844 L 2.328125 -3.125 L 1.335938 -3.125 L 1.335938 -1.179688 C 1.335938 -1.035156 1.34375 -0.914062 1.351562 -0.816406 C 1.363281 -0.71875 1.386719 -0.632812 1.429688 -0.5625 C 1.464844 -0.492188 1.523438 -0.441406 1.597656 -0.40625 C 1.671875 -0.371094 1.773438 -0.351562 1.902344 -0.351562 C 1.960938 -0.351562 2.046875 -0.359375 2.160156 -0.367188 C 2.273438 -0.378906 2.355469 -0.394531 2.402344 -0.410156 Z "/>
</g>
<g id="glyph-1-12">
<path d="M 2.917969 -3.03125 C 2.917969 -2.910156 2.886719 -2.804688 2.828125 -2.710938 C 2.769531 -2.617188 2.679688 -2.570312 2.558594 -2.570312 C 2.425781 -2.570312 2.324219 -2.605469 2.253906 -2.671875 C 2.1875 -2.742188 2.152344 -2.816406 2.152344 -2.898438 C 2.152344 -2.949219 2.15625 -2.996094 2.164062 -3.039062 C 2.171875 -3.082031 2.179688 -3.125 2.1875 -3.167969 C 2.074219 -3.167969 1.945312 -3.121094 1.796875 -3.03125 C 1.652344 -2.945312 1.523438 -2.816406 1.421875 -2.652344 L 1.421875 -0.628906 C 1.421875 -0.546875 1.4375 -0.476562 1.46875 -0.425781 C 1.5 -0.375 1.550781 -0.335938 1.617188 -0.308594 C 1.675781 -0.285156 1.753906 -0.269531 1.847656 -0.257812 C 1.9375 -0.246094 2.019531 -0.238281 2.085938 -0.234375 L 2.085938 0 L 0.253906 0 L 0.253906 -0.234375 C 0.308594 -0.238281 0.363281 -0.242188 0.421875 -0.246094 C 0.480469 -0.25 0.527344 -0.261719 0.570312 -0.273438 C 0.636719 -0.296875 0.6875 -0.332031 0.71875 -0.386719 C 0.75 -0.4375 0.765625 -0.507812 0.765625 -0.59375 L 0.765625 -2.738281 C 0.765625 -2.808594 0.75 -2.882812 0.714844 -2.953125 C 0.679688 -3.023438 0.632812 -3.078125 0.570312 -3.121094 C 0.527344 -3.148438 0.472656 -3.171875 0.414062 -3.183594 C 0.351562 -3.195312 0.285156 -3.203125 0.214844 -3.210938 L 0.214844 -3.441406 L 1.371094 -3.519531 L 1.421875 -3.46875 L 1.421875 -2.980469 L 1.4375 -2.980469 C 1.585938 -3.171875 1.746094 -3.316406 1.925781 -3.414062 C 2.105469 -3.511719 2.269531 -3.5625 2.414062 -3.5625 C 2.5625 -3.5625 2.683594 -3.515625 2.777344 -3.417969 C 2.871094 -3.320312 2.917969 -3.191406 2.917969 -3.03125 Z "/>
</g>
<g id="glyph-1-13">
<path d="M 1.941406 0 L 0.261719 0 L 0.261719 -0.234375 C 0.316406 -0.238281 0.371094 -0.242188 0.429688 -0.246094 C 0.484375 -0.25 0.535156 -0.261719 0.578125 -0.273438 C 0.644531 -0.296875 0.691406 -0.332031 0.726562 -0.386719 C 0.757812 -0.4375 0.773438 -0.507812 0.773438 -0.59375 L 0.773438 -2.738281 C 0.773438 -2.8125 0.753906 -2.882812 0.722656 -2.941406 C 0.6875 -3.003906 0.640625 -3.058594 0.578125 -3.101562 C 0.535156 -3.128906 0.46875 -3.152344 0.382812 -3.171875 C 0.300781 -3.191406 0.222656 -3.203125 0.152344 -3.210938 L 0.152344 -3.441406 L 1.378906 -3.519531 L 1.429688 -3.46875 L 1.429688 -0.636719 C 1.429688 -0.550781 1.445312 -0.484375 1.476562 -0.429688 C 1.507812 -0.375 1.558594 -0.335938 1.625 -0.308594 C 1.675781 -0.289062 1.726562 -0.273438 1.773438 -0.257812 C 1.824219 -0.246094 1.878906 -0.238281 1.941406 -0.234375 L 1.941406 0 M 1.597656 -4.027344 L 1.464844 -3.914062 C 1.222656 -4.105469 1.003906 -4.277344 0.816406 -4.421875 C 0.625 -4.566406 0.484375 -4.675781 0.390625 -4.75 C 0.300781 -4.824219 0.238281 -4.886719 0.203125 -4.933594 C 0.167969 -4.980469 0.148438 -5.050781 0.148438 -5.148438 C 0.148438 -5.21875 0.175781 -5.28125 0.230469 -5.335938 C 0.285156 -5.394531 0.351562 -5.425781 0.4375 -5.425781 C 0.527344 -5.425781 0.609375 -5.402344 0.671875 -5.359375 C 0.738281 -5.316406 0.808594 -5.234375 0.886719 -5.113281 C 0.964844 -4.984375 1.058594 -4.835938 1.167969 -4.671875 C 1.277344 -4.503906 1.417969 -4.289062 1.597656 -4.027344 Z "/>
</g>
<g id="glyph-1-14">
<path d="M 1.863281 0.0898438 C 1.359375 0.0898438 0.964844 -0.0742188 0.679688 -0.410156 C 0.394531 -0.742188 0.253906 -1.191406 0.253906 -1.753906 C 0.253906 -1.996094 0.292969 -2.226562 0.367188 -2.4375 C 0.445312 -2.652344 0.554688 -2.84375 0.703125 -3.019531 C 0.839844 -3.1875 1.015625 -3.320312 1.222656 -3.421875 C 1.433594 -3.523438 1.660156 -3.574219 1.90625 -3.574219 C 2.25 -3.574219 2.527344 -3.496094 2.742188 -3.332031 C 2.953125 -3.167969 3.0625 -2.945312 3.0625 -2.664062 C 3.0625 -2.546875 3.03125 -2.441406 2.976562 -2.351562 C 2.921875 -2.261719 2.828125 -2.214844 2.699219 -2.214844 C 2.558594 -2.214844 2.453125 -2.25 2.375 -2.320312 C 2.296875 -2.390625 2.261719 -2.46875 2.261719 -2.554688 C 2.261719 -2.660156 2.273438 -2.769531 2.304688 -2.882812 C 2.332031 -2.992188 2.347656 -3.074219 2.351562 -3.125 C 2.308594 -3.199219 2.246094 -3.246094 2.164062 -3.269531 C 2.082031 -3.296875 1.992188 -3.308594 1.894531 -3.308594 C 1.78125 -3.308594 1.675781 -3.285156 1.574219 -3.234375 C 1.472656 -3.1875 1.371094 -3.097656 1.277344 -2.96875 C 1.1875 -2.851562 1.117188 -2.691406 1.066406 -2.492188 C 1.011719 -2.292969 0.984375 -2.054688 0.984375 -1.777344 C 0.984375 -1.339844 1.082031 -0.984375 1.273438 -0.707031 C 1.46875 -0.429688 1.722656 -0.292969 2.035156 -0.292969 C 2.265625 -0.292969 2.457031 -0.347656 2.609375 -0.460938 C 2.761719 -0.570312 2.90625 -0.738281 3.035156 -0.960938 L 3.261719 -0.8125 C 3.105469 -0.535156 2.902344 -0.3125 2.648438 -0.152344 C 2.394531 0.0117188 2.132812 0.0898438 1.863281 0.0898438 Z "/>
</g>
<g id="glyph-1-15">
<path d="M 3.648438 -1.773438 C 3.648438 -1.53125 3.609375 -1.289062 3.53125 -1.050781 C 3.453125 -0.816406 3.34375 -0.617188 3.199219 -0.453125 C 3.035156 -0.261719 2.847656 -0.125 2.632812 -0.03125 C 2.417969 0.0585938 2.179688 0.105469 1.914062 0.105469 C 1.691406 0.105469 1.480469 0.0625 1.28125 -0.0195312 C 1.082031 -0.101562 0.902344 -0.222656 0.75 -0.382812 C 0.59375 -0.542969 0.472656 -0.734375 0.382812 -0.960938 C 0.292969 -1.1875 0.246094 -1.441406 0.246094 -1.722656 C 0.246094 -2.269531 0.40625 -2.710938 0.722656 -3.058594 C 1.039062 -3.402344 1.453125 -3.574219 1.964844 -3.574219 C 2.453125 -3.574219 2.855469 -3.410156 3.171875 -3.085938 C 3.488281 -2.757812 3.648438 -2.320312 3.648438 -1.773438 M 2.917969 -1.765625 C 2.917969 -1.941406 2.898438 -2.128906 2.863281 -2.324219 C 2.828125 -2.523438 2.773438 -2.6875 2.703125 -2.824219 C 2.628906 -2.96875 2.53125 -3.085938 2.40625 -3.175781 C 2.285156 -3.265625 2.136719 -3.308594 1.960938 -3.308594 C 1.777344 -3.308594 1.621094 -3.261719 1.496094 -3.175781 C 1.367188 -3.085938 1.261719 -2.960938 1.183594 -2.808594 C 1.105469 -2.664062 1.054688 -2.5 1.023438 -2.316406 C 0.992188 -2.132812 0.976562 -1.957031 0.976562 -1.785156 C 0.976562 -1.558594 0.996094 -1.351562 1.03125 -1.160156 C 1.066406 -0.96875 1.125 -0.796875 1.207031 -0.644531 C 1.285156 -0.496094 1.386719 -0.375 1.507812 -0.289062 C 1.628906 -0.207031 1.78125 -0.164062 1.960938 -0.164062 C 2.253906 -0.164062 2.488281 -0.304688 2.660156 -0.589844 C 2.832031 -0.875 2.917969 -1.265625 2.917969 -1.765625 M 2.769531 -4.027344 L 2.632812 -3.914062 C 2.390625 -4.105469 2.175781 -4.277344 1.984375 -4.421875 C 1.796875 -4.566406 1.652344 -4.675781 1.5625 -4.75 C 1.472656 -4.824219 1.410156 -4.886719 1.375 -4.933594 C 1.335938 -4.980469 1.320312 -5.050781 1.320312 -5.148438 C 1.320312 -5.21875 1.347656 -5.28125 1.398438 -5.335938 C 1.453125 -5.394531 1.523438 -5.425781 1.609375 -5.425781 C 1.699219 -5.425781 1.777344 -5.402344 1.84375 -5.359375 C 1.910156 -5.316406 1.980469 -5.234375 2.054688 -5.113281 C 2.136719 -4.984375 2.230469 -4.835938 2.339844 -4.671875 C 2.445312 -4.503906 2.589844 -4.289062 2.769531 -4.027344 Z "/>
</g>
<g id="glyph-1-16">
<path d="M 1.882812 0 L 0.1875 0 L 0.1875 -0.234375 C 0.242188 -0.238281 0.296875 -0.242188 0.359375 -0.25 C 0.421875 -0.253906 0.472656 -0.261719 0.511719 -0.273438 C 0.578125 -0.296875 0.625 -0.332031 0.660156 -0.386719 C 0.691406 -0.4375 0.707031 -0.507812 0.707031 -0.59375 L 0.707031 -4.625 C 0.707031 -4.707031 0.691406 -4.789062 0.652344 -4.863281 C 0.617188 -4.933594 0.570312 -4.992188 0.511719 -5.035156 C 0.46875 -5.0625 0.390625 -5.089844 0.277344 -5.113281 C 0.164062 -5.136719 0.0742188 -5.152344 0.0078125 -5.15625 L 0.0078125 -5.382812 L 1.316406 -5.460938 L 1.363281 -5.40625 L 1.363281 -0.636719 C 1.363281 -0.550781 1.378906 -0.484375 1.410156 -0.433594 C 1.441406 -0.378906 1.492188 -0.339844 1.558594 -0.308594 C 1.609375 -0.285156 1.660156 -0.269531 1.710938 -0.257812 C 1.761719 -0.246094 1.820312 -0.238281 1.882812 -0.234375 Z "/>
</g>
<g id="glyph-1-17">
<path d="M 1.941406 0 L 0.261719 0 L 0.261719 -0.234375 C 0.316406 -0.238281 0.371094 -0.242188 0.429688 -0.246094 C 0.484375 -0.25 0.535156 -0.261719 0.578125 -0.273438 C 0.644531 -0.296875 0.691406 -0.332031 0.726562 -0.386719 C 0.757812 -0.4375 0.773438 -0.507812 0.773438 -0.59375 L 0.773438 -2.738281 C 0.773438 -2.8125 0.753906 -2.882812 0.722656 -2.941406 C 0.6875 -3.003906 0.640625 -3.058594 0.578125 -3.101562 C 0.535156 -3.128906 0.46875 -3.152344 0.382812 -3.171875 C 0.300781 -3.191406 0.222656 -3.203125 0.152344 -3.210938 L 0.152344 -3.441406 L 1.378906 -3.519531 L 1.429688 -3.46875 L 1.429688 -0.636719 C 1.429688 -0.550781 1.445312 -0.484375 1.476562 -0.429688 C 1.507812 -0.375 1.558594 -0.335938 1.625 -0.308594 C 1.675781 -0.289062 1.726562 -0.273438 1.773438 -0.257812 C 1.824219 -0.246094 1.878906 -0.238281 1.941406 -0.234375 L 1.941406 0 M 1.5 -4.890625 C 1.5 -4.757812 1.453125 -4.640625 1.367188 -4.539062 C 1.277344 -4.441406 1.167969 -4.390625 1.039062 -4.390625 C 0.921875 -4.390625 0.816406 -4.4375 0.726562 -4.535156 C 0.640625 -4.628906 0.597656 -4.738281 0.597656 -4.859375 C 0.597656 -4.988281 0.640625 -5.101562 0.726562 -5.199219 C 0.816406 -5.292969 0.921875 -5.34375 1.039062 -5.34375 C 1.175781 -5.34375 1.285156 -5.296875 1.371094 -5.207031 C 1.457031 -5.117188 1.5 -5.011719 1.5 -4.890625 Z "/>
</g>
<g id="glyph-1-18">
<path d="M 1.613281 -3.011719 C 1.613281 -2.878906 1.5625 -2.765625 1.46875 -2.671875 C 1.375 -2.578125 1.261719 -2.53125 1.128906 -2.53125 C 0.996094 -2.53125 0.882812 -2.578125 0.789062 -2.671875 C 0.691406 -2.765625 0.644531 -2.878906 0.644531 -3.011719 C 0.644531 -3.140625 0.691406 -3.253906 0.785156 -3.347656 C 0.878906 -3.445312 0.996094 -3.492188 1.128906 -3.492188 C 1.261719 -3.492188 1.375 -3.445312 1.46875 -3.347656 C 1.566406 -3.253906 1.613281 -3.140625 1.613281 -3.011719 M 1.613281 -0.40625 C 1.613281 -0.273438 1.5625 -0.160156 1.46875 -0.0703125 C 1.375 0.0234375 1.261719 0.0703125 1.128906 0.0703125 C 0.996094 0.0703125 0.882812 0.0234375 0.789062 -0.0703125 C 0.691406 -0.160156 0.644531 -0.273438 0.644531 -0.40625 C 0.644531 -0.539062 0.691406 -0.652344 0.789062 -0.746094 C 0.882812 -0.839844 0.996094 -0.890625 1.128906 -0.890625 C 1.261719 -0.890625 1.375 -0.839844 1.46875 -0.746094 C 1.5625 -0.652344 1.613281 -0.539062 1.613281 -0.40625 Z "/>
</g>
</g>
</defs>
<path fill="none" stroke-width="0.190851" stroke-linecap="butt" stroke-linejoin="miter" stroke="rgb(100%, 100%, 100%)" stroke-opacity="1" stroke-miterlimit="2" d="M 69.285156 20.285156 L 77.890625 20.285156 L 77.890625 29.265625 L 69.285156 29.265625 Z "/>
<g fill="rgb(100%, 100%, 100%)" fill-opacity="1">
<use xlink:href="#glyph-0-0" x="69.574219" y="24.679688"/>
</g>
<g fill="rgb(100%, 100%, 100%)" fill-opacity="1">
<use xlink:href="#glyph-0-1" x="73.683594" y="24.679688"/>
</g>
<g fill="rgb(100%, 100%, 100%)" fill-opacity="1">
<use xlink:href="#glyph-0-2" x="69.574219" y="28.980469"/>
</g>
<g fill="rgb(100%, 100%, 100%)" fill-opacity="1">
<use xlink:href="#glyph-0-0" x="73.683594" y="28.980469"/>
</g>
<path fill="none" stroke-width="0.190851" stroke-linecap="butt" stroke-linejoin="miter" stroke="rgb(100%, 100%, 100%)" stroke-opacity="1" stroke-miterlimit="2" d="M 78.285156 20.285156 L 86.890625 20.285156 L 86.890625 29.265625 L 78.285156 29.265625 Z "/>
<g fill="rgb(100%, 100%, 100%)" fill-opacity="1">
<use xlink:href="#glyph-0-0" x="78.574219" y="24.679688"/>
</g>
<g fill="rgb(100%, 100%, 100%)" fill-opacity="1">
<use xlink:href="#glyph-0-1" x="82.683594" y="24.679688"/>
</g>
<g fill="rgb(100%, 100%, 100%)" fill-opacity="1">
<use xlink:href="#glyph-0-3" x="78.574219" y="28.980469"/>
</g>
<g fill="rgb(100%, 100%, 100%)" fill-opacity="1">
<use xlink:href="#glyph-0-1" x="82.683594" y="28.980469"/>
</g>
<path fill="none" stroke-width="0.190851" stroke-linecap="butt" stroke-linejoin="miter" stroke="rgb(100%, 100%, 100%)" stroke-opacity="1" stroke-miterlimit="2" d="M 129.285156 20.285156 L 137.890625 20.285156 L 137.890625 29.265625 L 129.285156 29.265625 Z "/>
<g fill="rgb(100%, 100%, 100%)" fill-opacity="1">
<use xlink:href="#glyph-0-1" x="129.574219" y="24.679688"/>
</g>
<g fill="rgb(100%, 100%, 100%)" fill-opacity="1">
<use xlink:href="#glyph-0-4" x="133.683594" y="24.679688"/>
</g>
<g fill="rgb(100%, 100%, 100%)" fill-opacity="1">
<use xlink:href="#glyph-0-3" x="129.574219" y="28.980469"/>
</g>
<g fill="rgb(100%, 100%, 100%)" fill-opacity="1">
<use xlink:href="#glyph-0-1" x="133.683594" y="28.980469"/>
</g>
<g fill="rgb(100%, 100%, 100%)" fill-opacity="1">
<use xlink:href="#glyph-1-0" x="30" y="27.591797"/>
<use xlink:href="#glyph-1-1" x="34" y="27.591797"/>
<use xlink:href="#glyph-1-2" x="38" y="27.591797"/>
<use xlink:href="#glyph-1-3" x="41" y="27.591797"/>
<use xlink:href="#glyph-1-4" x="45" y="27.591797"/>
<use xlink:href="#glyph-1-5" x="47" y="27.591797"/>
<use xlink:href="#glyph-1-6" x="51" y="27.591797"/>
<use xlink:href="#glyph-1-7" x="55" y="27.591797"/>
<use xlink:href="#glyph-1-4" x="59" y="27.591797"/>
<use xlink:href="#glyph-1-8" x="61" y="27.591797"/>
<use xlink:href="#glyph-1-1" x="65" y="27.591797"/>
<use xlink:href="#glyph-1-9" x="87" y="27.591797"/>
<use xlink:href="#glyph-1-10" x="91" y="27.591797"/>
<use xlink:href="#glyph-1-4" x="95" y="27.591797"/>
<use xlink:href="#glyph-1-11" x="97" y="27.591797"/>
<use xlink:href="#glyph-1-12" x="99" y="27.591797"/>
<use xlink:href="#glyph-1-13" x="102" y="27.591797"/>
<use xlink:href="#glyph-1-9" x="104" y="27.591797"/>
<use xlink:href="#glyph-1-1" x="108" y="27.591797"/>
<use xlink:href="#glyph-1-4" x="112" y="27.591797"/>
<use xlink:href="#glyph-1-14" x="114" y="27.591797"/>
<use xlink:href="#glyph-1-15" x="117" y="27.591797"/>
<use xlink:href="#glyph-1-9" x="121" y="27.591797"/>
<use xlink:href="#glyph-1-4" x="125" y="27.591797"/>
<use xlink:href="#glyph-1-16" x="127" y="27.591797"/>
<use xlink:href="#glyph-1-17" x="138" y="27.591797"/>
<use xlink:href="#glyph-1-18" x="140" y="27.591797"/>
</g>
</svg>
