<?xml version="1.0" encoding="UTF-8"?>
<svg xmlns="http://www.w3.org/2000/svg" xmlns:xlink="http://www.w3.org/1999/xlink" width="854" height="480" viewBox="0 0 854 480">
<defs>
<g>
<g id="glyph-0-0">
<path d="M 1.191406 -1.164062 C 0.992188 -1.160156 0.824219 -1.230469 0.679688 -1.371094 C 0.539062 -1.507812 0.46875 -1.675781 0.46875 -1.875 C 0.46875 -2.070312 0.539062 -2.238281 0.679688 -2.382812 C 0.824219 -2.527344 0.992188 -2.597656 1.191406 -2.597656 C 1.386719 -2.597656 1.554688 -2.527344 1.695312 -2.382812 C 1.832031 -2.242188 1.902344 -2.070312 1.902344 -1.875 C 1.902344 -1.675781 1.832031 -1.507812 1.695312 -1.371094 C 1.554688 -1.230469 1.386719 -1.160156 1.191406 -1.164062 Z "/>
</g>
<g id="glyph-0-1">
</g>
<g id="glyph-0-2">
<path d="M 2.65625 0 L 0.535156 0 L 0.535156 -4.085938 L 1.015625 -4.085938 L 1.015625 -0.433594 L 2.65625 -0.433594 Z "/>
</g>
<g id="glyph-0-3">
<path d="M 2.832031 0 L 2.363281 0 L 2.363281 -0.460938 L 2.351562 -0.460938 C 2.160156 -0.109375 1.859375 0.0703125 1.453125 0.0703125 C 0.757812 0.0703125 0.410156 -0.34375 0.410156 -1.171875 L 0.410156 -2.917969 L 0.875 -2.917969 L 0.875 -1.246094 C 0.875 -0.632812 1.109375 -0.324219 1.582031 -0.324219 C 1.808594 -0.324219 1.996094 -0.410156 2.144531 -0.578125 C 2.289062 -0.746094 2.363281 -0.964844 2.363281 -1.234375 L 2.363281 -2.917969 L 2.710938 -2.917969 C 2.824219 -2.917969 2.917969 -2.949219 2.992188 -3.019531 C 3.066406 -3.085938 3.105469 -3.167969 3.105469 -3.261719 C 3.105469 -3.398438 3.085938 -3.523438 3.046875 -3.632812 L 3.429688 -3.632812 C 3.464844 -3.527344 3.484375 -3.398438 3.484375 -3.246094 C 3.484375 -2.871094 3.265625 -2.648438 2.832031 -2.582031 Z "/>
</g>
<g id="glyph-0-4">
<path d="M 2.960938 -3.632812 L 3.34375 -3.632812 C 3.378906 -3.527344 3.398438 -3.398438 3.398438 -3.246094 C 3.398438 -2.882812 3.191406 -2.664062 2.773438 -2.585938 C 3.019531 -2.320312 3.144531 -1.945312 3.144531 -1.46875 C 3.144531 -1.003906 3.011719 -0.632812 2.75 -0.351562 C 2.488281 -0.0703125 2.132812 0.0703125 1.691406 0.0703125 C 1.261719 0.0703125 0.917969 -0.0664062 0.660156 -0.339844 C 0.402344 -0.613281 0.273438 -0.972656 0.273438 -1.425781 C 0.273438 -1.914062 0.40625 -2.296875 0.675781 -2.570312 C 0.941406 -2.847656 1.304688 -2.984375 1.761719 -2.984375 C 1.851562 -2.984375 1.980469 -2.972656 2.140625 -2.945312 C 2.257812 -2.925781 2.417969 -2.917969 2.625 -2.917969 C 2.738281 -2.917969 2.832031 -2.949219 2.90625 -3.019531 C 2.980469 -3.085938 3.019531 -3.167969 3.019531 -3.261719 C 3.019531 -3.398438 3 -3.523438 2.960938 -3.632812 M 1.726562 -2.59375 C 1.425781 -2.59375 1.1875 -2.488281 1.015625 -2.285156 C 0.839844 -2.082031 0.75 -1.800781 0.75 -1.441406 C 0.75 -1.09375 0.839844 -0.824219 1.015625 -0.625 C 1.195312 -0.425781 1.429688 -0.324219 1.726562 -0.324219 C 2.027344 -0.324219 2.261719 -0.421875 2.421875 -0.617188 C 2.585938 -0.8125 2.664062 -1.09375 2.664062 -1.453125 C 2.664062 -1.816406 2.585938 -2.097656 2.421875 -2.296875 C 2.261719 -2.492188 2.027344 -2.59375 1.726562 -2.59375 M 2.496094 -4.402344 L 1.75 -3.46875 L 1.390625 -3.46875 L 2.023438 -4.402344 Z "/>
</g>
<g id="glyph-0-5">
<path d="M 0.710938 -3.65625 C 0.628906 -3.65625 0.558594 -3.6875 0.5 -3.742188 C 0.441406 -3.800781 0.410156 -3.871094 0.410156 -3.960938 C 0.410156 -4.046875 0.441406 -4.117188 0.5 -4.175781 C 0.558594 -4.234375 0.628906 -4.265625 0.710938 -4.265625 C 0.796875 -4.265625 0.871094 -4.234375 0.929688 -4.175781 C 0.988281 -4.117188 1.019531 -4.046875 1.019531 -3.960938 C 1.019531 -3.875 0.988281 -3.804688 0.929688 -3.746094 C 0.871094 -3.6875 0.796875 -3.65625 0.710938 -3.65625 M 0.941406 0 L 0.472656 0 L 0.472656 -2.917969 L 0.941406 -2.917969 Z "/>
</g>
<g id="glyph-0-6">
<path d="M 1.824219 -0.0273438 C 1.714844 0.03125 1.570312 0.0625 1.390625 0.0625 C 0.878906 0.0625 0.625 -0.222656 0.625 -0.792969 L 0.625 -2.519531 L 0.121094 -2.519531 L 0.121094 -2.917969 L 0.625 -2.917969 L 0.625 -3.628906 L 1.089844 -3.78125 L 1.089844 -2.917969 L 1.824219 -2.917969 L 1.824219 -2.519531 L 1.089844 -2.519531 L 1.089844 -0.875 C 1.089844 -0.679688 1.125 -0.539062 1.191406 -0.457031 C 1.257812 -0.371094 1.367188 -0.332031 1.519531 -0.332031 C 1.640625 -0.332031 1.742188 -0.363281 1.824219 -0.425781 Z "/>
</g>
<g id="glyph-0-7">
<path d="M 1.992188 -2.445312 C 1.914062 -2.507812 1.792969 -2.539062 1.640625 -2.539062 C 1.441406 -2.539062 1.273438 -2.445312 1.140625 -2.257812 C 1.007812 -2.066406 0.941406 -1.8125 0.941406 -1.488281 L 0.941406 0 L 0.472656 0 L 0.472656 -2.917969 L 0.941406 -2.917969 L 0.941406 -2.316406 L 0.953125 -2.316406 C 1.019531 -2.519531 1.121094 -2.679688 1.257812 -2.796875 C 1.394531 -2.910156 1.546875 -2.96875 1.714844 -2.96875 C 1.835938 -2.96875 1.929688 -2.953125 1.992188 -2.929688 Z "/>
</g>
<g id="glyph-0-8">
<path d="M 2.5625 0 L 2.09375 0 L 2.09375 -0.457031 L 2.082031 -0.457031 C 1.878906 -0.105469 1.578125 0.0703125 1.183594 0.0703125 C 0.894531 0.0703125 0.667969 -0.0078125 0.503906 -0.164062 C 0.339844 -0.316406 0.257812 -0.519531 0.257812 -0.773438 C 0.257812 -1.320312 0.578125 -1.636719 1.21875 -1.726562 L 2.09375 -1.847656 C 2.09375 -2.34375 1.894531 -2.59375 1.492188 -2.59375 C 1.140625 -2.59375 0.824219 -2.472656 0.542969 -2.234375 L 0.542969 -2.710938 C 0.828125 -2.894531 1.160156 -2.984375 1.53125 -2.984375 C 2.21875 -2.984375 2.5625 -2.621094 2.5625 -1.898438 L 2.5625 0 M 2.09375 -1.476562 L 1.390625 -1.378906 C 1.171875 -1.347656 1.011719 -1.292969 0.898438 -1.21875 C 0.789062 -1.140625 0.734375 -1.003906 0.734375 -0.808594 C 0.734375 -0.667969 0.785156 -0.550781 0.886719 -0.460938 C 0.988281 -0.371094 1.125 -0.324219 1.292969 -0.324219 C 1.523438 -0.324219 1.714844 -0.40625 1.867188 -0.566406 C 2.019531 -0.730469 2.09375 -0.9375 2.09375 -1.183594 L 2.09375 -1.476562 M 1.265625 -4.128906 L 1.78125 -4.832031 L 2.257812 -4.832031 L 1.625 -4.128906 L 1.265625 -4.128906 M 2.320312 -4.1875 C 2.300781 -3.972656 2.21875 -3.800781 2.070312 -3.667969 C 1.921875 -3.535156 1.738281 -3.46875 1.527344 -3.46875 C 1.304688 -3.46875 1.125 -3.535156 0.984375 -3.664062 C 0.84375 -3.796875 0.765625 -3.96875 0.757812 -4.1875 L 1.042969 -4.1875 C 1.0625 -3.933594 1.226562 -3.804688 1.53125 -3.804688 C 1.832031 -3.804688 1.996094 -3.933594 2.03125 -4.1875 Z "/>
</g>
<g id="glyph-0-9">
<path d="M 2.894531 0 L 2.425781 0 L 2.425781 -1.664062 C 2.425781 -2.28125 2.199219 -2.59375 1.75 -2.59375 C 1.515625 -2.59375 1.320312 -2.503906 1.167969 -2.328125 C 1.015625 -2.152344 0.941406 -1.929688 0.941406 -1.664062 L 0.941406 0 L 0.472656 0 L 0.472656 -2.917969 L 0.941406 -2.917969 L 0.941406 -2.433594 L 0.953125 -2.433594 C 1.171875 -2.800781 1.492188 -2.984375 1.910156 -2.984375 C 2.226562 -2.984375 2.472656 -2.882812 2.640625 -2.675781 C 2.808594 -2.46875 2.894531 -2.171875 2.894531 -1.78125 Z "/>
</g>
<g id="glyph-0-10">
<path d="M 2.960938 -0.234375 C 2.960938 0.835938 2.449219 1.371094 1.425781 1.371094 C 1.0625 1.371094 0.75 1.304688 0.476562 1.167969 L 0.476562 0.699219 C 0.808594 0.882812 1.121094 0.972656 1.417969 0.972656 C 2.136719 0.972656 2.496094 0.59375 2.496094 -0.171875 L 2.496094 -0.488281 L 2.484375 -0.488281 C 2.261719 -0.117188 1.925781 0.0703125 1.480469 0.0703125 C 1.117188 0.0703125 0.828125 -0.0625 0.605469 -0.320312 C 0.382812 -0.578125 0.273438 -0.925781 0.273438 -1.363281 C 0.273438 -1.859375 0.394531 -2.253906 0.632812 -2.546875 C 0.871094 -2.839844 1.195312 -2.984375 1.609375 -2.984375 C 2.003906 -2.984375 2.292969 -2.828125 2.484375 -2.511719 L 2.496094 -2.511719 L 2.496094 -2.917969 L 2.960938 -2.917969 L 2.960938 -0.234375 M 2.496094 -1.320312 L 2.496094 -1.75 C 2.496094 -1.980469 2.417969 -2.179688 2.261719 -2.34375 C 2.101562 -2.507812 1.910156 -2.59375 1.675781 -2.59375 C 1.386719 -2.59375 1.160156 -2.488281 0.996094 -2.277344 C 0.832031 -2.066406 0.75 -1.773438 0.75 -1.394531 C 0.75 -1.070312 0.832031 -0.8125 0.988281 -0.617188 C 1.144531 -0.421875 1.351562 -0.324219 1.609375 -0.324219 C 1.871094 -0.324219 2.085938 -0.417969 2.25 -0.605469 C 2.414062 -0.789062 2.496094 -1.027344 2.496094 -1.320312 Z "/>
</g>
<g id="glyph-0-11">
<path d="M 2.832031 0 L 2.363281 0 L 2.363281 -0.460938 L 2.351562 -0.460938 C 2.160156 -0.109375 1.859375 0.0703125 1.453125 0.0703125 C 0.757812 0.0703125 0.410156 -0.34375 0.410156 -1.171875 L 0.410156 -2.917969 L 0.875 -2.917969 L 0.875 -1.246094 C 0.875 -0.632812 1.109375 -0.324219 1.582031 -0.324219 C 1.808594 -0.324219 1.996094 -0.410156 2.144531 -0.578125 C 2.289062 -0.746094 2.363281 -0.964844 2.363281 -1.234375 L 2.363281 -2.917969 L 2.710938 -2.917969 C 2.824219 -2.917969 2.917969 -2.949219 2.992188 -3.019531 C 3.066406 -3.085938 3.105469 -3.167969 3.105469 -3.261719 C 3.105469 -3.398438 3.085938 -3.523438 3.046875 -3.632812 L 3.429688 -3.632812 C 3.464844 -3.527344 3.484375 -3.398438 3.484375 -3.246094 C 3.484375 -2.871094 3.265625 -2.648438 2.832031 -2.582031 L 2.832031 0 M 2.554688 -4.152344 C 2.554688 -3.953125 2.507812 -3.789062 2.417969 -3.664062 C 2.328125 -3.539062 2.203125 -3.476562 2.046875 -3.476562 C 1.914062 -3.476562 1.757812 -3.523438 1.585938 -3.625 C 1.441406 -3.703125 1.328125 -3.746094 1.246094 -3.746094 C 1.082031 -3.746094 0.996094 -3.636719 0.996094 -3.421875 L 0.730469 -3.421875 C 0.730469 -3.625 0.773438 -3.789062 0.867188 -3.914062 C 0.957031 -4.035156 1.085938 -4.097656 1.246094 -4.097656 C 1.371094 -4.097656 1.511719 -4.046875 1.671875 -3.949219 C 1.8125 -3.863281 1.933594 -3.824219 2.035156 -3.824219 C 2.195312 -3.824219 2.277344 -3.933594 2.277344 -4.152344 Z "/>
</g>
<g id="glyph-0-12">
<path d="M 2.832031 0 L 2.363281 0 L 2.363281 -0.460938 L 2.351562 -0.460938 C 2.160156 -0.109375 1.859375 0.0703125 1.453125 0.0703125 C 0.757812 0.0703125 0.410156 -0.34375 0.410156 -1.171875 L 0.410156 -2.917969 L 0.875 -2.917969 L 0.875 -1.246094 C 0.875 -0.632812 1.109375 -0.324219 1.582031 -0.324219 C 1.808594 -0.324219 1.996094 -0.410156 2.144531 -0.578125 C 2.289062 -0.746094 2.363281 -0.964844 2.363281 -1.234375 L 2.363281 -2.917969 L 2.832031 -2.917969 Z "/>
</g>
<g id="glyph-0-13">
<path d="M 2.792969 -2.917969 L 1.453125 0.46875 C 1.214844 1.070312 0.878906 1.371094 0.445312 1.371094 C 0.324219 1.371094 0.222656 1.359375 0.140625 1.335938 L 0.140625 0.917969 C 0.238281 0.953125 0.332031 0.96875 0.414062 0.96875 C 0.652344 0.96875 0.828125 0.828125 0.945312 0.546875 L 1.179688 -0.00390625 L 0.0390625 -2.917969 L 0.558594 -2.917969 L 1.347656 -0.671875 C 1.355469 -0.644531 1.375 -0.570312 1.40625 -0.449219 L 1.425781 -0.449219 C 1.433594 -0.496094 1.453125 -0.566406 1.480469 -0.667969 L 2.308594 -2.917969 Z "/>
</g>
<g id="glyph-0-14">
<path d="M 2.816406 -1.339844 L 0.757812 -1.339844 C 0.765625 -1.015625 0.851562 -0.765625 1.019531 -0.589844 C 1.1875 -0.414062 1.417969 -0.324219 1.710938 -0.324219 C 2.039062 -0.324219 2.339844 -0.433594 2.613281 -0.648438 L 2.613281 -0.210938 C 2.359375 -0.0234375 2.019531 0.0703125 1.597656 0.0703125 C 1.1875 0.0703125 0.863281 -0.0625 0.625 -0.328125 C 0.390625 -0.59375 0.273438 -0.964844 0.273438 -1.445312 C 0.273438 -1.902344 0.402344 -2.269531 0.660156 -2.554688 C 0.917969 -2.84375 1.234375 -2.984375 1.617188 -2.984375 C 2 -2.984375 2.292969 -2.863281 2.503906 -2.613281 C 2.710938 -2.367188 2.816406 -2.023438 2.816406 -1.585938 L 2.816406 -1.339844 M 2.339844 -1.738281 C 2.335938 -2.007812 2.273438 -2.21875 2.144531 -2.367188 C 2.015625 -2.515625 1.835938 -2.59375 1.609375 -2.59375 C 1.390625 -2.59375 1.203125 -2.511719 1.046875 -2.355469 C 0.894531 -2.199219 0.800781 -1.992188 0.761719 -1.738281 L 2.339844 -1.738281 M 2.390625 -3.46875 L 2.046875 -3.46875 L 1.578125 -4.125 L 1.109375 -3.46875 L 0.785156 -3.46875 L 1.398438 -4.414062 L 1.777344 -4.414062 Z "/>
</g>
<g id="glyph-0-15">
<path d="M 2.960938 0 L 2.496094 0 L 2.496094 -0.496094 L 2.484375 -0.496094 C 2.265625 -0.121094 1.933594 0.0703125 1.480469 0.0703125 C 1.113281 0.0703125 0.820312 -0.0625 0.601562 -0.324219 C 0.382812 -0.585938 0.273438 -0.941406 0.273438 -1.390625 C 0.273438 -1.871094 0.394531 -2.257812 0.636719 -2.550781 C 0.882812 -2.839844 1.203125 -2.984375 1.609375 -2.984375 C 2.003906 -2.984375 2.296875 -2.828125 2.484375 -2.511719 L 2.496094 -2.511719 L 2.496094 -3.421875 L 1.550781 -3.421875 L 1.550781 -3.804688 L 2.496094 -3.804688 L 2.496094 -4.316406 L 2.960938 -4.316406 L 2.960938 -3.804688 L 3.351562 -3.804688 L 3.351562 -3.421875 L 2.960938 -3.421875 L 2.960938 0 M 2.496094 -1.320312 L 2.496094 -1.75 C 2.496094 -1.984375 2.417969 -2.183594 2.261719 -2.347656 C 2.105469 -2.511719 1.910156 -2.59375 1.667969 -2.59375 C 1.382812 -2.59375 1.160156 -2.488281 0.996094 -2.277344 C 0.832031 -2.070312 0.75 -1.78125 0.75 -1.414062 C 0.75 -1.078125 0.832031 -0.8125 0.988281 -0.617188 C 1.144531 -0.421875 1.355469 -0.324219 1.617188 -0.324219 C 1.875 -0.324219 2.085938 -0.417969 2.25 -0.605469 C 2.414062 -0.792969 2.496094 -1.03125 2.496094 -1.320312 Z "/>
</g>
<g id="glyph-0-16">
<path d="M 2.816406 -1.339844 L 0.757812 -1.339844 C 0.765625 -1.015625 0.851562 -0.765625 1.019531 -0.589844 C 1.1875 -0.414062 1.417969 -0.324219 1.710938 -0.324219 C 2.039062 -0.324219 2.339844 -0.433594 2.613281 -0.648438 L 2.613281 -0.210938 C 2.359375 -0.0234375 2.019531 0.0703125 1.597656 0.0703125 C 1.1875 0.0703125 0.863281 -0.0625 0.625 -0.328125 C 0.390625 -0.59375 0.273438 -0.964844 0.273438 -1.445312 C 0.273438 -1.902344 0.402344 -2.269531 0.660156 -2.554688 C 0.917969 -2.84375 1.234375 -2.984375 1.617188 -2.984375 C 2 -2.984375 2.292969 -2.863281 2.503906 -2.613281 C 2.710938 -2.367188 2.816406 -2.023438 2.816406 -1.585938 L 2.816406 -1.339844 M 2.339844 -1.738281 C 2.335938 -2.007812 2.273438 -2.21875 2.144531 -2.367188 C 2.015625 -2.515625 1.835938 -2.59375 1.609375 -2.59375 C 1.390625 -2.59375 1.203125 -2.511719 1.046875 -2.355469 C 0.894531 -2.199219 0.800781 -1.992188 0.761719 -1.738281 L 2.339844 -1.738281 M 2.261719 -4.90625 C 2.328125 -4.914062 2.40625 -4.917969 2.488281 -4.917969 C 2.660156 -4.917969 2.796875 -4.875 2.902344 -4.796875 C 3.007812 -4.71875 3.058594 -4.613281 3.058594 -4.476562 C 3.058594 -4.359375 3.023438 -4.265625 2.953125 -4.183594 C 2.882812 -4.105469 2.792969 -4.058594 2.683594 -4.042969 L 2.683594 -3.902344 L 2.371094 -3.902344 L 2.371094 -4.230469 C 2.585938 -4.230469 2.695312 -4.300781 2.695312 -4.445312 C 2.695312 -4.566406 2.605469 -4.625 2.425781 -4.625 C 2.390625 -4.625 2.335938 -4.617188 2.261719 -4.601562 L 2.261719 -4.90625 M 2.484375 -3.46875 L 2.140625 -3.46875 L 1.675781 -3.890625 L 1.203125 -3.46875 L 0.882812 -3.46875 L 1.492188 -4.179688 L 1.875 -4.179688 Z "/>
</g>
<g id="glyph-0-17">
<path d="M 0.941406 0 L 0.472656 0 L 0.472656 -4.316406 L 0.941406 -4.316406 Z "/>
</g>
<g id="glyph-0-18">
<path d="M 2.5625 0 L 2.09375 0 L 2.09375 -0.457031 L 2.082031 -0.457031 C 1.878906 -0.105469 1.578125 0.0703125 1.183594 0.0703125 C 0.894531 0.0703125 0.667969 -0.0078125 0.503906 -0.164062 C 0.339844 -0.316406 0.257812 -0.519531 0.257812 -0.773438 C 0.257812 -1.320312 0.578125 -1.636719 1.21875 -1.726562 L 2.09375 -1.847656 C 2.09375 -2.34375 1.894531 -2.59375 1.492188 -2.59375 C 1.140625 -2.59375 0.824219 -2.472656 0.542969 -2.234375 L 0.542969 -2.710938 C 0.828125 -2.894531 1.160156 -2.984375 1.53125 -2.984375 C 2.21875 -2.984375 2.5625 -2.621094 2.5625 -1.898438 L 2.5625 0 M 2.09375 -1.476562 L 1.390625 -1.378906 C 1.171875 -1.347656 1.011719 -1.292969 0.898438 -1.21875 C 0.789062 -1.140625 0.734375 -1.003906 0.734375 -0.808594 C 0.734375 -0.667969 0.785156 -0.550781 0.886719 -0.460938 C 0.988281 -0.371094 1.125 -0.324219 1.292969 -0.324219 C 1.523438 -0.324219 1.714844 -0.40625 1.867188 -0.566406 C 2.019531 -0.730469 2.09375 -0.9375 2.09375 -1.183594 L 2.09375 -1.476562 M 1.917969 -3.46875 L 1.558594 -3.46875 L 0.8125 -4.402344 L 1.289062 -4.402344 Z "/>
</g>
<g id="glyph-0-19">
<path d="M 4.613281 0 L 4.148438 0 L 4.148438 -1.675781 C 4.148438 -1.996094 4.097656 -2.230469 3.996094 -2.375 C 3.898438 -2.519531 3.730469 -2.59375 3.496094 -2.59375 C 3.296875 -2.59375 3.125 -2.5 2.988281 -2.320312 C 2.847656 -2.136719 2.777344 -1.917969 2.777344 -1.664062 L 2.777344 0 L 2.308594 0 L 2.308594 -1.730469 C 2.308594 -2.304688 2.089844 -2.59375 1.644531 -2.59375 C 1.441406 -2.59375 1.273438 -2.507812 1.140625 -2.335938 C 1.007812 -2.164062 0.941406 -1.9375 0.941406 -1.664062 L 0.941406 0 L 0.472656 0 L 0.472656 -2.917969 L 0.941406 -2.917969 L 0.941406 -2.457031 L 0.953125 -2.457031 C 1.160156 -2.808594 1.460938 -2.984375 1.855469 -2.984375 C 2.054688 -2.984375 2.230469 -2.929688 2.378906 -2.820312 C 2.527344 -2.707031 2.628906 -2.5625 2.683594 -2.382812 C 2.898438 -2.785156 3.222656 -2.984375 3.652344 -2.984375 C 4.292969 -2.984375 4.613281 -2.589844 4.613281 -1.796875 Z "/>
</g>
<g id="glyph-0-20">
<path d="M 1.691406 0.0703125 C 1.261719 0.0703125 0.917969 -0.0664062 0.660156 -0.339844 C 0.402344 -0.613281 0.273438 -0.972656 0.273438 -1.425781 C 0.273438 -1.914062 0.40625 -2.296875 0.675781 -2.570312 C 0.941406 -2.847656 1.304688 -2.984375 1.761719 -2.984375 C 2.195312 -2.984375 2.535156 -2.851562 2.777344 -2.582031 C 3.023438 -2.316406 3.144531 -1.945312 3.144531 -1.46875 C 3.144531 -1.003906 3.011719 -0.632812 2.75 -0.351562 C 2.488281 -0.0703125 2.132812 0.0703125 1.691406 0.0703125 M 1.726562 -2.59375 C 1.425781 -2.59375 1.1875 -2.488281 1.015625 -2.285156 C 0.839844 -2.082031 0.75 -1.800781 0.75 -1.441406 C 0.75 -1.09375 0.839844 -0.824219 1.015625 -0.625 C 1.195312 -0.425781 1.429688 -0.324219 1.726562 -0.324219 C 2.027344 -0.324219 2.261719 -0.421875 2.421875 -0.617188 C 2.585938 -0.8125 2.664062 -1.09375 2.664062 -1.453125 C 2.664062 -1.816406 2.585938 -2.097656 2.421875 -2.296875 C 2.261719 -2.492188 2.027344 -2.59375 1.726562 -2.59375 M 2.359375 -3.902344 L 2.871094 -4.601562 L 3.351562 -4.601562 L 2.71875 -3.902344 L 2.359375 -3.902344 M 2.546875 -3.46875 L 2.203125 -3.46875 L 1.734375 -3.890625 L 1.261719 -3.46875 L 0.941406 -3.46875 L 1.554688 -4.179688 L 1.929688 -4.179688 Z "/>
</g>
<g id="glyph-0-21">
<path d="M 2.460938 -0.132812 C 2.238281 0 1.972656 0.0703125 1.664062 0.0703125 C 1.246094 0.0703125 0.910156 -0.0664062 0.65625 -0.335938 C 0.402344 -0.609375 0.273438 -0.957031 0.273438 -1.390625 C 0.273438 -1.871094 0.410156 -2.257812 0.6875 -2.546875 C 0.960938 -2.839844 1.328125 -2.984375 1.789062 -2.984375 C 2.046875 -2.984375 2.269531 -2.9375 2.464844 -2.84375 L 2.464844 -2.363281 C 2.25 -2.515625 2.019531 -2.59375 1.773438 -2.59375 C 1.472656 -2.59375 1.230469 -2.484375 1.039062 -2.273438 C 0.847656 -2.058594 0.75 -1.777344 0.75 -1.429688 C 0.75 -1.089844 0.839844 -0.820312 1.019531 -0.621094 C 1.199219 -0.421875 1.441406 -0.324219 1.742188 -0.324219 C 1.996094 -0.324219 2.238281 -0.410156 2.460938 -0.578125 Z "/>
</g>
<g id="glyph-0-22">
<path d="M 0.636719 0.0625 C 0.546875 0.0625 0.472656 0.03125 0.410156 -0.03125 C 0.351562 -0.09375 0.320312 -0.167969 0.320312 -0.257812 C 0.320312 -0.34375 0.351562 -0.417969 0.410156 -0.484375 C 0.472656 -0.546875 0.546875 -0.578125 0.636719 -0.578125 C 0.722656 -0.578125 0.800781 -0.546875 0.863281 -0.484375 C 0.925781 -0.417969 0.957031 -0.34375 0.957031 -0.257812 C 0.957031 -0.167969 0.925781 -0.09375 0.863281 -0.03125 C 0.800781 0.03125 0.722656 0.0625 0.636719 0.0625 Z "/>
</g>
</g>
</defs>
<g fill="rgb(100%, 100%, 100%)" fill-opacity="1">
<use xlink:href="#glyph-0-0" x="30" y="26.293945"/>
<use xlink:href="#glyph-0-1" x="32" y="26.293945"/>
<use xlink:href="#glyph-0-2" x="34" y="26.293945"/>
<use xlink:href="#glyph-0-3" x="37" y="26.293945"/>
<use xlink:href="#glyph-0-4" x="40" y="26.293945"/>
<use xlink:href="#glyph-0-5" x="43" y="26.293945"/>
<use xlink:href="#glyph-0-1" x="44" y="26.293945"/>
<use xlink:href="#glyph-0-6" x="46" y="26.293945"/>
<use xlink:href="#glyph-0-7" x="48" y="26.293945"/>
<use xlink:href="#glyph-0-8" x="50" y="26.293945"/>
<use xlink:href="#glyph-0-9" x="53" y="26.293945"/>
<use xlink:href="#glyph-0-10" x="56" y="26.293945"/>
<use xlink:href="#glyph-0-1" x="59" y="26.293945"/>
<use xlink:href="#glyph-0-10" x="61" y="26.293945"/>
<use xlink:href="#glyph-0-5" x="64" y="26.293945"/>
<use xlink:href="#glyph-0-11" x="65" y="26.293945"/>
<use xlink:href="#glyph-0-1" x="68" y="26.293945"/>
<use xlink:href="#glyph-0-9" x="70" y="26.293945"/>
<use xlink:href="#glyph-0-10" x="73" y="26.293945"/>
<use xlink:href="#glyph-0-12" x="76" y="26.293945"/>
<use xlink:href="#glyph-0-13" x="79" y="26.293945"/>
<use xlink:href="#glyph-0-14" x="82" y="26.293945"/>
<use xlink:href="#glyph-0-9" x="85" y="26.293945"/>
<use xlink:href="#glyph-0-1" x="88" y="26.293945"/>
<use xlink:href="#glyph-0-15" x="90" y="26.293945"/>
<use xlink:href="#glyph-0-16" x="93" y="26.293945"/>
<use xlink:href="#glyph-0-1" x="96" y="26.293945"/>
<use xlink:href="#glyph-0-17" x="98" y="26.293945"/>
<use xlink:href="#glyph-0-18" x="99" y="26.293945"/>
<use xlink:href="#glyph-0-19" x="102" y="26.293945"/>
<use xlink:href="#glyph-0-1" x="107" y="26.293945"/>
<use xlink:href="#glyph-0-19" x="109" y="26.293945"/>
<use xlink:href="#glyph-0-20" x="114" y="26.293945"/>
<use xlink:href="#glyph-0-21" x="117" y="26.293945"/>
<use xlink:href="#glyph-0-22" x="120" y="26.293945"/>
</g>
</svg>
