<?xml version="1.0" encoding="UTF-8"?>
<svg xmlns="http://www.w3.org/2000/svg" xmlns:xlink="http://www.w3.org/1999/xlink" width="854" height="480" viewBox="0 0 854 480">
<defs>
<g>
<g id="glyph-0-0">
<path d="M 2.75 0 L 2.125 0 L 2.125 -4.707031 C 2.078125 -4.65625 2.007812 -4.601562 1.914062 -4.539062 C 1.824219 -4.476562 1.71875 -4.417969 1.605469 -4.355469 C 1.488281 -4.296875 1.367188 -4.238281 1.238281 -4.183594 C 1.113281 -4.132812 0.988281 -4.089844 0.867188 -4.058594 L 0.867188 -4.691406 C 1.003906 -4.726562 1.148438 -4.777344 1.300781 -4.84375 C 1.453125 -4.910156 1.605469 -4.980469 1.753906 -5.058594 C 1.902344 -5.140625 2.039062 -5.222656 2.171875 -5.3125 C 2.304688 -5.398438 2.417969 -5.484375 2.515625 -5.566406 L 2.75 -5.566406 Z "/>
</g>
<g id="glyph-0-1">
<path d="M 0.847656 0.0820312 C 0.730469 0.0820312 0.632812 0.0429688 0.546875 -0.0429688 C 0.464844 -0.125 0.425781 -0.226562 0.425781 -0.339844 C 0.425781 -0.457031 0.464844 -0.558594 0.546875 -0.644531 C 0.632812 -0.726562 0.730469 -0.769531 0.847656 -0.769531 C 0.964844 -0.769531 1.066406 -0.726562 1.152344 -0.644531 C 1.234375 -0.558594 1.277344 -0.457031 1.277344 -0.339844 C 1.277344 -0.226562 1.234375 -0.125 1.152344 -0.0429688 C 1.066406 0.0429688 0.964844 0.0820312 0.847656 0.0820312 Z "/>
</g>
<g id="glyph-0-2">
</g>
<g id="glyph-0-3">
<path d="M 6.265625 0 L 5.632812 0 L 5.632812 -3.652344 C 5.632812 -3.941406 5.648438 -4.296875 5.683594 -4.710938 L 5.667969 -4.710938 C 5.609375 -4.46875 5.554688 -4.292969 5.507812 -4.183594 L 3.644531 0 L 3.335938 0 L 1.476562 -4.15625 C 1.425781 -4.277344 1.371094 -4.460938 1.3125 -4.710938 L 1.296875 -4.710938 C 1.320312 -4.496094 1.328125 -4.140625 1.328125 -3.644531 L 1.328125 0 L 0.714844 0 L 0.714844 -5.445312 L 1.558594 -5.445312 L 3.226562 -1.648438 C 3.355469 -1.355469 3.441406 -1.140625 3.480469 -0.996094 L 3.5 -0.996094 C 3.609375 -1.292969 3.699219 -1.515625 3.761719 -1.664062 L 5.46875 -5.445312 L 6.265625 -5.445312 Z "/>
</g>
<g id="glyph-0-4">
<path d="M 3.414062 0 L 2.792969 0 L 2.792969 -0.609375 L 2.777344 -0.609375 C 2.503906 -0.140625 2.105469 0.0898438 1.578125 0.0898438 C 1.191406 0.0898438 0.890625 -0.0117188 0.671875 -0.214844 C 0.453125 -0.421875 0.339844 -0.695312 0.339844 -1.03125 C 0.339844 -1.757812 0.769531 -2.183594 1.625 -2.300781 L 2.792969 -2.464844 C 2.792969 -3.125 2.523438 -3.457031 1.988281 -3.457031 C 1.523438 -3.457031 1.097656 -3.296875 0.722656 -2.976562 L 0.722656 -3.617188 C 1.105469 -3.859375 1.542969 -3.980469 2.042969 -3.980469 C 2.957031 -3.980469 3.414062 -3.496094 3.414062 -2.527344 L 3.414062 0 M 2.792969 -1.96875 L 1.851562 -1.839844 C 1.566406 -1.796875 1.347656 -1.726562 1.199219 -1.625 C 1.054688 -1.519531 0.980469 -1.339844 0.980469 -1.078125 C 0.980469 -0.886719 1.046875 -0.734375 1.183594 -0.613281 C 1.320312 -0.492188 1.5 -0.433594 1.722656 -0.433594 C 2.03125 -0.433594 2.289062 -0.542969 2.488281 -0.757812 C 2.691406 -0.972656 2.792969 -1.25 2.792969 -1.578125 Z "/>
</g>
<g id="glyph-0-5">
<path d="M 2.433594 -0.0390625 C 2.289062 0.0429688 2.09375 0.0820312 1.851562 0.0820312 C 1.171875 0.0820312 0.832031 -0.296875 0.832031 -1.054688 L 0.832031 -3.355469 L 0.164062 -3.355469 L 0.164062 -3.890625 L 0.832031 -3.890625 L 0.832031 -4.839844 L 1.453125 -5.039062 L 1.453125 -3.890625 L 2.433594 -3.890625 L 2.433594 -3.355469 L 1.453125 -3.355469 L 1.453125 -1.164062 C 1.453125 -0.90625 1.5 -0.71875 1.585938 -0.609375 C 1.675781 -0.496094 1.824219 -0.441406 2.027344 -0.441406 C 2.183594 -0.441406 2.320312 -0.484375 2.433594 -0.570312 Z "/>
</g>
<g id="glyph-0-6">
<path d="M 2.660156 -3.257812 C 2.550781 -3.34375 2.390625 -3.382812 2.1875 -3.382812 C 1.921875 -3.382812 1.699219 -3.257812 1.519531 -3.007812 C 1.34375 -2.757812 1.253906 -2.414062 1.253906 -1.980469 L 1.253906 0 L 0.628906 0 L 0.628906 -3.890625 L 1.253906 -3.890625 L 1.253906 -3.085938 L 1.269531 -3.085938 C 1.355469 -3.359375 1.492188 -3.574219 1.675781 -3.726562 C 1.855469 -3.878906 2.0625 -3.957031 2.285156 -3.957031 C 2.449219 -3.957031 2.570312 -3.9375 2.660156 -3.902344 Z "/>
</g>
<g id="glyph-0-7">
<path d="M 3.414062 0 L 2.792969 0 L 2.792969 -0.609375 L 2.777344 -0.609375 C 2.503906 -0.140625 2.105469 0.0898438 1.578125 0.0898438 C 1.191406 0.0898438 0.890625 -0.0117188 0.671875 -0.214844 C 0.453125 -0.421875 0.339844 -0.695312 0.339844 -1.03125 C 0.339844 -1.757812 0.769531 -2.183594 1.625 -2.300781 L 2.792969 -2.464844 C 2.792969 -3.125 2.523438 -3.457031 1.988281 -3.457031 C 1.523438 -3.457031 1.097656 -3.296875 0.722656 -2.976562 L 0.722656 -3.617188 C 1.105469 -3.859375 1.542969 -3.980469 2.042969 -3.980469 C 2.957031 -3.980469 3.414062 -3.496094 3.414062 -2.527344 L 3.414062 0 M 2.792969 -1.96875 L 1.851562 -1.839844 C 1.566406 -1.796875 1.347656 -1.726562 1.199219 -1.625 C 1.054688 -1.519531 0.980469 -1.339844 0.980469 -1.078125 C 0.980469 -0.886719 1.046875 -0.734375 1.183594 -0.613281 C 1.320312 -0.492188 1.5 -0.433594 1.722656 -0.433594 C 2.03125 -0.433594 2.289062 -0.542969 2.488281 -0.757812 C 2.691406 -0.972656 2.792969 -1.25 2.792969 -1.578125 L 2.792969 -1.96875 M 3.066406 -4.625 L 2.601562 -4.625 L 1.976562 -5.5 L 1.351562 -4.625 L 0.921875 -4.625 L 1.738281 -5.886719 L 2.246094 -5.886719 L 3.066406 -4.625 M 2.03125 1.191406 C 1.929688 1.191406 1.839844 1.15625 1.765625 1.082031 C 1.691406 1.007812 1.65625 0.921875 1.65625 0.816406 C 1.65625 0.710938 1.695312 0.625 1.769531 0.554688 C 1.84375 0.488281 1.933594 0.453125 2.03125 0.453125 C 2.136719 0.453125 2.222656 0.488281 2.296875 0.554688 C 2.371094 0.625 2.40625 0.710938 2.40625 0.816406 C 2.40625 0.921875 2.371094 1.007812 2.296875 1.082031 C 2.222656 1.15625 2.136719 1.191406 2.03125 1.191406 Z "/>
</g>
<g id="glyph-0-8">
<path d="M 3.859375 0 L 3.234375 0 L 3.234375 -2.21875 C 3.234375 -3.042969 2.933594 -3.457031 2.332031 -3.457031 C 2.019531 -3.457031 1.761719 -3.339844 1.558594 -3.105469 C 1.355469 -2.871094 1.253906 -2.574219 1.253906 -2.21875 L 1.253906 0 L 0.628906 0 L 0.628906 -3.890625 L 1.253906 -3.890625 L 1.253906 -3.242188 L 1.269531 -3.242188 C 1.5625 -3.734375 1.988281 -3.980469 2.542969 -3.980469 C 2.96875 -3.980469 3.296875 -3.84375 3.519531 -3.566406 C 3.746094 -3.292969 3.859375 -2.894531 3.859375 -2.378906 Z "/>
</g>
<g id="glyph-0-9">
<path d="M 1.269531 -0.5625 L 1.253906 -0.5625 L 1.253906 0 L 0.628906 0 L 0.628906 -5.757812 L 1.253906 -5.757812 L 1.253906 -3.207031 L 1.269531 -3.207031 C 1.574219 -3.722656 2.023438 -3.980469 2.613281 -3.980469 C 3.113281 -3.980469 3.503906 -3.804688 3.785156 -3.457031 C 4.066406 -3.109375 4.207031 -2.644531 4.207031 -2.058594 C 4.207031 -1.40625 4.050781 -0.886719 3.734375 -0.496094 C 3.417969 -0.105469 2.984375 0.0898438 2.433594 0.0898438 C 1.921875 0.0898438 1.53125 -0.125 1.269531 -0.5625 M 1.253906 -2.128906 L 1.253906 -1.585938 C 1.253906 -1.265625 1.359375 -0.992188 1.566406 -0.769531 C 1.773438 -0.546875 2.039062 -0.433594 2.363281 -0.433594 C 2.738281 -0.433594 3.035156 -0.578125 3.25 -0.867188 C 3.460938 -1.15625 3.570312 -1.554688 3.570312 -2.070312 C 3.570312 -2.503906 3.46875 -2.84375 3.269531 -3.085938 C 3.070312 -3.332031 2.796875 -3.457031 2.457031 -3.457031 C 2.09375 -3.457031 1.804688 -3.328125 1.582031 -3.078125 C 1.363281 -2.824219 1.253906 -2.511719 1.253906 -2.128906 Z "/>
</g>
<g id="glyph-0-10">
<path d="M 0.949219 -4.875 C 0.839844 -4.875 0.742188 -4.914062 0.664062 -4.988281 C 0.585938 -5.066406 0.546875 -5.164062 0.546875 -5.277344 C 0.546875 -5.394531 0.585938 -5.492188 0.664062 -5.570312 C 0.742188 -5.644531 0.839844 -5.683594 0.949219 -5.683594 C 1.0625 -5.683594 1.160156 -5.644531 1.238281 -5.570312 C 1.320312 -5.492188 1.359375 -5.394531 1.359375 -5.277344 C 1.359375 -5.167969 1.320312 -5.070312 1.238281 -4.992188 C 1.160156 -4.914062 1.0625 -4.875 0.949219 -4.875 M 1.253906 0 L 0.628906 0 L 0.628906 -3.890625 L 1.253906 -3.890625 Z "/>
</g>
<g id="glyph-0-11">
<path d="M 3.753906 -1.789062 L 1.011719 -1.789062 C 1.019531 -1.355469 1.136719 -1.023438 1.359375 -0.785156 C 1.582031 -0.550781 1.886719 -0.433594 2.277344 -0.433594 C 2.714844 -0.433594 3.117188 -0.578125 3.484375 -0.867188 L 3.484375 -0.28125 C 3.144531 -0.03125 2.691406 0.0898438 2.128906 0.0898438 C 1.582031 0.0898438 1.148438 -0.0859375 0.835938 -0.4375 C 0.523438 -0.792969 0.363281 -1.289062 0.363281 -1.929688 C 0.363281 -2.535156 0.535156 -3.027344 0.878906 -3.410156 C 1.222656 -3.789062 1.648438 -3.980469 2.15625 -3.980469 C 2.664062 -3.980469 3.058594 -3.816406 3.339844 -3.484375 C 3.617188 -3.15625 3.753906 -2.699219 3.753906 -2.113281 L 3.753906 -1.789062 M 3.117188 -2.316406 C 3.117188 -2.675781 3.027344 -2.957031 2.859375 -3.15625 C 2.6875 -3.355469 2.449219 -3.457031 2.144531 -3.457031 C 1.851562 -3.457031 1.601562 -3.351562 1.398438 -3.140625 C 1.191406 -2.929688 1.066406 -2.65625 1.019531 -2.316406 L 3.117188 -2.316406 M 2.910156 -5.203125 L 3.59375 -6.136719 L 4.230469 -6.136719 L 3.390625 -5.203125 L 2.910156 -5.203125 M 3.160156 -4.625 L 2.699219 -4.625 L 2.078125 -5.1875 L 1.445312 -4.625 L 1.019531 -4.625 L 1.839844 -5.574219 L 2.339844 -5.574219 Z "/>
</g>
<g id="glyph-0-12">
<path d="M 3.949219 0 L 3.328125 0 L 3.328125 -0.660156 L 3.3125 -0.660156 C 3.023438 -0.160156 2.578125 0.0898438 1.976562 0.0898438 C 1.484375 0.0898438 1.09375 -0.0820312 0.804688 -0.429688 C 0.511719 -0.777344 0.363281 -1.253906 0.363281 -1.851562 C 0.363281 -2.496094 0.527344 -3.011719 0.851562 -3.398438 C 1.175781 -3.785156 1.605469 -3.980469 2.144531 -3.980469 C 2.671875 -3.980469 3.0625 -3.769531 3.3125 -3.347656 L 3.328125 -3.347656 L 3.328125 -4.566406 L 2.070312 -4.566406 L 2.070312 -5.074219 L 3.328125 -5.074219 L 3.328125 -5.757812 L 3.949219 -5.757812 L 3.949219 -5.074219 L 4.464844 -5.074219 L 4.464844 -4.566406 L 3.949219 -4.566406 L 3.949219 0 M 3.328125 -1.757812 L 3.328125 -2.332031 C 3.328125 -2.644531 3.222656 -2.910156 3.015625 -3.128906 C 2.808594 -3.347656 2.542969 -3.457031 2.226562 -3.457031 C 1.84375 -3.457031 1.546875 -3.316406 1.328125 -3.039062 C 1.113281 -2.757812 1.003906 -2.375 1.003906 -1.882812 C 1.003906 -1.433594 1.105469 -1.082031 1.316406 -0.820312 C 1.523438 -0.5625 1.804688 -0.433594 2.15625 -0.433594 C 2.5 -0.433594 2.78125 -0.558594 3 -0.808594 C 3.21875 -1.058594 3.328125 -1.375 3.328125 -1.757812 Z "/>
</g>
<g id="glyph-0-13">
<path d="M 2.253906 0.0898438 C 1.679688 0.0898438 1.222656 -0.0898438 0.878906 -0.453125 C 0.535156 -0.816406 0.363281 -1.296875 0.363281 -1.898438 C 0.363281 -2.550781 0.542969 -3.0625 0.898438 -3.429688 C 1.257812 -3.796875 1.738281 -3.980469 2.347656 -3.980469 C 2.925781 -3.980469 3.378906 -3.800781 3.703125 -3.445312 C 4.03125 -3.085938 4.191406 -2.59375 4.191406 -1.960938 C 4.191406 -1.339844 4.015625 -0.84375 3.667969 -0.46875 C 3.316406 -0.09375 2.84375 0.0898438 2.253906 0.0898438 M 2.300781 -3.457031 C 1.902344 -3.457031 1.585938 -3.320312 1.351562 -3.046875 C 1.117188 -2.773438 1.003906 -2.398438 1.003906 -1.921875 C 1.003906 -1.460938 1.121094 -1.097656 1.355469 -0.832031 C 1.589844 -0.566406 1.90625 -0.433594 2.300781 -0.433594 C 2.703125 -0.433594 3.011719 -0.5625 3.230469 -0.824219 C 3.445312 -1.085938 3.554688 -1.457031 3.554688 -1.9375 C 3.554688 -2.421875 3.445312 -2.796875 3.230469 -3.0625 C 3.011719 -3.324219 2.703125 -3.457031 2.300781 -3.457031 M 3.117188 -6.539062 C 3.207031 -6.550781 3.308594 -6.554688 3.421875 -6.554688 C 3.648438 -6.554688 3.828125 -6.503906 3.96875 -6.398438 C 4.109375 -6.292969 4.179688 -6.148438 4.179688 -5.964844 C 4.179688 -5.8125 4.132812 -5.683594 4.039062 -5.578125 C 3.945312 -5.472656 3.824219 -5.410156 3.679688 -5.390625 L 3.679688 -5.203125 L 3.265625 -5.203125 L 3.265625 -5.640625 C 3.550781 -5.640625 3.695312 -5.734375 3.695312 -5.925781 C 3.695312 -6.085938 3.574219 -6.167969 3.335938 -6.167969 C 3.292969 -6.167969 3.21875 -6.15625 3.117188 -6.136719 L 3.117188 -6.539062 M 3.414062 -4.625 L 2.957031 -4.625 L 2.335938 -5.1875 L 1.707031 -4.625 L 1.28125 -4.625 L 2.09375 -5.574219 L 2.601562 -5.574219 Z "/>
</g>
<g id="glyph-0-14">
<path d="M 6.152344 0 L 5.527344 0 L 5.527344 -2.234375 C 5.527344 -2.664062 5.460938 -2.976562 5.328125 -3.167969 C 5.195312 -3.359375 4.972656 -3.457031 4.660156 -3.457031 C 4.394531 -3.457031 4.167969 -3.335938 3.980469 -3.089844 C 3.796875 -2.847656 3.703125 -2.558594 3.703125 -2.21875 L 3.703125 0 L 3.078125 0 L 3.078125 -2.308594 C 3.078125 -3.074219 2.785156 -3.457031 2.195312 -3.457031 C 1.921875 -3.457031 1.695312 -3.339844 1.519531 -3.113281 C 1.339844 -2.882812 1.253906 -2.585938 1.253906 -2.21875 L 1.253906 0 L 0.628906 0 L 0.628906 -3.890625 L 1.253906 -3.890625 L 1.253906 -3.273438 L 1.269531 -3.273438 C 1.542969 -3.746094 1.945312 -3.980469 2.476562 -3.980469 C 2.742188 -3.980469 2.972656 -3.90625 3.171875 -3.757812 C 3.367188 -3.609375 3.503906 -3.414062 3.578125 -3.175781 C 3.867188 -3.710938 4.296875 -3.980469 4.867188 -3.980469 C 5.722656 -3.980469 6.152344 -3.453125 6.152344 -2.394531 Z "/>
</g>
<g id="glyph-0-15">
<path d="M 3.414062 0 L 2.792969 0 L 2.792969 -0.609375 L 2.777344 -0.609375 C 2.503906 -0.140625 2.105469 0.0898438 1.578125 0.0898438 C 1.191406 0.0898438 0.890625 -0.0117188 0.671875 -0.214844 C 0.453125 -0.421875 0.339844 -0.695312 0.339844 -1.03125 C 0.339844 -1.757812 0.769531 -2.183594 1.625 -2.300781 L 2.792969 -2.464844 C 2.792969 -3.125 2.523438 -3.457031 1.988281 -3.457031 C 1.523438 -3.457031 1.097656 -3.296875 0.722656 -2.976562 L 0.722656 -3.617188 C 1.105469 -3.859375 1.542969 -3.980469 2.042969 -3.980469 C 2.957031 -3.980469 3.414062 -3.496094 3.414062 -2.527344 L 3.414062 0 M 2.792969 -1.96875 L 1.851562 -1.839844 C 1.566406 -1.796875 1.347656 -1.726562 1.199219 -1.625 C 1.054688 -1.519531 0.980469 -1.339844 0.980469 -1.078125 C 0.980469 -0.886719 1.046875 -0.734375 1.183594 -0.613281 C 1.320312 -0.492188 1.5 -0.433594 1.722656 -0.433594 C 2.03125 -0.433594 2.289062 -0.542969 2.488281 -0.757812 C 2.691406 -0.972656 2.792969 -1.25 2.792969 -1.578125 L 2.792969 -1.96875 M 3.0625 -5.582031 C 3.035156 -5.296875 2.921875 -5.066406 2.726562 -4.890625 C 2.527344 -4.714844 2.285156 -4.625 2 -4.625 C 1.707031 -4.625 1.464844 -4.710938 1.277344 -4.886719 C 1.089844 -5.0625 0.988281 -5.292969 0.976562 -5.582031 L 1.355469 -5.582031 C 1.386719 -5.191406 1.605469 -4.992188 2.007812 -4.992188 C 2.179688 -4.992188 2.328125 -5.046875 2.453125 -5.152344 C 2.574219 -5.257812 2.648438 -5.402344 2.671875 -5.582031 L 3.0625 -5.582031 M 2.03125 1.191406 C 1.929688 1.191406 1.839844 1.15625 1.765625 1.082031 C 1.691406 1.007812 1.65625 0.921875 1.65625 0.816406 C 1.65625 0.710938 1.695312 0.625 1.769531 0.554688 C 1.84375 0.488281 1.933594 0.453125 2.03125 0.453125 C 2.136719 0.453125 2.222656 0.488281 2.296875 0.554688 C 2.371094 0.625 2.40625 0.710938 2.40625 0.816406 C 2.40625 0.921875 2.371094 1.007812 2.296875 1.082031 C 2.222656 1.15625 2.136719 1.191406 2.03125 1.191406 Z "/>
</g>
<g id="glyph-0-16">
<path d="M 1.269531 -0.5625 L 1.253906 -0.5625 L 1.253906 1.789062 L 0.628906 1.789062 L 0.628906 -3.890625 L 1.253906 -3.890625 L 1.253906 -3.207031 L 1.269531 -3.207031 C 1.574219 -3.722656 2.023438 -3.980469 2.613281 -3.980469 C 3.113281 -3.980469 3.503906 -3.804688 3.785156 -3.457031 C 4.066406 -3.109375 4.207031 -2.644531 4.207031 -2.058594 C 4.207031 -1.40625 4.050781 -0.886719 3.734375 -0.496094 C 3.417969 -0.105469 2.984375 0.0898438 2.433594 0.0898438 C 1.929688 0.0898438 1.542969 -0.125 1.269531 -0.5625 M 1.253906 -2.128906 L 1.253906 -1.585938 C 1.253906 -1.265625 1.359375 -0.992188 1.566406 -0.769531 C 1.773438 -0.546875 2.039062 -0.433594 2.363281 -0.433594 C 2.738281 -0.433594 3.035156 -0.578125 3.25 -0.867188 C 3.460938 -1.15625 3.570312 -1.554688 3.570312 -2.070312 C 3.570312 -2.503906 3.46875 -2.84375 3.269531 -3.085938 C 3.070312 -3.332031 2.796875 -3.457031 2.457031 -3.457031 C 2.09375 -3.457031 1.804688 -3.328125 1.582031 -3.078125 C 1.363281 -2.824219 1.253906 -2.511719 1.253906 -2.128906 Z "/>
</g>
<g id="glyph-0-17">
<path d="M 3.859375 0 L 3.234375 0 L 3.234375 -2.242188 C 3.234375 -3.050781 2.933594 -3.457031 2.332031 -3.457031 C 2.027344 -3.457031 1.773438 -3.339844 1.566406 -3.105469 C 1.355469 -2.871094 1.253906 -2.570312 1.253906 -2.203125 L 1.253906 0 L 0.628906 0 L 0.628906 -5.757812 L 1.253906 -5.757812 L 1.253906 -3.242188 L 1.269531 -3.242188 C 1.566406 -3.734375 1.992188 -3.980469 2.542969 -3.980469 C 3.421875 -3.980469 3.859375 -3.453125 3.859375 -2.394531 Z "/>
</g>
<g id="glyph-0-18">
<path d="M 3.414062 0 L 2.792969 0 L 2.792969 -0.609375 L 2.777344 -0.609375 C 2.503906 -0.140625 2.105469 0.0898438 1.578125 0.0898438 C 1.191406 0.0898438 0.890625 -0.0117188 0.671875 -0.214844 C 0.453125 -0.421875 0.339844 -0.695312 0.339844 -1.03125 C 0.339844 -1.757812 0.769531 -2.183594 1.625 -2.300781 L 2.792969 -2.464844 C 2.792969 -3.125 2.523438 -3.457031 1.988281 -3.457031 C 1.523438 -3.457031 1.097656 -3.296875 0.722656 -2.976562 L 0.722656 -3.617188 C 1.105469 -3.859375 1.542969 -3.980469 2.042969 -3.980469 C 2.957031 -3.980469 3.414062 -3.496094 3.414062 -2.527344 L 3.414062 0 M 2.792969 -1.96875 L 1.851562 -1.839844 C 1.566406 -1.796875 1.347656 -1.726562 1.199219 -1.625 C 1.054688 -1.519531 0.980469 -1.339844 0.980469 -1.078125 C 0.980469 -0.886719 1.046875 -0.734375 1.183594 -0.613281 C 1.320312 -0.492188 1.5 -0.433594 1.722656 -0.433594 C 2.03125 -0.433594 2.289062 -0.542969 2.488281 -0.757812 C 2.691406 -0.972656 2.792969 -1.25 2.792969 -1.578125 L 2.792969 -1.96875 M 1.648438 -6.828125 C 1.742188 -6.839844 1.84375 -6.84375 1.949219 -6.84375 C 2.179688 -6.84375 2.363281 -6.789062 2.503906 -6.683594 C 2.644531 -6.578125 2.714844 -6.433594 2.714844 -6.25 C 2.714844 -6.097656 2.664062 -5.96875 2.5625 -5.863281 C 2.460938 -5.757812 2.34375 -5.695312 2.207031 -5.675781 L 2.207031 -5.492188 L 1.796875 -5.492188 L 1.796875 -5.925781 C 2.078125 -5.925781 2.222656 -6.019531 2.222656 -6.210938 C 2.222656 -6.375 2.101562 -6.457031 1.863281 -6.457031 C 1.820312 -6.457031 1.75 -6.445312 1.648438 -6.425781 L 1.648438 -6.828125 M 3.09375 -5.582031 C 3.070312 -5.296875 2.957031 -5.066406 2.757812 -4.890625 C 2.558594 -4.714844 2.320312 -4.625 2.035156 -4.625 C 1.738281 -4.625 1.496094 -4.710938 1.308594 -4.886719 C 1.121094 -5.0625 1.023438 -5.292969 1.011719 -5.582031 L 1.390625 -5.582031 C 1.417969 -5.242188 1.636719 -5.074219 2.042969 -5.074219 C 2.441406 -5.074219 2.660156 -5.242188 2.707031 -5.582031 Z "/>
</g>
<g id="glyph-0-19">
<path d="M 3.949219 -0.3125 C 3.949219 1.117188 3.265625 1.832031 1.898438 1.832031 C 1.417969 1.832031 0.996094 1.738281 0.636719 1.558594 L 0.636719 0.933594 C 1.074219 1.175781 1.492188 1.296875 1.890625 1.296875 C 2.847656 1.296875 3.328125 0.789062 3.328125 -0.226562 L 3.328125 -0.652344 L 3.3125 -0.652344 C 3.015625 -0.15625 2.570312 0.0898438 1.976562 0.0898438 C 1.492188 0.0898438 1.101562 -0.0820312 0.808594 -0.425781 C 0.511719 -0.773438 0.363281 -1.238281 0.363281 -1.820312 C 0.363281 -2.480469 0.523438 -3.003906 0.839844 -3.394531 C 1.160156 -3.785156 1.59375 -3.980469 2.144531 -3.980469 C 2.667969 -3.980469 3.058594 -3.769531 3.3125 -3.347656 L 3.328125 -3.347656 L 3.328125 -3.890625 L 3.949219 -3.890625 L 3.949219 -0.3125 M 3.328125 -1.757812 L 3.328125 -2.332031 C 3.328125 -2.640625 3.222656 -2.90625 3.011719 -3.125 C 2.804688 -3.34375 2.542969 -3.457031 2.234375 -3.457031 C 1.847656 -3.457031 1.546875 -3.316406 1.328125 -3.035156 C 1.113281 -2.757812 1.003906 -2.363281 1.003906 -1.859375 C 1.003906 -1.429688 1.105469 -1.082031 1.316406 -0.820312 C 1.523438 -0.5625 1.800781 -0.433594 2.144531 -0.433594 C 2.496094 -0.433594 2.777344 -0.558594 3 -0.804688 C 3.21875 -1.054688 3.328125 -1.371094 3.328125 -1.757812 Z "/>
</g>
</g>
</defs>
<g fill="rgb(99.215686%, 87.843137%, 27.843137%)" fill-opacity="1">
<use xlink:href="#glyph-0-0" x="30" y="28.392578"/>
<use xlink:href="#glyph-0-1" x="34" y="28.392578"/>
<use xlink:href="#glyph-0-2" x="36" y="28.392578"/>
<use xlink:href="#glyph-0-3" x="38" y="28.392578"/>
<use xlink:href="#glyph-0-4" x="45" y="28.392578"/>
<use xlink:href="#glyph-0-2" x="49" y="28.392578"/>
<use xlink:href="#glyph-0-5" x="51" y="28.392578"/>
<use xlink:href="#glyph-0-6" x="54" y="28.392578"/>
<use xlink:href="#glyph-0-7" x="57" y="28.392578"/>
<use xlink:href="#glyph-0-8" x="61" y="28.392578"/>
<use xlink:href="#glyph-0-2" x="65" y="28.392578"/>
<use xlink:href="#glyph-0-9" x="67" y="28.392578"/>
<use xlink:href="#glyph-0-10" x="72" y="28.392578"/>
<use xlink:href="#glyph-0-11" x="74" y="28.392578"/>
<use xlink:href="#glyph-0-8" x="78" y="28.392578"/>
<use xlink:href="#glyph-0-2" x="82" y="28.392578"/>
<use xlink:href="#glyph-0-12" x="84" y="28.392578"/>
<use xlink:href="#glyph-0-13" x="89" y="28.392578"/>
<use xlink:href="#glyph-0-10" x="94" y="28.392578"/>
<use xlink:href="#glyph-0-2" x="96" y="28.392578"/>
<use xlink:href="#glyph-0-14" x="98" y="28.392578"/>
<use xlink:href="#glyph-0-15" x="105" y="28.392578"/>
<use xlink:href="#glyph-0-5" x="109" y="28.392578"/>
<use xlink:href="#glyph-0-2" x="112" y="28.392578"/>
<use xlink:href="#glyph-0-16" x="114" y="28.392578"/>
<use xlink:href="#glyph-0-17" x="119" y="28.392578"/>
<use xlink:href="#glyph-0-18" x="123" y="28.392578"/>
<use xlink:href="#glyph-0-8" x="127" y="28.392578"/>
<use xlink:href="#glyph-0-19" x="131" y="28.392578"/>
</g>
</svg>
