<?xml version="1.0" encoding="UTF-8"?>
<svg xmlns="http://www.w3.org/2000/svg" xmlns:xlink="http://www.w3.org/1999/xlink" width="854" height="480" viewBox="0 0 854 480">
<defs>
<g>
<g id="glyph-0-0">
<path d="M 2.84375 -1.210938 C 2.84375 -1.019531 2.808594 -0.84375 2.734375 -0.683594 C 2.660156 -0.527344 2.558594 -0.390625 2.425781 -0.277344 C 2.296875 -0.167969 2.136719 -0.078125 1.953125 -0.0195312 C 1.765625 0.0429688 1.5625 0.0742188 1.339844 0.0742188 C 0.933594 0.0742188 0.609375 -0.00390625 0.367188 -0.15625 L 0.367188 -0.683594 C 0.65625 -0.457031 0.984375 -0.34375 1.359375 -0.34375 C 1.507812 -0.34375 1.640625 -0.363281 1.761719 -0.398438 C 1.882812 -0.4375 1.984375 -0.492188 2.070312 -0.5625 C 2.160156 -0.636719 2.226562 -0.722656 2.273438 -0.824219 C 2.320312 -0.925781 2.34375 -1.039062 2.34375 -1.167969 C 2.34375 -1.726562 1.945312 -2.003906 1.148438 -2.003906 L 0.792969 -2.003906 L 0.792969 -2.417969 L 1.128906 -2.417969 C 1.835938 -2.417969 2.1875 -2.683594 2.1875 -3.207031 C 2.1875 -3.691406 1.917969 -3.933594 1.382812 -3.933594 C 1.078125 -3.933594 0.796875 -3.835938 0.53125 -3.632812 L 0.53125 -4.105469 C 0.804688 -4.269531 1.128906 -4.351562 1.503906 -4.351562 C 1.683594 -4.351562 1.84375 -4.324219 1.988281 -4.277344 C 2.136719 -4.226562 2.257812 -4.15625 2.363281 -4.066406 C 2.464844 -3.976562 2.546875 -3.871094 2.601562 -3.746094 C 2.660156 -3.621094 2.6875 -3.480469 2.6875 -3.328125 C 2.6875 -2.765625 2.402344 -2.40625 1.835938 -2.242188 L 1.835938 -2.230469 C 1.980469 -2.214844 2.113281 -2.179688 2.238281 -2.125 C 2.359375 -2.070312 2.46875 -2 2.558594 -1.914062 C 2.648438 -1.824219 2.714844 -1.722656 2.765625 -1.605469 C 2.816406 -1.484375 2.84375 -1.355469 2.84375 -1.210938 Z "/>
</g>
<g id="glyph-0-1">
<path d="M 0.664062 0.0664062 C 0.574219 0.0664062 0.496094 0.03125 0.429688 -0.03125 C 0.367188 -0.0976562 0.335938 -0.175781 0.335938 -0.269531 C 0.335938 -0.359375 0.367188 -0.4375 0.429688 -0.503906 C 0.496094 -0.574219 0.574219 -0.605469 0.664062 -0.605469 C 0.757812 -0.605469 0.839844 -0.574219 0.902344 -0.503906 C 0.96875 -0.4375 1.003906 -0.359375 1.003906 -0.269531 C 1.003906 -0.175781 0.96875 -0.0976562 0.902344 -0.03125 C 0.839844 0.03125 0.757812 0.0664062 0.664062 0.0664062 Z "/>
</g>
<g id="glyph-0-2">
</g>
<g id="glyph-0-3">
<path d="M 3.089844 -3.824219 L 1.855469 -3.824219 L 1.855469 0 L 1.355469 0 L 1.355469 -3.824219 L 0.121094 -3.824219 L 0.121094 -4.277344 L 3.089844 -4.277344 Z "/>
</g>
<g id="glyph-0-4">
<path d="M 2.089844 -2.558594 C 2.003906 -2.625 1.878906 -2.660156 1.71875 -2.660156 C 1.511719 -2.660156 1.335938 -2.558594 1.195312 -2.363281 C 1.054688 -2.167969 0.984375 -1.898438 0.984375 -1.558594 L 0.984375 0 L 0.496094 0 L 0.496094 -3.054688 L 0.984375 -3.054688 L 0.984375 -2.425781 L 0.996094 -2.425781 C 1.066406 -2.640625 1.171875 -2.808594 1.316406 -2.929688 C 1.460938 -3.050781 1.621094 -3.109375 1.796875 -3.109375 C 1.921875 -3.109375 2.019531 -3.09375 2.089844 -3.066406 Z "/>
</g>
<g id="glyph-0-5">
<path d="M 2.964844 0 L 2.476562 0 L 2.476562 -0.484375 L 2.464844 -0.484375 C 2.261719 -0.113281 1.949219 0.0703125 1.523438 0.0703125 C 0.792969 0.0703125 0.429688 -0.363281 0.429688 -1.230469 L 0.429688 -3.054688 L 0.914062 -3.054688 L 0.914062 -1.308594 C 0.914062 -0.664062 1.164062 -0.339844 1.65625 -0.339844 C 1.894531 -0.339844 2.089844 -0.429688 2.246094 -0.605469 C 2.398438 -0.78125 2.476562 -1.011719 2.476562 -1.296875 L 2.476562 -3.054688 L 2.964844 -3.054688 L 2.964844 0 M 2.105469 -3.632812 L 1.722656 -3.632812 L 0.941406 -4.613281 L 1.445312 -4.613281 Z "/>
</g>
<g id="glyph-0-6">
<path d="M 3.03125 0 L 2.542969 0 L 2.542969 -1.742188 C 2.542969 -2.390625 2.304688 -2.714844 1.832031 -2.714844 C 1.585938 -2.714844 1.386719 -2.625 1.226562 -2.4375 C 1.066406 -2.253906 0.984375 -2.023438 0.984375 -1.742188 L 0.984375 0 L 0.496094 0 L 0.496094 -3.054688 L 0.984375 -3.054688 L 0.984375 -2.546875 L 0.996094 -2.546875 C 1.226562 -2.933594 1.5625 -3.125 2 -3.125 C 2.332031 -3.125 2.589844 -3.019531 2.765625 -2.804688 C 2.941406 -2.585938 3.03125 -2.277344 3.03125 -1.867188 Z "/>
</g>
<g id="glyph-0-7">
<path d="M 3.101562 -0.246094 C 3.101562 0.878906 2.566406 1.4375 1.492188 1.4375 C 1.113281 1.4375 0.785156 1.367188 0.5 1.222656 L 0.5 0.734375 C 0.84375 0.925781 1.171875 1.019531 1.484375 1.019531 C 2.238281 1.019531 2.613281 0.621094 2.613281 -0.179688 L 2.613281 -0.511719 L 2.601562 -0.511719 C 2.367188 -0.125 2.019531 0.0703125 1.550781 0.0703125 C 1.171875 0.0703125 0.867188 -0.0625 0.632812 -0.335938 C 0.402344 -0.605469 0.285156 -0.972656 0.285156 -1.429688 C 0.285156 -1.949219 0.410156 -2.359375 0.660156 -2.667969 C 0.910156 -2.972656 1.253906 -3.125 1.6875 -3.125 C 2.097656 -3.125 2.402344 -2.960938 2.601562 -2.632812 L 2.613281 -2.632812 L 2.613281 -3.054688 L 3.101562 -3.054688 L 3.101562 -0.246094 M 2.613281 -1.382812 L 2.613281 -1.832031 C 2.613281 -2.074219 2.53125 -2.28125 2.367188 -2.457031 C 2.203125 -2.628906 2 -2.714844 1.753906 -2.714844 C 1.453125 -2.714844 1.214844 -2.605469 1.042969 -2.386719 C 0.875 -2.164062 0.789062 -1.859375 0.789062 -1.460938 C 0.789062 -1.121094 0.871094 -0.851562 1.035156 -0.644531 C 1.199219 -0.441406 1.414062 -0.339844 1.6875 -0.339844 C 1.960938 -0.339844 2.183594 -0.4375 2.355469 -0.632812 C 2.527344 -0.828125 2.613281 -1.078125 2.613281 -1.382812 Z "/>
</g>
<g id="glyph-0-8">
<path d="M 3.03125 0 L 2.542969 0 L 2.542969 -1.761719 C 2.542969 -2.398438 2.304688 -2.714844 1.832031 -2.714844 C 1.59375 -2.714844 1.390625 -2.625 1.230469 -2.4375 C 1.066406 -2.253906 0.984375 -2.019531 0.984375 -1.730469 L 0.984375 0 L 0.496094 0 L 0.496094 -4.523438 L 0.984375 -4.523438 L 0.984375 -2.546875 L 0.996094 -2.546875 C 1.230469 -2.933594 1.566406 -3.125 2 -3.125 C 2.6875 -3.125 3.03125 -2.710938 3.03125 -1.882812 Z "/>
</g>
<g id="glyph-0-9">
<path d="M 2.683594 0 L 2.191406 0 L 2.191406 -0.476562 L 2.179688 -0.476562 C 1.96875 -0.113281 1.65625 0.0703125 1.242188 0.0703125 C 0.9375 0.0703125 0.699219 -0.0078125 0.527344 -0.171875 C 0.355469 -0.332031 0.269531 -0.546875 0.269531 -0.8125 C 0.269531 -1.382812 0.605469 -1.714844 1.277344 -1.808594 L 2.191406 -1.9375 C 2.191406 -2.457031 1.984375 -2.714844 1.5625 -2.714844 C 1.195312 -2.714844 0.863281 -2.589844 0.566406 -2.339844 L 0.566406 -2.839844 C 0.867188 -3.03125 1.214844 -3.125 1.605469 -3.125 C 2.324219 -3.125 2.683594 -2.746094 2.683594 -1.988281 L 2.683594 0 M 2.191406 -1.546875 L 1.457031 -1.445312 C 1.230469 -1.414062 1.058594 -1.355469 0.941406 -1.277344 C 0.828125 -1.195312 0.769531 -1.050781 0.769531 -0.847656 C 0.769531 -0.699219 0.824219 -0.578125 0.929688 -0.480469 C 1.035156 -0.386719 1.175781 -0.339844 1.355469 -0.339844 C 1.597656 -0.339844 1.796875 -0.425781 1.957031 -0.59375 C 2.113281 -0.765625 2.191406 -0.980469 2.191406 -1.242188 Z "/>
</g>
<g id="glyph-0-10">
<path d="M 2.964844 0 L 2.476562 0 L 2.476562 -0.484375 L 2.464844 -0.484375 C 2.261719 -0.113281 1.949219 0.0703125 1.523438 0.0703125 C 0.792969 0.0703125 0.429688 -0.363281 0.429688 -1.230469 L 0.429688 -3.054688 L 0.914062 -3.054688 L 0.914062 -1.308594 C 0.914062 -0.664062 1.164062 -0.339844 1.65625 -0.339844 C 1.894531 -0.339844 2.089844 -0.429688 2.246094 -0.605469 C 2.398438 -0.78125 2.476562 -1.011719 2.476562 -1.296875 L 2.476562 -3.054688 L 2.964844 -3.054688 Z "/>
</g>
<g id="glyph-0-11">
<path d="M 0.6875 -1.980469 L 4.238281 -1.980469 L 3.871094 -2.339844 L 3.871094 -2.78125 L 4.828125 -1.789062 L 4.828125 -1.777344 L 3.871094 -0.789062 L 3.871094 -1.230469 L 4.234375 -1.582031 L 0.6875 -1.582031 Z "/>
</g>
<g id="glyph-0-12">
<path d="M 2.898438 -3.054688 L 1.679688 0 L 1.199219 0 L 0.0429688 -3.054688 L 0.578125 -3.054688 L 1.355469 -0.835938 C 1.414062 -0.671875 1.449219 -0.53125 1.460938 -0.410156 L 1.472656 -0.410156 C 1.492188 -0.5625 1.527344 -0.699219 1.570312 -0.824219 L 2.382812 -3.054688 Z "/>
</g>
<g id="glyph-0-13">
<path d="M 1.773438 0.0703125 C 1.320312 0.0703125 0.960938 -0.0703125 0.691406 -0.355469 C 0.421875 -0.640625 0.285156 -1.019531 0.285156 -1.492188 C 0.285156 -2.003906 0.425781 -2.40625 0.707031 -2.695312 C 0.988281 -2.984375 1.367188 -3.125 1.84375 -3.125 C 2.300781 -3.125 2.65625 -2.988281 2.910156 -2.707031 C 3.167969 -2.425781 3.292969 -2.035156 3.292969 -1.539062 C 3.292969 -1.050781 3.15625 -0.660156 2.878906 -0.367188 C 2.605469 -0.0742188 2.234375 0.0703125 1.773438 0.0703125 M 1.808594 -2.714844 C 1.492188 -2.714844 1.246094 -2.609375 1.0625 -2.394531 C 0.878906 -2.179688 0.789062 -1.886719 0.789062 -1.511719 C 0.789062 -1.148438 0.878906 -0.863281 1.066406 -0.652344 C 1.25 -0.445312 1.496094 -0.339844 1.808594 -0.339844 C 2.125 -0.339844 2.367188 -0.441406 2.539062 -0.648438 C 2.707031 -0.851562 2.792969 -1.144531 2.792969 -1.523438 C 2.792969 -1.902344 2.707031 -2.199219 2.539062 -2.40625 C 2.367188 -2.613281 2.125 -2.714844 1.808594 -2.714844 M 2.640625 -3.632812 L 2.277344 -3.632812 L 1.789062 -4.320312 L 1.296875 -3.632812 L 0.957031 -3.632812 L 1.597656 -4.625 L 1.996094 -4.625 Z "/>
</g>
<g id="glyph-0-14">
<path d="M 0.308594 -0.109375 L 0.308594 -0.636719 C 0.578125 -0.4375 0.871094 -0.339844 1.191406 -0.339844 C 1.621094 -0.339844 1.835938 -0.484375 1.835938 -0.769531 C 1.835938 -0.851562 1.816406 -0.921875 1.78125 -0.976562 C 1.742188 -1.035156 1.691406 -1.085938 1.628906 -1.128906 C 1.566406 -1.171875 1.496094 -1.210938 1.410156 -1.246094 C 1.324219 -1.28125 1.234375 -1.316406 1.136719 -1.355469 C 1 -1.410156 0.882812 -1.460938 0.78125 -1.515625 C 0.679688 -1.570312 0.59375 -1.632812 0.523438 -1.703125 C 0.453125 -1.769531 0.402344 -1.847656 0.367188 -1.9375 C 0.332031 -2.023438 0.316406 -2.125 0.316406 -2.242188 C 0.316406 -2.386719 0.347656 -2.515625 0.414062 -2.625 C 0.480469 -2.734375 0.566406 -2.828125 0.675781 -2.902344 C 0.785156 -2.976562 0.910156 -3.03125 1.050781 -3.070312 C 1.191406 -3.109375 1.335938 -3.125 1.484375 -3.125 C 1.75 -3.125 1.988281 -3.082031 2.195312 -2.988281 L 2.195312 -2.496094 C 1.972656 -2.640625 1.710938 -2.714844 1.421875 -2.714844 C 1.328125 -2.714844 1.246094 -2.703125 1.171875 -2.683594 C 1.097656 -2.664062 1.035156 -2.632812 0.984375 -2.597656 C 0.929688 -2.558594 0.890625 -2.511719 0.859375 -2.460938 C 0.832031 -2.40625 0.816406 -2.347656 0.816406 -2.285156 C 0.816406 -2.207031 0.832031 -2.140625 0.859375 -2.085938 C 0.890625 -2.03125 0.933594 -1.984375 0.988281 -1.941406 C 1.042969 -1.902344 1.109375 -1.863281 1.191406 -1.828125 C 1.269531 -1.796875 1.359375 -1.757812 1.460938 -1.71875 C 1.597656 -1.667969 1.71875 -1.613281 1.824219 -1.558594 C 1.933594 -1.503906 2.023438 -1.441406 2.101562 -1.375 C 2.175781 -1.304688 2.234375 -1.226562 2.273438 -1.136719 C 2.316406 -1.046875 2.335938 -0.941406 2.335938 -0.816406 C 2.335938 -0.667969 2.304688 -0.535156 2.234375 -0.421875 C 2.167969 -0.3125 2.082031 -0.21875 1.96875 -0.144531 C 1.859375 -0.0742188 1.730469 -0.0195312 1.585938 0.0195312 C 1.4375 0.0546875 1.285156 0.0703125 1.128906 0.0703125 C 0.8125 0.0703125 0.542969 0.0117188 0.308594 -0.109375 Z "/>
</g>
<g id="glyph-0-15">
<path d="M 1.773438 0.0703125 C 1.320312 0.0703125 0.960938 -0.0703125 0.691406 -0.355469 C 0.421875 -0.640625 0.285156 -1.019531 0.285156 -1.492188 C 0.285156 -2.003906 0.425781 -2.40625 0.707031 -2.695312 C 0.988281 -2.984375 1.367188 -3.125 1.84375 -3.125 C 2.300781 -3.125 2.65625 -2.988281 2.910156 -2.707031 C 3.167969 -2.425781 3.292969 -2.035156 3.292969 -1.539062 C 3.292969 -1.050781 3.15625 -0.660156 2.878906 -0.367188 C 2.605469 -0.0742188 2.234375 0.0703125 1.773438 0.0703125 M 1.808594 -2.714844 C 1.492188 -2.714844 1.246094 -2.609375 1.0625 -2.394531 C 0.878906 -2.179688 0.789062 -1.886719 0.789062 -1.511719 C 0.789062 -1.148438 0.878906 -0.863281 1.066406 -0.652344 C 1.25 -0.445312 1.496094 -0.339844 1.808594 -0.339844 C 2.125 -0.339844 2.367188 -0.441406 2.539062 -0.648438 C 2.707031 -0.851562 2.792969 -1.144531 2.792969 -1.523438 C 2.792969 -1.902344 2.707031 -2.199219 2.539062 -2.40625 C 2.367188 -2.613281 2.125 -2.714844 1.808594 -2.714844 M 2.46875 -4.085938 L 3.007812 -4.820312 L 3.507812 -4.820312 L 2.847656 -4.085938 L 2.46875 -4.085938 M 2.667969 -3.632812 L 2.304688 -3.632812 L 1.816406 -4.074219 L 1.320312 -3.632812 L 0.984375 -3.632812 L 1.628906 -4.378906 L 2.023438 -4.378906 Z "/>
</g>
<g id="glyph-1-0">
<path d="M 3.03125 0 L 2.542969 0 L 2.542969 -1.742188 C 2.542969 -2.390625 2.304688 -2.714844 1.832031 -2.714844 C 1.585938 -2.714844 1.386719 -2.625 1.226562 -2.4375 C 1.066406 -2.253906 0.984375 -2.023438 0.984375 -1.742188 L 0.984375 0 L 0.496094 0 L 0.496094 -3.054688 L 0.984375 -3.054688 L 0.984375 -2.546875 L 0.996094 -2.546875 C 1.226562 -2.933594 1.5625 -3.125 2 -3.125 C 2.332031 -3.125 2.589844 -3.019531 2.765625 -2.804688 C 2.941406 -2.585938 3.03125 -2.277344 3.03125 -1.867188 Z "/>
</g>
<g id="glyph-1-1">
<path d="M 3.101562 -0.246094 C 3.101562 0.878906 2.566406 1.4375 1.492188 1.4375 C 1.113281 1.4375 0.785156 1.367188 0.5 1.222656 L 0.5 0.734375 C 0.84375 0.925781 1.171875 1.019531 1.484375 1.019531 C 2.238281 1.019531 2.613281 0.621094 2.613281 -0.179688 L 2.613281 -0.511719 L 2.601562 -0.511719 C 2.367188 -0.125 2.019531 0.0703125 1.550781 0.0703125 C 1.171875 0.0703125 0.867188 -0.0625 0.632812 -0.335938 C 0.402344 -0.605469 0.285156 -0.972656 0.285156 -1.429688 C 0.285156 -1.949219 0.410156 -2.359375 0.660156 -2.667969 C 0.910156 -2.972656 1.253906 -3.125 1.6875 -3.125 C 2.097656 -3.125 2.402344 -2.960938 2.601562 -2.632812 L 2.613281 -2.632812 L 2.613281 -3.054688 L 3.101562 -3.054688 L 3.101562 -0.246094 M 2.613281 -1.382812 L 2.613281 -1.832031 C 2.613281 -2.074219 2.53125 -2.28125 2.367188 -2.457031 C 2.203125 -2.628906 2 -2.714844 1.753906 -2.714844 C 1.453125 -2.714844 1.214844 -2.605469 1.042969 -2.386719 C 0.875 -2.164062 0.789062 -1.859375 0.789062 -1.460938 C 0.789062 -1.121094 0.871094 -0.851562 1.035156 -0.644531 C 1.199219 -0.441406 1.414062 -0.339844 1.6875 -0.339844 C 1.960938 -0.339844 2.183594 -0.4375 2.355469 -0.632812 C 2.527344 -0.828125 2.613281 -1.078125 2.613281 -1.382812 Z "/>
</g>
<g id="glyph-1-2">
<path d="M 3.03125 0 L 2.542969 0 L 2.542969 -1.761719 C 2.542969 -2.398438 2.304688 -2.714844 1.832031 -2.714844 C 1.59375 -2.714844 1.390625 -2.625 1.230469 -2.4375 C 1.066406 -2.253906 0.984375 -2.019531 0.984375 -1.730469 L 0.984375 0 L 0.496094 0 L 0.496094 -4.523438 L 0.984375 -4.523438 L 0.984375 -2.546875 L 0.996094 -2.546875 C 1.230469 -2.933594 1.566406 -3.125 2 -3.125 C 2.6875 -3.125 3.03125 -2.710938 3.03125 -1.882812 Z "/>
</g>
<g id="glyph-1-3">
<path d="M 0.746094 -3.832031 C 0.660156 -3.832031 0.582031 -3.859375 0.523438 -3.921875 C 0.460938 -3.980469 0.429688 -4.054688 0.429688 -4.148438 C 0.429688 -4.238281 0.460938 -4.316406 0.523438 -4.375 C 0.582031 -4.4375 0.660156 -4.464844 0.746094 -4.464844 C 0.835938 -4.464844 0.910156 -4.4375 0.972656 -4.375 C 1.035156 -4.316406 1.066406 -4.238281 1.066406 -4.148438 C 1.066406 -4.058594 1.035156 -3.984375 0.972656 -3.921875 C 0.910156 -3.863281 0.835938 -3.832031 0.746094 -3.832031 M 0.984375 0 L 0.496094 0 L 0.496094 -3.054688 L 0.984375 -3.054688 Z "/>
</g>
<g id="glyph-1-4">
<path d="M 2.949219 -1.40625 L 0.792969 -1.40625 C 0.800781 -1.066406 0.894531 -0.800781 1.066406 -0.617188 C 1.242188 -0.433594 1.484375 -0.339844 1.789062 -0.339844 C 2.132812 -0.339844 2.449219 -0.453125 2.738281 -0.679688 L 2.738281 -0.222656 C 2.46875 -0.0273438 2.117188 0.0703125 1.675781 0.0703125 C 1.242188 0.0703125 0.902344 -0.0664062 0.65625 -0.34375 C 0.410156 -0.621094 0.285156 -1.011719 0.285156 -1.515625 C 0.285156 -1.992188 0.421875 -2.378906 0.691406 -2.679688 C 0.960938 -2.976562 1.296875 -3.125 1.695312 -3.125 C 2.09375 -3.125 2.402344 -2.996094 2.621094 -2.738281 C 2.839844 -2.480469 2.949219 -2.121094 2.949219 -1.660156 L 2.949219 -1.40625 M 2.449219 -1.820312 C 2.449219 -2.101562 2.378906 -2.324219 2.246094 -2.480469 C 2.109375 -2.636719 1.925781 -2.714844 1.6875 -2.714844 C 1.453125 -2.714844 1.257812 -2.632812 1.097656 -2.46875 C 0.9375 -2.300781 0.835938 -2.085938 0.800781 -1.820312 L 2.449219 -1.820312 M 2.496094 -3.632812 L 2.128906 -3.632812 L 1.640625 -4.320312 L 1.148438 -3.632812 L 0.8125 -3.632812 L 1.453125 -4.625 L 1.851562 -4.625 L 2.496094 -3.632812 M 1.730469 0.9375 C 1.648438 0.9375 1.578125 0.90625 1.523438 0.851562 C 1.464844 0.792969 1.433594 0.722656 1.433594 0.640625 C 1.433594 0.558594 1.464844 0.492188 1.523438 0.4375 C 1.585938 0.382812 1.652344 0.355469 1.730469 0.355469 C 1.8125 0.355469 1.882812 0.382812 1.9375 0.4375 C 1.996094 0.492188 2.027344 0.558594 2.027344 0.640625 C 2.027344 0.722656 1.996094 0.792969 1.9375 0.851562 C 1.882812 0.90625 1.8125 0.9375 1.730469 0.9375 Z "/>
</g>
<g id="glyph-1-5">
<path d="M 4.832031 0 L 4.34375 0 L 4.34375 -1.753906 C 4.34375 -2.09375 4.292969 -2.335938 4.1875 -2.488281 C 4.082031 -2.640625 3.90625 -2.714844 3.660156 -2.714844 C 3.453125 -2.714844 3.273438 -2.621094 3.128906 -2.429688 C 2.980469 -2.238281 2.910156 -2.007812 2.910156 -1.742188 L 2.910156 0 L 2.417969 0 L 2.417969 -1.8125 C 2.417969 -2.414062 2.1875 -2.714844 1.722656 -2.714844 C 1.511719 -2.714844 1.332031 -2.625 1.195312 -2.445312 C 1.054688 -2.265625 0.984375 -2.03125 0.984375 -1.742188 L 0.984375 0 L 0.496094 0 L 0.496094 -3.054688 L 0.984375 -3.054688 L 0.984375 -2.570312 L 0.996094 -2.570312 C 1.214844 -2.941406 1.53125 -3.125 1.945312 -3.125 C 2.152344 -3.125 2.335938 -3.070312 2.492188 -2.953125 C 2.648438 -2.835938 2.753906 -2.683594 2.8125 -2.496094 C 3.039062 -2.917969 3.375 -3.125 3.824219 -3.125 C 4.496094 -3.125 4.832031 -2.710938 4.832031 -1.882812 Z "/>
</g>
</g>
</defs>
<g fill="rgb(21.960784%, 74.117647%, 97.254902%)" fill-opacity="1">
<use xlink:href="#glyph-0-0" x="30" y="26.59375"/>
<use xlink:href="#glyph-0-1" x="33" y="26.59375"/>
<use xlink:href="#glyph-0-2" x="34" y="26.59375"/>
<use xlink:href="#glyph-0-3" x="36" y="26.59375"/>
<use xlink:href="#glyph-0-4" x="39" y="26.59375"/>
<use xlink:href="#glyph-0-5" x="41" y="26.59375"/>
<use xlink:href="#glyph-0-6" x="44" y="26.59375"/>
<use xlink:href="#glyph-0-7" x="47" y="26.59375"/>
<use xlink:href="#glyph-0-2" x="51" y="26.59375"/>
<use xlink:href="#glyph-0-6" x="53" y="26.59375"/>
<use xlink:href="#glyph-0-8" x="56" y="26.59375"/>
<use xlink:href="#glyph-0-9" x="59" y="26.59375"/>
<use xlink:href="#glyph-0-10" x="62" y="26.59375"/>
<use xlink:href="#glyph-0-2" x="65" y="26.59375"/>
<use xlink:href="#glyph-0-11" x="67" y="26.59375"/>
<use xlink:href="#glyph-0-2" x="72" y="26.59375"/>
<use xlink:href="#glyph-0-12" x="74" y="26.59375"/>
<use xlink:href="#glyph-0-13" x="77" y="26.59375"/>
<use xlink:href="#glyph-0-2" x="81" y="26.59375"/>
<use xlink:href="#glyph-0-14" x="83" y="26.59375"/>
<use xlink:href="#glyph-0-15" x="86" y="26.59375"/>
<use xlink:href="#glyph-0-2" x="90" y="26.59375"/>
</g>
<g fill="rgb(21.960784%, 74.117647%, 97.254902%)" fill-opacity="1">
<use xlink:href="#glyph-1-0" x="30" y="34.613281"/>
<use xlink:href="#glyph-1-1" x="33" y="34.613281"/>
<use xlink:href="#glyph-1-2" x="37" y="34.613281"/>
<use xlink:href="#glyph-1-3" x="40" y="34.613281"/>
<use xlink:href="#glyph-1-4" x="41" y="34.613281"/>
<use xlink:href="#glyph-1-5" x="44" y="34.613281"/>
</g>
</svg>
