<?xml version="1.0" encoding="UTF-8"?>
<svg xmlns="http://www.w3.org/2000/svg" xmlns:xlink="http://www.w3.org/1999/xlink" width="1920" height="1080" viewBox="0 0 1920 1080">
<defs>
<g>
<g id="glyph-0-0">
<path d="M 0.570312 0 L 0.570312 -5.566406 L 1.695312 -5.566406 L 1.695312 -3.375 L 3.894531 -3.375 L 3.894531 -5.566406 L 5.019531 -5.566406 L 5.019531 0 L 3.894531 0 L 3.894531 -2.433594 L 1.695312 -2.433594 L 1.695312 0 Z "/>
</g>
<g id="glyph-0-1">
<path d="M 2.894531 -1.285156 L 3.957031 -1.105469 C 3.820312 -0.714844 3.605469 -0.417969 3.308594 -0.214844 C 3.015625 -0.0117188 2.644531 0.0898438 2.203125 0.0898438 C 1.5 0.0898438 0.980469 -0.136719 0.644531 -0.597656 C 0.378906 -0.964844 0.246094 -1.425781 0.246094 -1.984375 C 0.246094 -2.65625 0.421875 -3.179688 0.769531 -3.554688 C 1.121094 -3.933594 1.5625 -4.125 2.097656 -4.125 C 2.695312 -4.125 3.167969 -3.925781 3.515625 -3.53125 C 3.863281 -3.132812 4.027344 -2.527344 4.015625 -1.707031 L 1.339844 -1.707031 C 1.347656 -1.390625 1.433594 -1.144531 1.597656 -0.96875 C 1.761719 -0.792969 1.96875 -0.707031 2.214844 -0.707031 C 2.382812 -0.707031 2.523438 -0.75 2.636719 -0.84375 C 2.75 -0.933594 2.835938 -1.082031 2.894531 -1.285156 M 2.953125 -2.363281 C 2.945312 -2.671875 2.867188 -2.90625 2.714844 -3.066406 C 2.5625 -3.226562 2.378906 -3.308594 2.160156 -3.308594 C 1.929688 -3.308594 1.734375 -3.222656 1.582031 -3.054688 C 1.433594 -2.882812 1.355469 -2.652344 1.359375 -2.363281 L 2.953125 -2.363281 M 0.847656 -4.542969 L 1.644531 -5.664062 L 2.632812 -5.664062 L 3.417969 -4.542969 L 2.558594 -4.542969 L 2.117188 -5.109375 L 1.707031 -4.542969 L 0.847656 -4.542969 M 1.625 1.523438 L 1.625 0.457031 L 2.691406 0.457031 L 2.691406 1.523438 Z "/>
</g>
<g id="glyph-0-2">
</g>
<g id="glyph-0-3">
<path d="M 1.667969 0 L 0.0429688 -4.03125 L 1.160156 -4.03125 L 1.921875 -1.976562 L 2.140625 -1.289062 C 2.199219 -1.460938 2.238281 -1.578125 2.25 -1.632812 C 2.289062 -1.746094 2.324219 -1.859375 2.367188 -1.976562 L 3.132812 -4.03125 L 4.230469 -4.03125 L 2.628906 0 Z "/>
</g>
<g id="glyph-0-4">
<path d="M 0.558594 0 L 0.558594 -4.03125 L 1.625 -4.03125 L 1.625 0 L 0.558594 0 M 0.476562 -4.527344 L 1.003906 -5.664062 L 2.199219 -5.664062 L 1.15625 -4.527344 Z "/>
</g>
<g id="glyph-0-5">
<path d="M 4.257812 0 L 3.265625 0 L 3.265625 -0.59375 C 3.101562 -0.363281 2.90625 -0.191406 2.683594 -0.078125 C 2.457031 0.0351562 2.234375 0.0898438 2.003906 0.0898438 C 1.542969 0.0898438 1.144531 -0.09375 0.816406 -0.46875 C 0.484375 -0.84375 0.320312 -1.363281 0.320312 -2.03125 C 0.320312 -2.714844 0.480469 -3.234375 0.800781 -3.589844 C 1.121094 -3.945312 1.527344 -4.125 2.019531 -4.125 C 2.472656 -4.125 2.859375 -3.9375 3.191406 -3.5625 L 3.191406 -5.566406 L 4.257812 -5.566406 L 4.257812 0 M 1.410156 -2.105469 C 1.410156 -1.671875 1.46875 -1.363281 1.585938 -1.167969 C 1.757812 -0.890625 2 -0.75 2.308594 -0.75 C 2.554688 -0.75 2.761719 -0.855469 2.933594 -1.066406 C 3.109375 -1.273438 3.195312 -1.585938 3.195312 -2 C 3.195312 -2.464844 3.109375 -2.796875 2.941406 -3 C 2.777344 -3.207031 2.5625 -3.308594 2.300781 -3.308594 C 2.046875 -3.308594 1.835938 -3.207031 1.664062 -3.003906 C 1.496094 -2.804688 1.410156 -2.503906 1.410156 -2.105469 Z "/>
</g>
<g id="glyph-0-6">
<path d="M 3.210938 0 L 3.210938 -0.605469 C 3.066406 -0.386719 2.871094 -0.21875 2.632812 -0.09375 C 2.394531 0.0273438 2.140625 0.0898438 1.875 0.0898438 C 1.605469 0.0898438 1.363281 0.03125 1.148438 -0.0859375 C 0.933594 -0.207031 0.777344 -0.375 0.679688 -0.589844 C 0.582031 -0.804688 0.535156 -1.101562 0.535156 -1.480469 L 0.535156 -4.03125 L 1.601562 -4.03125 L 1.601562 -2.179688 C 1.601562 -1.613281 1.621094 -1.265625 1.660156 -1.136719 C 1.699219 -1.007812 1.773438 -0.910156 1.875 -0.832031 C 1.980469 -0.757812 2.113281 -0.722656 2.269531 -0.722656 C 2.453125 -0.722656 2.617188 -0.773438 2.761719 -0.871094 C 2.90625 -0.972656 3.003906 -1.09375 3.058594 -1.242188 C 3.109375 -1.390625 3.136719 -1.753906 3.136719 -2.332031 L 3.136719 -4.03125 L 4.203125 -4.03125 L 4.203125 0 L 3.210938 0 M 1.738281 1.523438 L 1.738281 0.457031 L 2.804688 0.457031 L 2.804688 1.523438 Z "/>
</g>
</g>
</defs>
<g fill="rgb(79.607843%, 83.529412%, 88.235294%)" fill-opacity="1">
<use xlink:href="#glyph-0-0" x="30" y="27.041016"/>
<use xlink:href="#glyph-0-1" x="36" y="27.041016"/>
<use xlink:href="#glyph-0-2" x="40" y="27.041016"/>
<use xlink:href="#glyph-0-3" x="42" y="27.041016"/>
<use xlink:href="#glyph-0-4" x="46" y="27.041016"/>
<use xlink:href="#glyph-0-2" x="48" y="27.041016"/>
<use xlink:href="#glyph-0-5" x="50" y="27.041016"/>
<use xlink:href="#glyph-0-6" x="55" y="27.041016"/>
</g>
</svg>
