<?xml version="1.0" encoding="UTF-8"?>
<svg xmlns="http://www.w3.org/2000/svg" xmlns:xlink="http://www.w3.org/1999/xlink" width="854" height="480" viewBox="0 0 854 480">
<defs>
<g>
<g id="glyph-0-0">
<path d="M 1.988281 -2.726562 C 1.988281 -2.839844 1.972656 -2.9375 1.9375 -3.023438 C 1.902344 -3.105469 1.851562 -3.175781 1.792969 -3.234375 C 1.730469 -3.289062 1.660156 -3.332031 1.578125 -3.359375 C 1.496094 -3.386719 1.40625 -3.398438 1.308594 -3.398438 C 1.226562 -3.398438 1.144531 -3.386719 1.066406 -3.367188 C 0.988281 -3.34375 0.910156 -3.3125 0.835938 -3.273438 C 0.761719 -3.234375 0.6875 -3.1875 0.621094 -3.128906 C 0.550781 -3.074219 0.484375 -3.015625 0.425781 -2.949219 L 0.425781 -3.402344 C 0.542969 -3.515625 0.675781 -3.605469 0.824219 -3.664062 C 0.96875 -3.726562 1.148438 -3.757812 1.359375 -3.757812 C 1.511719 -3.757812 1.652344 -3.734375 1.78125 -3.691406 C 1.910156 -3.648438 2.019531 -3.582031 2.117188 -3.5 C 2.210938 -3.414062 2.285156 -3.3125 2.339844 -3.1875 C 2.394531 -3.0625 2.417969 -2.921875 2.417969 -2.761719 C 2.417969 -2.617188 2.402344 -2.484375 2.371094 -2.367188 C 2.335938 -2.246094 2.285156 -2.136719 2.21875 -2.03125 C 2.148438 -1.925781 2.0625 -1.824219 1.960938 -1.730469 C 1.859375 -1.632812 1.738281 -1.535156 1.597656 -1.433594 C 1.425781 -1.3125 1.28125 -1.207031 1.167969 -1.117188 C 1.054688 -1.03125 0.964844 -0.949219 0.902344 -0.871094 C 0.835938 -0.796875 0.789062 -0.71875 0.761719 -0.644531 C 0.734375 -0.566406 0.722656 -0.476562 0.722656 -0.378906 L 2.5625 -0.378906 L 2.5625 0 L 0.28125 0 L 0.28125 -0.183594 C 0.28125 -0.339844 0.296875 -0.480469 0.332031 -0.601562 C 0.367188 -0.71875 0.421875 -0.835938 0.503906 -0.941406 C 0.582031 -1.050781 0.683594 -1.160156 0.8125 -1.269531 C 0.941406 -1.375 1.097656 -1.496094 1.285156 -1.632812 C 1.417969 -1.730469 1.53125 -1.820312 1.621094 -1.910156 C 1.710938 -1.996094 1.78125 -2.085938 1.835938 -2.171875 C 1.890625 -2.261719 1.929688 -2.347656 1.953125 -2.4375 C 1.976562 -2.527344 1.988281 -2.625 1.988281 -2.726562 Z "/>
</g>
<g id="glyph-0-1">
<path d="M 0.574219 0.0585938 C 0.496094 0.0585938 0.429688 0.0273438 0.371094 -0.0273438 C 0.316406 -0.0859375 0.289062 -0.152344 0.289062 -0.230469 C 0.289062 -0.3125 0.316406 -0.378906 0.371094 -0.4375 C 0.429688 -0.496094 0.496094 -0.523438 0.574219 -0.523438 C 0.65625 -0.523438 0.722656 -0.496094 0.78125 -0.4375 C 0.835938 -0.378906 0.867188 -0.3125 0.867188 -0.230469 C 0.867188 -0.152344 0.835938 -0.0859375 0.78125 -0.0273438 C 0.722656 0.0273438 0.65625 0.0585938 0.574219 0.0585938 Z "/>
</g>
<g id="glyph-0-2">
</g>
<g id="glyph-0-3">
<path d="M 0.3125 -0.148438 L 0.3125 -0.660156 C 0.371094 -0.609375 0.441406 -0.5625 0.523438 -0.519531 C 0.601562 -0.480469 0.6875 -0.445312 0.78125 -0.417969 C 0.871094 -0.386719 0.960938 -0.367188 1.050781 -0.351562 C 1.140625 -0.335938 1.226562 -0.328125 1.304688 -0.328125 C 1.570312 -0.328125 1.769531 -0.375 1.902344 -0.476562 C 2.03125 -0.574219 2.097656 -0.714844 2.097656 -0.902344 C 2.097656 -1 2.074219 -1.089844 2.03125 -1.164062 C 1.988281 -1.234375 1.925781 -1.304688 1.851562 -1.363281 C 1.773438 -1.425781 1.679688 -1.484375 1.574219 -1.539062 C 1.46875 -1.59375 1.355469 -1.65625 1.234375 -1.714844 C 1.105469 -1.78125 0.984375 -1.847656 0.875 -1.914062 C 0.761719 -1.980469 0.664062 -2.054688 0.582031 -2.136719 C 0.5 -2.21875 0.433594 -2.308594 0.386719 -2.410156 C 0.339844 -2.511719 0.316406 -2.632812 0.316406 -2.769531 C 0.316406 -2.9375 0.355469 -3.085938 0.429688 -3.210938 C 0.5 -3.335938 0.597656 -3.4375 0.71875 -3.515625 C 0.839844 -3.597656 0.976562 -3.660156 1.128906 -3.699219 C 1.285156 -3.738281 1.441406 -3.757812 1.601562 -3.757812 C 1.964844 -3.757812 2.230469 -3.714844 2.394531 -3.625 L 2.394531 -3.136719 C 2.179688 -3.289062 1.898438 -3.367188 1.554688 -3.367188 C 1.460938 -3.367188 1.367188 -3.355469 1.273438 -3.335938 C 1.179688 -3.316406 1.09375 -3.285156 1.019531 -3.238281 C 0.945312 -3.195312 0.886719 -3.136719 0.839844 -3.066406 C 0.792969 -2.996094 0.769531 -2.910156 0.769531 -2.808594 C 0.769531 -2.714844 0.789062 -2.632812 0.824219 -2.5625 C 0.859375 -2.496094 0.910156 -2.433594 0.980469 -2.375 C 1.046875 -2.320312 1.132812 -2.265625 1.230469 -2.210938 C 1.328125 -2.15625 1.441406 -2.097656 1.570312 -2.035156 C 1.703125 -1.96875 1.828125 -1.902344 1.949219 -1.828125 C 2.066406 -1.757812 2.171875 -1.675781 2.261719 -1.589844 C 2.347656 -1.503906 2.421875 -1.40625 2.472656 -1.296875 C 2.523438 -1.191406 2.550781 -1.070312 2.550781 -0.933594 C 2.550781 -0.75 2.515625 -0.597656 2.445312 -0.46875 C 2.371094 -0.34375 2.277344 -0.242188 2.15625 -0.164062 C 2.035156 -0.0820312 1.894531 -0.0273438 1.738281 0.0078125 C 1.578125 0.0429688 1.410156 0.0625 1.238281 0.0625 C 1.179688 0.0625 1.105469 0.0585938 1.019531 0.046875 C 0.933594 0.0390625 0.847656 0.0234375 0.757812 0.0078125 C 0.667969 -0.0117188 0.582031 -0.0351562 0.503906 -0.0625 C 0.425781 -0.0859375 0.359375 -0.117188 0.3125 -0.148438 Z "/>
</g>
<g id="glyph-0-4">
<path d="M 1.53125 0.0625 C 1.140625 0.0625 0.828125 -0.0625 0.597656 -0.308594 C 0.363281 -0.554688 0.246094 -0.882812 0.246094 -1.289062 C 0.246094 -1.730469 0.367188 -2.078125 0.609375 -2.328125 C 0.851562 -2.574219 1.179688 -2.699219 1.59375 -2.699219 C 1.984375 -2.699219 2.292969 -2.578125 2.515625 -2.335938 C 2.734375 -2.09375 2.84375 -1.757812 2.84375 -1.328125 C 2.84375 -0.910156 2.726562 -0.570312 2.488281 -0.316406 C 2.25 -0.0664062 1.929688 0.0625 1.53125 0.0625 M 1.5625 -2.34375 C 1.289062 -2.34375 1.074219 -2.253906 0.917969 -2.066406 C 0.757812 -1.882812 0.679688 -1.628906 0.679688 -1.304688 C 0.679688 -0.992188 0.761719 -0.746094 0.921875 -0.5625 C 1.078125 -0.382812 1.292969 -0.292969 1.5625 -0.292969 C 1.835938 -0.292969 2.042969 -0.382812 2.191406 -0.558594 C 2.339844 -0.734375 2.410156 -0.988281 2.410156 -1.3125 C 2.410156 -1.644531 2.339844 -1.898438 2.191406 -2.078125 C 2.042969 -2.253906 1.835938 -2.34375 1.5625 -2.34375 Z "/>
</g>
<g id="glyph-0-5">
<path d="M 2.617188 0 L 2.195312 0 L 2.195312 -1.503906 C 2.195312 -2.066406 1.992188 -2.34375 1.582031 -2.34375 C 1.371094 -2.34375 1.195312 -2.265625 1.058594 -2.105469 C 0.917969 -1.949219 0.851562 -1.746094 0.851562 -1.503906 L 0.851562 0 L 0.429688 0 L 0.429688 -2.640625 L 0.851562 -2.640625 L 0.851562 -2.199219 L 0.859375 -2.199219 C 1.058594 -2.535156 1.347656 -2.699219 1.726562 -2.699219 C 2.015625 -2.699219 2.234375 -2.605469 2.390625 -2.421875 C 2.542969 -2.234375 2.617188 -1.964844 2.617188 -1.613281 Z "/>
</g>
<g id="glyph-0-6">
<path d="M 2.679688 -0.210938 C 2.679688 0.757812 2.214844 1.242188 1.289062 1.242188 C 0.960938 1.242188 0.675781 1.179688 0.433594 1.054688 L 0.433594 0.632812 C 0.730469 0.796875 1.011719 0.882812 1.285156 0.882812 C 1.933594 0.882812 2.257812 0.535156 2.257812 -0.15625 L 2.257812 -0.441406 L 2.246094 -0.441406 C 2.046875 -0.105469 1.742188 0.0625 1.339844 0.0625 C 1.011719 0.0625 0.746094 -0.0546875 0.546875 -0.289062 C 0.347656 -0.523438 0.246094 -0.839844 0.246094 -1.234375 C 0.246094 -1.683594 0.355469 -2.039062 0.570312 -2.304688 C 0.785156 -2.566406 1.082031 -2.699219 1.457031 -2.699219 C 1.8125 -2.699219 2.074219 -2.558594 2.246094 -2.273438 L 2.257812 -2.273438 L 2.257812 -2.640625 L 2.679688 -2.640625 L 2.679688 -0.210938 M 2.257812 -1.191406 L 2.257812 -1.582031 C 2.257812 -1.792969 2.1875 -1.972656 2.042969 -2.121094 C 1.902344 -2.269531 1.726562 -2.34375 1.515625 -2.34375 C 1.253906 -2.34375 1.050781 -2.25 0.902344 -2.058594 C 0.753906 -1.871094 0.679688 -1.605469 0.679688 -1.261719 C 0.679688 -0.96875 0.75 -0.734375 0.894531 -0.558594 C 1.035156 -0.382812 1.222656 -0.292969 1.457031 -0.292969 C 1.691406 -0.292969 1.886719 -0.378906 2.035156 -0.546875 C 2.183594 -0.714844 2.257812 -0.929688 2.257812 -1.191406 Z "/>
</g>
<g id="glyph-0-7">
<path d="M 0.269531 -0.09375 L 0.269531 -0.550781 C 0.5 -0.378906 0.75 -0.292969 1.027344 -0.292969 C 1.398438 -0.292969 1.585938 -0.417969 1.585938 -0.664062 C 1.585938 -0.734375 1.570312 -0.796875 1.535156 -0.84375 C 1.503906 -0.894531 1.460938 -0.9375 1.410156 -0.972656 C 1.355469 -1.011719 1.289062 -1.046875 1.21875 -1.074219 C 1.144531 -1.105469 1.066406 -1.136719 0.980469 -1.167969 C 0.863281 -1.214844 0.761719 -1.261719 0.675781 -1.308594 C 0.585938 -1.359375 0.511719 -1.410156 0.453125 -1.46875 C 0.394531 -1.53125 0.347656 -1.597656 0.316406 -1.671875 C 0.289062 -1.746094 0.273438 -1.835938 0.273438 -1.9375 C 0.273438 -2.0625 0.300781 -2.171875 0.359375 -2.265625 C 0.414062 -2.363281 0.492188 -2.441406 0.585938 -2.507812 C 0.679688 -2.570312 0.789062 -2.617188 0.910156 -2.652344 C 1.03125 -2.683594 1.15625 -2.699219 1.285156 -2.699219 C 1.511719 -2.699219 1.714844 -2.660156 1.898438 -2.582031 L 1.898438 -2.152344 C 1.703125 -2.28125 1.480469 -2.34375 1.226562 -2.34375 C 1.148438 -2.34375 1.078125 -2.335938 1.011719 -2.316406 C 0.949219 -2.300781 0.894531 -2.273438 0.847656 -2.242188 C 0.804688 -2.210938 0.769531 -2.171875 0.742188 -2.125 C 0.71875 -2.078125 0.707031 -2.027344 0.707031 -1.972656 C 0.707031 -1.90625 0.71875 -1.847656 0.742188 -1.800781 C 0.769531 -1.753906 0.804688 -1.714844 0.851562 -1.675781 C 0.902344 -1.640625 0.960938 -1.609375 1.027344 -1.578125 C 1.097656 -1.550781 1.175781 -1.519531 1.261719 -1.484375 C 1.378906 -1.441406 1.484375 -1.394531 1.578125 -1.347656 C 1.667969 -1.300781 1.75 -1.246094 1.8125 -1.1875 C 1.878906 -1.128906 1.929688 -1.058594 1.964844 -0.980469 C 2 -0.90625 2.019531 -0.8125 2.019531 -0.707031 C 2.019531 -0.574219 1.988281 -0.460938 1.929688 -0.367188 C 1.875 -0.269531 1.796875 -0.191406 1.699219 -0.125 C 1.605469 -0.0625 1.492188 -0.015625 1.367188 0.015625 C 1.242188 0.046875 1.113281 0.0625 0.972656 0.0625 C 0.703125 0.0625 0.46875 0.0078125 0.269531 -0.09375 Z "/>
</g>
<g id="glyph-0-8">
<path d="M 0.59375 -1.710938 L 3.660156 -1.710938 L 3.34375 -2.019531 L 3.34375 -2.402344 L 4.167969 -1.546875 L 4.167969 -1.535156 L 3.34375 -0.679688 L 3.34375 -1.0625 L 3.65625 -1.367188 L 0.59375 -1.367188 Z "/>
</g>
<g id="glyph-0-9">
<path d="M 2.503906 -2.640625 L 1.449219 0 L 1.035156 0 L 0.0351562 -2.640625 L 0.5 -2.640625 L 1.167969 -0.722656 C 1.21875 -0.582031 1.25 -0.457031 1.261719 -0.351562 L 1.273438 -0.351562 C 1.289062 -0.484375 1.316406 -0.605469 1.355469 -0.710938 L 2.054688 -2.640625 Z "/>
</g>
<g id="glyph-0-10">
<path d="M 1.53125 0.0625 C 1.140625 0.0625 0.828125 -0.0625 0.597656 -0.308594 C 0.363281 -0.554688 0.246094 -0.882812 0.246094 -1.289062 C 0.246094 -1.730469 0.367188 -2.078125 0.609375 -2.328125 C 0.851562 -2.574219 1.179688 -2.699219 1.59375 -2.699219 C 1.984375 -2.699219 2.292969 -2.578125 2.515625 -2.335938 C 2.734375 -2.09375 2.84375 -1.757812 2.84375 -1.328125 C 2.84375 -0.910156 2.726562 -0.570312 2.488281 -0.316406 C 2.25 -0.0664062 1.929688 0.0625 1.53125 0.0625 M 1.5625 -2.34375 C 1.289062 -2.34375 1.074219 -2.253906 0.917969 -2.066406 C 0.757812 -1.882812 0.679688 -1.628906 0.679688 -1.304688 C 0.679688 -0.992188 0.761719 -0.746094 0.921875 -0.5625 C 1.078125 -0.382812 1.292969 -0.292969 1.5625 -0.292969 C 1.835938 -0.292969 2.042969 -0.382812 2.191406 -0.558594 C 2.339844 -0.734375 2.410156 -0.988281 2.410156 -1.3125 C 2.410156 -1.644531 2.339844 -1.898438 2.191406 -2.078125 C 2.042969 -2.253906 1.835938 -2.34375 1.5625 -2.34375 M 2.28125 -3.136719 L 1.964844 -3.136719 L 1.542969 -3.730469 L 1.117188 -3.136719 L 0.828125 -3.136719 L 1.382812 -3.992188 L 1.722656 -3.992188 Z "/>
</g>
<g id="glyph-0-11">
<path d="M 2.617188 0 L 2.195312 0 L 2.195312 -1.519531 C 2.195312 -2.070312 1.992188 -2.34375 1.582031 -2.34375 C 1.375 -2.34375 1.203125 -2.265625 1.0625 -2.105469 C 0.921875 -1.949219 0.851562 -1.742188 0.851562 -1.496094 L 0.851562 0 L 0.429688 0 L 0.429688 -3.90625 L 0.851562 -3.90625 L 0.851562 -2.199219 L 0.859375 -2.199219 C 1.0625 -2.535156 1.351562 -2.699219 1.726562 -2.699219 C 2.320312 -2.699219 2.617188 -2.34375 2.617188 -1.625 Z "/>
</g>
<g id="glyph-0-12">
<path d="M 0.644531 -3.308594 C 0.570312 -3.308594 0.503906 -3.335938 0.449219 -3.386719 C 0.398438 -3.4375 0.371094 -3.503906 0.371094 -3.582031 C 0.371094 -3.660156 0.398438 -3.726562 0.449219 -3.777344 C 0.503906 -3.832031 0.570312 -3.859375 0.644531 -3.859375 C 0.722656 -3.859375 0.789062 -3.832031 0.839844 -3.777344 C 0.894531 -3.726562 0.921875 -3.660156 0.921875 -3.582031 C 0.921875 -3.507812 0.894531 -3.441406 0.839844 -3.386719 C 0.789062 -3.335938 0.722656 -3.308594 0.644531 -3.308594 M 0.851562 0 L 0.429688 0 L 0.429688 -2.640625 L 0.851562 -2.640625 Z "/>
</g>
<g id="glyph-0-13">
<path d="M 2.546875 -1.214844 L 0.683594 -1.214844 C 0.691406 -0.921875 0.769531 -0.691406 0.921875 -0.535156 C 1.074219 -0.375 1.28125 -0.292969 1.546875 -0.292969 C 1.84375 -0.292969 2.117188 -0.390625 2.367188 -0.585938 L 2.367188 -0.191406 C 2.132812 -0.0234375 1.828125 0.0625 1.445312 0.0625 C 1.074219 0.0625 0.78125 -0.0585938 0.566406 -0.296875 C 0.355469 -0.539062 0.246094 -0.875 0.246094 -1.308594 C 0.246094 -1.71875 0.363281 -2.054688 0.597656 -2.3125 C 0.828125 -2.570312 1.117188 -2.699219 1.464844 -2.699219 C 1.808594 -2.699219 2.074219 -2.589844 2.265625 -2.367188 C 2.453125 -2.140625 2.546875 -1.832031 2.546875 -1.433594 L 2.546875 -1.214844 M 2.117188 -1.570312 C 2.113281 -1.816406 2.054688 -2.003906 1.9375 -2.140625 C 1.824219 -2.277344 1.660156 -2.34375 1.457031 -2.34375 C 1.257812 -2.34375 1.085938 -2.273438 0.949219 -2.132812 C 0.808594 -1.988281 0.722656 -1.800781 0.691406 -1.570312 L 2.117188 -1.570312 M 2.152344 -3.136719 L 1.839844 -3.136719 L 1.417969 -3.730469 L 0.992188 -3.136719 L 0.699219 -3.136719 L 1.253906 -3.992188 L 1.597656 -3.992188 L 2.152344 -3.136719 M 1.496094 0.808594 C 1.425781 0.808594 1.363281 0.785156 1.3125 0.734375 C 1.265625 0.683594 1.238281 0.625 1.238281 0.554688 C 1.238281 0.484375 1.265625 0.425781 1.316406 0.378906 C 1.367188 0.332031 1.425781 0.308594 1.496094 0.308594 C 1.566406 0.308594 1.625 0.332031 1.675781 0.378906 C 1.726562 0.425781 1.75 0.484375 1.75 0.554688 C 1.75 0.625 1.726562 0.683594 1.675781 0.734375 C 1.625 0.785156 1.566406 0.808594 1.496094 0.808594 Z "/>
</g>
<g id="glyph-0-14">
<path d="M 4.175781 0 L 3.75 0 L 3.75 -1.515625 C 3.75 -1.808594 3.707031 -2.019531 3.617188 -2.148438 C 3.527344 -2.28125 3.375 -2.34375 3.160156 -2.34375 C 2.980469 -2.34375 2.828125 -2.261719 2.703125 -2.097656 C 2.574219 -1.933594 2.511719 -1.734375 2.511719 -1.503906 L 2.511719 0 L 2.089844 0 L 2.089844 -1.566406 C 2.089844 -2.085938 1.890625 -2.34375 1.488281 -2.34375 C 1.304688 -2.34375 1.152344 -2.265625 1.03125 -2.113281 C 0.910156 -1.957031 0.851562 -1.753906 0.851562 -1.503906 L 0.851562 0 L 0.429688 0 L 0.429688 -2.640625 L 0.851562 -2.640625 L 0.851562 -2.222656 L 0.859375 -2.222656 C 1.046875 -2.539062 1.320312 -2.699219 1.679688 -2.699219 C 1.859375 -2.699219 2.019531 -2.648438 2.152344 -2.550781 C 2.285156 -2.449219 2.378906 -2.316406 2.425781 -2.152344 C 2.625 -2.519531 2.914062 -2.699219 3.304688 -2.699219 C 3.882812 -2.699219 4.175781 -2.34375 4.175781 -1.625 Z "/>
</g>
</g>
</defs>
<g fill="rgb(97.254902%, 44.313725%, 44.313725%)" fill-opacity="1">
<use xlink:href="#glyph-0-0" x="30" y="25.694336"/>
<use xlink:href="#glyph-0-1" x="33" y="25.694336"/>
<use xlink:href="#glyph-0-2" x="34" y="25.694336"/>
<use xlink:href="#glyph-0-3" x="35" y="25.694336"/>
<use xlink:href="#glyph-0-4" x="38" y="25.694336"/>
<use xlink:href="#glyph-0-5" x="41" y="25.694336"/>
<use xlink:href="#glyph-0-6" x="44" y="25.694336"/>
<use xlink:href="#glyph-0-2" x="47" y="25.694336"/>
<use xlink:href="#glyph-0-7" x="48" y="25.694336"/>
<use xlink:href="#glyph-0-4" x="50" y="25.694336"/>
<use xlink:href="#glyph-0-5" x="53" y="25.694336"/>
<use xlink:href="#glyph-0-6" x="56" y="25.694336"/>
<use xlink:href="#glyph-0-2" x="59" y="25.694336"/>
<use xlink:href="#glyph-0-8" x="60" y="25.694336"/>
<use xlink:href="#glyph-0-2" x="65" y="25.694336"/>
<use xlink:href="#glyph-0-9" x="66" y="25.694336"/>
<use xlink:href="#glyph-0-10" x="69" y="25.694336"/>
<use xlink:href="#glyph-0-2" x="72" y="25.694336"/>
<use xlink:href="#glyph-0-5" x="73" y="25.694336"/>
<use xlink:href="#glyph-0-6" x="76" y="25.694336"/>
<use xlink:href="#glyph-0-11" x="79" y="25.694336"/>
<use xlink:href="#glyph-0-12" x="82" y="25.694336"/>
<use xlink:href="#glyph-0-13" x="83" y="25.694336"/>
<use xlink:href="#glyph-0-14" x="86" y="25.694336"/>
</g>
</svg>
