<?xml version="1.0" encoding="UTF-8"?>
<svg xmlns="http://www.w3.org/2000/svg" xmlns:xlink="http://www.w3.org/1999/xlink" width="1920" height="1080" viewBox="0 0 1920 1080">
<defs>
<g>
<g id="glyph-0-0">
<path d="M 2.984375 0 L 2.984375 -0.5625 C 2.847656 -0.359375 2.667969 -0.203125 2.445312 -0.0898438 C 2.222656 0.0273438 1.988281 0.0859375 1.742188 0.0859375 C 1.492188 0.0859375 1.265625 0.03125 1.066406 -0.0820312 C 0.863281 -0.191406 0.71875 -0.347656 0.632812 -0.546875 C 0.542969 -0.746094 0.496094 -1.023438 0.496094 -1.375 L 0.496094 -3.746094 L 1.488281 -3.746094 L 1.488281 -2.023438 C 1.488281 -1.496094 1.507812 -1.175781 1.542969 -1.054688 C 1.578125 -0.9375 1.644531 -0.84375 1.742188 -0.773438 C 1.839844 -0.703125 1.960938 -0.671875 2.109375 -0.671875 C 2.277344 -0.671875 2.429688 -0.714844 2.5625 -0.808594 C 2.699219 -0.902344 2.789062 -1.015625 2.839844 -1.15625 C 2.886719 -1.292969 2.914062 -1.628906 2.914062 -2.164062 L 2.914062 -3.746094 L 3.902344 -3.746094 L 3.902344 0 Z "/>
</g>
<g id="glyph-0-1">
</g>
<g id="glyph-0-2">
<path d="M 1.652344 -0.742188 L 1.652344 -2.085938 L 0.300781 -2.085938 L 0.300781 -3.015625 L 1.652344 -3.015625 L 1.652344 -4.359375 L 2.558594 -4.359375 L 2.558594 -3.015625 L 3.914062 -3.015625 L 3.914062 -2.085938 L 2.558594 -2.085938 L 2.558594 -0.742188 Z "/>
</g>
<g id="glyph-0-3">
<path d="M 1.546875 0 L 0.0390625 -3.746094 L 1.078125 -3.746094 L 1.785156 -1.832031 L 1.988281 -1.195312 C 2.042969 -1.359375 2.078125 -1.464844 2.089844 -1.515625 C 2.125 -1.621094 2.160156 -1.726562 2.195312 -1.832031 L 2.910156 -3.746094 L 3.929688 -3.746094 L 2.441406 0 Z "/>
</g>
<g id="glyph-0-4">
<path d="M 0.300781 -2.878906 L 0.300781 -3.789062 L 3.914062 -3.789062 L 3.914062 -2.878906 L 0.300781 -2.878906 M 0.300781 -1.3125 L 0.300781 -2.226562 L 3.914062 -2.226562 L 3.914062 -1.3125 Z "/>
</g>
<g id="glyph-0-5">
<path d="M 2.160156 1.519531 L 1.480469 1.519531 C 1.121094 0.976562 0.847656 0.414062 0.660156 -0.171875 C 0.472656 -0.757812 0.378906 -1.324219 0.378906 -1.871094 C 0.378906 -2.550781 0.492188 -3.195312 0.726562 -3.800781 C 0.929688 -4.328125 1.183594 -4.8125 1.496094 -5.257812 L 2.171875 -5.257812 C 1.851562 -4.546875 1.628906 -3.941406 1.507812 -3.441406 C 1.386719 -2.941406 1.324219 -2.410156 1.324219 -1.851562 C 1.324219 -1.464844 1.363281 -1.070312 1.433594 -0.667969 C 1.503906 -0.261719 1.601562 0.121094 1.726562 0.488281 C 1.808594 0.726562 1.953125 1.070312 2.160156 1.519531 Z "/>
</g>
<g id="glyph-0-6">
<path d="M 2.25 0 L 2.25 -1.039062 L 0.132812 -1.039062 L 0.132812 -1.90625 L 2.378906 -5.191406 L 3.210938 -5.191406 L 3.210938 -1.910156 L 3.851562 -1.910156 L 3.851562 -1.039062 L 3.210938 -1.039062 L 3.210938 0 L 2.25 0 M 2.25 -1.910156 L 2.25 -3.679688 L 1.0625 -1.910156 Z "/>
</g>
<g id="glyph-0-7">
<path d="M 0.492188 -0.992188 L 1.484375 -0.992188 L 1.484375 -0.28125 C 1.484375 0.00390625 1.460938 0.230469 1.410156 0.398438 C 1.359375 0.5625 1.269531 0.710938 1.128906 0.84375 C 0.992188 0.972656 0.816406 1.078125 0.605469 1.152344 L 0.414062 0.742188 C 0.613281 0.679688 0.753906 0.585938 0.839844 0.472656 C 0.925781 0.355469 0.96875 0.199219 0.972656 0 L 0.492188 0 Z "/>
</g>
<g id="glyph-0-8">
<path d="M 3.664062 -3.902344 L 2.703125 -3.796875 C 2.679688 -3.996094 2.621094 -4.140625 2.523438 -4.234375 C 2.421875 -4.328125 2.292969 -4.375 2.136719 -4.375 C 1.929688 -4.375 1.75 -4.28125 1.605469 -4.09375 C 1.460938 -3.90625 1.371094 -3.515625 1.332031 -2.921875 C 1.578125 -3.210938 1.886719 -3.355469 2.253906 -3.355469 C 2.667969 -3.355469 3.023438 -3.199219 3.316406 -2.886719 C 3.613281 -2.570312 3.757812 -2.164062 3.757812 -1.664062 C 3.757812 -1.136719 3.605469 -0.710938 3.292969 -0.390625 C 2.984375 -0.0703125 2.585938 0.0898438 2.097656 0.0898438 C 1.578125 0.0898438 1.148438 -0.113281 0.8125 -0.519531 C 0.476562 -0.925781 0.308594 -1.589844 0.308594 -2.515625 C 0.308594 -3.460938 0.480469 -4.144531 0.832031 -4.5625 C 1.183594 -4.980469 1.636719 -5.191406 2.195312 -5.191406 C 2.589844 -5.191406 2.914062 -5.082031 3.171875 -4.863281 C 3.429688 -4.640625 3.59375 -4.324219 3.664062 -3.902344 M 1.417969 -1.742188 C 1.417969 -1.421875 1.492188 -1.171875 1.640625 -0.996094 C 1.789062 -0.820312 1.957031 -0.734375 2.148438 -0.734375 C 2.332031 -0.734375 2.484375 -0.804688 2.605469 -0.949219 C 2.726562 -1.09375 2.789062 -1.328125 2.789062 -1.652344 C 2.789062 -1.988281 2.722656 -2.238281 2.59375 -2.394531 C 2.460938 -2.550781 2.296875 -2.628906 2.097656 -2.628906 C 1.90625 -2.628906 1.746094 -2.550781 1.613281 -2.402344 C 1.484375 -2.253906 1.417969 -2.035156 1.417969 -1.742188 Z "/>
</g>
<g id="glyph-0-9">
<path d="M 0.242188 1.519531 C 0.4375 1.101562 0.574219 0.78125 0.65625 0.558594 C 0.734375 0.332031 0.808594 0.078125 0.878906 -0.214844 C 0.945312 -0.507812 0.996094 -0.785156 1.03125 -1.046875 C 1.0625 -1.308594 1.078125 -1.578125 1.078125 -1.851562 C 1.078125 -2.410156 1.019531 -2.941406 0.898438 -3.441406 C 0.78125 -3.941406 0.558594 -4.546875 0.234375 -5.257812 L 0.910156 -5.257812 C 1.265625 -4.753906 1.539062 -4.214844 1.738281 -3.648438 C 1.933594 -3.082031 2.03125 -2.507812 2.03125 -1.925781 C 2.03125 -1.433594 1.953125 -0.90625 1.796875 -0.34375 C 1.621094 0.285156 1.332031 0.90625 0.925781 1.519531 Z "/>
</g>
</g>
</defs>
<g fill="rgb(99.607843%, 95.294118%, 78.039216%)" fill-opacity="1">
<use xlink:href="#glyph-0-0" x="30" y="26.538086"/>
<use xlink:href="#glyph-0-1" x="34" y="26.538086"/>
<use xlink:href="#glyph-0-2" x="36" y="26.538086"/>
<use xlink:href="#glyph-0-1" x="40" y="26.538086"/>
<use xlink:href="#glyph-0-3" x="42" y="26.538086"/>
<use xlink:href="#glyph-0-1" x="46" y="26.538086"/>
<use xlink:href="#glyph-0-4" x="48" y="26.538086"/>
<use xlink:href="#glyph-0-1" x="52" y="26.538086"/>
<use xlink:href="#glyph-0-5" x="54" y="26.538086"/>
<use xlink:href="#glyph-0-6" x="56" y="26.538086"/>
<use xlink:href="#glyph-0-7" x="60" y="26.538086"/>
<use xlink:href="#glyph-0-8" x="62" y="26.538086"/>
<use xlink:href="#glyph-0-9" x="66" y="26.538086"/>
</g>
</svg>
