<?xml version="1.0" encoding="UTF-8"?>
<svg xmlns="http://www.w3.org/2000/svg" xmlns:xlink="http://www.w3.org/1999/xlink" width="1920" height="1080" viewBox="0 0 1920 1080">
<defs>
<g>
<g id="glyph-0-0">
<path d="M 3.304688 -3.054688 L 2.167969 0 L 1.09375 0 L 0.0117188 -3.054688 L 1.019531 -3.054688 L 1.550781 -1.171875 C 1.609375 -0.960938 1.644531 -0.777344 1.65625 -0.628906 L 1.667969 -0.628906 C 1.683594 -0.769531 1.71875 -0.945312 1.777344 -1.15625 L 2.320312 -3.054688 Z "/>
</g>
<g id="glyph-0-1">
<path d="M 3.617188 -2.089844 L 0.710938 -2.089844 L 0.710938 -2.699219 L 3.617188 -2.699219 L 3.617188 -2.089844 M 3.617188 -0.792969 L 0.710938 -0.792969 L 0.710938 -1.398438 L 3.617188 -1.398438 Z "/>
</g>
<g id="glyph-0-2">
<path d="M 2.203125 0.972656 L 1.433594 0.972656 C 0.792969 0.265625 0.472656 -0.605469 0.472656 -1.636719 C 0.472656 -2.632812 0.792969 -3.515625 1.433594 -4.277344 L 2.199219 -4.277344 C 1.597656 -3.480469 1.296875 -2.597656 1.296875 -1.636719 C 1.296875 -0.675781 1.597656 0.191406 2.203125 0.972656 Z "/>
</g>
<g id="glyph-0-3">
<path d="M 2.484375 -4.375 L 2.484375 0 L 1.542969 0 L 1.542969 -3.3125 C 1.492188 -3.265625 1.429688 -3.222656 1.359375 -3.183594 C 1.289062 -3.140625 1.214844 -3.105469 1.132812 -3.070312 C 1.054688 -3.039062 0.972656 -3.011719 0.886719 -2.988281 C 0.800781 -2.964844 0.714844 -2.949219 0.632812 -2.9375 L 0.632812 -3.734375 C 0.878906 -3.804688 1.109375 -3.894531 1.324219 -4.007812 C 1.542969 -4.117188 1.738281 -4.242188 1.914062 -4.375 Z "/>
</g>
<g id="glyph-0-4">
<path d="M 1.289062 -0.75 L 0.851562 0.757812 L 0.117188 0.757812 L 0.421875 -0.75 Z "/>
</g>
<g id="glyph-0-5">
<path d="M 1.734375 0.0742188 C 0.714844 0.0742188 0.207031 -0.640625 0.207031 -2.070312 C 0.207031 -2.8125 0.34375 -3.378906 0.617188 -3.765625 C 0.894531 -4.15625 1.292969 -4.351562 1.816406 -4.351562 C 2.8125 -4.351562 3.308594 -3.625 3.308594 -2.167969 C 3.308594 -1.445312 3.171875 -0.890625 2.902344 -0.503906 C 2.628906 -0.117188 2.242188 0.0742188 1.734375 0.0742188 M 1.773438 -3.632812 C 1.367188 -3.632812 1.164062 -3.117188 1.164062 -2.09375 C 1.164062 -1.128906 1.363281 -0.648438 1.761719 -0.648438 C 2.152344 -0.648438 2.347656 -1.144531 2.347656 -2.140625 C 2.347656 -3.132812 2.15625 -3.632812 1.773438 -3.632812 Z "/>
</g>
<g id="glyph-0-6">
<path d="M 0.816406 0.972656 L 0.0546875 0.972656 C 0.664062 0.195312 0.964844 -0.671875 0.964844 -1.636719 C 0.964844 -2.59375 0.664062 -3.476562 0.0546875 -4.277344 L 0.824219 -4.277344 C 1.46875 -3.511719 1.789062 -2.632812 1.789062 -1.636719 C 1.789062 -0.613281 1.464844 0.257812 0.816406 0.972656 Z "/>
</g>
</g>
</defs>
<g fill="rgb(87.843137%, 94.901961%, 99.607843%)" fill-opacity="1">
<use xlink:href="#glyph-0-0" x="30" y="26.59375"/>
<use xlink:href="#glyph-0-1" x="33" y="26.59375"/>
<use xlink:href="#glyph-0-2" x="37" y="26.59375"/>
<use xlink:href="#glyph-0-3" x="39" y="26.59375"/>
<use xlink:href="#glyph-0-4" x="43" y="26.59375"/>
<use xlink:href="#glyph-0-5" x="45" y="26.59375"/>
<use xlink:href="#glyph-0-6" x="49" y="26.59375"/>
</g>
</svg>
