<?xml version="1.0" encoding="UTF-8"?>
<svg xmlns="http://www.w3.org/2000/svg" xmlns:xlink="http://www.w3.org/1999/xlink" width="1920" height="1080" viewBox="0 0 1920 1080">
<defs>
<g>
<g id="glyph-0-0">
<path d="M 1.667969 0 L 0.0429688 -4.03125 L 1.160156 -4.03125 L 1.921875 -1.976562 L 2.140625 -1.289062 C 2.199219 -1.460938 2.238281 -1.578125 2.25 -1.632812 C 2.289062 -1.746094 2.324219 -1.859375 2.367188 -1.976562 L 3.132812 -4.03125 L 4.230469 -4.03125 L 2.628906 0 Z "/>
</g>
<g id="glyph-0-1">
</g>
<g id="glyph-0-2">
<path d="M 0.324219 -3.097656 L 0.324219 -4.078125 L 4.214844 -4.078125 L 4.214844 -3.097656 L 0.324219 -3.097656 M 0.324219 -1.414062 L 0.324219 -2.394531 L 4.214844 -2.394531 L 4.214844 -1.414062 Z "/>
</g>
<g id="glyph-0-3">
<path d="M 2.328125 1.636719 L 1.59375 1.636719 C 1.207031 1.050781 0.914062 0.445312 0.710938 -0.1875 C 0.507812 -0.816406 0.40625 -1.425781 0.40625 -2.015625 C 0.40625 -2.75 0.53125 -3.441406 0.78125 -4.09375 C 1 -4.660156 1.277344 -5.183594 1.609375 -5.664062 L 2.339844 -5.664062 C 1.992188 -4.894531 1.753906 -4.242188 1.625 -3.703125 C 1.492188 -3.167969 1.429688 -2.597656 1.429688 -1.992188 C 1.429688 -1.578125 1.464844 -1.152344 1.542969 -0.71875 C 1.621094 -0.28125 1.726562 0.132812 1.859375 0.523438 C 1.949219 0.78125 2.105469 1.152344 2.328125 1.636719 Z "/>
</g>
<g id="glyph-0-4">
<path d="M 1.355469 -2.800781 L 0.386719 -2.976562 C 0.496094 -3.367188 0.683594 -3.65625 0.949219 -3.84375 C 1.214844 -4.03125 1.609375 -4.125 2.132812 -4.125 C 2.609375 -4.125 2.964844 -4.066406 3.199219 -3.957031 C 3.429688 -3.84375 3.59375 -3.699219 3.6875 -3.527344 C 3.785156 -3.351562 3.832031 -3.035156 3.832031 -2.570312 L 3.820312 -1.324219 C 3.820312 -0.972656 3.835938 -0.710938 3.871094 -0.542969 C 3.90625 -0.371094 3.96875 -0.191406 4.0625 0 L 3.007812 0 C 2.980469 -0.0703125 2.945312 -0.175781 2.90625 -0.316406 C 2.886719 -0.378906 2.875 -0.421875 2.867188 -0.441406 C 2.683594 -0.261719 2.488281 -0.128906 2.28125 -0.0429688 C 2.074219 0.046875 1.851562 0.0898438 1.617188 0.0898438 C 1.203125 0.0898438 0.875 -0.0234375 0.636719 -0.246094 C 0.398438 -0.472656 0.277344 -0.757812 0.277344 -1.101562 C 0.277344 -1.328125 0.332031 -1.53125 0.441406 -1.710938 C 0.550781 -1.890625 0.703125 -2.027344 0.898438 -2.121094 C 1.09375 -2.214844 1.378906 -2.296875 1.746094 -2.371094 C 2.246094 -2.464844 2.589844 -2.550781 2.785156 -2.632812 L 2.785156 -2.738281 C 2.785156 -2.941406 2.734375 -3.089844 2.632812 -3.175781 C 2.53125 -3.265625 2.339844 -3.308594 2.058594 -3.308594 C 1.867188 -3.308594 1.71875 -3.269531 1.613281 -3.195312 C 1.507812 -3.121094 1.421875 -2.988281 1.355469 -2.800781 M 2.785156 -1.9375 C 2.648438 -1.890625 2.429688 -1.835938 2.132812 -1.773438 C 1.839844 -1.710938 1.644531 -1.648438 1.554688 -1.585938 C 1.414062 -1.488281 1.34375 -1.363281 1.34375 -1.210938 C 1.34375 -1.0625 1.398438 -0.933594 1.511719 -0.824219 C 1.621094 -0.714844 1.765625 -0.660156 1.9375 -0.660156 C 2.128906 -0.660156 2.3125 -0.722656 2.488281 -0.851562 C 2.617188 -0.945312 2.703125 -1.066406 2.742188 -1.203125 C 2.769531 -1.296875 2.785156 -1.46875 2.785156 -1.722656 Z "/>
</g>
<g id="glyph-0-5">
<path d="M 0.53125 -1.066406 L 1.597656 -1.066406 L 1.597656 -0.304688 C 1.597656 0.00390625 1.570312 0.25 1.519531 0.425781 C 1.464844 0.605469 1.363281 0.765625 1.21875 0.90625 C 1.070312 1.050781 0.882812 1.160156 0.652344 1.242188 L 0.445312 0.800781 C 0.660156 0.730469 0.8125 0.632812 0.902344 0.507812 C 0.996094 0.386719 1.042969 0.214844 1.046875 0 L 0.53125 0 Z "/>
</g>
<g id="glyph-0-6">
<path d="M 0.511719 0 L 0.511719 -5.566406 L 1.578125 -5.566406 L 1.578125 -3.5625 C 1.910156 -3.9375 2.296875 -4.125 2.75 -4.125 C 3.242188 -4.125 3.648438 -3.945312 3.96875 -3.589844 C 4.289062 -3.234375 4.449219 -2.722656 4.449219 -2.058594 C 4.449219 -1.371094 4.285156 -0.839844 3.957031 -0.46875 C 3.632812 -0.09375 3.234375 0.0898438 2.765625 0.0898438 C 2.535156 0.0898438 2.308594 0.0351562 2.082031 -0.0820312 C 1.859375 -0.195312 1.664062 -0.367188 1.503906 -0.59375 L 1.503906 0 L 0.511719 0 M 1.570312 -2.105469 C 1.570312 -1.6875 1.636719 -1.378906 1.769531 -1.175781 C 1.953125 -0.894531 2.199219 -0.75 2.507812 -0.75 C 2.742188 -0.75 2.941406 -0.851562 3.109375 -1.054688 C 3.273438 -1.253906 3.355469 -1.570312 3.355469 -2.003906 C 3.355469 -2.464844 3.273438 -2.796875 3.105469 -3 C 2.9375 -3.207031 2.726562 -3.308594 2.464844 -3.308594 C 2.207031 -3.308594 1.996094 -3.207031 1.828125 -3.007812 C 1.65625 -2.8125 1.570312 -2.507812 1.570312 -2.105469 Z "/>
</g>
<g id="glyph-0-7">
<path d="M 0.261719 1.636719 C 0.472656 1.1875 0.621094 0.839844 0.707031 0.601562 C 0.792969 0.359375 0.871094 0.0820312 0.945312 -0.230469 C 1.019531 -0.546875 1.074219 -0.84375 1.109375 -1.125 C 1.144531 -1.410156 1.160156 -1.699219 1.160156 -1.992188 C 1.160156 -2.597656 1.097656 -3.167969 0.96875 -3.703125 C 0.839844 -4.242188 0.601562 -4.894531 0.253906 -5.664062 L 0.980469 -5.664062 C 1.363281 -5.117188 1.660156 -4.539062 1.871094 -3.929688 C 2.082031 -3.320312 2.1875 -2.703125 2.1875 -2.074219 C 2.1875 -1.542969 2.105469 -0.976562 1.9375 -0.371094 C 1.746094 0.304688 1.433594 0.976562 1 1.636719 Z "/>
</g>
<g id="glyph-0-8">
<path d="M 4.226562 0 L 3.160156 0 L 3.160156 -2.058594 C 3.160156 -2.492188 3.136719 -2.773438 3.089844 -2.902344 C 3.046875 -3.03125 2.972656 -3.128906 2.867188 -3.203125 C 2.765625 -3.273438 2.644531 -3.308594 2.5 -3.308594 C 2.3125 -3.308594 2.148438 -3.257812 2 -3.15625 C 1.855469 -3.054688 1.753906 -2.921875 1.699219 -2.753906 C 1.644531 -2.585938 1.617188 -2.277344 1.617188 -1.828125 L 1.617188 0 L 0.550781 0 L 0.550781 -4.03125 L 1.542969 -4.03125 L 1.542969 -3.441406 C 1.894531 -3.894531 2.335938 -4.125 2.871094 -4.125 C 3.105469 -4.125 3.320312 -4.082031 3.515625 -3.996094 C 3.710938 -3.910156 3.859375 -3.804688 3.957031 -3.671875 C 4.058594 -3.539062 4.128906 -3.390625 4.167969 -3.222656 C 4.207031 -3.058594 4.226562 -2.816406 4.226562 -2.507812 Z "/>
</g>
<g id="glyph-0-9">
<path d="M 0.460938 0.265625 L 1.679688 0.414062 C 1.699219 0.554688 1.746094 0.652344 1.820312 0.707031 C 1.921875 0.78125 2.078125 0.820312 2.296875 0.820312 C 2.574219 0.820312 2.785156 0.777344 2.925781 0.695312 C 3.019531 0.640625 3.089844 0.550781 3.136719 0.425781 C 3.167969 0.335938 3.1875 0.171875 3.1875 -0.0664062 L 3.1875 -0.652344 C 2.867188 -0.21875 2.464844 0 1.976562 0 C 1.4375 0 1.007812 -0.230469 0.691406 -0.6875 C 0.441406 -1.050781 0.320312 -1.5 0.320312 -2.039062 C 0.320312 -2.714844 0.480469 -3.230469 0.808594 -3.589844 C 1.132812 -3.945312 1.535156 -4.125 2.019531 -4.125 C 2.519531 -4.125 2.929688 -3.90625 3.253906 -3.46875 L 3.253906 -4.03125 L 4.253906 -4.03125 L 4.253906 -0.414062 C 4.253906 0.0625 4.214844 0.417969 4.136719 0.652344 C 4.058594 0.886719 3.945312 1.074219 3.804688 1.207031 C 3.664062 1.339844 3.472656 1.445312 3.238281 1.523438 C 3 1.597656 2.703125 1.636719 2.339844 1.636719 C 1.65625 1.636719 1.171875 1.519531 0.886719 1.285156 C 0.597656 1.050781 0.457031 0.753906 0.457031 0.394531 C 0.457031 0.359375 0.457031 0.316406 0.460938 0.265625 M 1.414062 -2.101562 C 1.414062 -1.671875 1.496094 -1.359375 1.660156 -1.160156 C 1.828125 -0.960938 2.03125 -0.863281 2.273438 -0.863281 C 2.535156 -0.863281 2.753906 -0.964844 2.933594 -1.167969 C 3.117188 -1.371094 3.207031 -1.671875 3.207031 -2.074219 C 3.207031 -2.492188 3.117188 -2.800781 2.945312 -3.003906 C 2.773438 -3.207031 2.558594 -3.308594 2.292969 -3.308594 C 2.039062 -3.308594 1.828125 -3.207031 1.660156 -3.007812 C 1.496094 -2.8125 1.414062 -2.507812 1.414062 -2.101562 Z "/>
</g>
<g id="glyph-0-10">
<path d="M 1.621094 -5.566406 L 1.621094 -3.519531 C 1.964844 -3.921875 2.378906 -4.125 2.855469 -4.125 C 3.101562 -4.125 3.324219 -4.078125 3.519531 -3.988281 C 3.71875 -3.894531 3.867188 -3.78125 3.964844 -3.636719 C 4.066406 -3.496094 4.136719 -3.339844 4.171875 -3.167969 C 4.207031 -2.996094 4.226562 -2.726562 4.226562 -2.367188 L 4.226562 0 L 3.160156 0 L 3.160156 -2.128906 C 3.160156 -2.554688 3.140625 -2.820312 3.097656 -2.933594 C 3.058594 -3.050781 2.988281 -3.140625 2.882812 -3.207031 C 2.78125 -3.273438 2.652344 -3.308594 2.5 -3.308594 C 2.320312 -3.308594 2.164062 -3.265625 2.023438 -3.179688 C 1.886719 -3.09375 1.78125 -2.960938 1.71875 -2.789062 C 1.652344 -2.617188 1.621094 -2.359375 1.621094 -2.019531 L 1.621094 0 L 0.554688 0 L 0.554688 -5.566406 Z "/>
</g>
<g id="glyph-0-11">
<path d="M 0.558594 0 L 0.558594 -4.03125 L 1.625 -4.03125 L 1.625 0 L 0.558594 0 M 0.226562 -4.574219 L -0.257812 -4.574219 C -0.261719 -4.632812 -0.261719 -4.679688 -0.261719 -4.710938 C -0.261719 -4.980469 -0.199219 -5.183594 -0.0664062 -5.324219 C 0.0625 -5.46875 0.226562 -5.539062 0.429688 -5.539062 C 0.519531 -5.539062 0.601562 -5.53125 0.675781 -5.511719 C 0.75 -5.492188 0.890625 -5.4375 1.089844 -5.347656 C 1.292969 -5.257812 1.449219 -5.214844 1.566406 -5.214844 C 1.644531 -5.214844 1.714844 -5.238281 1.769531 -5.289062 C 1.820312 -5.339844 1.855469 -5.425781 1.871094 -5.542969 L 2.367188 -5.542969 C 2.363281 -5.203125 2.300781 -4.957031 2.175781 -4.8125 C 2.046875 -4.664062 1.886719 -4.589844 1.691406 -4.589844 C 1.605469 -4.589844 1.519531 -4.601562 1.433594 -4.617188 C 1.378906 -4.632812 1.230469 -4.683594 1 -4.773438 C 0.765625 -4.863281 0.597656 -4.90625 0.488281 -4.90625 C 0.410156 -4.90625 0.34375 -4.882812 0.300781 -4.832031 C 0.253906 -4.78125 0.230469 -4.699219 0.226562 -4.574219 Z "/>
</g>
<g id="glyph-0-12">
<path d="M 0.558594 0 L 0.558594 -5.566406 L 1.625 -5.566406 L 1.625 0 Z "/>
</g>
<g id="glyph-0-13">
<path d="M 1.355469 -2.800781 L 0.386719 -2.976562 C 0.496094 -3.367188 0.683594 -3.65625 0.949219 -3.84375 C 1.214844 -4.03125 1.609375 -4.125 2.132812 -4.125 C 2.609375 -4.125 2.964844 -4.066406 3.199219 -3.957031 C 3.429688 -3.84375 3.59375 -3.699219 3.6875 -3.527344 C 3.785156 -3.351562 3.832031 -3.035156 3.832031 -2.570312 L 3.820312 -1.324219 C 3.820312 -0.972656 3.835938 -0.710938 3.871094 -0.542969 C 3.90625 -0.371094 3.96875 -0.191406 4.0625 0 L 3.007812 0 C 2.980469 -0.0703125 2.945312 -0.175781 2.90625 -0.316406 C 2.886719 -0.378906 2.875 -0.421875 2.867188 -0.441406 C 2.683594 -0.261719 2.488281 -0.128906 2.28125 -0.0429688 C 2.074219 0.046875 1.851562 0.0898438 1.617188 0.0898438 C 1.203125 0.0898438 0.875 -0.0234375 0.636719 -0.246094 C 0.398438 -0.472656 0.277344 -0.757812 0.277344 -1.101562 C 0.277344 -1.328125 0.332031 -1.53125 0.441406 -1.710938 C 0.550781 -1.890625 0.703125 -2.027344 0.898438 -2.121094 C 1.09375 -2.214844 1.378906 -2.296875 1.746094 -2.371094 C 2.246094 -2.464844 2.589844 -2.550781 2.785156 -2.632812 L 2.785156 -2.738281 C 2.785156 -2.941406 2.734375 -3.089844 2.632812 -3.175781 C 2.53125 -3.265625 2.339844 -3.308594 2.058594 -3.308594 C 1.867188 -3.308594 1.71875 -3.269531 1.613281 -3.195312 C 1.507812 -3.121094 1.421875 -2.988281 1.355469 -2.800781 M 2.785156 -1.9375 C 2.648438 -1.890625 2.429688 -1.835938 2.132812 -1.773438 C 1.839844 -1.710938 1.644531 -1.648438 1.554688 -1.585938 C 1.414062 -1.488281 1.34375 -1.363281 1.34375 -1.210938 C 1.34375 -1.0625 1.398438 -0.933594 1.511719 -0.824219 C 1.621094 -0.714844 1.765625 -0.660156 1.9375 -0.660156 C 2.128906 -0.660156 2.3125 -0.722656 2.488281 -0.851562 C 2.617188 -0.945312 2.703125 -1.066406 2.742188 -1.203125 C 2.769531 -1.296875 2.785156 -1.46875 2.785156 -1.722656 L 2.785156 -1.9375 M 2.707031 -4.527344 L 2.035156 -4.527344 L 0.988281 -5.664062 L 2.183594 -5.664062 Z "/>
</g>
<g id="glyph-0-14">
<path d="M 3.191406 -4.460938 L 2.039062 -4.460938 L 2.039062 -5.171875 L 3.191406 -5.171875 L 3.191406 -5.566406 L 4.257812 -5.566406 L 4.257812 -5.171875 L 4.679688 -5.171875 L 4.679688 -4.460938 L 4.257812 -4.460938 L 4.257812 0 L 3.265625 0 L 3.265625 -0.59375 C 3.101562 -0.363281 2.90625 -0.191406 2.683594 -0.078125 C 2.457031 0.0351562 2.234375 0.0898438 2.003906 0.0898438 C 1.542969 0.0898438 1.144531 -0.09375 0.816406 -0.46875 C 0.484375 -0.84375 0.320312 -1.363281 0.320312 -2.03125 C 0.320312 -2.714844 0.480469 -3.234375 0.800781 -3.589844 C 1.121094 -3.945312 1.527344 -4.125 2.019531 -4.125 C 2.472656 -4.125 2.859375 -3.9375 3.191406 -3.5625 L 3.191406 -4.460938 M 1.410156 -2.105469 C 1.410156 -1.671875 1.46875 -1.363281 1.585938 -1.167969 C 1.757812 -0.890625 2 -0.75 2.308594 -0.75 C 2.554688 -0.75 2.761719 -0.855469 2.933594 -1.066406 C 3.109375 -1.273438 3.195312 -1.585938 3.195312 -2 C 3.195312 -2.464844 3.109375 -2.796875 2.941406 -3 C 2.777344 -3.207031 2.5625 -3.308594 2.300781 -3.308594 C 2.046875 -3.308594 1.835938 -3.207031 1.664062 -3.003906 C 1.496094 -2.804688 1.410156 -2.503906 1.410156 -2.105469 Z "/>
</g>
<g id="glyph-0-15">
<path d="M 0.558594 -4.578125 L 0.558594 -5.566406 L 1.625 -5.566406 L 1.625 -4.578125 L 0.558594 -4.578125 M 0.558594 0 L 0.558594 -4.03125 L 1.625 -4.03125 L 1.625 0 Z "/>
</g>
<g id="glyph-0-16">
<path d="M 2.40625 -4.03125 L 2.40625 -3.183594 L 1.679688 -3.183594 L 1.679688 -1.558594 C 1.679688 -1.226562 1.683594 -1.035156 1.699219 -0.980469 C 1.714844 -0.925781 1.746094 -0.882812 1.792969 -0.847656 C 1.84375 -0.8125 1.902344 -0.792969 1.976562 -0.792969 C 2.074219 -0.792969 2.214844 -0.828125 2.402344 -0.894531 L 2.496094 -0.0664062 C 2.246094 0.0390625 1.964844 0.0898438 1.652344 0.0898438 C 1.460938 0.0898438 1.285156 0.0585938 1.132812 -0.00390625 C 0.976562 -0.0703125 0.863281 -0.152344 0.792969 -0.257812 C 0.71875 -0.359375 0.667969 -0.496094 0.640625 -0.671875 C 0.617188 -0.796875 0.609375 -1.046875 0.609375 -1.425781 L 0.609375 -3.183594 L 0.117188 -3.183594 L 0.117188 -4.03125 L 0.609375 -4.03125 L 0.609375 -4.835938 L 1.679688 -5.457031 L 1.679688 -4.03125 Z "/>
</g>
<g id="glyph-0-17">
<path d="M 2.894531 -1.285156 L 3.957031 -1.105469 C 3.820312 -0.714844 3.605469 -0.417969 3.308594 -0.214844 C 3.015625 -0.0117188 2.644531 0.0898438 2.203125 0.0898438 C 1.5 0.0898438 0.980469 -0.136719 0.644531 -0.597656 C 0.378906 -0.964844 0.246094 -1.425781 0.246094 -1.984375 C 0.246094 -2.65625 0.421875 -3.179688 0.769531 -3.554688 C 1.121094 -3.933594 1.5625 -4.125 2.097656 -4.125 C 2.695312 -4.125 3.167969 -3.925781 3.515625 -3.53125 C 3.863281 -3.132812 4.027344 -2.527344 4.015625 -1.707031 L 1.339844 -1.707031 C 1.347656 -1.390625 1.433594 -1.144531 1.597656 -0.96875 C 1.761719 -0.792969 1.96875 -0.707031 2.214844 -0.707031 C 2.382812 -0.707031 2.523438 -0.75 2.636719 -0.84375 C 2.75 -0.933594 2.835938 -1.082031 2.894531 -1.285156 M 2.953125 -2.363281 C 2.945312 -2.671875 2.867188 -2.90625 2.714844 -3.066406 C 2.5625 -3.226562 2.378906 -3.308594 2.160156 -3.308594 C 1.929688 -3.308594 1.734375 -3.222656 1.582031 -3.054688 C 1.433594 -2.882812 1.355469 -2.652344 1.359375 -2.363281 Z "/>
</g>
<g id="glyph-0-18">
<path d="M 0.3125 -2.074219 C 0.3125 -2.429688 0.398438 -2.769531 0.574219 -3.101562 C 0.75 -3.433594 0.996094 -3.6875 1.316406 -3.863281 C 1.636719 -4.035156 1.992188 -4.125 2.386719 -4.125 C 3 -4.125 3.5 -3.925781 3.890625 -3.53125 C 4.277344 -3.132812 4.472656 -2.632812 4.472656 -2.027344 C 4.472656 -1.417969 4.277344 -0.910156 3.882812 -0.511719 C 3.488281 -0.109375 2.992188 0.0898438 2.394531 0.0898438 C 2.027344 0.0898438 1.675781 0.0078125 1.339844 -0.160156 C 1.003906 -0.328125 0.75 -0.570312 0.574219 -0.894531 C 0.398438 -1.21875 0.3125 -1.609375 0.3125 -2.074219 M 1.40625 -2.015625 C 1.40625 -1.617188 1.5 -1.308594 1.691406 -1.097656 C 1.878906 -0.886719 2.113281 -0.777344 2.390625 -0.777344 C 2.671875 -0.777344 2.90625 -0.886719 3.09375 -1.097656 C 3.28125 -1.308594 3.375 -1.617188 3.375 -2.023438 C 3.375 -2.417969 3.28125 -2.722656 3.09375 -2.933594 C 2.90625 -3.148438 2.671875 -3.253906 2.390625 -3.253906 C 2.113281 -3.253906 1.878906 -3.148438 1.691406 -2.933594 C 1.5 -2.722656 1.40625 -2.417969 1.40625 -2.015625 Z "/>
</g>
<g id="glyph-0-19">
<path d="M 0.046875 0 L 1.5 -2.078125 L 0.105469 -4.03125 L 1.410156 -4.03125 L 2.121094 -2.925781 L 2.875 -4.03125 L 4.128906 -4.03125 L 2.761719 -2.121094 L 4.253906 0 L 2.941406 0 L 2.121094 -1.25 L 1.296875 0 Z "/>
</g>
<g id="glyph-0-20">
<path d="M 0.0546875 -4.03125 L 1.1875 -4.03125 L 2.152344 -1.167969 L 3.09375 -4.03125 L 4.199219 -4.03125 L 2.777344 -0.152344 L 2.523438 0.550781 C 2.429688 0.785156 2.339844 0.964844 2.253906 1.089844 C 2.167969 1.214844 2.070312 1.316406 1.960938 1.390625 C 1.851562 1.46875 1.714844 1.527344 1.554688 1.570312 C 1.394531 1.613281 1.210938 1.636719 1.011719 1.636719 C 0.804688 1.636719 0.605469 1.613281 0.40625 1.570312 L 0.3125 0.738281 C 0.476562 0.769531 0.628906 0.785156 0.761719 0.785156 C 1.011719 0.785156 1.195312 0.714844 1.3125 0.566406 C 1.433594 0.421875 1.523438 0.238281 1.585938 0.0117188 Z "/>
</g>
</g>
</defs>
<g fill="rgb(86.27451%, 98.823529%, 90.588235%)" fill-opacity="1">
<use xlink:href="#glyph-0-0" x="30" y="27.041016"/>
<use xlink:href="#glyph-0-1" x="34" y="27.041016"/>
<use xlink:href="#glyph-0-2" x="36" y="27.041016"/>
<use xlink:href="#glyph-0-1" x="41" y="27.041016"/>
<use xlink:href="#glyph-0-3" x="43" y="27.041016"/>
<use xlink:href="#glyph-0-4" x="46" y="27.041016"/>
<use xlink:href="#glyph-0-5" x="50" y="27.041016"/>
<use xlink:href="#glyph-0-6" x="52" y="27.041016"/>
<use xlink:href="#glyph-0-7" x="57" y="27.041016"/>
<use xlink:href="#glyph-0-1" x="60" y="27.041016"/>
<use xlink:href="#glyph-0-8" x="62" y="27.041016"/>
<use xlink:href="#glyph-0-9" x="67" y="27.041016"/>
<use xlink:href="#glyph-0-10" x="72" y="27.041016"/>
<use xlink:href="#glyph-0-11" x="77" y="27.041016"/>
<use xlink:href="#glyph-0-4" x="79" y="27.041016"/>
<use xlink:href="#glyph-0-1" x="83" y="27.041016"/>
<use xlink:href="#glyph-0-12" x="85" y="27.041016"/>
<use xlink:href="#glyph-0-13" x="87" y="27.041016"/>
<use xlink:href="#glyph-0-1" x="91" y="27.041016"/>
<use xlink:href="#glyph-0-14" x="93" y="27.041016"/>
<use xlink:href="#glyph-0-15" x="98" y="27.041016"/>
<use xlink:href="#glyph-0-1" x="100" y="27.041016"/>
<use xlink:href="#glyph-0-4" x="102" y="27.041016"/>
<use xlink:href="#glyph-0-1" x="106" y="27.041016"/>
<use xlink:href="#glyph-0-16" x="108" y="27.041016"/>
<use xlink:href="#glyph-0-10" x="111" y="27.041016"/>
<use xlink:href="#glyph-0-17" x="116" y="27.041016"/>
<use xlink:href="#glyph-0-18" x="120" y="27.041016"/>
<use xlink:href="#glyph-0-1" x="125" y="27.041016"/>
<use xlink:href="#glyph-0-19" x="127" y="27.041016"/>
<use xlink:href="#glyph-0-5" x="131" y="27.041016"/>
<use xlink:href="#glyph-0-1" x="133" y="27.041016"/>
<use xlink:href="#glyph-0-6" x="135" y="27.041016"/>
<use xlink:href="#glyph-0-1" x="140" y="27.041016"/>
<use xlink:href="#glyph-0-16" x="142" y="27.041016"/>
<use xlink:href="#glyph-0-10" x="145" y="27.041016"/>
<use xlink:href="#glyph-0-17" x="150" y="27.041016"/>
<use xlink:href="#glyph-0-18" x="154" y="27.041016"/>
<use xlink:href="#glyph-0-1" x="159" y="27.041016"/>
<use xlink:href="#glyph-0-20" x="161" y="27.041016"/>
</g>
</svg>
